<?xml-stylesheet type="text/css" href="/css/style.css"?><svg id="color-logo" xmlns="http://www.w3.org/2000/svg" viewBox="0 0 443.2 107.5"><style> .tagline{fill: $black;} @media screen and (max-width: 160px) {.tagline{fill:none;}}</style><path class="nrc" d="M237.8.5c7.2 0 15.5.8 22 3.2v7.7c-5.8-1.7-11.7-3-22.2-3-18.6 0-20.7 12.7-20.7 25.5 0 12.7 2.1 25.5 20.7 25.5 10.5 0 16.4-1.3 22.2-3v7.7c-6.5 2.4-14.8 3.2-22 3.2-25 0-31.2-14.9-31.2-33.4S212.8.5 237.8.5M45.3 65.1L10.1 17.3l.2 47.8H0V.1h8.4L43.5 48 43.3.1h10.3v65h-8.3z"/><path class="tagline" d="M73.6 92.6c-1.6 1.4-3.2 4.8-3.2 6.6 0 .3.2.5.4.5.3 0 1-.3 2.5-1.7 1.9-1.8 3-4 3.4-5.5-.2-.5-.6-.9-1.3-.9-.7 0-1.1.3-1.8 1m4.4-2.9c.4-.2 1.1.1 1.3.4-.4.9-2.6 6.6-3.4 8.9-.2.4 0 .6.2.6.4 0 1.2-.4 2.6-1.7.2 0 .4.1.4.3-1.1 1.4-2.9 2.9-4.3 2.9-.6 0-.7-.5-.7-.7s.1-.4.3-1l.8-2.3-.2-.1c-1.8 2.2-4.4 4-5.6 4-.7 0-1.1-.7-1.1-1.4 0-.6.6-2.6 2.2-5 1.2-1.7 2.3-2.7 3.4-3.3 1-.6 1.6-.7 2.3-.7.3 0 .5.1.6.1.1.1.4.3.5.5l.7-1.5zm7.1 2.2l-2.3 6.7c-.2.5 0 .6.2.6.4 0 2.1-1.3 2.9-2.3.3 0 .4.2.4.5-1.4 2.1-3.8 3.7-4.9 3.7-.4 0-.7-.4-.7-.7 0-.3.1-.7.4-1.5l2.4-7h-2c-.1-.3 0-.6.3-.7l2-.4 1.4-2.5c.3-.2.8-.1 1 .2l-.7 2.5h2.8c.2.3 0 .8-.3.9h-2.9zm14.1 0l-2.3 6.7c-.2.5 0 .6.2.6.4 0 2.1-1.3 2.9-2.3.3 0 .4.2.4.5-1.4 2.1-3.8 3.7-4.9 3.7-.4 0-.7-.4-.7-.7 0-.3.1-.7.4-1.5l2.4-7h-2c-.1-.3 0-.6.3-.7l2-.4 1.4-2.5c.3-.2.8-.1 1 .2l-.7 2.5h2.8c.2.3 0 .8-.3.9h-2.9zm7.3-5.9c.6-1.7.7-2 .3-2.3l-.5-.4c0-.1 0-.2.1-.3.4-.2 2.1-.5 3-.6l.1.2c-.5 1.4-1.3 3.7-1.8 5.2l-2.6 7.7.1.1c1.8-2.5 3.1-3.5 4-4.2s1.7-1 2.4-1c1.1 0 1.5.8 1.5 1.7 0 1.8-1.1 4.3-2 6-.5.9-1 1.4-1.7 2.1-.8.8-1.5 1-1.9 1-.8 0-.9-.5-.9-.7 0-.4.4-.8.7-.8.1 0 .2.1.4.2.2.2.5.3.7.3.4 0 .6-.4 1-1.3.7-1.7 1.8-5.2 1.8-6.6 0-.5-.2-.8-.5-.8-.4 0-.9.3-1.4.7-1.1.8-1.9 1.7-3.2 3.4-1.1 1.5-2.4 4-3.1 5.3-.1.2-.2.3-.5.3s-1-.1-.7-.7l4.7-14.5zm12.2 6.3c-1 1.1-1.6 2.2-1.9 3 1.7-.5 2.5-1 3.4-1.9.8-.7 1-1.5 1-1.7 0-.3-.1-.6-.6-.6-.3 0-1 .2-1.9 1.2m4.1-.5c0 1.9-2.5 3.2-6.2 4.2-.2.4-.4 1.2-.4 2.3 0 .9.5 1.5 1.2 1.5.9 0 1.6-.5 2.7-1.5.2 0 .4.2.3.4-1.6 1.9-3 2.3-4.1 2.3-1.5 0-2.1-1.4-2.1-2.7 0-1.6 1-4.7 3.8-6.9 1.3-1 2.3-1.2 3.1-1.2 1.1.1 1.7.9 1.7 1.6m20.4-1.5c0-1.6-.1-4.5-.5-5.3-.2-.3-.6-.5-1.3-.5h-.6c-.2-.2-.1-.5.1-.6 1 .1 1.9.1 2.9.1 1.1 0 1.8 0 2.7-.1.2.1.2.5 0 .6h-.6c-.6.1-1.1.3-1.3.6-.4.8-.4 3.8-.4 5.2v2.9c0 2.2-.4 4.6-1.8 6.1-1.1 1.2-3 1.9-4.9 1.9-1.8 0-3.5-.3-4.8-1.4s-2-3-2-6v-6c0-2.7-.1-3.1-1.5-3.2h-.6c-.2-.1-.1-.5.1-.6 1.3.1 2.1.1 3.2.1 1 0 1.9 0 3.1-.1.2.1.2.5.1.6h-.6c-1.5.1-1.5.6-1.5 3.2v5.5c0 4.1 1.3 6.8 5.2 6.8 3.7 0 5.1-2.9 5.1-6.8l-.1-3zm21.9 6c0 .8 0 3.8.1 4.5-.1.2-.2.3-.5.3-.3-.4-1-1.3-3.3-3.8l-5.9-6.7c-.7-.8-2.4-2.9-3-3.4h-.1c-.1.3-.1.9-.1 1.7v5.6c0 1.2.1 4.5.5 5.3.2.3.7.4 1.3.5l.8.1c.2.2.1.5 0 .6-1.1 0-2-.1-3-.1-1.1 0-1.8 0-2.7.1-.2-.1-.2-.5 0-.6l.7-.1c.6 0 1-.2 1.1-.5.4-.9.3-4 .3-5.2v-7.4c0-.7 0-1.2-.6-1.8-.4-.4-1-.5-1.6-.6h-.4c-.1-.2-.1-.5.1-.6 1.1.1 2.4.1 2.9.1.4 0 .8 0 1.2-.1.5 1.3 3.5 4.7 4.4 5.6l2.5 2.8c1.7 2 3 3.4 4.2 4.6.1-.1.1-.5.1-1.1v-5.5c0-1.2 0-4.5-.5-5.3-.2-.2-.6-.4-1.6-.5h-.4c-.2-.2-.2-.6.1-.6 1.2.1 2 .1 3 .1 1.1 0 1.8 0 2.6-.1.2.1.2.5.1.6h-.4c-.8.1-1.3.3-1.4.5-.4.9-.4 4.1-.4 5.2v5.8h-.1zm7.5-8.6c0-2.7-.1-3.1-1.6-3.3h-.6c-.2-.1-.1-.6.1-.6 1.3.1 2.1.1 3.2.1 1 0 1.9 0 3.2-.1.2.1.2.5.1.6h-.6c-1.5.1-1.6.6-1.6 3.3v9.1c0 2.7.1 3.1 1.6 3.2l.6.1c.2.1.1.6-.1.6-1.3 0-2.1-.1-3.2-.1s-1.9 0-3.2.1c-.2-.1-.2-.5-.1-.6l.6-.1c1.5-.2 1.6-.5 1.6-3.2v-9.1zm9.2-1.1c-.6-1.4-1-2-2.1-2.1h-.5c-.2-.2-.2-.5.1-.6.7.1 1.6.1 2.7.1s2 0 3.1-.1c.2.1.2.5.1.6h-.4c-1 .1-1.2.3-1.2.5 0 .3.5 1.6 1.3 3.6 1.2 3 2.3 5.9 3.6 8.8.8-1.7 1.9-4.3 2.4-5.7.8-1.7 1.9-4.6 2.4-5.7.2-.5.2-.8.2-1s-.3-.4-1.1-.5h-.5c-.2-.2-.1-.5 0-.6.7.1 1.7.1 2.7.1.8 0 1.6 0 2.5-.1.2.1.2.5.1.6h-.8c-.6.1-1 .4-1.3.9-.7 1.2-1.7 3.3-2.9 5.9l-1.4 3.1c-1 2.3-2.2 5.3-2.7 6.7-.1 0-.2.1-.3.1s-.3 0-.4-.1c-.3-1.1-.7-2.3-1.2-3.4l-4.4-11.1zm19.2 1.1c0-2.7 0-3-1.6-3.2h-.4c-.2-.1-.1-.6 0-.6 1.1.1 2 .1 3 .1h4.8c1.6 0 3.1 0 3.4-.1.2.4.3 2.3.4 3.4-.1.2-.5.2-.6 0-.4-1.2-.6-2.1-1.9-2.4-.5-.1-1.4-.2-2.5-.2h-1.8c-.8 0-.8 0-.8 1v5.1c0 .7.1.7.8.7h1.5c1.1 0 1.9-.1 2.2-.2s.5-.3.6-.9l.2-1c.1-.2.6-.2.7 0 0 .6-.1 1.6-.1 2.6 0 .9.1 1.9.1 2.5-.1.2-.5.2-.7 0l-.2-1c-.1-.5-.3-.8-.8-1-.4-.1-1-.1-2-.1H204c-.8 0-.8 0-.8.7v3.6c0 1.4.1 2.2.5 2.7.3.3.8.6 3.1.6 2 0 2.7-.1 3.3-.4.5-.3 1.1-1.1 1.8-2.5.2-.1.5-.1.6.2-.2.9-.8 2.9-1.1 3.5-2.3 0-4.6-.1-6.8-.1h-2.3c-1.1 0-2 0-3.5.1-.1-.1-.2-.5 0-.6l.8-.1c1.5-.1 1.6-.5 1.6-3.2v-9.2h-.2zm18.3 3.7c0 .5 0 .7.1.8.1.1.5.1 1.8.1.9 0 1.9-.1 2.6-.7.7-.5 1.3-1.4 1.3-3.2 0-2-1.2-3.9-4.1-3.9-1.6 0-1.7.1-1.7.8v6.1zm-2.1-3.7c0-2.4-.1-2.9-1.1-3l-.8-.1c-.2-.1-.2-.5 0-.6 1.4-.1 3.2-.2 5.7-.2 1.6 0 3.1.1 4.3.8 1.2.6 2.1 1.8 2.1 3.6 0 2.4-1.9 3.7-3.2 4.3-.1.2 0 .4.1.6 2 3.3 3.4 5.3 5.1 6.8.4.4 1.1.7 1.8.7.1.1.1.3 0 .4-.2.1-.6.1-1.1.1-2.2 0-3.5-.6-5.3-3.2-.7-.9-1.7-2.7-2.5-3.9-.4-.6-.8-.8-1.8-.8-1.1 0-1.2 0-1.2.6V97c0 2.7.1 3 1.5 3.2l.5.1c.2.1.1.6-.1.6-1.1 0-2-.1-3-.1-1.1 0-2 0-3.2.1-.2-.1-.2-.5-.1-.6l.6-.1c1.5-.2 1.5-.5 1.5-3.2v-9.3h.2zm20.2 13.4c-2.1 0-3.5-.7-4-.9-.3-.6-.6-2.4-.7-3.6.1-.2.5-.2.6-.1.4 1.3 1.4 3.8 4.4 3.8 2.1 0 3.2-1.4 3.2-2.9 0-1.1-.2-2.4-2.1-3.6l-2.4-1.6c-1.3-.8-2.8-2.3-2.8-4.4 0-2.4 1.9-4.4 5.2-4.4.8 0 1.7.1 2.4.3.3.1.7.2.9.2.2.6.5 2 .5 3.1-.1.2-.5.2-.6.1-.3-1.2-1-2.9-3.5-2.9s-3 1.7-3 2.8c0 1.5 1.2 2.5 2.2 3.1l2 1.3c1.6 1 3.2 2.5 3.2 4.9-.1 2.9-2.2 4.8-5.5 4.8m11.3-13.4c0-2.7 0-3.1-1.6-3.3h-.6c-.2-.1-.1-.6 0-.6 1.3.1 2.1.1 3.2.1 1 0 1.9 0 3.2-.1.1.1.2.5 0 .6h-.6c-1.5.1-1.6.6-1.6 3.3v9.1c0 2.7.1 3.1 1.6 3.2l.6.1c.2.1.1.6 0 .6-1.3 0-2.1-.1-3.2-.1s-1.9 0-3.2.1c-.2-.1-.2-.5 0-.6l.6-.1c1.5-.2 1.6-.5 1.6-3.2v-9.1zm16 9.2c0 2.7.1 3 1.5 3.2l.8.1c.2.1.1.6-.1.6-1.5 0-2.3-.1-3.3-.1s-1.9 0-3.5.1c-.1-.1-.2-.5 0-.6l.9-.1c1.5-.1 1.6-.5 1.6-3.2V85.5c0-.8 0-.8-.8-.8h-1.4c-1.1 0-2.5 0-3.1.6s-.9 1.1-1.1 1.8c-.2.2-.6 0-.7-.2.4-1.2.8-2.8 1-3.8.1-.1.4-.1.5 0 .2.8 1 .8 2.2.8h10.3c1.4 0 1.6 0 2-.7.1-.1.4 0 .5.1-.3 1.1-.5 3.1-.4 3.9-.1.2-.5.2-.7 0-.1-.6-.3-1.6-.6-1.9-.6-.4-1.6-.6-3-.6h-1.8c-.8 0-.7 0-.7.9l-.1 11.3zm17.6-.1c0 2.7.2 3.1 1.5 3.2l1 .1c.1.2.1.6 0 .6-1.6 0-2.4-.1-3.5-.1s-2 0-3.3.1c-.1-.1-.2-.5 0-.6l.8-.1c1.5-.2 1.5-.5 1.5-3.2v-1.3c0-1.4-.1-1.7-.8-3.2l-3-5.9c-.9-1.7-1.3-1.8-2-1.9l-.7-.1c-.2-.2-.1-.5.1-.6.8.1 1.7.1 3 .1 1.2 0 2.1 0 2.7-.1.2.1.2.5.1.6h-.3c-.9.2-1.1.3-1.1.5 0 .3.7 1.7.8 2 .9 1.9 1.9 3.9 2.9 5.7.8-1.3 1.6-2.8 2.4-4.3.7-1.3 1.7-3.1 1.7-3.4 0-.2-.5-.3-1.1-.4h-.5c-.2-.2-.2-.5.1-.6.9.1 1.7.1 2.4.1.8 0 1.5 0 2.4-.1.2.1.2.5.1.6l-.7.1c-1.3.2-2.1 1.8-3.4 4l-1.6 2.8c-1.1 1.9-1.2 2.2-1.2 4.1v1.3h-.3zm13.8-4.5c-1.5 2-2.5 5-2.6 6.4 0 .9.3 1.6 1 1.6.6 0 1.2-.2 2-1.3 1.1-1.5 2.3-4.9 2.4-6.2 0-.8-.1-1.7-1-1.7-.4-.1-1.1.2-1.8 1.2m4.6 1.2c-.1 1.4-.8 3.8-2.7 5.8-1.6 1.6-3 1.8-3.6 1.8-1.6 0-2.7-1.2-2.6-3.4.1-1.6 1-4.1 2.8-5.7 1.3-1.3 2.5-1.7 3.5-1.7 1.9 0 2.7 1.3 2.6 3.2m6.2-1.9c-.2.4-.4 1.2-.6 2-.8 2.8-1.6 5.7-2.4 8.5-.7 2.3-1.5 3.7-2 4.2-.3.3-1.4 1.3-2.9 1.3-1.2 0-1.7-.9-1.7-1.3 0-.6.3-.8.5-.9.4-.3.5-.1.7.2.4.6 1 .9 1.5.9s1.1-.4 1.6-2.1c1.3-4.3 2.1-8.6 3.4-12.8h-2.1c-.3-.2-.2-.7.2-.9h2.2c.7-2.3 1.3-4.3 2.8-6.1 1.3-1.5 2.8-2.1 4.3-2.1 1.1 0 2.1.7 2.1 1.7 0 .8-.7 1.6-1.1 1.6-.2 0-.3-.2-.4-.4-.1-1.5-.9-2-1.6-2s-1.4.5-2 1.4c-1.2 1.7-1.7 3.8-2.4 5.9h3.2c.2.3.1.7-.3.9h-3zm14.6-6c1.9-1.5 4.2-2.2 6.9-2.2 1.4 0 3.3.3 4.5.6.3.1.5.1.7.1 0 .6.2 2.2.4 3.7-.1.2-.5.2-.7.1-.4-1.7-1.5-3.7-5.2-3.7-3.9 0-7.2 2.5-7.2 7.8 0 5.4 3.4 8.3 7.6 8.3 3.3 0 4.7-2.1 5.3-3.6.2-.1.6-.1.7.1-.2 1.3-.8 3-1.2 3.5l-.9.3c-.6.2-2.4.6-4 .6-2.3 0-4.5-.5-6.4-1.7-2-1.4-3.6-3.7-3.6-7-.1-3 1.1-5.4 3.1-6.9m21.3 6.8c-1.2 0-1.3 0-1.3.8v3.6c0 2.7.1 3 1.6 3.2l.7.1c.2.1.1.6-.1.6-1.4 0-2.2-.1-3.2-.1-1.1 0-2 .1-3 .1-.2-.1-.2-.5-.1-.6l.4-.1c1.4-.3 1.5-.5 1.5-3.2v-9.2c0-2.7-.2-3.1-1.5-3.2h-.7c-.2-.1-.1-.6 0-.6 1.2 0 2.1.1 3.2.1 1 0 1.9 0 3-.1.2.1.2.5.1.6h-.5c-1.5.2-1.5.5-1.5 3.2v2.9c0 .8 0 .8 1.3.8h7.3c1.2 0 1.3 0 1.3-.8v-2.9c0-2.7 0-3.1-1.6-3.2h-.5c-.2-.1-.1-.6.1-.6 1.2.1 2 .1 3.1.1 1 0 1.9 0 3-.1.1.1.2.5.1.6h-.5c-1.5.2-1.5.5-1.5 3.2v9.2c0 2.7.1 3 1.5 3.2l.6.1c.2.1.1.6-.1.6-1.2 0-2.1-.1-3.1-.1s-2 0-3.1.1c-.2-.1-.2-.5-.1-.6l.5-.1c1.6-.2 1.5-.5 1.6-3.2v-3.6c0-.8 0-.8-1.3-.8h-7.2zm18.5-4.7c0-2.7-.1-3.1-1.6-3.3h-.6c-.2-.1-.1-.6.1-.6 1.3.1 2.1.1 3.2.1 1 0 1.9 0 3.2-.1.2.1.2.5.1.6h-.6c-1.5.1-1.6.6-1.6 3.3v9.1c0 2.7.1 3.1 1.6 3.2l.6.1c.2.1.1.6-.1.6-1.3 0-2.1-.1-3.2-.1s-1.9 0-3.2.1c-.2-.1-.2-.5-.1-.6l.6-.1c1.5-.2 1.6-.5 1.6-3.2v-9.1zm10.9-2.1c1.9-1.5 4.2-2.2 6.9-2.2 1.4 0 3.3.3 4.5.6.3.1.5.1.7.1 0 .6.2 2.2.4 3.7-.1.2-.5.2-.7.1-.4-1.7-1.5-3.7-5.2-3.7-3.9 0-7.2 2.5-7.2 7.8 0 5.4 3.4 8.3 7.6 8.3 3.3 0 4.7-2.1 5.3-3.6.2-.1.6-.1.7.1-.2 1.3-.8 3-1.2 3.5l-.9.3c-.6.2-2.4.6-4 .6-2.3 0-4.5-.5-6.4-1.7-2-1.4-3.6-3.7-3.6-7-.1-3 1.2-5.4 3.1-6.9m20 6.9c-.2.6-.2.6.5.6h3.1c.7 0 .8-.1.6-.8l-1.4-4.2c-.2-.6-.4-1.3-.6-1.6h-.1c-.1.1-.3.7-.6 1.5l-1.5 4.5zm5.1 2.3c-.2-.6-.3-.6-1-.6h-3.9c-.6 0-.8.1-1 .6l-.9 2.7c-.4 1.1-.6 1.8-.6 2.1 0 .3.1.5.7.5l.8.1c.2.1.2.5-.1.6-.7 0-1.5 0-2.7-.1-.8 0-1.8.1-2.4.1-.2-.1-.2-.5-.1-.6l.8-.1c.6 0 1.2-.3 1.5-1.2.5-1.2 1.2-2.8 2.2-5.7l2.6-6.9c.4-.9.5-1.4.4-1.8.6-.2 1-.6 1.3-1 .2 0 .3 0 .4.2.3 1.1.7 2.3 1.1 3.4l3.5 10.2c.7 2.2 1.1 2.6 2.2 2.7l.7.1c.2.1.1.5 0 .6-1 0-1.9-.1-3.1-.1s-2.2.1-2.9.1c-.2-.1-.2-.5-.1-.6l.7-.1c.5 0 .9-.2.9-.5s-.1-.7-.3-1.3l-.7-3.4zm23 3.3c0 1 .2 1.6.6 1.8.1.1.1.2 0 .3-.3 0-.8.1-1.2.2-1.3.4-3.2.7-4.6.7-3 0-5.8-.8-7.8-2.8-1.5-1.5-2.3-3.5-2.3-5.8 0-2.2.7-4.4 2.3-6 1.7-1.8 4.2-3 8.1-3 1.5 0 2.8.3 3.2.4.5.1 1.3.3 1.6.2 0 .8.2 2.2.4 3.7-.1.2-.5.2-.7.1-.7-2.8-2.6-3.6-5.2-3.6-4.9 0-7.1 3.5-7.1 7.3 0 4.9 2.5 8.7 7.7 8.7 1.6 0 2.5-.3 2.8-.8.1-.2.3-.6.3-1.5v-1c0-2.1-.1-2.3-1.7-2.5l-1.1-.1c-.2-.1-.2-.6 0-.6.7.1 2.1.1 3.6.1 1 0 1.9 0 2.7-.1.2.1.2.5 0 .6l-.4.1c-1.1.1-1.1.8-1.1 2.1l-.1 1.5zm20.3-5.1c0-4.2-1.9-8.7-6.7-8.7-2.6 0-6.1 1.8-6.1 7.4 0 3.8 1.8 8.7 6.9 8.7 3-.1 5.9-2.4 5.9-7.4m-15.3-.6c0-5.1 3.8-9 9.1-9 5.9 0 8.8 4.3 8.8 8.7 0 5.2-3.9 8.9-8.8 8.9-5.7.1-9.1-4-9.1-8.6"/><path class="star" d="M96.3 47.5l-1.4-.8C101 36 104.6 27.8 106.8 22c-6.1-1-15.1-2-27.4-2v-1.6c12.3 0 21.2-1 27.3-2-1.4-3.7-3.4-8.4-6.2-14-1-.1-2.1-.1-3.2-.1-23.9 0-29.4 13-29.4 31.6s5.5 31.6 29.4 31.6c18.9 0 26.2-8 28.5-20.4-5.6-9.4-10.4-15.9-14-20.3-4 4.7-9.3 12-15.5 22.7zm28-30.3c-1.1-3.1-2.7-5.8-5-8-1.2 2.6-2.1 5-2.9 7 2.3.3 4.9.7 7.9 1m1 3.5c-3.4.3-6.3.7-8.8 1.2 1.9 5 4.8 11.8 9.6 20.5.3-2.7.5-5.5.5-8.5 0-4.9-.3-9.3-1.3-13.2m-8.7-13.8c-3.3-2.2-7.6-3.8-13.1-4.4 3.1 4.6 5.8 8.1 8.1 10.9 1.4-1.8 3.1-3.9 5-6.5"/><path class="nrc" d="M153 30h15.4c13.1 0 15.1-5.2 15.1-11.5 0-6.4-2-11.5-15.1-11.5H153v23zm0 36h-9.4V0h23.8c18.9 0 24.8 7.2 24.8 18.6 0 8.8-3.5 15.1-14 17.5L196.4 66h-11.3l-16.5-29c1.1.1-.1.1-1.2.1H153V66z"/></svg>
