<svg xmlns="http://www.w3.org/2000/svg" xmlns:xlink="http://www.w3.org/1999/xlink" viewBox="0 0 209.15 238.44"><defs><style>.a{fill:none;}.b{clip-path:url(#a);}.c{clip-path:url(#b);}.d{opacity:0.5;}.e{clip-path:url(#c);}.f{fill:#fff;}.g{clip-path:url(#d);}.h{clip-path:url(#e);}.i{clip-path:url(#f);}.j{clip-path:url(#g);}.k{clip-path:url(#h);}.l{clip-path:url(#i);}.m{clip-path:url(#j);}.n{clip-path:url(#k);}.o{clip-path:url(#l);}.p{clip-path:url(#m);}.q{clip-path:url(#n);}.r{clip-path:url(#o);}.s{clip-path:url(#p);}.t{clip-path:url(#q);}.u{opacity:0.95;}.v{clip-path:url(#r);}.w{opacity:0.9;}.x{clip-path:url(#s);}.y{clip-path:url(#t);}.z{clip-path:url(#u);}.aa{clip-path:url(#v);}.ab{clip-path:url(#w);}.ac{clip-path:url(#x);}.ad{clip-path:url(#y);}.ae{clip-path:url(#z);}.af{clip-path:url(#aa);}.ag{clip-path:url(#ab);}.ah{clip-path:url(#ac);}.ai{clip-path:url(#ad);}.aj{clip-path:url(#ae);}.ak{clip-path:url(#af);}.al{clip-path:url(#ag);}.am{clip-path:url(#ah);}.an{clip-path:url(#ai);}.ao{clip-path:url(#aj);}.ap{clip-path:url(#ak);}.aq{clip-path:url(#al);}.ar{clip-path:url(#am);}.as{clip-path:url(#an);}.at{clip-path:url(#ao);}.au{clip-path:url(#ap);}.av{clip-path:url(#aq);}.aw{clip-path:url(#ar);}.ax{clip-path:url(#as);}.ay{clip-path:url(#at);}.az{clip-path:url(#au);}.ba{clip-path:url(#av);}.bb{clip-path:url(#aw);}.bc{clip-path:url(#ax);}.bd{clip-path:url(#ay);}.be{clip-path:url(#az);}.bf{clip-path:url(#ba);}.bg{clip-path:url(#bb);}.bh{clip-path:url(#bc);}.bi{clip-path:url(#bd);}.bj{clip-path:url(#be);}.bk{clip-path:url(#bf);}.bl{clip-path:url(#bg);}.bm{opacity:0.26;}.bn{clip-path:url(#bh);}.bo{clip-path:url(#bi);}.bp{clip-path:url(#bj);}.bq{clip-path:url(#bk);}.br{clip-path:url(#bl);}.bs{clip-path:url(#bm);}.bt{clip-path:url(#bn);}.bu{clip-path:url(#bo);}.bv{clip-path:url(#bp);}.bw{clip-path:url(#bq);}.bx{clip-path:url(#br);}.by{clip-path:url(#bs);}.bz{clip-path:url(#bt);}.ca{clip-path:url(#bu);}.cb{clip-path:url(#bv);}.cc{clip-path:url(#bw);}.cd{opacity:0.08;}.ce{clip-path:url(#bx);}.cf{clip-path:url(#by);}.cg{clip-path:url(#bz);}.ch{clip-path:url(#ca);}.ci{clip-path:url(#cb);}.cj{clip-path:url(#cc);}.ck{clip-path:url(#cd);}.cl{clip-path:url(#ce);}.cm{clip-path:url(#cf);}</style><clipPath id="a" transform="translate(-17.16 -13.34)"><rect class="a" x="17.16" y="13.35" width="209.15" height="238.43"/></clipPath><clipPath id="b" transform="translate(-17.16 -13.34)"><rect class="a" x="17.16" y="13.35" width="209.15" height="238.43"/></clipPath><clipPath id="c" transform="translate(-17.16 -13.34)"><rect class="a" x="21.21" y="0.01" width="52.54" height="34.86"/></clipPath><clipPath id="d" transform="translate(-17.16 -13.34)"><rect class="a" x="21.21" y="218.83" width="52.54" height="34.86"/></clipPath><clipPath id="e" transform="translate(-17.16 -13.34)"><rect class="a" x="42.43" y="21.89" width="52.54" height="34.86"/></clipPath><clipPath id="f" transform="translate(-17.16 -13.34)"><rect class="a" x="42.43" y="196.96" width="52.54" height="34.86"/></clipPath><clipPath id="g" transform="translate(-17.16 -13.34)"><rect class="a" x="63.64" y="21.89" width="52.54" height="34.86"/></clipPath><clipPath id="h" transform="translate(-17.16 -13.34)"><rect class="a" x="63.64" y="196.96" width="52.54" height="34.86"/></clipPath><clipPath id="i" transform="translate(-17.16 -13.34)"><rect class="a" x="84.86" y="175.07" width="52.54" height="34.86"/></clipPath><clipPath id="j" transform="translate(-17.16 -13.34)"><rect class="a" x="84.86" y="43.77" width="52.54" height="34.86"/></clipPath><clipPath id="k" transform="translate(-17.16 -13.34)"><rect class="a" x="106.07" y="175.07" width="52.54" height="34.86"/></clipPath><clipPath id="l" transform="translate(-17.16 -13.34)"><rect class="a" x="106.07" y="43.77" width="52.54" height="34.86"/></clipPath><clipPath id="m" transform="translate(-17.16 -13.34)"><rect class="a" x="127.28" y="153.19" width="52.54" height="34.86"/></clipPath><clipPath id="n" transform="translate(-17.16 -13.34)"><rect class="a" x="127.28" y="65.66" width="52.54" height="34.86"/></clipPath><clipPath id="o" transform="translate(-17.16 -13.34)"><rect class="a" x="148.5" y="153.19" width="52.54" height="34.86"/></clipPath><clipPath id="p" transform="translate(-17.16 -13.34)"><rect class="a" x="148.5" y="65.66" width="52.54" height="34.86"/></clipPath><clipPath id="q" transform="translate(-17.16 -13.34)"><rect class="a" x="169.71" y="87.54" width="52.54" height="34.86"/></clipPath><clipPath id="r" transform="translate(-17.16 -13.34)"><rect class="a" x="5.96" y="10.45" width="231.54" height="221.36"/></clipPath><clipPath id="s" transform="translate(-17.16 -13.34)"><rect class="a" x="21.21" y="153.19" width="52.54" height="34.86"/></clipPath><clipPath id="t" transform="translate(-17.16 -13.34)"><rect class="a" x="21.21" y="175.06" width="52.54" height="34.86"/></clipPath><clipPath id="u" transform="translate(-17.16 -13.34)"><rect class="a" x="21.21" y="21.89" width="52.54" height="34.86"/></clipPath><clipPath id="v" transform="translate(-17.16 -13.34)"><rect class="a" x="21.21" y="196.95" width="52.54" height="34.86"/></clipPath><clipPath id="w" transform="translate(-17.16 -13.34)"><rect class="a" x="21.21" y="43.77" width="52.54" height="34.86"/></clipPath><clipPath id="x" transform="translate(-17.16 -13.34)"><rect class="a" x="21.21" y="65.66" width="52.54" height="34.86"/></clipPath><clipPath id="y" transform="translate(-17.16 -13.34)"><rect class="a" x="21.21" y="87.54" width="52.54" height="34.86"/></clipPath><clipPath id="z" transform="translate(-17.16 -13.34)"><rect class="a" x="21.21" y="109.42" width="52.54" height="34.86"/></clipPath><clipPath id="aa" transform="translate(-17.16 -13.34)"><rect class="a" x="21.21" y="131.3" width="52.54" height="34.86"/></clipPath><clipPath id="ab" transform="translate(-17.16 -13.34)"><rect class="a" x="42.43" y="153.19" width="52.54" height="34.86"/></clipPath><clipPath id="ac" transform="translate(-17.16 -13.34)"><rect class="a" x="42.43" y="175.06" width="52.54" height="34.86"/></clipPath><clipPath id="ad" transform="translate(-17.16 -13.34)"><rect class="a" x="42.43" y="43.77" width="52.54" height="34.86"/></clipPath><clipPath id="ae" transform="translate(-17.16 -13.34)"><rect class="a" x="42.43" y="65.66" width="52.54" height="34.86"/></clipPath><clipPath id="af" transform="translate(-17.16 -13.34)"><rect class="a" x="42.43" y="87.54" width="52.54" height="34.86"/></clipPath><clipPath id="ag" transform="translate(-17.16 -13.34)"><rect class="a" x="42.43" y="109.42" width="52.54" height="34.86"/></clipPath><clipPath id="ah" transform="translate(-17.16 -13.34)"><rect class="a" x="42.43" y="131.3" width="52.54" height="34.86"/></clipPath><clipPath id="ai" transform="translate(-17.16 -13.34)"><rect class="a" x="63.64" y="153.19" width="52.54" height="34.86"/></clipPath><clipPath id="aj" transform="translate(-17.16 -13.34)"><rect class="a" x="63.64" y="175.06" width="52.54" height="34.86"/></clipPath><clipPath id="ak" transform="translate(-17.16 -13.34)"><rect class="a" x="63.64" y="43.77" width="52.54" height="34.86"/></clipPath><clipPath id="al" transform="translate(-17.16 -13.34)"><rect class="a" x="63.64" y="65.66" width="52.54" height="34.86"/></clipPath><clipPath id="am" transform="translate(-17.16 -13.34)"><rect class="a" x="63.64" y="87.54" width="52.54" height="34.86"/></clipPath><clipPath id="an" transform="translate(-17.16 -13.34)"><rect class="a" x="63.64" y="109.42" width="52.54" height="34.86"/></clipPath><clipPath id="ao" transform="translate(-17.16 -13.34)"><rect class="a" x="63.64" y="131.3" width="52.54" height="34.86"/></clipPath><clipPath id="ap" transform="translate(-17.16 -13.34)"><rect class="a" x="84.86" y="153.19" width="52.54" height="34.86"/></clipPath><clipPath id="aq" transform="translate(-17.16 -13.34)"><rect class="a" x="84.86" y="65.66" width="52.54" height="34.86"/></clipPath><clipPath id="ar" transform="translate(-17.16 -13.34)"><rect class="a" x="84.86" y="87.54" width="52.54" height="34.86"/></clipPath><clipPath id="as" transform="translate(-17.16 -13.34)"><rect class="a" x="84.86" y="109.42" width="52.54" height="34.86"/></clipPath><clipPath id="at" transform="translate(-17.16 -13.34)"><rect class="a" x="84.86" y="131.3" width="52.54" height="34.86"/></clipPath><clipPath id="au" transform="translate(-17.16 -13.34)"><rect class="a" x="106.07" y="153.19" width="52.54" height="34.86"/></clipPath><clipPath id="av" transform="translate(-17.16 -13.34)"><rect class="a" x="106.07" y="65.66" width="52.54" height="34.86"/></clipPath><clipPath id="aw" transform="translate(-17.16 -13.34)"><rect class="a" x="106.07" y="87.54" width="52.54" height="34.86"/></clipPath><clipPath id="ax" transform="translate(-17.16 -13.34)"><rect class="a" x="106.07" y="109.42" width="52.54" height="34.86"/></clipPath><clipPath id="ay" transform="translate(-17.16 -13.34)"><rect class="a" x="106.07" y="131.3" width="52.54" height="34.86"/></clipPath><clipPath id="az" transform="translate(-17.16 -13.34)"><rect class="a" x="127.28" y="87.54" width="52.54" height="34.86"/></clipPath><clipPath id="ba" transform="translate(-17.16 -13.34)"><rect class="a" x="127.28" y="109.42" width="52.54" height="34.86"/></clipPath><clipPath id="bb" transform="translate(-17.16 -13.34)"><rect class="a" x="127.28" y="131.3" width="52.54" height="34.86"/></clipPath><clipPath id="bc" transform="translate(-17.16 -13.34)"><rect class="a" x="148.5" y="87.54" width="52.54" height="34.86"/></clipPath><clipPath id="bd" transform="translate(-17.16 -13.34)"><rect class="a" x="148.5" y="109.42" width="52.54" height="34.86"/></clipPath><clipPath id="be" transform="translate(-17.16 -13.34)"><rect class="a" x="148.5" y="131.3" width="52.54" height="34.86"/></clipPath><clipPath id="bf" transform="translate(-17.16 -13.34)"><rect class="a" x="169.71" y="109.42" width="52.54" height="34.86"/></clipPath><clipPath id="bg" transform="translate(-17.16 -13.34)"><rect class="a" x="169.71" y="131.3" width="52.54" height="34.86"/></clipPath><clipPath id="bh" transform="translate(-17.16 -13.34)"><rect class="a" y="153.19" width="52.54" height="34.86"/></clipPath><clipPath id="bi" transform="translate(-17.16 -13.34)"><rect class="a" width="52.54" height="34.86"/></clipPath><clipPath id="bj" transform="translate(-17.16 -13.34)"><rect class="a" y="175.06" width="52.54" height="34.86"/></clipPath><clipPath id="bk" transform="translate(-17.16 -13.34)"><rect class="a" y="21.89" width="52.54" height="34.86"/></clipPath><clipPath id="bl" transform="translate(-17.16 -13.34)"><rect class="a" y="196.95" width="52.54" height="34.86"/></clipPath><clipPath id="bm" transform="translate(-17.16 -13.34)"><rect class="a" y="43.77" width="52.54" height="34.86"/></clipPath><clipPath id="bn" transform="translate(-17.16 -13.34)"><rect class="a" y="218.83" width="52.54" height="34.86"/></clipPath><clipPath id="bo" transform="translate(-17.16 -13.34)"><rect class="a" y="65.66" width="52.54" height="34.86"/></clipPath><clipPath id="bp" transform="translate(-17.16 -13.34)"><rect class="a" y="87.54" width="52.54" height="34.86"/></clipPath><clipPath id="bq" transform="translate(-17.16 -13.34)"><rect class="a" y="109.42" width="52.54" height="34.86"/></clipPath><clipPath id="br" transform="translate(-17.16 -13.34)"><rect class="a" y="131.3" width="52.54" height="34.86"/></clipPath><clipPath id="bs" transform="translate(-17.16 -13.34)"><rect class="a" x="42.43" y="218.83" width="52.54" height="34.86"/></clipPath><clipPath id="bt" transform="translate(-17.16 -13.34)"><rect class="a" x="84.86" y="196.95" width="52.54" height="34.86"/></clipPath><clipPath id="bu" transform="translate(-17.16 -13.34)"><rect class="a" x="127.28" y="175.06" width="52.54" height="34.86"/></clipPath><clipPath id="bv" transform="translate(-17.16 -13.34)"><rect class="a" x="169.71" y="153.19" width="52.54" height="34.86"/></clipPath><clipPath id="bw" transform="translate(-17.16 -13.34)"><rect class="a" x="190.93" y="109.42" width="52.54" height="34.86"/></clipPath><clipPath id="bx" transform="translate(-17.16 -13.34)"><rect class="a" x="42.43" width="52.54" height="34.86"/></clipPath><clipPath id="by" transform="translate(-17.16 -13.34)"><rect class="a" x="63.64" y="218.83" width="52.54" height="34.86"/></clipPath><clipPath id="bz" transform="translate(-17.16 -13.34)"><rect class="a" x="84.86" y="21.89" width="52.54" height="34.86"/></clipPath><clipPath id="ca" transform="translate(-17.16 -13.34)"><rect class="a" x="106.07" y="196.95" width="52.54" height="34.86"/></clipPath><clipPath id="cb" transform="translate(-17.16 -13.34)"><rect class="a" x="127.28" y="43.77" width="52.54" height="34.86"/></clipPath><clipPath id="cc" transform="translate(-17.16 -13.34)"><rect class="a" x="148.5" y="175.06" width="52.54" height="34.86"/></clipPath><clipPath id="cd" transform="translate(-17.16 -13.34)"><rect class="a" x="169.71" y="65.66" width="52.54" height="34.86"/></clipPath><clipPath id="ce" transform="translate(-17.16 -13.34)"><rect class="a" x="190.93" y="87.54" width="52.54" height="34.86"/></clipPath><clipPath id="cf" transform="translate(-17.16 -13.34)"><rect class="a" x="190.93" y="131.3" width="52.54" height="34.86"/></clipPath></defs><title>play-button</title><g class="b"><g class="c"><g class="d"><g class="e"><path class="f" d="M56.41,20.23s0-.09,0-.13c-.05-.36-.12-.7-.2-1h0A10.07,10.07,0,0,0,55.86,18h0a6.64,6.64,0,0,0-1.55-2.5v0a5.89,5.89,0,0,0-.86-.71v0c-.13-.09-.27-.16-.41-.24l-.25-.14-.55-.25L51.91,14l-.56-.18-.48-.13-.57-.12-.6-.1-.29,0v0c-.3,0-.6-.07-.92-.08h0l-1,0h0c-.43,0-.83,0-1.21,0l-.31,0c-.29,0-.57.05-.84.1l-.27,0c-.31.05-.62.12-.9.19h-.07c-3.24.86-4.69,3-5.23,5.92v0c0,.27-.09.54-.13.83v0c0,.08,0,.18,0,.27,0,.25,0,.5-.07.75s0,.26,0,.4c0,.4,0,.8,0,1.22s0,.72,0,1.07,0,.44,0,.66,0,.24,0,.36c0,.29.06.57.1.83,0,0,0,.09,0,.14.05.35.12.69.2,1h0a9.48,9.48,0,0,0,.33,1.06h0a6.67,6.67,0,0,0,1.55,2.5v0a6.4,6.4,0,0,0,.86.7v0a4.41,4.41,0,0,0,.41.24l.25.15c.17.09.36.17.55.25l.36.15.56.19.48.13.57.12c.2,0,.4.07.6.1l.29.05v0l.92.08h0c.32,0,.65,0,1,0h0c.43,0,.83,0,1.21,0l.31,0,.84-.1.27,0c.32-.05.62-.11.9-.18l.07,0c3.24-.86,4.69-3,5.23-5.92h0c.05-.28.1-.55.13-.83v0c0-.09,0-.18,0-.27,0-.25,0-.5.07-.76s0-.26,0-.39c0-.39,0-.8,0-1.21h0c0-.36,0-.71,0-1.06s0-.44,0-.66,0-.25,0-.37c0-.28-.06-.56-.1-.83" transform="translate(-17.16 -13.34)"/></g></g><g class="d"><g class="g"><path class="f" d="M56.41,239.06s0-.09,0-.13c-.05-.36-.12-.7-.2-1h0a10.07,10.07,0,0,0-.33-1.07h0a6.64,6.64,0,0,0-1.55-2.5v0a5.89,5.89,0,0,0-.86-.71v0c-.13-.09-.27-.16-.41-.24l-.25-.14-.55-.25-.36-.15-.56-.18-.48-.13-.57-.12-.6-.1-.29,0v0c-.3,0-.6-.07-.92-.08h0l-1,0h0c-.43,0-.83,0-1.21,0l-.31,0c-.29,0-.57.05-.84.1l-.27,0c-.31.05-.62.12-.9.19h-.07c-3.24.86-4.69,3-5.23,5.92v0c0,.27-.09.54-.13.83v0c0,.08,0,.18,0,.27,0,.25,0,.5-.07.75s0,.26,0,.4c0,.4,0,.8,0,1.22s0,.72,0,1.07,0,.44,0,.66,0,.24,0,.36c0,.29.06.57.1.83,0,0,0,.09,0,.14.05.35.12.69.2,1h0a9.48,9.48,0,0,0,.33,1.06h0a6.67,6.67,0,0,0,1.55,2.5v0a6.4,6.4,0,0,0,.86.7v0a4.41,4.41,0,0,0,.41.24l.25.15c.17.09.36.17.55.25l.36.15.56.19.48.13.57.12c.2,0,.4.07.6.1l.29.05v0l.92.08h0c.32,0,.65,0,1,0h0c.43,0,.83,0,1.21,0l.31,0,.84-.1.27,0c.32-.05.62-.11.9-.18l.07,0c3.24-.86,4.69-3,5.23-5.92h0c.05-.28.1-.55.13-.83v0c0-.09,0-.19,0-.27,0-.25,0-.5.07-.76s0-.26,0-.39c0-.39,0-.8,0-1.21h0c0-.36,0-.71,0-1.06s0-.44,0-.66,0-.25,0-.37c0-.28-.06-.56-.1-.83" transform="translate(-17.16 -13.34)"/></g></g><g class="d"><g class="h"><path class="f" d="M77.62,42.12s0-.09,0-.13c-.05-.35-.12-.69-.2-1h0a9.93,9.93,0,0,0-.33-1.07h0a6.71,6.71,0,0,0-1.55-2.5v0a5.85,5.85,0,0,0-.86-.7v0a4.17,4.17,0,0,0-.41-.24L74,36.31l-.55-.25-.36-.15-.56-.18-.48-.13c-.18,0-.38-.09-.57-.12s-.4-.08-.6-.1l-.29-.05v0l-.92-.08h0l-1,0h0c-.43,0-.83,0-1.21,0l-.31,0c-.29,0-.57.06-.84.1l-.27,0c-.31.05-.62.11-.9.19h-.07c-3.24.86-4.69,3-5.23,5.92v0c0,.27-.09.55-.13.83v0c0,.09,0,.18,0,.27,0,.25,0,.5-.07.76s0,.26,0,.4c0,.39,0,.79,0,1.21h0c0,.37,0,.71,0,1.07s0,.44,0,.66,0,.24,0,.36c0,.28.06.56.1.83,0,0,0,.09,0,.13.05.36.12.7.2,1h0a9,9,0,0,0,.33,1.06h0a6.61,6.61,0,0,0,1.55,2.5v0a5.91,5.91,0,0,0,.86.71v0l.41.24.25.14.55.25.36.15.56.18.48.13.57.12.6.1.29,0v0c.3,0,.6.07.92.08h0c.32,0,.65,0,1,0h0c.43,0,.83,0,1.21,0l.31,0c.29,0,.57-.05.84-.1l.27,0c.32-.05.62-.12.9-.19l.07,0c3.24-.86,4.69-3,5.23-5.92v0c.05-.27.1-.54.13-.83v0c0-.08,0-.18,0-.27,0-.24,0-.5.07-.75s0-.26,0-.4c0-.39,0-.8,0-1.21h0c0-.36,0-.71,0-1.06s0-.44,0-.66,0-.24,0-.36c0-.29-.06-.56-.1-.83" transform="translate(-17.16 -13.34)"/></g></g><g class="d"><g class="i"><path class="f" d="M77.62,217.18s0-.09,0-.13c-.05-.35-.12-.69-.2-1h0a9.93,9.93,0,0,0-.33-1.07h0a6.71,6.71,0,0,0-1.55-2.5v0a5.85,5.85,0,0,0-.86-.7v0a4.17,4.17,0,0,0-.41-.24l-.25-.15-.55-.25-.36-.15-.56-.18-.48-.13c-.18,0-.38-.09-.57-.12s-.4-.08-.6-.1l-.29-.05v0l-.92-.08h0l-1,0h0c-.43,0-.83,0-1.21,0l-.31,0c-.29,0-.57.06-.84.1l-.27,0c-.31.05-.62.11-.9.19h-.07c-3.24.86-4.69,3-5.23,5.92v0c0,.27-.09.55-.13.83v0c0,.09,0,.18,0,.27,0,.25,0,.5-.07.76s0,.26,0,.4c0,.39,0,.79,0,1.21h0c0,.37,0,.71,0,1.07s0,.44,0,.66,0,.24,0,.36c0,.28.06.56.1.83,0,0,0,.09,0,.13.05.36.12.7.2,1h0a9,9,0,0,0,.33,1.06h0a6.61,6.61,0,0,0,1.55,2.5v0a5.91,5.91,0,0,0,.86.71v0l.41.24.25.14.55.25.36.15.56.18.48.13.57.12.6.1.29,0v0c.3,0,.6.07.92.08h0c.32,0,.65,0,1,0h0c.43,0,.83,0,1.21,0l.31,0c.29,0,.57-.05.84-.1l.27,0c.32-.05.62-.12.9-.19l.07,0c3.24-.86,4.69-3,5.23-5.92v0c.05-.27.1-.54.13-.83v0c0-.08,0-.18,0-.27,0-.24,0-.5.07-.75s0-.26,0-.4c0-.39,0-.8,0-1.21h0c0-.36,0-.71,0-1.06s0-.44,0-.66,0-.24,0-.36c0-.29-.06-.56-.1-.83" transform="translate(-17.16 -13.34)"/></g></g><g class="d"><g class="j"><path class="f" d="M98.84,42.12s0-.09,0-.13c-.05-.35-.12-.69-.2-1h0a9.93,9.93,0,0,0-.33-1.07h0a6.71,6.71,0,0,0-1.55-2.5v0a5.85,5.85,0,0,0-.86-.7v0a4.17,4.17,0,0,0-.41-.24l-.25-.15-.55-.25-.36-.15-.56-.18-.48-.13c-.18,0-.38-.09-.57-.12s-.4-.08-.6-.1l-.29-.05v0l-.92-.08h0l-1,0h0c-.43,0-.83,0-1.21,0l-.31,0c-.29,0-.57.06-.84.1l-.27,0c-.31.05-.62.11-.9.19H86.3c-3.24.86-4.69,3-5.23,5.92v0c0,.27-.09.55-.13.83v0c0,.09,0,.18,0,.27,0,.25,0,.5-.07.76s0,.26,0,.4c0,.39,0,.79,0,1.21h0c0,.37,0,.71,0,1.07s0,.44,0,.66,0,.24,0,.36c0,.28.06.56.1.83,0,0,0,.09,0,.13.05.36.12.7.2,1h0a9,9,0,0,0,.33,1.06h0a6.61,6.61,0,0,0,1.55,2.5v0a5.91,5.91,0,0,0,.86.71v0l.41.24.25.14.55.25.36.15.56.18.48.13.57.12.6.1.29,0v0c.3,0,.6.07.92.08h0c.32,0,.65,0,1,0h0c.43,0,.83,0,1.21,0l.31,0c.29,0,.57-.05.84-.1l.27,0c.32-.05.62-.12.9-.19l.07,0c3.24-.86,4.69-3,5.23-5.92v0c.05-.27.1-.54.13-.83v0c0-.08,0-.18,0-.27,0-.24,0-.5.07-.75s0-.26,0-.4c0-.39,0-.8,0-1.21h0c0-.36,0-.71,0-1.06s0-.44,0-.66,0-.24,0-.36c0-.29-.06-.56-.1-.83" transform="translate(-17.16 -13.34)"/></g></g><g class="d"><g class="k"><path class="f" d="M98.84,217.18s0-.09,0-.13c-.05-.35-.12-.69-.2-1h0a9.93,9.93,0,0,0-.33-1.07h0a6.71,6.71,0,0,0-1.55-2.5v0a5.85,5.85,0,0,0-.86-.7v0a4.17,4.17,0,0,0-.41-.24l-.25-.15-.55-.25-.36-.15-.56-.18-.48-.13c-.18,0-.38-.09-.57-.12s-.4-.08-.6-.1l-.29-.05v0l-.92-.08h0l-1,0h0c-.43,0-.83,0-1.21,0l-.31,0c-.29,0-.57.06-.84.1l-.27,0c-.31.05-.62.11-.9.19H86.3c-3.24.86-4.69,3-5.23,5.92v0c0,.27-.09.55-.13.83v0c0,.09,0,.18,0,.27,0,.25,0,.5-.07.76s0,.26,0,.4c0,.39,0,.79,0,1.21h0c0,.37,0,.71,0,1.07s0,.44,0,.66,0,.24,0,.36c0,.28.06.56.1.83,0,0,0,.09,0,.13.05.36.12.7.2,1h0a9,9,0,0,0,.33,1.06h0a6.61,6.61,0,0,0,1.55,2.5v0a5.91,5.91,0,0,0,.86.71v0l.41.24.25.14.55.25.36.15.56.18.48.13.57.12.6.1.29,0v0c.3,0,.6.07.92.08h0c.32,0,.65,0,1,0h0c.43,0,.83,0,1.21,0l.31,0c.29,0,.57-.05.84-.1l.27,0c.32-.05.62-.12.9-.19l.07,0c3.24-.86,4.69-3,5.23-5.92v0c.05-.27.1-.54.13-.83v0c0-.08,0-.18,0-.27,0-.24,0-.5.07-.75s0-.26,0-.4c0-.39,0-.8,0-1.21h0c0-.36,0-.71,0-1.06s0-.44,0-.66,0-.24,0-.36c0-.29-.06-.56-.1-.83" transform="translate(-17.16 -13.34)"/></g></g><g class="d"><g class="l"><path class="f" d="M120.05,195.3s0-.09,0-.13c-.05-.36-.12-.7-.2-1h0a10.07,10.07,0,0,0-.33-1.07h0a6.64,6.64,0,0,0-1.55-2.5v0a5.89,5.89,0,0,0-.86-.71v0c-.13-.09-.27-.16-.41-.24l-.25-.14-.55-.25-.36-.15-.56-.18-.48-.13-.57-.12-.6-.1-.29,0v0c-.3,0-.6-.07-.92-.08h0l-1,0h0c-.43,0-.83,0-1.21,0l-.31,0c-.29,0-.57.05-.84.1l-.27,0c-.31.05-.62.12-.9.19h-.07c-3.24.86-4.69,3-5.23,5.92v0c0,.27-.09.54-.13.83v0c0,.08,0,.18,0,.27,0,.25,0,.5-.07.75s0,.26,0,.4c0,.4,0,.8,0,1.22s0,.72,0,1.07,0,.44,0,.66,0,.24,0,.36c0,.29.06.57.1.83,0,0,0,.09,0,.14.05.35.12.69.2,1h0a9.48,9.48,0,0,0,.33,1.06h0a6.67,6.67,0,0,0,1.55,2.5v0a6.4,6.4,0,0,0,.86.7v0a4.41,4.41,0,0,0,.41.24l.25.15c.17.09.36.17.55.25l.36.15.56.19.48.13.57.12c.2,0,.4.07.6.1l.29.05v0l.92.08h0c.32,0,.65,0,1,0h0c.43,0,.83,0,1.21,0l.31,0,.84-.1.27,0c.32-.05.62-.11.9-.18l.07,0c3.24-.86,4.69-3,5.23-5.92h0c.05-.28.1-.55.13-.83v0c0-.09,0-.18,0-.27,0-.25,0-.5.07-.76s0-.26,0-.39c0-.39,0-.8,0-1.21h0c0-.36,0-.71,0-1.06s0-.44,0-.66,0-.25,0-.37c0-.28-.06-.56-.1-.83" transform="translate(-17.16 -13.34)"/></g></g><g class="d"><g class="m"><path class="f" d="M120.05,64s0-.09,0-.13c-.05-.36-.12-.7-.2-1h0a10.07,10.07,0,0,0-.33-1.07h0a6.64,6.64,0,0,0-1.55-2.5v0a5.89,5.89,0,0,0-.86-.71v0c-.13-.09-.27-.16-.41-.24l-.25-.14-.55-.25-.36-.15-.56-.18-.48-.13-.57-.12-.6-.1-.29,0v0c-.3,0-.6-.07-.92-.08h0l-1,0h0c-.43,0-.83,0-1.21,0l-.31,0c-.29,0-.57.05-.84.1l-.27,0c-.31.05-.62.12-.9.19h-.07c-3.24.86-4.69,3-5.23,5.92v0c0,.27-.09.54-.13.83v0c0,.08,0,.18,0,.27,0,.25,0,.5-.07.75s0,.26,0,.4c0,.4,0,.8,0,1.22s0,.72,0,1.07,0,.44,0,.66,0,.24,0,.36c0,.29.06.57.1.83,0,0,0,.09,0,.14.05.35.12.69.2,1h0a9.48,9.48,0,0,0,.33,1.06h0a6.67,6.67,0,0,0,1.55,2.5v0a6.4,6.4,0,0,0,.86.7v0a4.41,4.41,0,0,0,.41.24l.25.15c.17.09.36.17.55.25l.36.15.56.19.48.13.57.12c.2,0,.4.07.6.1l.29.05v0l.92.08h0c.32,0,.65,0,1,0h0c.43,0,.83,0,1.21,0l.31,0,.84-.1.27,0c.32-.05.62-.11.9-.18l.07,0c3.24-.86,4.69-3,5.23-5.92h0c.05-.28.1-.55.13-.83v0c0-.09,0-.18,0-.27,0-.25,0-.5.07-.76s0-.26,0-.39c0-.39,0-.8,0-1.21h0c0-.36,0-.71,0-1.06s0-.44,0-.66,0-.25,0-.37c0-.28-.06-.56-.1-.83" transform="translate(-17.16 -13.34)"/></g></g><g class="d"><g class="n"><path class="f" d="M141.27,195.3s0-.09,0-.13c-.05-.36-.12-.7-.2-1h0a10.06,10.06,0,0,0-.33-1.07h0a6.64,6.64,0,0,0-1.55-2.5v0a5.89,5.89,0,0,0-.86-.71v0c-.13-.09-.27-.16-.41-.24l-.25-.14-.55-.25-.36-.15-.56-.18-.48-.13-.57-.12-.6-.1-.29,0v0c-.3,0-.6-.07-.92-.08h0l-1,0h0c-.43,0-.83,0-1.21,0l-.31,0c-.29,0-.57.05-.84.1l-.27,0c-.31.05-.62.12-.9.19h-.07c-3.24.86-4.69,3-5.23,5.92v0c0,.27-.09.54-.13.83v0c0,.08,0,.18,0,.27,0,.25,0,.5-.07.75s0,.26,0,.4c0,.4,0,.8,0,1.22s0,.72,0,1.07,0,.44,0,.66,0,.24,0,.36c0,.29.06.57.1.83,0,0,0,.09,0,.14.05.35.12.69.2,1h0a9.48,9.48,0,0,0,.33,1.06h0a6.67,6.67,0,0,0,1.55,2.5v0a6.4,6.4,0,0,0,.86.7v0a4.41,4.41,0,0,0,.41.24l.25.15c.17.09.36.17.55.25l.36.15.56.19.48.13.57.12c.2,0,.4.07.6.1l.29.05v0l.92.08h0c.32,0,.65,0,1,0h0c.43,0,.83,0,1.21,0l.31,0,.84-.1.27,0c.32-.05.62-.11.9-.18l.07,0c3.24-.86,4.69-3,5.23-5.92h0c.05-.28.1-.55.13-.83v0c0-.09,0-.18,0-.27,0-.25,0-.5.07-.76s0-.26,0-.39c0-.39,0-.8,0-1.21h0c0-.36,0-.71,0-1.06s0-.44,0-.66,0-.25,0-.37c0-.28-.06-.56-.1-.83" transform="translate(-17.16 -13.34)"/></g></g><g class="d"><g class="o"><path class="f" d="M141.27,64s0-.09,0-.13c-.05-.36-.12-.7-.2-1h0a10.06,10.06,0,0,0-.33-1.07h0a6.64,6.64,0,0,0-1.55-2.5v0a5.89,5.89,0,0,0-.86-.71v0c-.13-.09-.27-.16-.41-.24l-.25-.14-.55-.25-.36-.15-.56-.18-.48-.13-.57-.12-.6-.1-.29,0v0c-.3,0-.6-.07-.92-.08h0l-1,0h0c-.43,0-.83,0-1.21,0l-.31,0c-.29,0-.57.05-.84.1l-.27,0c-.31.05-.62.12-.9.19h-.07c-3.24.86-4.69,3-5.23,5.92v0c0,.27-.09.54-.13.83v0c0,.08,0,.18,0,.27,0,.25,0,.5-.07.75s0,.26,0,.4c0,.4,0,.8,0,1.22s0,.72,0,1.07,0,.44,0,.66,0,.24,0,.36c0,.29.06.57.1.83,0,0,0,.09,0,.14.05.35.12.69.2,1h0a9.48,9.48,0,0,0,.33,1.06h0a6.67,6.67,0,0,0,1.55,2.5v0a6.4,6.4,0,0,0,.86.7v0a4.41,4.41,0,0,0,.41.24l.25.15c.17.09.36.17.55.25l.36.15.56.19.48.13.57.12c.2,0,.4.07.6.1l.29.05v0l.92.08h0c.32,0,.65,0,1,0h0c.43,0,.83,0,1.21,0l.31,0,.84-.1.27,0c.32-.05.62-.11.9-.18l.07,0c3.24-.86,4.69-3,5.23-5.92h0c.05-.28.1-.55.13-.83v0c0-.09,0-.18,0-.27,0-.25,0-.5.07-.76s0-.26,0-.39c0-.39,0-.8,0-1.21h0c0-.36,0-.71,0-1.06s0-.44,0-.66,0-.25,0-.37c0-.28-.06-.56-.1-.83" transform="translate(-17.16 -13.34)"/></g></g><g class="d"><g class="p"><path class="f" d="M162.48,173.42s0-.09,0-.13c-.05-.35-.12-.69-.2-1h0a9.93,9.93,0,0,0-.33-1.07h0a6.71,6.71,0,0,0-1.55-2.5v0a5.85,5.85,0,0,0-.86-.7v0a4.17,4.17,0,0,0-.41-.24l-.25-.15-.55-.25-.36-.15-.56-.18-.48-.13c-.18,0-.38-.09-.57-.12s-.4-.08-.6-.1l-.29-.05v0l-.92-.08h0l-1,0h0c-.43,0-.83,0-1.21,0l-.31,0c-.29,0-.57.06-.84.1l-.27,0c-.31.05-.62.11-.9.19h-.07c-3.24.86-4.69,3-5.23,5.92v0c0,.27-.09.55-.13.83v0c0,.09,0,.18,0,.27,0,.25,0,.5-.07.76s0,.26,0,.4c0,.39,0,.79,0,1.21h0c0,.37,0,.71,0,1.07s0,.44,0,.66,0,.24,0,.36c0,.28.06.56.1.83,0,0,0,.09,0,.13.05.36.12.7.2,1h0a9,9,0,0,0,.33,1.06h0a6.61,6.61,0,0,0,1.55,2.5v0a5.91,5.91,0,0,0,.86.71v0l.41.24.25.14.55.25.36.15.56.18.48.13.57.12.6.1.29,0v0c.3,0,.6.07.92.08h0c.32,0,.65,0,1,0h0c.43,0,.83,0,1.21,0l.31,0c.29,0,.57-.05.84-.1l.27,0c.32-.05.62-.12.9-.19l.07,0c3.24-.86,4.69-3,5.23-5.92v0c.05-.27.1-.54.13-.83v0c0-.08,0-.18,0-.27,0-.24,0-.5.07-.75s0-.26,0-.4c0-.39,0-.8,0-1.21h0c0-.36,0-.71,0-1.06s0-.44,0-.66,0-.24,0-.36c0-.29-.06-.56-.1-.83" transform="translate(-17.16 -13.34)"/></g></g><g class="d"><g class="q"><path class="f" d="M162.48,85.88s0-.09,0-.13c-.05-.35-.12-.69-.2-1h0a9.93,9.93,0,0,0-.33-1.07h0a6.71,6.71,0,0,0-1.55-2.5v0a5.85,5.85,0,0,0-.86-.7v0a4.17,4.17,0,0,0-.41-.24l-.25-.15-.55-.25-.36-.15-.56-.18-.48-.13c-.18,0-.38-.09-.57-.12s-.4-.08-.6-.1l-.29-.05v0l-.92-.08h0l-1,0h0c-.43,0-.83,0-1.21,0l-.31,0c-.29,0-.57.06-.84.1l-.27,0c-.31.05-.62.11-.9.19h-.07c-3.24.86-4.69,3-5.23,5.92v0c0,.27-.09.55-.13.83v0c0,.09,0,.18,0,.27,0,.25,0,.5-.07.76s0,.26,0,.4c0,.39,0,.79,0,1.21h0c0,.37,0,.71,0,1.07s0,.44,0,.66,0,.24,0,.36c0,.28.06.56.1.83,0,0,0,.09,0,.13.05.36.12.7.2,1h0a9,9,0,0,0,.33,1.06h0a6.61,6.61,0,0,0,1.55,2.5v0a5.91,5.91,0,0,0,.86.71v0l.41.24.25.14.55.25.36.15.56.18.48.13.57.12.6.1.29,0v0c.3,0,.6.07.92.08h0c.32,0,.65,0,1,0h0c.43,0,.83,0,1.21,0l.31,0c.29,0,.57-.05.84-.1l.27,0c.32-.05.62-.12.9-.19l.07,0c3.24-.86,4.69-3,5.23-5.92v0c.05-.27.1-.54.13-.83v0c0-.08,0-.18,0-.27,0-.24,0-.5.07-.75s0-.26,0-.4c0-.39,0-.8,0-1.21h0c0-.36,0-.71,0-1.06s0-.44,0-.66,0-.24,0-.36c0-.29-.06-.56-.1-.83" transform="translate(-17.16 -13.34)"/></g></g><g class="d"><g class="r"><path class="f" d="M183.69,173.42s0-.09,0-.13c-.05-.35-.12-.69-.2-1h0a9.93,9.93,0,0,0-.33-1.07h0a6.71,6.71,0,0,0-1.55-2.5v0a5.85,5.85,0,0,0-.86-.7v0a4.17,4.17,0,0,0-.41-.24l-.25-.15-.55-.25-.36-.15-.56-.18-.48-.13c-.18,0-.38-.09-.57-.12s-.4-.08-.6-.1l-.29-.05v0l-.92-.08h0l-1,0h0c-.43,0-.83,0-1.21,0l-.31,0c-.29,0-.57.06-.84.1l-.27,0c-.31.05-.62.11-.9.19h-.07c-3.24.86-4.69,3-5.23,5.92v0c0,.27-.09.55-.13.83v0c0,.09,0,.18,0,.27,0,.25,0,.5-.07.76s0,.26,0,.4c0,.39,0,.79,0,1.21h0c0,.37,0,.71,0,1.07s0,.44,0,.66,0,.24,0,.36c0,.28.06.56.1.83,0,0,0,.09,0,.13.05.36.12.7.2,1h0a9,9,0,0,0,.33,1.06h0a6.61,6.61,0,0,0,1.55,2.5v0a5.91,5.91,0,0,0,.86.71v0l.41.24.25.14.55.25.36.15.56.18.48.13.57.12.6.1.29,0v0c.3,0,.6.07.92.08h0c.32,0,.65,0,1,0h0c.43,0,.83,0,1.21,0l.31,0c.29,0,.57-.05.84-.1l.27,0c.32-.05.62-.12.9-.19l.07,0c3.24-.86,4.69-3,5.23-5.92v0c.05-.27.1-.54.13-.83v0c0-.08,0-.18,0-.27,0-.24,0-.5.07-.75s0-.26,0-.4c0-.39,0-.8,0-1.21h0c0-.36,0-.71,0-1.06s0-.44,0-.66,0-.24,0-.36c0-.29-.06-.56-.1-.83" transform="translate(-17.16 -13.34)"/></g></g><g class="d"><g class="s"><path class="f" d="M183.69,85.88s0-.09,0-.13c-.05-.35-.12-.69-.2-1h0a9.93,9.93,0,0,0-.33-1.07h0a6.71,6.71,0,0,0-1.55-2.5v0a5.85,5.85,0,0,0-.86-.7v0a4.17,4.17,0,0,0-.41-.24l-.25-.15-.55-.25-.36-.15-.56-.18-.48-.13c-.18,0-.38-.09-.57-.12s-.4-.08-.6-.1l-.29-.05v0l-.92-.08h0l-1,0h0c-.43,0-.83,0-1.21,0l-.31,0c-.29,0-.57.06-.84.1l-.27,0c-.31.05-.62.11-.9.19h-.07c-3.24.86-4.69,3-5.23,5.92v0c0,.27-.09.55-.13.83v0c0,.09,0,.18,0,.27,0,.25,0,.5-.07.76s0,.26,0,.4c0,.39,0,.79,0,1.21h0c0,.37,0,.71,0,1.07s0,.44,0,.66,0,.24,0,.36c0,.28.06.56.1.83,0,0,0,.09,0,.13.05.36.12.7.2,1h0a9,9,0,0,0,.33,1.06h0a6.61,6.61,0,0,0,1.55,2.5v0a5.91,5.91,0,0,0,.86.71v0l.41.24.25.14.55.25.36.15.56.18.48.13.57.12.6.1.29,0v0c.3,0,.6.07.92.08h0c.32,0,.65,0,1,0h0c.43,0,.83,0,1.21,0l.31,0c.29,0,.57-.05.84-.1l.27,0c.32-.05.62-.12.9-.19l.07,0c3.24-.86,4.69-3,5.23-5.92v0c.05-.27.1-.54.13-.83v0c0-.08,0-.18,0-.27,0-.24,0-.5.07-.75s0-.26,0-.4c0-.39,0-.8,0-1.21h0c0-.36,0-.71,0-1.06s0-.44,0-.66,0-.24,0-.36c0-.29-.06-.56-.1-.83" transform="translate(-17.16 -13.34)"/></g></g><g class="d"><g class="t"><path class="f" d="M204.91,107.76s0-.09,0-.13c-.05-.36-.12-.7-.2-1h0a10.06,10.06,0,0,0-.33-1.07h0a6.64,6.64,0,0,0-1.55-2.5v0a5.89,5.89,0,0,0-.86-.71v0c-.13-.09-.27-.16-.41-.24l-.25-.14-.55-.25-.36-.15-.56-.18-.48-.13-.57-.12-.6-.1-.29,0v0c-.3,0-.6-.07-.92-.08h0l-1,0h0c-.43,0-.83,0-1.21,0l-.31,0c-.29,0-.57.05-.84.1l-.27,0c-.31.05-.62.12-.9.19h-.07c-3.24.86-4.69,3-5.23,5.92v0c0,.27-.09.54-.13.83v0c0,.08,0,.18,0,.27,0,.25,0,.5-.07.75s0,.26,0,.4c0,.4,0,.8,0,1.22s0,.72,0,1.07,0,.44,0,.66,0,.24,0,.36c0,.29.06.57.1.83,0,0,0,.09,0,.14.05.35.12.69.2,1h0a9.48,9.48,0,0,0,.33,1.06h0a6.67,6.67,0,0,0,1.55,2.5v0a6.4,6.4,0,0,0,.86.7v0a4.41,4.41,0,0,0,.41.24l.25.15c.17.09.36.17.55.25l.36.15.56.19.48.13.57.12c.2,0,.4.07.6.1l.29.05v0l.92.08h0c.32,0,.65,0,1,0h0c.43,0,.83,0,1.21,0l.31,0,.84-.1.27,0c.32-.05.62-.11.9-.18l.07,0c3.24-.86,4.69-3,5.23-5.92h0c.05-.28.1-.55.13-.83v0c0-.09,0-.18,0-.27,0-.25,0-.5.07-.76s0-.26,0-.39c0-.39,0-.8,0-1.21h0c0-.36,0-.71,0-1.06s0-.44,0-.66,0-.25,0-.37c0-.28-.06-.56-.1-.83" transform="translate(-17.16 -13.34)"/></g></g><g class="u"><g class="v"><g class="w"><g class="x"><path class="f" d="M56.41,173.41s0-.09,0-.13c-.05-.35-.12-.69-.2-1h0a9.93,9.93,0,0,0-.33-1.07h0a6.71,6.71,0,0,0-1.55-2.5v0a5.85,5.85,0,0,0-.86-.7v0a4.41,4.41,0,0,0-.41-.24l-.25-.15-.55-.25-.36-.15-.56-.18-.48-.13c-.18,0-.38-.09-.57-.12s-.4-.08-.6-.1l-.29-.05v0l-.92-.08h0l-1,0h0c-.43,0-.83,0-1.21,0l-.31,0c-.29,0-.57.06-.84.1l-.27,0c-.31.05-.62.11-.9.19h-.07c-3.24.86-4.69,3-5.23,5.92v0c0,.27-.09.55-.13.83v0c0,.09,0,.18,0,.27,0,.25,0,.5-.07.76s0,.26,0,.4c0,.39,0,.79,0,1.21h0c0,.37,0,.71,0,1.07s0,.44,0,.66,0,.24,0,.36c0,.28.06.56.1.83,0,0,0,.09,0,.13.05.36.12.7.2,1h0a9,9,0,0,0,.33,1.06h0a6.61,6.61,0,0,0,1.55,2.5v0a5.91,5.91,0,0,0,.86.71v0l.41.24.25.14.55.25.36.15.56.18.48.13.57.12.6.1.29,0v0c.3,0,.6.07.92.08h0c.32,0,.65,0,1,0h0c.43,0,.83,0,1.21,0l.31,0c.29,0,.57-.05.84-.1l.27,0c.32-.05.62-.12.9-.19l.07,0c3.24-.86,4.69-3,5.23-5.92v0c.05-.27.1-.54.13-.83v0c0-.08,0-.18,0-.27,0-.24,0-.5.07-.75s0-.26,0-.4c0-.39,0-.8,0-1.21h0c0-.36,0-.71,0-1.06s0-.44,0-.66,0-.24,0-.36c0-.29-.06-.56-.1-.83" transform="translate(-17.16 -13.34)"/></g></g><g class="w"><g class="y"><path class="f" d="M56.41,195.29s0-.09,0-.13c-.05-.36-.12-.7-.2-1h0a10.07,10.07,0,0,0-.33-1.07h0a6.64,6.64,0,0,0-1.55-2.5v0a5.89,5.89,0,0,0-.86-.71v0c-.13-.09-.27-.16-.41-.24l-.25-.14-.55-.25-.36-.15-.56-.18-.48-.13-.57-.12-.6-.1-.29,0v0c-.3,0-.6-.07-.92-.08h0l-1,0h0c-.43,0-.83,0-1.21,0l-.31,0c-.29,0-.57.05-.84.1l-.27,0c-.31.05-.62.12-.9.19h-.07c-3.24.86-4.69,3-5.23,5.92v0c0,.27-.09.54-.13.83v0c0,.08,0,.18,0,.27,0,.25,0,.5-.07.75s0,.26,0,.4c0,.4,0,.8,0,1.22s0,.72,0,1.07,0,.44,0,.66,0,.24,0,.36c0,.29.06.57.1.83,0,0,0,.09,0,.14.05.35.12.69.2,1h0a9.48,9.48,0,0,0,.33,1.06h0a6.67,6.67,0,0,0,1.55,2.5v0a6.4,6.4,0,0,0,.86.7v0a4.41,4.41,0,0,0,.41.24l.25.15c.17.09.36.17.55.25l.36.15.56.19.48.13.57.12c.2,0,.4.07.6.1l.29.05v0l.92.08h0c.32,0,.65,0,1,0h0c.43,0,.83,0,1.21,0l.31,0,.84-.1.27,0c.32-.05.62-.11.9-.18l.07,0c3.24-.86,4.69-3,5.23-5.92h0c.05-.28.1-.55.13-.83v0c0-.09,0-.18,0-.27,0-.25,0-.5.07-.76s0-.26,0-.39c0-.39,0-.8,0-1.21h0c0-.36,0-.71,0-1.06s0-.44,0-.66,0-.25,0-.37c0-.28-.06-.56-.1-.83" transform="translate(-17.16 -13.34)"/></g></g><g class="w"><g class="z"><path class="f" d="M56.41,42.12s0-.09,0-.13c-.05-.35-.12-.69-.2-1h0a9.93,9.93,0,0,0-.33-1.07h0a6.71,6.71,0,0,0-1.55-2.5v0a5.85,5.85,0,0,0-.86-.7v0a4.41,4.41,0,0,0-.41-.24l-.25-.15-.55-.25-.36-.15-.56-.18-.48-.13c-.18,0-.38-.09-.57-.12s-.4-.08-.6-.1l-.29-.05v0l-.92-.08h0l-1,0h0c-.43,0-.83,0-1.21,0l-.31,0c-.29,0-.57.06-.84.1l-.27,0c-.31.05-.62.11-.9.19h-.07c-3.24.86-4.69,3-5.23,5.92v0c0,.27-.09.55-.13.83v0c0,.09,0,.18,0,.27,0,.25,0,.5-.07.76s0,.26,0,.4c0,.39,0,.79,0,1.21h0c0,.37,0,.71,0,1.07s0,.44,0,.66,0,.24,0,.36c0,.28.06.56.1.83,0,0,0,.09,0,.13.05.36.12.7.2,1h0a9,9,0,0,0,.33,1.06h0a6.61,6.61,0,0,0,1.55,2.5v0a5.91,5.91,0,0,0,.86.71v0l.41.24.25.14.55.25.36.15.56.18.48.13.57.12.6.1.29,0v0c.3,0,.6.07.92.08h0c.32,0,.65,0,1,0h0c.43,0,.83,0,1.21,0l.31,0c.29,0,.57-.05.84-.1l.27,0c.32-.05.62-.12.9-.19l.07,0c3.24-.86,4.69-3,5.23-5.92v0c.05-.27.1-.54.13-.83v0c0-.08,0-.18,0-.27,0-.24,0-.5.07-.75s0-.26,0-.4c0-.39,0-.8,0-1.21h0c0-.36,0-.71,0-1.06s0-.44,0-.66,0-.24,0-.36c0-.29-.06-.56-.1-.83" transform="translate(-17.16 -13.34)"/></g></g><g class="w"><g class="aa"><path class="f" d="M56.41,217.17s0-.09,0-.13c-.05-.35-.12-.69-.2-1h0a9.93,9.93,0,0,0-.33-1.07h0a6.71,6.71,0,0,0-1.55-2.5v0a5.85,5.85,0,0,0-.86-.7v0a4.41,4.41,0,0,0-.41-.24l-.25-.15-.55-.25L51.9,211l-.56-.18-.48-.13c-.18,0-.38-.09-.57-.12s-.4-.08-.6-.1l-.29-.05v0l-.92-.08h0l-1,0h0c-.43,0-.83,0-1.21,0l-.31,0c-.29,0-.57.06-.84.1l-.27,0c-.31.05-.62.11-.9.19h-.07c-3.24.86-4.69,3-5.23,5.92v0c0,.27-.09.55-.13.83v0c0,.09,0,.18,0,.27,0,.25,0,.5-.07.76s0,.26,0,.4c0,.39,0,.79,0,1.21h0c0,.37,0,.71,0,1.07s0,.44,0,.66,0,.24,0,.36c0,.28.06.56.1.83,0,0,0,.09,0,.13.05.36.12.7.2,1h0a9,9,0,0,0,.33,1.06h0a6.61,6.61,0,0,0,1.55,2.5v0a5.91,5.91,0,0,0,.86.71v0l.41.24.25.14.55.25.36.15.56.18.48.13.57.12.6.1.29,0v0c.3,0,.6.07.92.08h0c.32,0,.65,0,1,0h0c.43,0,.83,0,1.21,0l.31,0c.29,0,.57-.05.84-.1l.27,0c.32-.05.62-.12.9-.19l.07,0c3.24-.86,4.69-3,5.23-5.92v0c.05-.27.1-.54.13-.83v0c0-.08,0-.18,0-.27,0-.24,0-.5.07-.75s0-.26,0-.4c0-.39,0-.8,0-1.21h0c0-.36,0-.71,0-1.06s0-.44,0-.66,0-.24,0-.36c0-.29-.06-.56-.1-.83" transform="translate(-17.16 -13.34)"/></g></g><g class="w"><g class="ab"><path class="f" d="M56.41,64s0-.09,0-.13c-.05-.36-.12-.7-.2-1h0a10.07,10.07,0,0,0-.33-1.07h0a6.64,6.64,0,0,0-1.55-2.5v0a5.89,5.89,0,0,0-.86-.71v0c-.13-.09-.27-.16-.41-.24l-.25-.14-.55-.25-.36-.15-.56-.18-.48-.13-.57-.12-.6-.1-.29,0v0c-.3,0-.6-.07-.92-.08h0l-1,0h0c-.43,0-.83,0-1.21,0l-.31,0c-.29,0-.57.05-.84.1l-.27,0c-.31.05-.62.12-.9.19h-.07c-3.24.86-4.69,3-5.23,5.92v0c0,.27-.09.54-.13.83v0c0,.08,0,.18,0,.27,0,.25,0,.5-.07.75s0,.26,0,.4c0,.4,0,.8,0,1.22s0,.72,0,1.07,0,.44,0,.66,0,.24,0,.36c0,.29.06.57.1.83,0,0,0,.09,0,.14.05.35.12.69.2,1h0a9.48,9.48,0,0,0,.33,1.06h0a6.67,6.67,0,0,0,1.55,2.5v0a6.4,6.4,0,0,0,.86.7v0a4.41,4.41,0,0,0,.41.24l.25.15c.17.09.36.17.55.25l.36.15.56.19.48.13.57.12c.2,0,.4.07.6.1l.29.05v0l.92.08h0c.32,0,.65,0,1,0h0c.43,0,.83,0,1.21,0l.31,0,.84-.1.27,0c.32-.05.62-.11.9-.18l.07,0c3.24-.86,4.69-3,5.23-5.92h0c.05-.28.1-.55.13-.83v0c0-.09,0-.18,0-.27,0-.25,0-.5.07-.76s0-.26,0-.39c0-.39,0-.8,0-1.21h0c0-.36,0-.71,0-1.06s0-.44,0-.66,0-.25,0-.37c0-.28-.06-.56-.1-.83" transform="translate(-17.16 -13.34)"/></g></g><g class="w"><g class="ac"><path class="f" d="M56.41,85.88s0-.09,0-.13c-.05-.35-.12-.69-.2-1h0a9.93,9.93,0,0,0-.33-1.07h0a6.71,6.71,0,0,0-1.55-2.5v0a5.85,5.85,0,0,0-.86-.7v0a4.41,4.41,0,0,0-.41-.24l-.25-.15-.55-.25-.36-.15-.56-.18-.48-.13c-.18,0-.38-.09-.57-.12s-.4-.08-.6-.1l-.29-.05v0L48.49,79h0l-1,0h0c-.43,0-.83,0-1.21,0l-.31,0c-.29,0-.57.06-.84.1l-.27,0c-.31.05-.62.11-.9.19h-.07c-3.24.86-4.69,3-5.23,5.92v0c0,.27-.09.55-.13.83v0c0,.09,0,.18,0,.27,0,.25,0,.5-.07.76s0,.26,0,.4c0,.39,0,.79,0,1.21h0c0,.37,0,.71,0,1.07s0,.44,0,.66,0,.24,0,.36c0,.28.06.56.1.83,0,0,0,.09,0,.13.05.36.12.7.2,1h0a9,9,0,0,0,.33,1.06h0a6.61,6.61,0,0,0,1.55,2.5v0a5.91,5.91,0,0,0,.86.71v0l.41.24.25.14.55.25.36.15.56.18.48.13.57.12.6.1.29,0v0c.3,0,.6.07.92.08h0c.32,0,.65,0,1,0h0c.43,0,.83,0,1.21,0l.31,0c.29,0,.57-.05.84-.1l.27,0c.32-.05.62-.12.9-.19l.07,0c3.24-.86,4.69-3,5.23-5.92v0c.05-.27.1-.54.13-.83v0c0-.08,0-.18,0-.27,0-.24,0-.5.07-.75s0-.26,0-.4c0-.39,0-.8,0-1.21h0c0-.36,0-.71,0-1.06s0-.44,0-.66,0-.24,0-.36c0-.29-.06-.56-.1-.83" transform="translate(-17.16 -13.34)"/></g></g><g class="w"><g class="ad"><path class="f" d="M56.41,107.76s0-.09,0-.13c-.05-.36-.12-.7-.2-1h0a10.07,10.07,0,0,0-.33-1.07h0a6.64,6.64,0,0,0-1.55-2.5v0a5.89,5.89,0,0,0-.86-.71v0c-.13-.09-.27-.16-.41-.24l-.25-.14-.55-.25-.36-.15-.56-.18-.48-.13-.57-.12-.6-.1-.29,0v0c-.3,0-.6-.07-.92-.08h0l-1,0h0c-.43,0-.83,0-1.21,0L46,101c-.29,0-.57.05-.84.1l-.27,0c-.31.05-.62.12-.9.19h-.07c-3.24.86-4.69,3-5.23,5.92v0c0,.27-.09.54-.13.83v0c0,.08,0,.18,0,.27,0,.25,0,.5-.07.75s0,.26,0,.4c0,.4,0,.8,0,1.22s0,.72,0,1.07,0,.44,0,.66,0,.24,0,.36c0,.29.06.57.1.83,0,0,0,.09,0,.14.05.35.12.69.2,1h0a9.48,9.48,0,0,0,.33,1.06h0a6.67,6.67,0,0,0,1.55,2.5v0a6.4,6.4,0,0,0,.86.7v0a4.41,4.41,0,0,0,.41.24l.25.15c.17.09.36.17.55.25l.36.15.56.19.48.13.57.12c.2,0,.4.07.6.1l.29.05v0l.92.08h0c.32,0,.65,0,1,0h0c.43,0,.83,0,1.21,0l.31,0,.84-.1.27,0c.32-.05.62-.11.9-.18l.07,0c3.24-.86,4.69-3,5.23-5.92h0c.05-.28.1-.55.13-.83v0c0-.09,0-.18,0-.27,0-.25,0-.5.07-.76s0-.26,0-.39c0-.39,0-.8,0-1.21h0c0-.36,0-.71,0-1.06s0-.44,0-.66,0-.25,0-.37c0-.28-.06-.56-.1-.83" transform="translate(-17.16 -13.34)"/></g></g><g class="w"><g class="ae"><path class="f" d="M56.41,129.65s0-.09,0-.13c-.05-.35-.12-.69-.2-1h0a9.93,9.93,0,0,0-.33-1.07h0a6.71,6.71,0,0,0-1.55-2.5v0a5.85,5.85,0,0,0-.86-.7v0a4.41,4.41,0,0,0-.41-.24l-.25-.15-.55-.25-.36-.15-.56-.18-.48-.13c-.18,0-.38-.09-.57-.12s-.4-.08-.6-.1l-.29-.05v0l-.92-.08h0l-1,0h0c-.43,0-.83,0-1.21,0l-.31,0c-.29,0-.57.06-.84.1l-.27,0c-.31.05-.62.11-.9.19h-.07c-3.24.86-4.69,3-5.23,5.92v0c0,.27-.09.55-.13.83v0c0,.09,0,.18,0,.27,0,.25,0,.5-.07.76s0,.26,0,.4c0,.39,0,.79,0,1.21h0c0,.37,0,.71,0,1.07s0,.44,0,.66,0,.24,0,.36c0,.28.06.56.1.83,0,0,0,.09,0,.13.05.36.12.7.2,1h0a9,9,0,0,0,.33,1.06h0a6.61,6.61,0,0,0,1.55,2.5v0a5.91,5.91,0,0,0,.86.71v0l.41.24.25.14.55.25.36.15.56.18.48.13.57.12.6.1.29,0v0c.3,0,.6.07.92.08h0c.32,0,.65,0,1,0h0c.43,0,.83,0,1.21,0l.31,0c.29,0,.57-.05.84-.1l.27,0c.32-.05.62-.12.9-.19l.07,0c3.24-.86,4.69-3,5.23-5.92v0c.05-.27.1-.54.13-.83v0c0-.08,0-.18,0-.27,0-.24,0-.5.07-.75s0-.26,0-.4c0-.39,0-.8,0-1.21h0c0-.36,0-.71,0-1.06s0-.44,0-.66,0-.24,0-.36c0-.29-.06-.56-.1-.83" transform="translate(-17.16 -13.34)"/></g></g><g class="w"><g class="af"><path class="f" d="M56.41,151.52s0-.09,0-.13c-.05-.36-.12-.7-.2-1h0a10.07,10.07,0,0,0-.33-1.07h0a6.64,6.64,0,0,0-1.55-2.5v0a5.89,5.89,0,0,0-.86-.71v0c-.13-.09-.27-.16-.41-.24l-.25-.14-.55-.25-.36-.15-.56-.18-.48-.13-.57-.12-.6-.1-.29,0v0c-.3,0-.6-.07-.92-.08h0l-1,0h0c-.43,0-.83,0-1.21,0l-.31,0c-.29,0-.57.05-.84.1l-.27,0c-.31.05-.62.12-.9.19h-.07c-3.24.86-4.69,3-5.23,5.92v0c0,.27-.09.54-.13.83v0c0,.08,0,.18,0,.27,0,.25,0,.5-.07.75s0,.26,0,.4c0,.4,0,.8,0,1.22s0,.72,0,1.07,0,.44,0,.66,0,.24,0,.36c0,.29.06.57.1.83,0,0,0,.09,0,.14.05.35.12.69.2,1h0a9.48,9.48,0,0,0,.33,1.06h0a6.67,6.67,0,0,0,1.55,2.5v0a6.4,6.4,0,0,0,.86.7v0a4.4,4.4,0,0,0,.41.24l.25.15c.17.09.36.17.55.25l.36.15.56.19.48.13.57.12c.2,0,.4.07.6.1l.29.05v0l.92.08h0c.32,0,.65,0,1,0h0c.43,0,.83,0,1.21,0l.31,0,.84-.1.27,0c.32-.05.62-.11.9-.18l.07,0c3.24-.86,4.69-3,5.23-5.92h0c.05-.28.1-.55.13-.83v0c0-.09,0-.18,0-.27,0-.25,0-.5.07-.76s0-.26,0-.39c0-.39,0-.8,0-1.21h0c0-.36,0-.71,0-1.06s0-.44,0-.66,0-.25,0-.37c0-.28-.06-.56-.1-.83" transform="translate(-17.16 -13.34)"/></g></g><g class="w"><g class="ag"><path class="f" d="M77.62,173.41s0-.09,0-.13c-.05-.35-.12-.69-.2-1h0a9.93,9.93,0,0,0-.33-1.07h0a6.71,6.71,0,0,0-1.55-2.5v0a5.85,5.85,0,0,0-.86-.7v0a4.17,4.17,0,0,0-.41-.24L74,167.6l-.55-.25-.36-.15-.56-.18-.48-.13c-.18,0-.38-.09-.57-.12s-.4-.08-.6-.1l-.29-.05v0l-.92-.08h0l-1,0h0c-.43,0-.83,0-1.21,0l-.31,0c-.29,0-.57.06-.84.1l-.27,0c-.31.05-.62.11-.9.19h-.07c-3.24.86-4.69,3-5.23,5.92v0c0,.27-.09.55-.13.83v0c0,.09,0,.18,0,.27,0,.25,0,.5-.07.76s0,.26,0,.4c0,.39,0,.79,0,1.21h0c0,.37,0,.71,0,1.07s0,.44,0,.66,0,.24,0,.36c0,.28.06.56.1.83,0,0,0,.09,0,.13.05.36.12.7.2,1h0a9,9,0,0,0,.33,1.06h0a6.61,6.61,0,0,0,1.55,2.5v0a5.91,5.91,0,0,0,.86.71v0l.41.24.25.14.55.25.36.15.56.18.48.13.57.12.6.1.29,0v0c.3,0,.6.07.92.08h0c.32,0,.65,0,1,0h0c.43,0,.83,0,1.21,0l.31,0c.29,0,.57-.05.84-.1l.27,0c.32-.05.62-.12.9-.19l.07,0c3.24-.86,4.69-3,5.23-5.92v0c.05-.27.1-.54.13-.83v0c0-.08,0-.18,0-.27,0-.24,0-.5.07-.75s0-.26,0-.4c0-.39,0-.8,0-1.21h0c0-.36,0-.71,0-1.06s0-.44,0-.66,0-.24,0-.36c0-.29-.06-.56-.1-.83" transform="translate(-17.16 -13.34)"/></g></g><g class="w"><g class="ah"><path class="f" d="M77.62,195.29s0-.09,0-.13c-.05-.36-.12-.7-.2-1h0a10.07,10.07,0,0,0-.33-1.07h0a6.64,6.64,0,0,0-1.55-2.5v0a5.89,5.89,0,0,0-.86-.71v0c-.13-.09-.27-.16-.41-.24l-.25-.14-.55-.25-.36-.15-.56-.18-.48-.13-.57-.12-.6-.1-.29,0v0c-.3,0-.6-.07-.92-.08h0l-1,0h0c-.43,0-.83,0-1.21,0l-.31,0c-.29,0-.57.05-.84.1l-.27,0c-.31.05-.62.12-.9.19h-.07c-3.24.86-4.69,3-5.23,5.92v0c0,.27-.09.54-.13.83v0c0,.08,0,.18,0,.27,0,.25,0,.5-.07.75s0,.26,0,.4c0,.4,0,.8,0,1.22s0,.72,0,1.07,0,.44,0,.66,0,.24,0,.36c0,.29.06.57.1.83,0,0,0,.09,0,.14.05.35.12.69.2,1h0a9.48,9.48,0,0,0,.33,1.06h0a6.67,6.67,0,0,0,1.55,2.5v0a6.4,6.4,0,0,0,.86.7v0a4.41,4.41,0,0,0,.41.24l.25.15c.17.09.36.17.55.25l.36.15.56.19.48.13.57.12c.2,0,.4.07.6.1l.29.05v0l.92.08h0c.32,0,.65,0,1,0h0c.43,0,.83,0,1.21,0l.31,0,.84-.1.27,0c.32-.05.62-.11.9-.18l.07,0c3.24-.86,4.69-3,5.23-5.92h0c.05-.28.1-.55.13-.83v0c0-.09,0-.18,0-.27,0-.25,0-.5.07-.76s0-.26,0-.39c0-.39,0-.8,0-1.21h0c0-.36,0-.71,0-1.06s0-.44,0-.66,0-.25,0-.37c0-.28-.06-.56-.1-.83" transform="translate(-17.16 -13.34)"/></g></g><g class="w"><g class="ai"><path class="f" d="M77.62,64s0-.09,0-.13c-.05-.36-.12-.7-.2-1h0a10.07,10.07,0,0,0-.33-1.07h0a6.64,6.64,0,0,0-1.55-2.5v0a5.89,5.89,0,0,0-.86-.71v0c-.13-.09-.27-.16-.41-.24L74,58.2l-.55-.25-.36-.15-.56-.18-.48-.13-.57-.12-.6-.1-.29,0v0c-.3,0-.6-.07-.92-.08h0l-1,0h0c-.43,0-.83,0-1.21,0l-.31,0c-.29,0-.57.05-.84.1l-.27,0c-.31.05-.62.12-.9.19h-.07c-3.24.86-4.69,3-5.23,5.92v0c0,.27-.09.54-.13.83v0c0,.08,0,.18,0,.27,0,.25,0,.5-.07.75s0,.26,0,.4c0,.4,0,.8,0,1.22s0,.72,0,1.07,0,.44,0,.66,0,.24,0,.36c0,.29.06.57.1.83,0,0,0,.09,0,.14.05.35.12.69.2,1h0a9.48,9.48,0,0,0,.33,1.06h0a6.67,6.67,0,0,0,1.55,2.5v0a6.4,6.4,0,0,0,.86.7v0a4.41,4.41,0,0,0,.41.24l.25.15c.17.09.36.17.55.25l.36.15.56.19.48.13.57.12c.2,0,.4.07.6.1l.29.05v0l.92.08h0c.32,0,.65,0,1,0h0c.43,0,.83,0,1.21,0l.31,0,.84-.1.27,0c.32-.05.62-.11.9-.18l.07,0c3.24-.86,4.69-3,5.23-5.92h0c.05-.28.1-.55.13-.83v0c0-.09,0-.18,0-.27,0-.25,0-.5.07-.76s0-.26,0-.39c0-.39,0-.8,0-1.21h0c0-.36,0-.71,0-1.06s0-.44,0-.66,0-.25,0-.37c0-.28-.06-.56-.1-.83" transform="translate(-17.16 -13.34)"/></g></g><g class="w"><g class="aj"><path class="f" d="M77.62,85.88s0-.09,0-.13c-.05-.35-.12-.69-.2-1h0a9.93,9.93,0,0,0-.33-1.07h0a6.71,6.71,0,0,0-1.55-2.5v0a5.85,5.85,0,0,0-.86-.7v0a4.17,4.17,0,0,0-.41-.24L74,80.07l-.55-.25-.36-.15-.56-.18-.48-.13c-.18,0-.38-.09-.57-.12s-.4-.08-.6-.1l-.29-.05v0L69.7,79h0l-1,0h0c-.43,0-.83,0-1.21,0l-.31,0c-.29,0-.57.06-.84.1l-.27,0c-.31.05-.62.11-.9.19h-.07c-3.24.86-4.69,3-5.23,5.92v0c0,.27-.09.55-.13.83v0c0,.09,0,.18,0,.27,0,.25,0,.5-.07.76s0,.26,0,.4c0,.39,0,.79,0,1.21h0c0,.37,0,.71,0,1.07s0,.44,0,.66,0,.24,0,.36c0,.28.06.56.1.83,0,0,0,.09,0,.13.05.36.12.7.2,1h0a9,9,0,0,0,.33,1.06h0a6.61,6.61,0,0,0,1.55,2.5v0a5.91,5.91,0,0,0,.86.71v0l.41.24.25.14.55.25.36.15.56.18.48.13.57.12.6.1.29,0v0c.3,0,.6.07.92.08h0c.32,0,.65,0,1,0h0c.43,0,.83,0,1.21,0l.31,0c.29,0,.57-.05.84-.1l.27,0c.32-.05.62-.12.9-.19l.07,0c3.24-.86,4.69-3,5.23-5.92v0c.05-.27.1-.54.13-.83v0c0-.08,0-.18,0-.27,0-.24,0-.5.07-.75s0-.26,0-.4c0-.39,0-.8,0-1.21h0c0-.36,0-.71,0-1.06s0-.44,0-.66,0-.24,0-.36c0-.29-.06-.56-.1-.83" transform="translate(-17.16 -13.34)"/></g></g><g class="w"><g class="ak"><path class="f" d="M77.62,107.76s0-.09,0-.13c-.05-.36-.12-.7-.2-1h0a10.07,10.07,0,0,0-.33-1.07h0a6.64,6.64,0,0,0-1.55-2.5v0a5.89,5.89,0,0,0-.86-.71v0c-.13-.09-.27-.16-.41-.24L74,102l-.55-.25-.36-.15-.56-.18-.48-.13-.57-.12-.6-.1-.29,0v0c-.3,0-.6-.07-.92-.08h0l-1,0h0c-.43,0-.83,0-1.21,0l-.31,0c-.29,0-.57.05-.84.1l-.27,0c-.31.05-.62.12-.9.19h-.07c-3.24.86-4.69,3-5.23,5.92v0c0,.27-.09.54-.13.83v0c0,.08,0,.18,0,.27,0,.25,0,.5-.07.75s0,.26,0,.4c0,.4,0,.8,0,1.22s0,.72,0,1.07,0,.44,0,.66,0,.24,0,.36c0,.29.06.57.1.83,0,0,0,.09,0,.14.05.35.12.69.2,1h0a9.48,9.48,0,0,0,.33,1.06h0a6.67,6.67,0,0,0,1.55,2.5v0a6.4,6.4,0,0,0,.86.7v0a4.41,4.41,0,0,0,.41.24l.25.15c.17.09.36.17.55.25l.36.15.56.19.48.13.57.12c.2,0,.4.07.6.1l.29.05v0l.92.08h0c.32,0,.65,0,1,0h0c.43,0,.83,0,1.21,0l.31,0,.84-.1.27,0c.32-.05.62-.11.9-.18l.07,0c3.24-.86,4.69-3,5.23-5.92h0c.05-.28.1-.55.13-.83v0c0-.09,0-.18,0-.27,0-.25,0-.5.07-.76s0-.26,0-.39c0-.39,0-.8,0-1.21h0c0-.36,0-.71,0-1.06s0-.44,0-.66,0-.25,0-.37c0-.28-.06-.56-.1-.83" transform="translate(-17.16 -13.34)"/></g></g><g class="w"><g class="al"><path class="f" d="M77.62,129.65s0-.09,0-.13c-.05-.35-.12-.69-.2-1h0a9.93,9.93,0,0,0-.33-1.07h0a6.71,6.71,0,0,0-1.55-2.5v0a5.85,5.85,0,0,0-.86-.7v0a4.17,4.17,0,0,0-.41-.24l-.25-.15-.55-.25-.36-.15-.56-.18-.48-.13c-.18,0-.38-.09-.57-.12s-.4-.08-.6-.1l-.29-.05v0l-.92-.08h0l-1,0h0c-.43,0-.83,0-1.21,0l-.31,0c-.29,0-.57.06-.84.1l-.27,0c-.31.05-.62.11-.9.19h-.07c-3.24.86-4.69,3-5.23,5.92v0c0,.27-.09.55-.13.83v0c0,.09,0,.18,0,.27,0,.25,0,.5-.07.76s0,.26,0,.4c0,.39,0,.79,0,1.21h0c0,.37,0,.71,0,1.07s0,.44,0,.66,0,.24,0,.36c0,.28.06.56.1.83,0,0,0,.09,0,.13.05.36.12.7.2,1h0a9,9,0,0,0,.33,1.06h0a6.61,6.61,0,0,0,1.55,2.5v0a5.91,5.91,0,0,0,.86.71v0l.41.24.25.14.55.25.36.15.56.18.48.13.57.12.6.1.29,0v0c.3,0,.6.07.92.08h0c.32,0,.65,0,1,0h0c.43,0,.83,0,1.21,0l.31,0c.29,0,.57-.05.84-.1l.27,0c.32-.05.62-.12.9-.19l.07,0c3.24-.86,4.69-3,5.23-5.92v0c.05-.27.1-.54.13-.83v0c0-.08,0-.18,0-.27,0-.24,0-.5.07-.75s0-.26,0-.4c0-.39,0-.8,0-1.21h0c0-.36,0-.71,0-1.06s0-.44,0-.66,0-.24,0-.36c0-.29-.06-.56-.1-.83" transform="translate(-17.16 -13.34)"/></g></g><g class="w"><g class="am"><path class="f" d="M77.62,151.52s0-.09,0-.13c-.05-.36-.12-.7-.2-1h0a10.07,10.07,0,0,0-.33-1.07h0a6.64,6.64,0,0,0-1.55-2.5v0a5.89,5.89,0,0,0-.86-.71v0c-.13-.09-.27-.16-.41-.24l-.25-.14-.55-.25-.36-.15-.56-.18-.48-.13-.57-.12-.6-.1-.29,0v0c-.3,0-.6-.07-.92-.08h0l-1,0h0c-.43,0-.83,0-1.21,0l-.31,0c-.29,0-.57.05-.84.1l-.27,0c-.31.05-.62.12-.9.19h-.07c-3.24.86-4.69,3-5.23,5.92v0c0,.27-.09.54-.13.83v0c0,.08,0,.18,0,.27,0,.25,0,.5-.07.75s0,.26,0,.4c0,.4,0,.8,0,1.22s0,.72,0,1.07,0,.44,0,.66,0,.24,0,.36c0,.29.06.57.1.83,0,0,0,.09,0,.14.05.35.12.69.2,1h0a9.48,9.48,0,0,0,.33,1.06h0a6.67,6.67,0,0,0,1.55,2.5v0a6.4,6.4,0,0,0,.86.7v0a4.4,4.4,0,0,0,.41.24l.25.15c.17.09.36.17.55.25l.36.15.56.19.48.13.57.12c.2,0,.4.07.6.1l.29.05v0l.92.08h0c.32,0,.65,0,1,0h0c.43,0,.83,0,1.21,0l.31,0,.84-.1.27,0c.32-.05.62-.11.9-.18l.07,0c3.24-.86,4.69-3,5.23-5.92h0c.05-.28.1-.55.13-.83v0c0-.09,0-.18,0-.27,0-.25,0-.5.07-.76s0-.26,0-.39c0-.39,0-.8,0-1.21h0c0-.36,0-.71,0-1.06s0-.44,0-.66,0-.25,0-.37c0-.28-.06-.56-.1-.83" transform="translate(-17.16 -13.34)"/></g></g><g class="w"><g class="an"><path class="f" d="M98.84,173.41s0-.09,0-.13c-.05-.35-.12-.69-.2-1h0a9.93,9.93,0,0,0-.33-1.07h0a6.71,6.71,0,0,0-1.55-2.5v0a5.85,5.85,0,0,0-.86-.7v0a4.17,4.17,0,0,0-.41-.24l-.25-.15-.55-.25-.36-.15-.56-.18-.48-.13c-.18,0-.38-.09-.57-.12s-.4-.08-.6-.1l-.29-.05v0l-.92-.08h0l-1,0h0c-.43,0-.83,0-1.21,0l-.31,0c-.29,0-.57.06-.84.1l-.27,0c-.31.05-.62.11-.9.19H86.3c-3.24.86-4.69,3-5.23,5.92v0c0,.27-.09.55-.13.83v0c0,.09,0,.18,0,.27,0,.25,0,.5-.07.76s0,.26,0,.4c0,.39,0,.79,0,1.21h0c0,.37,0,.71,0,1.07s0,.44,0,.66,0,.24,0,.36c0,.28.06.56.1.83,0,0,0,.09,0,.13.05.36.12.7.2,1h0a9,9,0,0,0,.33,1.06h0a6.61,6.61,0,0,0,1.55,2.5v0a5.91,5.91,0,0,0,.86.71v0l.41.24.25.14.55.25.36.15.56.18.48.13.57.12.6.1.29,0v0c.3,0,.6.07.92.08h0c.32,0,.65,0,1,0h0c.43,0,.83,0,1.21,0l.31,0c.29,0,.57-.05.84-.1l.27,0c.32-.05.62-.12.9-.19l.07,0c3.24-.86,4.69-3,5.23-5.92v0c.05-.27.1-.54.13-.83v0c0-.08,0-.18,0-.27,0-.24,0-.5.07-.75s0-.26,0-.4c0-.39,0-.8,0-1.21h0c0-.36,0-.71,0-1.06s0-.44,0-.66,0-.24,0-.36c0-.29-.06-.56-.1-.83" transform="translate(-17.16 -13.34)"/></g></g><g class="w"><g class="ao"><path class="f" d="M98.84,195.29s0-.09,0-.13c-.05-.36-.12-.7-.2-1h0a10.07,10.07,0,0,0-.33-1.07h0a6.64,6.64,0,0,0-1.55-2.5v0a5.89,5.89,0,0,0-.86-.71v0c-.13-.09-.27-.16-.41-.24l-.25-.14-.55-.25-.36-.15-.56-.18-.48-.13-.57-.12-.6-.1-.29,0v0c-.3,0-.6-.07-.92-.08h0l-1,0h0c-.43,0-.83,0-1.21,0l-.31,0c-.29,0-.57.05-.84.1l-.27,0c-.31.05-.62.12-.9.19H86.3c-3.24.86-4.69,3-5.23,5.92v0c0,.27-.09.54-.13.83v0c0,.08,0,.18,0,.27,0,.25,0,.5-.07.75s0,.26,0,.4c0,.4,0,.8,0,1.22s0,.72,0,1.07,0,.44,0,.66,0,.24,0,.36c0,.29.06.57.1.83,0,0,0,.09,0,.14.05.35.12.69.2,1h0a9.48,9.48,0,0,0,.33,1.06h0a6.67,6.67,0,0,0,1.55,2.5v0a6.4,6.4,0,0,0,.86.7v0a4.41,4.41,0,0,0,.41.24l.25.15c.17.09.36.17.55.25l.36.15.56.19.48.13.57.12c.2,0,.4.07.6.1l.29.05v0l.92.08h0c.32,0,.65,0,1,0h0c.43,0,.83,0,1.21,0l.31,0,.84-.1.27,0c.32-.05.62-.11.9-.18l.07,0c3.24-.86,4.69-3,5.23-5.92h0c.05-.28.1-.55.13-.83v0c0-.09,0-.18,0-.27,0-.25,0-.5.07-.76s0-.26,0-.39c0-.39,0-.8,0-1.21h0c0-.36,0-.71,0-1.06s0-.44,0-.66,0-.25,0-.37c0-.28-.06-.56-.1-.83" transform="translate(-17.16 -13.34)"/></g></g><g class="w"><g class="ap"><path class="f" d="M98.84,64s0-.09,0-.13c-.05-.36-.12-.7-.2-1h0a10.07,10.07,0,0,0-.33-1.07h0a6.64,6.64,0,0,0-1.55-2.5v0a5.89,5.89,0,0,0-.86-.71v0c-.13-.09-.27-.16-.41-.24l-.25-.14-.55-.25-.36-.15-.56-.18-.48-.13-.57-.12-.6-.1-.29,0v0c-.3,0-.6-.07-.92-.08h0l-1,0h0c-.43,0-.83,0-1.21,0l-.31,0c-.29,0-.57.05-.84.1l-.27,0c-.31.05-.62.12-.9.19H86.3c-3.24.86-4.69,3-5.23,5.92v0c0,.27-.09.54-.13.83v0c0,.08,0,.18,0,.27,0,.25,0,.5-.07.75s0,.26,0,.4c0,.4,0,.8,0,1.22s0,.72,0,1.07,0,.44,0,.66,0,.24,0,.36c0,.29.06.57.1.83,0,0,0,.09,0,.14.05.35.12.69.2,1h0a9.48,9.48,0,0,0,.33,1.06h0a6.67,6.67,0,0,0,1.55,2.5v0a6.4,6.4,0,0,0,.86.7v0a4.41,4.41,0,0,0,.41.24l.25.15c.17.09.36.17.55.25l.36.15.56.19.48.13.57.12c.2,0,.4.07.6.1l.29.05v0l.92.08h0c.32,0,.65,0,1,0h0c.43,0,.83,0,1.21,0l.31,0,.84-.1.27,0c.32-.05.62-.11.9-.18l.07,0c3.24-.86,4.69-3,5.23-5.92h0c.05-.28.1-.55.13-.83v0c0-.09,0-.18,0-.27,0-.25,0-.5.07-.76s0-.26,0-.39c0-.39,0-.8,0-1.21h0c0-.36,0-.71,0-1.06s0-.44,0-.66,0-.25,0-.37c0-.28-.06-.56-.1-.83" transform="translate(-17.16 -13.34)"/></g></g><g class="w"><g class="aq"><path class="f" d="M98.84,85.88s0-.09,0-.13c-.05-.35-.12-.69-.2-1h0a9.93,9.93,0,0,0-.33-1.07h0a6.71,6.71,0,0,0-1.55-2.5v0a5.85,5.85,0,0,0-.86-.7v0a4.17,4.17,0,0,0-.41-.24l-.25-.15-.55-.25-.36-.15-.56-.18-.48-.13c-.18,0-.38-.09-.57-.12s-.4-.08-.6-.1l-.29-.05v0L90.92,79h0l-1,0h0c-.43,0-.83,0-1.21,0l-.31,0c-.29,0-.57.06-.84.1l-.27,0c-.31.05-.62.11-.9.19H86.3c-3.24.86-4.69,3-5.23,5.92v0c0,.27-.09.55-.13.83v0c0,.09,0,.18,0,.27,0,.25,0,.5-.07.76s0,.26,0,.4c0,.39,0,.79,0,1.21h0c0,.37,0,.71,0,1.07s0,.44,0,.66,0,.24,0,.36c0,.28.06.56.1.83,0,0,0,.09,0,.13.05.36.12.7.2,1h0a9,9,0,0,0,.33,1.06h0a6.61,6.61,0,0,0,1.55,2.5v0a5.91,5.91,0,0,0,.86.71v0l.41.24.25.14.55.25.36.15.56.18.48.13.57.12.6.1.29,0v0c.3,0,.6.07.92.08h0c.32,0,.65,0,1,0h0c.43,0,.83,0,1.21,0l.31,0c.29,0,.57-.05.84-.1l.27,0c.32-.05.62-.12.9-.19l.07,0c3.24-.86,4.69-3,5.23-5.92v0c.05-.27.1-.54.13-.83v0c0-.08,0-.18,0-.27,0-.24,0-.5.07-.75s0-.26,0-.4c0-.39,0-.8,0-1.21h0c0-.36,0-.71,0-1.06s0-.44,0-.66,0-.24,0-.36c0-.29-.06-.56-.1-.83" transform="translate(-17.16 -13.34)"/></g></g><g class="w"><g class="ar"><path class="f" d="M98.84,107.76s0-.09,0-.13c-.05-.36-.12-.7-.2-1h0a10.07,10.07,0,0,0-.33-1.07h0a6.64,6.64,0,0,0-1.55-2.5v0a5.89,5.89,0,0,0-.86-.71v0c-.13-.09-.27-.16-.41-.24l-.25-.14-.55-.25-.36-.15-.56-.18-.48-.13-.57-.12-.6-.1-.29,0v0c-.3,0-.6-.07-.92-.08h0l-1,0h0c-.43,0-.83,0-1.21,0l-.31,0c-.29,0-.57.05-.84.1l-.27,0c-.31.05-.62.12-.9.19H86.3c-3.24.86-4.69,3-5.23,5.92v0c0,.27-.09.54-.13.83v0c0,.08,0,.18,0,.27,0,.25,0,.5-.07.75s0,.26,0,.4c0,.4,0,.8,0,1.22s0,.72,0,1.07,0,.44,0,.66,0,.24,0,.36c0,.29.06.57.1.83,0,0,0,.09,0,.14.05.35.12.69.2,1h0a9.48,9.48,0,0,0,.33,1.06h0a6.67,6.67,0,0,0,1.55,2.5v0a6.4,6.4,0,0,0,.86.7v0a4.41,4.41,0,0,0,.41.24l.25.15c.17.09.36.17.55.25l.36.15.56.19.48.13.57.12c.2,0,.4.07.6.1l.29.05v0l.92.08h0c.32,0,.65,0,1,0h0c.43,0,.83,0,1.21,0l.31,0,.84-.1.27,0c.32-.05.62-.11.9-.18l.07,0c3.24-.86,4.69-3,5.23-5.92h0c.05-.28.1-.55.13-.83v0c0-.09,0-.18,0-.27,0-.25,0-.5.07-.76s0-.26,0-.39c0-.39,0-.8,0-1.21h0c0-.36,0-.71,0-1.06s0-.44,0-.66,0-.25,0-.37c0-.28-.06-.56-.1-.83" transform="translate(-17.16 -13.34)"/></g></g><g class="w"><g class="as"><path class="f" d="M98.84,129.65s0-.09,0-.13c-.05-.35-.12-.69-.2-1h0a9.93,9.93,0,0,0-.33-1.07h0a6.71,6.71,0,0,0-1.55-2.5v0a5.85,5.85,0,0,0-.86-.7v0a4.17,4.17,0,0,0-.41-.24l-.25-.15-.55-.25-.36-.15-.56-.18-.48-.13c-.18,0-.38-.09-.57-.12s-.4-.08-.6-.1l-.29-.05v0l-.92-.08h0l-1,0h0c-.43,0-.83,0-1.21,0l-.31,0c-.29,0-.57.06-.84.1l-.27,0c-.31.05-.62.11-.9.19H86.3c-3.24.86-4.69,3-5.23,5.92v0c0,.27-.09.55-.13.83v0c0,.09,0,.18,0,.27,0,.25,0,.5-.07.76s0,.26,0,.4c0,.39,0,.79,0,1.21h0c0,.37,0,.71,0,1.07s0,.44,0,.66,0,.24,0,.36c0,.28.06.56.1.83,0,0,0,.09,0,.13.05.36.12.7.2,1h0a9,9,0,0,0,.33,1.06h0a6.61,6.61,0,0,0,1.55,2.5v0a5.91,5.91,0,0,0,.86.71v0l.41.24.25.14.55.25.36.15.56.18.48.13.57.12.6.1.29,0v0c.3,0,.6.07.92.08h0c.32,0,.65,0,1,0h0c.43,0,.83,0,1.21,0l.31,0c.29,0,.57-.05.84-.1l.27,0c.32-.05.62-.12.9-.19l.07,0c3.24-.86,4.69-3,5.23-5.92v0c.05-.27.1-.54.13-.83v0c0-.08,0-.18,0-.27,0-.24,0-.5.07-.75s0-.26,0-.4c0-.39,0-.8,0-1.21h0c0-.36,0-.71,0-1.06s0-.44,0-.66,0-.24,0-.36c0-.29-.06-.56-.1-.83" transform="translate(-17.16 -13.34)"/></g></g><g class="w"><g class="at"><path class="f" d="M98.84,151.52s0-.09,0-.13c-.05-.36-.12-.7-.2-1h0a10.07,10.07,0,0,0-.33-1.07h0a6.64,6.64,0,0,0-1.55-2.5v0a5.89,5.89,0,0,0-.86-.71v0c-.13-.09-.27-.16-.41-.24l-.25-.14-.55-.25-.36-.15-.56-.18L93.3,145l-.57-.12-.6-.1-.29,0v0c-.3,0-.6-.07-.92-.08h0l-1,0h0c-.43,0-.83,0-1.21,0l-.31,0c-.29,0-.57.05-.84.1l-.27,0c-.31.05-.62.12-.9.19H86.3c-3.24.86-4.69,3-5.23,5.92v0c0,.27-.09.54-.13.83v0c0,.08,0,.18,0,.27,0,.25,0,.5-.07.75s0,.26,0,.4c0,.4,0,.8,0,1.22s0,.72,0,1.07,0,.44,0,.66,0,.24,0,.36c0,.29.06.57.1.83,0,0,0,.09,0,.14.05.35.12.69.2,1h0a9.48,9.48,0,0,0,.33,1.06h0a6.67,6.67,0,0,0,1.55,2.5v0a6.4,6.4,0,0,0,.86.7v0a4.41,4.41,0,0,0,.41.24l.25.15c.17.09.36.17.55.25l.36.15.56.19.48.13.57.12c.2,0,.4.07.6.1l.29.05v0l.92.08h0c.32,0,.65,0,1,0h0c.43,0,.83,0,1.21,0l.31,0,.84-.1.27,0c.32-.05.62-.11.9-.18l.07,0c3.24-.86,4.69-3,5.23-5.92h0c.05-.28.1-.55.13-.83v0c0-.09,0-.18,0-.27,0-.25,0-.5.07-.76s0-.26,0-.39c0-.39,0-.8,0-1.21h0c0-.36,0-.71,0-1.06s0-.44,0-.66,0-.25,0-.37c0-.28-.06-.56-.1-.83" transform="translate(-17.16 -13.34)"/></g></g><g class="w"><g class="au"><path class="f" d="M120.05,173.41s0-.09,0-.13c-.05-.35-.12-.69-.2-1h0a9.93,9.93,0,0,0-.33-1.07h0a6.71,6.71,0,0,0-1.55-2.5v0a5.85,5.85,0,0,0-.86-.7v0a4.17,4.17,0,0,0-.41-.24l-.25-.15-.55-.25-.36-.15L115,167l-.48-.13c-.18,0-.38-.09-.57-.12s-.4-.08-.6-.1l-.29-.05v0l-.92-.08h0l-1,0h0c-.43,0-.83,0-1.21,0l-.31,0c-.29,0-.57.06-.84.1l-.27,0c-.31.05-.62.11-.9.19h-.07c-3.24.86-4.69,3-5.23,5.92v0c0,.27-.09.55-.13.83v0c0,.09,0,.18,0,.27,0,.25,0,.5-.07.76s0,.26,0,.4c0,.39,0,.79,0,1.21h0c0,.37,0,.71,0,1.07s0,.44,0,.66,0,.24,0,.36c0,.28.06.56.1.83,0,0,0,.09,0,.13.05.36.12.7.2,1h0a9,9,0,0,0,.33,1.06h0a6.61,6.61,0,0,0,1.55,2.5v0a5.91,5.91,0,0,0,.86.71v0l.41.24.25.14.55.25.36.15.56.18.48.13.57.12.6.1.29,0v0c.3,0,.6.07.92.08h0c.32,0,.65,0,1,0h0c.43,0,.83,0,1.21,0l.31,0c.29,0,.57-.05.84-.1l.27,0c.32-.05.62-.12.9-.19l.07,0c3.24-.86,4.69-3,5.23-5.92v0c.05-.27.1-.54.13-.83v0c0-.08,0-.18,0-.27,0-.24,0-.5.07-.75s0-.26,0-.4c0-.39,0-.8,0-1.21h0c0-.36,0-.71,0-1.06s0-.44,0-.66,0-.24,0-.36c0-.29-.06-.56-.1-.83" transform="translate(-17.16 -13.34)"/></g></g><g class="w"><g class="av"><path class="f" d="M120.05,85.88s0-.09,0-.13c-.05-.35-.12-.69-.2-1h0a9.93,9.93,0,0,0-.33-1.07h0a6.71,6.71,0,0,0-1.55-2.5v0a5.85,5.85,0,0,0-.86-.7v0a4.17,4.17,0,0,0-.41-.24l-.25-.15-.55-.25-.36-.15-.56-.18-.48-.13c-.18,0-.38-.09-.57-.12s-.4-.08-.6-.1L113,79.1v0l-.92-.08h0l-1,0h0c-.43,0-.83,0-1.21,0l-.31,0c-.29,0-.57.06-.84.1l-.27,0c-.31.05-.62.11-.9.19h-.07c-3.24.86-4.69,3-5.23,5.92v0c0,.27-.09.55-.13.83v0c0,.09,0,.18,0,.27,0,.25,0,.5-.07.76s0,.26,0,.4c0,.39,0,.79,0,1.21h0c0,.37,0,.71,0,1.07s0,.44,0,.66,0,.24,0,.36c0,.28.06.56.1.83,0,0,0,.09,0,.13.05.36.12.7.2,1h0a9,9,0,0,0,.33,1.06h0a6.61,6.61,0,0,0,1.55,2.5v0a5.91,5.91,0,0,0,.86.71v0l.41.24.25.14.55.25.36.15.56.18.48.13.57.12.6.1.29,0v0c.3,0,.6.07.92.08h0c.32,0,.65,0,1,0h0c.43,0,.83,0,1.21,0l.31,0c.29,0,.57-.05.84-.1l.27,0c.32-.05.62-.12.9-.19l.07,0c3.24-.86,4.69-3,5.23-5.92v0c.05-.27.1-.54.13-.83v0c0-.08,0-.18,0-.27,0-.24,0-.5.07-.75s0-.26,0-.4c0-.39,0-.8,0-1.21h0c0-.36,0-.71,0-1.06s0-.44,0-.66,0-.24,0-.36c0-.29-.06-.56-.1-.83" transform="translate(-17.16 -13.34)"/></g></g><g class="w"><g class="aw"><path class="f" d="M120.05,107.76s0-.09,0-.13c-.05-.36-.12-.7-.2-1h0a10.07,10.07,0,0,0-.33-1.07h0A6.64,6.64,0,0,0,118,103v0a5.89,5.89,0,0,0-.86-.71v0c-.13-.09-.27-.16-.41-.24l-.25-.14-.55-.25-.36-.15-.56-.18-.48-.13-.57-.12-.6-.1-.29,0v0c-.3,0-.6-.07-.92-.08h0l-1,0h0c-.43,0-.83,0-1.21,0l-.31,0c-.29,0-.57.05-.84.1l-.27,0c-.31.05-.62.12-.9.19h-.07c-3.24.86-4.69,3-5.23,5.92v0c0,.27-.09.54-.13.83v0c0,.08,0,.18,0,.27,0,.25,0,.5-.07.75s0,.26,0,.4c0,.4,0,.8,0,1.22s0,.72,0,1.07,0,.44,0,.66,0,.24,0,.36c0,.29.06.57.1.83,0,0,0,.09,0,.14.05.35.12.69.2,1h0a9.48,9.48,0,0,0,.33,1.06h0a6.67,6.67,0,0,0,1.55,2.5v0a6.4,6.4,0,0,0,.86.7v0a4.41,4.41,0,0,0,.41.24l.25.15c.17.09.36.17.55.25l.36.15.56.19.48.13.57.12c.2,0,.4.07.6.1l.29.05v0l.92.08h0c.32,0,.65,0,1,0h0c.43,0,.83,0,1.21,0l.31,0,.84-.1.27,0c.32-.05.62-.11.9-.18l.07,0c3.24-.86,4.69-3,5.23-5.92h0c.05-.28.1-.55.13-.83v0c0-.09,0-.18,0-.27,0-.25,0-.5.07-.76s0-.26,0-.39c0-.39,0-.8,0-1.21h0c0-.36,0-.71,0-1.06s0-.44,0-.66,0-.25,0-.37c0-.28-.06-.56-.1-.83" transform="translate(-17.16 -13.34)"/></g></g><g class="w"><g class="ax"><path class="f" d="M120.05,129.65s0-.09,0-.13c-.05-.35-.12-.69-.2-1h0a9.93,9.93,0,0,0-.33-1.07h0a6.71,6.71,0,0,0-1.55-2.5v0a5.85,5.85,0,0,0-.86-.7v0a4.17,4.17,0,0,0-.41-.24l-.25-.15-.55-.25-.36-.15-.56-.18-.48-.13c-.18,0-.38-.09-.57-.12s-.4-.08-.6-.1l-.29-.05v0l-.92-.08h0l-1,0h0c-.43,0-.83,0-1.21,0l-.31,0c-.29,0-.57.06-.84.1l-.27,0c-.31.05-.62.11-.9.19h-.07c-3.24.86-4.69,3-5.23,5.92v0c0,.27-.09.55-.13.83v0c0,.09,0,.18,0,.27,0,.25,0,.5-.07.76s0,.26,0,.4c0,.39,0,.79,0,1.21h0c0,.37,0,.71,0,1.07s0,.44,0,.66,0,.24,0,.36c0,.28.06.56.1.83,0,0,0,.09,0,.13.05.36.12.7.2,1h0a9,9,0,0,0,.33,1.06h0a6.61,6.61,0,0,0,1.55,2.5v0a5.91,5.91,0,0,0,.86.71v0l.41.24.25.14.55.25.36.15.56.18.48.13.57.12.6.1.29,0v0c.3,0,.6.07.92.08h0c.32,0,.65,0,1,0h0c.43,0,.83,0,1.21,0l.31,0c.29,0,.57-.05.84-.1l.27,0c.32-.05.62-.12.9-.19l.07,0c3.24-.86,4.69-3,5.23-5.92v0c.05-.27.1-.54.13-.83v0c0-.08,0-.18,0-.27,0-.24,0-.5.07-.75s0-.26,0-.4c0-.39,0-.8,0-1.21h0c0-.36,0-.71,0-1.06s0-.44,0-.66,0-.24,0-.36c0-.29-.06-.56-.1-.83" transform="translate(-17.16 -13.34)"/></g></g><g class="w"><g class="ay"><path class="f" d="M120.05,151.52s0-.09,0-.13c-.05-.36-.12-.7-.2-1h0a10.07,10.07,0,0,0-.33-1.07h0a6.64,6.64,0,0,0-1.55-2.5v0a5.89,5.89,0,0,0-.86-.71v0c-.13-.09-.27-.16-.41-.24l-.25-.14-.55-.25-.36-.15-.56-.18-.48-.13-.57-.12-.6-.1-.29,0v0c-.3,0-.6-.07-.92-.08h0l-1,0h0c-.43,0-.83,0-1.21,0l-.31,0c-.29,0-.57.05-.84.1l-.27,0c-.31.05-.62.12-.9.19h-.07c-3.24.86-4.69,3-5.23,5.92v0c0,.27-.09.54-.13.83v0c0,.08,0,.18,0,.27,0,.25,0,.5-.07.75s0,.26,0,.4c0,.4,0,.8,0,1.22s0,.72,0,1.07,0,.44,0,.66,0,.24,0,.36c0,.29.06.57.1.83,0,0,0,.09,0,.14.05.35.12.69.2,1h0a9.48,9.48,0,0,0,.33,1.06h0a6.67,6.67,0,0,0,1.55,2.5v0a6.4,6.4,0,0,0,.86.7v0a4.41,4.41,0,0,0,.41.24l.25.15c.17.09.36.17.55.25l.36.15.56.19.48.13.57.12c.2,0,.4.07.6.1l.29.05v0l.92.08h0c.32,0,.65,0,1,0h0c.43,0,.83,0,1.21,0l.31,0,.84-.1.27,0c.32-.05.62-.11.9-.18l.07,0c3.24-.86,4.69-3,5.23-5.92h0c.05-.28.1-.55.13-.83v0c0-.09,0-.18,0-.27,0-.25,0-.5.07-.76s0-.26,0-.39c0-.39,0-.8,0-1.21h0c0-.36,0-.71,0-1.06s0-.44,0-.66,0-.25,0-.37c0-.28-.06-.56-.1-.83" transform="translate(-17.16 -13.34)"/></g></g><g class="w"><g class="az"><path class="f" d="M141.27,173.41s0-.09,0-.13c-.05-.35-.12-.69-.2-1h0a9.93,9.93,0,0,0-.33-1.07h0a6.71,6.71,0,0,0-1.55-2.5v0a5.85,5.85,0,0,0-.86-.7v0a4.17,4.17,0,0,0-.41-.24l-.25-.15-.55-.25-.36-.15-.56-.18-.48-.13c-.18,0-.38-.09-.57-.12s-.4-.08-.6-.1l-.29-.05v0l-.92-.08h0l-1,0h0c-.43,0-.83,0-1.21,0l-.31,0c-.29,0-.57.06-.84.1l-.27,0c-.31.05-.62.11-.9.19h-.07c-3.24.86-4.69,3-5.23,5.92v0c0,.27-.09.55-.13.83v0c0,.09,0,.18,0,.27,0,.25,0,.5-.07.76s0,.26,0,.4c0,.39,0,.79,0,1.21h0c0,.37,0,.71,0,1.07s0,.44,0,.66,0,.24,0,.36c0,.28.06.56.1.83,0,0,0,.09,0,.13.05.36.12.7.2,1h0a9,9,0,0,0,.33,1.06h0a6.61,6.61,0,0,0,1.55,2.5v0a5.91,5.91,0,0,0,.86.71v0l.41.24.25.14.55.25.36.15.56.18.48.13.57.12.6.1.29,0v0c.3,0,.6.07.92.08h0c.32,0,.65,0,1,0h0c.43,0,.83,0,1.21,0l.31,0c.29,0,.57-.05.84-.1l.27,0c.32-.05.62-.12.9-.19l.07,0c3.24-.86,4.69-3,5.23-5.92v0c.05-.27.1-.54.13-.83v0c0-.08,0-.18,0-.27,0-.24,0-.5.07-.75s0-.26,0-.4c0-.39,0-.8,0-1.21h0c0-.36,0-.71,0-1.06s0-.44,0-.66,0-.24,0-.36c0-.29-.06-.56-.1-.83" transform="translate(-17.16 -13.34)"/></g></g><g class="w"><g class="ba"><path class="f" d="M141.27,85.88s0-.09,0-.13c-.05-.35-.12-.69-.2-1h0a9.93,9.93,0,0,0-.33-1.07h0a6.71,6.71,0,0,0-1.55-2.5v0a5.85,5.85,0,0,0-.86-.7v0a4.17,4.17,0,0,0-.41-.24l-.25-.15-.55-.25-.36-.15-.56-.18-.48-.13c-.18,0-.38-.09-.57-.12s-.4-.08-.6-.1l-.29-.05v0l-.92-.08h0l-1,0h0c-.43,0-.83,0-1.21,0l-.31,0c-.29,0-.57.06-.84.1l-.27,0c-.31.05-.62.11-.9.19h-.07c-3.24.86-4.69,3-5.23,5.92v0c0,.27-.09.55-.13.83v0c0,.09,0,.18,0,.27,0,.25,0,.5-.07.76s0,.26,0,.4c0,.39,0,.79,0,1.21h0c0,.37,0,.71,0,1.07s0,.44,0,.66,0,.24,0,.36c0,.28.06.56.1.83,0,0,0,.09,0,.13.05.36.12.7.2,1h0a9,9,0,0,0,.33,1.06h0a6.61,6.61,0,0,0,1.55,2.5v0a5.91,5.91,0,0,0,.86.71v0l.41.24.25.14.55.25.36.15.56.18.48.13.57.12.6.1.29,0v0c.3,0,.6.07.92.08h0c.32,0,.65,0,1,0h0c.43,0,.83,0,1.21,0l.31,0c.29,0,.57-.05.84-.1l.27,0c.32-.05.62-.12.9-.19l.07,0c3.24-.86,4.69-3,5.23-5.92v0c.05-.27.1-.54.13-.83v0c0-.08,0-.18,0-.27,0-.24,0-.5.07-.75s0-.26,0-.4c0-.39,0-.8,0-1.21h0c0-.36,0-.71,0-1.06s0-.44,0-.66,0-.24,0-.36c0-.29-.06-.56-.1-.83" transform="translate(-17.16 -13.34)"/></g></g><g class="w"><g class="bb"><path class="f" d="M141.27,107.76s0-.09,0-.13c-.05-.36-.12-.7-.2-1h0a10.06,10.06,0,0,0-.33-1.07h0a6.64,6.64,0,0,0-1.55-2.5v0a5.89,5.89,0,0,0-.86-.71v0c-.13-.09-.27-.16-.41-.24l-.25-.14-.55-.25-.36-.15-.56-.18-.48-.13-.57-.12-.6-.1-.29,0v0c-.3,0-.6-.07-.92-.08h0l-1,0h0c-.43,0-.83,0-1.21,0l-.31,0c-.29,0-.57.05-.84.1l-.27,0c-.31.05-.62.12-.9.19h-.07c-3.24.86-4.69,3-5.23,5.92v0c0,.27-.09.54-.13.83v0c0,.08,0,.18,0,.27,0,.25,0,.5-.07.75s0,.26,0,.4c0,.4,0,.8,0,1.22s0,.72,0,1.07,0,.44,0,.66,0,.24,0,.36c0,.29.06.57.1.83,0,0,0,.09,0,.14.05.35.12.69.2,1h0a9.48,9.48,0,0,0,.33,1.06h0a6.67,6.67,0,0,0,1.55,2.5v0a6.4,6.4,0,0,0,.86.7v0a4.41,4.41,0,0,0,.41.24l.25.15c.17.09.36.17.55.25l.36.15.56.19.48.13.57.12c.2,0,.4.07.6.1l.29.05v0l.92.08h0c.32,0,.65,0,1,0h0c.43,0,.83,0,1.21,0l.31,0,.84-.1.27,0c.32-.05.62-.11.9-.18l.07,0c3.24-.86,4.69-3,5.23-5.92h0c.05-.28.1-.55.13-.83v0c0-.09,0-.18,0-.27,0-.25,0-.5.07-.76s0-.26,0-.39c0-.39,0-.8,0-1.21h0c0-.36,0-.71,0-1.06s0-.44,0-.66,0-.25,0-.37c0-.28-.06-.56-.1-.83" transform="translate(-17.16 -13.34)"/></g></g><g class="w"><g class="bc"><path class="f" d="M141.27,129.65s0-.09,0-.13c-.05-.35-.12-.69-.2-1h0a9.93,9.93,0,0,0-.33-1.07h0a6.71,6.71,0,0,0-1.55-2.5v0a5.85,5.85,0,0,0-.86-.7v0a4.17,4.17,0,0,0-.41-.24l-.25-.15-.55-.25-.36-.15-.56-.18-.48-.13c-.18,0-.38-.09-.57-.12s-.4-.08-.6-.1l-.29-.05v0l-.92-.08h0l-1,0h0c-.43,0-.83,0-1.21,0l-.31,0c-.29,0-.57.06-.84.1l-.27,0c-.31.05-.62.11-.9.19h-.07c-3.24.86-4.69,3-5.23,5.92v0c0,.27-.09.55-.13.83v0c0,.09,0,.18,0,.27,0,.25,0,.5-.07.76s0,.26,0,.4c0,.39,0,.79,0,1.21h0c0,.37,0,.71,0,1.07s0,.44,0,.66,0,.24,0,.36c0,.28.06.56.1.83,0,0,0,.09,0,.13.05.36.12.7.2,1h0a9,9,0,0,0,.33,1.06h0a6.61,6.61,0,0,0,1.55,2.5v0a5.91,5.91,0,0,0,.86.71v0l.41.24.25.14.55.25.36.15.56.18.48.13.57.12.6.1.29,0v0c.3,0,.6.07.92.08h0c.32,0,.65,0,1,0h0c.43,0,.83,0,1.21,0l.31,0c.29,0,.57-.05.84-.1l.27,0c.32-.05.62-.12.9-.19l.07,0c3.24-.86,4.69-3,5.23-5.92v0c.05-.27.1-.54.13-.83v0c0-.08,0-.18,0-.27,0-.24,0-.5.07-.75s0-.26,0-.4c0-.39,0-.8,0-1.21h0c0-.36,0-.71,0-1.06s0-.44,0-.66,0-.24,0-.36c0-.29-.06-.56-.1-.83" transform="translate(-17.16 -13.34)"/></g></g><g class="w"><g class="bd"><path class="f" d="M141.27,151.52s0-.09,0-.13c-.05-.36-.12-.7-.2-1h0a10.06,10.06,0,0,0-.33-1.07h0a6.64,6.64,0,0,0-1.55-2.5v0a5.89,5.89,0,0,0-.86-.71v0c-.13-.09-.27-.16-.41-.24l-.25-.14-.55-.25-.36-.15-.56-.18-.48-.13-.57-.12-.6-.1-.29,0v0c-.3,0-.6-.07-.92-.08h0l-1,0h0c-.43,0-.83,0-1.21,0l-.31,0c-.29,0-.57.05-.84.1l-.27,0c-.31.05-.62.12-.9.19h-.07c-3.24.86-4.69,3-5.23,5.92v0c0,.27-.09.54-.13.83v0c0,.08,0,.18,0,.27,0,.25,0,.5-.07.75s0,.26,0,.4c0,.4,0,.8,0,1.22s0,.72,0,1.07,0,.44,0,.66,0,.24,0,.36c0,.29.06.57.1.83,0,0,0,.09,0,.14.05.35.12.69.2,1h0a9.48,9.48,0,0,0,.33,1.06h0a6.67,6.67,0,0,0,1.55,2.5v0a6.4,6.4,0,0,0,.86.7v0a4.41,4.41,0,0,0,.41.24l.25.15c.17.09.36.17.55.25l.36.15.56.19.48.13.57.12c.2,0,.4.07.6.1l.29.05v0l.92.08h0c.32,0,.65,0,1,0h0c.43,0,.83,0,1.21,0l.31,0,.84-.1.27,0c.32-.05.62-.11.9-.18l.07,0c3.24-.86,4.69-3,5.23-5.92h0c.05-.28.1-.55.13-.83v0c0-.09,0-.18,0-.27,0-.25,0-.5.07-.76s0-.26,0-.39c0-.39,0-.8,0-1.21h0c0-.36,0-.71,0-1.06s0-.44,0-.66,0-.25,0-.37c0-.28-.06-.56-.1-.83" transform="translate(-17.16 -13.34)"/></g></g><g class="w"><g class="be"><path class="f" d="M162.48,107.76s0-.09,0-.13c-.05-.36-.12-.7-.2-1h0a10.06,10.06,0,0,0-.33-1.07h0a6.64,6.64,0,0,0-1.55-2.5v0a5.89,5.89,0,0,0-.86-.71v0c-.13-.09-.27-.16-.41-.24l-.25-.14-.55-.25-.36-.15-.56-.18-.48-.13-.57-.12-.6-.1-.29,0v0c-.3,0-.6-.07-.92-.08h0l-1,0h0c-.43,0-.83,0-1.21,0l-.31,0c-.29,0-.57.05-.84.1l-.27,0c-.31.05-.62.12-.9.19h-.07c-3.24.86-4.69,3-5.23,5.92v0c0,.27-.09.54-.13.83v0c0,.08,0,.18,0,.27,0,.25,0,.5-.07.75s0,.26,0,.4c0,.4,0,.8,0,1.22s0,.72,0,1.07,0,.44,0,.66,0,.24,0,.36c0,.29.06.57.1.83,0,0,0,.09,0,.14.05.35.12.69.2,1h0a9.48,9.48,0,0,0,.33,1.06h0a6.67,6.67,0,0,0,1.55,2.5v0a6.4,6.4,0,0,0,.86.7v0a4.41,4.41,0,0,0,.41.24l.25.15c.17.09.36.17.55.25l.36.15.56.19.48.13.57.12c.2,0,.4.07.6.1l.29.05v0l.92.08h0c.32,0,.65,0,1,0h0c.43,0,.83,0,1.21,0l.31,0,.84-.1.27,0c.32-.05.62-.11.9-.18l.07,0c3.24-.86,4.69-3,5.23-5.92h0c.05-.28.1-.55.13-.83v0c0-.09,0-.18,0-.27,0-.25,0-.5.07-.76s0-.26,0-.39c0-.39,0-.8,0-1.21h0c0-.36,0-.71,0-1.06s0-.44,0-.66,0-.25,0-.37c0-.28-.06-.56-.1-.83" transform="translate(-17.16 -13.34)"/></g></g><g class="w"><g class="bf"><path class="f" d="M162.48,129.65s0-.09,0-.13c-.05-.35-.12-.69-.2-1h0a9.93,9.93,0,0,0-.33-1.07h0a6.71,6.71,0,0,0-1.55-2.5v0a5.85,5.85,0,0,0-.86-.7v0a4.17,4.17,0,0,0-.41-.24l-.25-.15-.55-.25-.36-.15-.56-.18-.48-.13c-.18,0-.38-.09-.57-.12s-.4-.08-.6-.1l-.29-.05v0l-.92-.08h0l-1,0h0c-.43,0-.83,0-1.21,0l-.31,0c-.29,0-.57.06-.84.1l-.27,0c-.31.05-.62.11-.9.19h-.07c-3.24.86-4.69,3-5.23,5.92v0c0,.27-.09.55-.13.83v0c0,.09,0,.18,0,.27,0,.25,0,.5-.07.76s0,.26,0,.4c0,.39,0,.79,0,1.21h0c0,.37,0,.71,0,1.07s0,.44,0,.66,0,.24,0,.36c0,.28.06.56.1.83,0,0,0,.09,0,.13.05.36.12.7.2,1h0a9,9,0,0,0,.33,1.06h0a6.61,6.61,0,0,0,1.55,2.5v0a5.91,5.91,0,0,0,.86.71v0l.41.24.25.14.55.25.36.15.56.18.48.13.57.12.6.1.29,0v0c.3,0,.6.07.92.08h0c.32,0,.65,0,1,0h0c.43,0,.83,0,1.21,0l.31,0c.29,0,.57-.05.84-.1l.27,0c.32-.05.62-.12.9-.19l.07,0c3.24-.86,4.69-3,5.23-5.92v0c.05-.27.1-.54.13-.83v0c0-.08,0-.18,0-.27,0-.24,0-.5.07-.75s0-.26,0-.4c0-.39,0-.8,0-1.21h0c0-.36,0-.71,0-1.06s0-.44,0-.66,0-.24,0-.36c0-.29-.06-.56-.1-.83" transform="translate(-17.16 -13.34)"/></g></g><g class="w"><g class="bg"><path class="f" d="M162.48,151.52s0-.09,0-.13c-.05-.36-.12-.7-.2-1h0a10.06,10.06,0,0,0-.33-1.07h0a6.64,6.64,0,0,0-1.55-2.5v0a5.89,5.89,0,0,0-.86-.71v0c-.13-.09-.27-.16-.41-.24l-.25-.14-.55-.25-.36-.15-.56-.18-.48-.13-.57-.12-.6-.1-.29,0v0c-.3,0-.6-.07-.92-.08h0l-1,0h0c-.43,0-.83,0-1.21,0l-.31,0c-.29,0-.57.05-.84.1l-.27,0c-.31.05-.62.12-.9.19h-.07c-3.24.86-4.69,3-5.23,5.92v0c0,.27-.09.54-.13.83v0c0,.08,0,.18,0,.27,0,.25,0,.5-.07.75s0,.26,0,.4c0,.4,0,.8,0,1.22s0,.72,0,1.07,0,.44,0,.66,0,.24,0,.36c0,.29.06.57.1.83,0,0,0,.09,0,.14.05.35.12.69.2,1h0a9.48,9.48,0,0,0,.33,1.06h0a6.67,6.67,0,0,0,1.55,2.5v0a6.4,6.4,0,0,0,.86.7v0a4.41,4.41,0,0,0,.41.24l.25.15c.17.09.36.17.55.25l.36.15.56.19.48.13.57.12c.2,0,.4.07.6.1l.29.05v0l.92.08h0c.32,0,.65,0,1,0h0c.43,0,.83,0,1.21,0l.31,0,.84-.1.27,0c.32-.05.62-.11.9-.18l.07,0c3.24-.86,4.69-3,5.23-5.92h0c.05-.28.1-.55.13-.83v0c0-.09,0-.18,0-.27,0-.25,0-.5.07-.76s0-.26,0-.39c0-.39,0-.8,0-1.21h0c0-.36,0-.71,0-1.06s0-.44,0-.66,0-.25,0-.37c0-.28-.06-.56-.1-.83" transform="translate(-17.16 -13.34)"/></g></g><g class="w"><g class="bh"><path class="f" d="M183.69,107.76s0-.09,0-.13c-.05-.36-.12-.7-.2-1h0a10.06,10.06,0,0,0-.33-1.07h0a6.64,6.64,0,0,0-1.55-2.5v0a5.89,5.89,0,0,0-.86-.71v0c-.13-.09-.27-.16-.41-.24l-.25-.14-.55-.25-.36-.15-.56-.18-.48-.13-.57-.12-.6-.1-.29,0v0c-.3,0-.6-.07-.92-.08h0l-1,0h0c-.43,0-.83,0-1.21,0l-.31,0c-.29,0-.57.05-.84.1l-.27,0c-.31.05-.62.12-.9.19h-.07c-3.24.86-4.69,3-5.23,5.92v0c0,.27-.09.54-.13.83v0c0,.08,0,.18,0,.27,0,.25,0,.5-.07.75s0,.26,0,.4c0,.4,0,.8,0,1.22s0,.72,0,1.07,0,.44,0,.66,0,.24,0,.36c0,.29.06.57.1.83,0,0,0,.09,0,.14.05.35.12.69.2,1h0a9.48,9.48,0,0,0,.33,1.06h0a6.67,6.67,0,0,0,1.55,2.5v0a6.4,6.4,0,0,0,.86.7v0a4.41,4.41,0,0,0,.41.24l.25.15c.17.09.36.17.55.25l.36.15.56.19.48.13.57.12c.2,0,.4.07.6.1l.29.05v0l.92.08h0c.32,0,.65,0,1,0h0c.43,0,.83,0,1.21,0l.31,0,.84-.1.27,0c.32-.05.62-.11.9-.18l.07,0c3.24-.86,4.69-3,5.23-5.92h0c.05-.28.1-.55.13-.83v0c0-.09,0-.18,0-.27,0-.25,0-.5.07-.76s0-.26,0-.39c0-.39,0-.8,0-1.21h0c0-.36,0-.71,0-1.06s0-.44,0-.66,0-.25,0-.37c0-.28-.06-.56-.1-.83" transform="translate(-17.16 -13.34)"/></g></g><g class="w"><g class="bi"><path class="f" d="M183.69,129.65s0-.09,0-.13c-.05-.35-.12-.69-.2-1h0a9.93,9.93,0,0,0-.33-1.07h0a6.71,6.71,0,0,0-1.55-2.5v0a5.85,5.85,0,0,0-.86-.7v0a4.17,4.17,0,0,0-.41-.24l-.25-.15-.55-.25-.36-.15-.56-.18-.48-.13c-.18,0-.38-.09-.57-.12s-.4-.08-.6-.1l-.29-.05v0l-.92-.08h0l-1,0h0c-.43,0-.83,0-1.21,0l-.31,0c-.29,0-.57.06-.84.1l-.27,0c-.31.05-.62.11-.9.19h-.07c-3.24.86-4.69,3-5.23,5.92v0c0,.27-.09.55-.13.83v0c0,.09,0,.18,0,.27,0,.25,0,.5-.07.76s0,.26,0,.4c0,.39,0,.79,0,1.21h0c0,.37,0,.71,0,1.07s0,.44,0,.66,0,.24,0,.36c0,.28.06.56.1.83,0,0,0,.09,0,.13.05.36.12.7.2,1h0a9,9,0,0,0,.33,1.06h0a6.61,6.61,0,0,0,1.55,2.5v0a5.91,5.91,0,0,0,.86.71v0l.41.24.25.14.55.25.36.15.56.18.48.13.57.12.6.1.29,0v0c.3,0,.6.07.92.08h0c.32,0,.65,0,1,0h0c.43,0,.83,0,1.21,0l.31,0c.29,0,.57-.05.84-.1l.27,0c.32-.05.62-.12.9-.19l.07,0c3.24-.86,4.69-3,5.23-5.92v0c.05-.27.1-.54.13-.83v0c0-.08,0-.18,0-.27,0-.24,0-.5.07-.75s0-.26,0-.4c0-.39,0-.8,0-1.21h0c0-.36,0-.71,0-1.06s0-.44,0-.66,0-.24,0-.36c0-.29-.06-.56-.1-.83" transform="translate(-17.16 -13.34)"/></g></g><g class="w"><g class="bj"><path class="f" d="M183.69,151.52s0-.09,0-.13c-.05-.36-.12-.7-.2-1h0a10.06,10.06,0,0,0-.33-1.07h0a6.64,6.64,0,0,0-1.55-2.5v0a5.89,5.89,0,0,0-.86-.71v0c-.13-.09-.27-.16-.41-.24l-.25-.14-.55-.25-.36-.15-.56-.18-.48-.13-.57-.12-.6-.1-.29,0v0c-.3,0-.6-.07-.92-.08h0l-1,0h0c-.43,0-.83,0-1.21,0l-.31,0c-.29,0-.57.05-.84.1l-.27,0c-.31.05-.62.12-.9.19h-.07c-3.24.86-4.69,3-5.23,5.92v0c0,.27-.09.54-.13.83v0c0,.08,0,.18,0,.27,0,.25,0,.5-.07.75s0,.26,0,.4c0,.4,0,.8,0,1.22s0,.72,0,1.07,0,.44,0,.66,0,.24,0,.36c0,.29.06.57.1.83,0,0,0,.09,0,.14.05.35.12.69.2,1h0a9.48,9.48,0,0,0,.33,1.06h0a6.67,6.67,0,0,0,1.55,2.5v0a6.4,6.4,0,0,0,.86.7v0a4.41,4.41,0,0,0,.41.24l.25.15c.17.09.36.17.55.25l.36.15.56.19.48.13.57.12c.2,0,.4.07.6.1l.29.05v0l.92.08h0c.32,0,.65,0,1,0h0c.43,0,.83,0,1.21,0l.31,0,.84-.1.27,0c.32-.05.62-.11.9-.18l.07,0c3.24-.86,4.69-3,5.23-5.92h0c.05-.28.1-.55.13-.83v0c0-.09,0-.18,0-.27,0-.25,0-.5.07-.76s0-.26,0-.39c0-.39,0-.8,0-1.21h0c0-.36,0-.71,0-1.06s0-.44,0-.66,0-.25,0-.37c0-.28-.06-.56-.1-.83" transform="translate(-17.16 -13.34)"/></g></g><g class="w"><g class="bk"><path class="f" d="M204.91,129.65s0-.09,0-.13c-.05-.35-.12-.69-.2-1h0a9.93,9.93,0,0,0-.33-1.07h0a6.71,6.71,0,0,0-1.55-2.5v0a5.85,5.85,0,0,0-.86-.7v0a4.17,4.17,0,0,0-.41-.24l-.25-.15-.55-.25-.36-.15-.56-.18-.48-.13c-.18,0-.38-.09-.57-.12s-.4-.08-.6-.1l-.29-.05v0l-.92-.08h0l-1,0h0c-.43,0-.83,0-1.21,0l-.31,0c-.29,0-.57.06-.84.1l-.27,0c-.31.05-.62.11-.9.19h-.07c-3.24.86-4.69,3-5.23,5.92v0c0,.27-.09.55-.13.83v0c0,.09,0,.18,0,.27,0,.25,0,.5-.07.76s0,.26,0,.4c0,.39,0,.79,0,1.21h0c0,.37,0,.71,0,1.07s0,.44,0,.66,0,.24,0,.36c0,.28.06.56.1.83,0,0,0,.09,0,.13.05.36.12.7.2,1h0a9,9,0,0,0,.33,1.06h0a6.61,6.61,0,0,0,1.55,2.5v0a5.91,5.91,0,0,0,.86.71v0l.41.24.25.14.55.25.36.15.56.18.48.13.57.12.6.1.29,0v0c.3,0,.6.07.92.08h0c.32,0,.65,0,1,0h0c.43,0,.83,0,1.21,0l.31,0c.29,0,.57-.05.84-.1l.27,0c.32-.05.62-.12.9-.19l.07,0c3.24-.86,4.69-3,5.23-5.92v0c.05-.27.1-.54.13-.83v0c0-.08,0-.18,0-.27,0-.24,0-.5.07-.75s0-.26,0-.4c0-.39,0-.8,0-1.21h0c0-.36,0-.71,0-1.06s0-.44,0-.66,0-.24,0-.36c0-.29-.06-.56-.1-.83" transform="translate(-17.16 -13.34)"/></g></g></g></g><g class="d"><g class="bl"><path class="f" d="M204.91,151.52s0-.09,0-.13c-.05-.36-.12-.7-.2-1h0a10.06,10.06,0,0,0-.33-1.07h0a6.64,6.64,0,0,0-1.55-2.5v0a5.89,5.89,0,0,0-.86-.71v0c-.13-.09-.27-.16-.41-.24l-.25-.14-.55-.25-.36-.15-.56-.18-.48-.13-.57-.12-.6-.1-.29,0v0c-.3,0-.6-.07-.92-.08h0l-1,0h0c-.43,0-.83,0-1.21,0l-.31,0c-.29,0-.57.05-.84.1l-.27,0c-.31.05-.62.12-.9.19h-.07c-3.24.86-4.69,3-5.23,5.92v0c0,.27-.09.54-.13.83v0c0,.08,0,.18,0,.27,0,.25,0,.5-.07.75s0,.26,0,.4c0,.4,0,.8,0,1.22s0,.72,0,1.07,0,.44,0,.66,0,.24,0,.36c0,.29.06.57.1.83,0,0,0,.09,0,.14.05.35.12.69.2,1h0a9.48,9.48,0,0,0,.33,1.06h0a6.67,6.67,0,0,0,1.55,2.5v0a6.4,6.4,0,0,0,.86.7v0a4.41,4.41,0,0,0,.41.24l.25.15c.17.09.36.17.55.25l.36.15.56.19.48.13.57.12c.2,0,.4.07.6.1l.29.05v0l.92.08h0c.32,0,.65,0,1,0h0c.43,0,.83,0,1.21,0l.31,0,.84-.1.27,0c.32-.05.62-.11.9-.18l.07,0c3.24-.86,4.69-3,5.23-5.92h0c.05-.28.1-.55.13-.83v0c0-.09,0-.18,0-.27,0-.25,0-.5.07-.76s0-.26,0-.39c0-.39,0-.8,0-1.21h0c0-.36,0-.71,0-1.06s0-.44,0-.66,0-.25,0-.37c0-.28-.06-.56-.1-.83" transform="translate(-17.16 -13.34)"/></g></g><g class="bm"><g class="bn"><path class="f" d="M35.2,173.41s0-.09,0-.13c-.05-.35-.12-.69-.2-1h0a9.93,9.93,0,0,0-.33-1.07h0a6.71,6.71,0,0,0-1.55-2.5v0a5.85,5.85,0,0,0-.86-.7v0a4.17,4.17,0,0,0-.41-.24l-.25-.15-.55-.25-.36-.15-.56-.18-.48-.13c-.18,0-.38-.09-.57-.12s-.4-.08-.6-.1l-.29-.05v0l-.92-.08h0l-1,0h0c-.43,0-.83,0-1.21,0l-.31,0c-.29,0-.57.06-.84.1l-.27,0c-.31.05-.62.11-.9.19h-.07c-3.24.86-4.69,3-5.23,5.92v0c0,.27-.09.55-.13.83v0c0,.09,0,.18,0,.27,0,.25,0,.5-.07.76s0,.26,0,.4c0,.39,0,.79,0,1.21h0c0,.37,0,.71,0,1.07s0,.44,0,.66,0,.24,0,.36c0,.28.06.56.1.83,0,0,0,.09,0,.13.05.36.12.7.2,1h0a9,9,0,0,0,.33,1.06h0a6.61,6.61,0,0,0,1.55,2.5v0a5.91,5.91,0,0,0,.86.71v0l.41.24.25.14.55.25.36.15.56.18.48.13.57.12.6.1.29,0v0c.3,0,.6.07.92.08h0c.32,0,.65,0,1,0h0c.43,0,.83,0,1.21,0l.31,0c.29,0,.57-.05.84-.1l.27,0c.32-.05.62-.12.9-.19l.07,0c3.24-.86,4.69-3,5.23-5.92v0c.05-.27.1-.54.13-.83v0c0-.08,0-.18,0-.27,0-.24,0-.5.07-.75s0-.26,0-.4c0-.39,0-.8,0-1.21h0c0-.36,0-.71,0-1.06s0-.44,0-.66,0-.24,0-.36c0-.29-.06-.56-.1-.83" transform="translate(-17.16 -13.34)"/></g></g><g class="bm"><g class="bo"><path class="f" d="M35.2,20.22s0-.09,0-.13c-.05-.36-.12-.7-.2-1h0A10.07,10.07,0,0,0,34.65,18h0a6.64,6.64,0,0,0-1.55-2.5v0a5.89,5.89,0,0,0-.86-.71v0c-.13-.09-.27-.16-.41-.24l-.25-.14-.55-.25L30.69,14l-.56-.18-.48-.13-.57-.12-.6-.1-.29,0v0c-.3,0-.6-.07-.92-.08h0l-1,0h0c-.43,0-.83,0-1.21,0l-.31,0c-.29,0-.57.05-.84.1l-.27,0c-.31.05-.62.12-.9.19h-.07c-3.24.86-4.69,3-5.23,5.92v0c0,.27-.09.54-.13.83v0c0,.08,0,.18,0,.27,0,.25,0,.5-.07.75s0,.26,0,.4c0,.4,0,.8,0,1.22s0,.72,0,1.07,0,.44,0,.66,0,.24,0,.36c0,.29.06.57.1.83,0,0,0,.09,0,.14.05.35.12.69.2,1h0a9.48,9.48,0,0,0,.33,1.06h0a6.67,6.67,0,0,0,1.55,2.5v0a6.4,6.4,0,0,0,.86.7v0a4.41,4.41,0,0,0,.41.24l.25.15c.17.09.36.17.55.25l.36.15.56.19.48.13.57.12c.2,0,.4.07.6.1l.29.05v0l.92.08h0c.32,0,.65,0,1,0h0c.43,0,.83,0,1.21,0l.31,0,.84-.1.27,0c.32-.05.62-.11.9-.18l.07,0c3.24-.86,4.69-3,5.23-5.92h0c.05-.28.1-.55.13-.83v0c0-.09,0-.18,0-.27,0-.25,0-.5.07-.76s0-.26,0-.39c0-.39,0-.8,0-1.21h0c0-.36,0-.71,0-1.06s0-.44,0-.66,0-.25,0-.37c0-.28-.06-.56-.1-.83" transform="translate(-17.16 -13.34)"/></g></g><g class="bm"><g class="bp"><path class="f" d="M35.2,195.29s0-.09,0-.13c-.05-.36-.12-.7-.2-1h0a10.07,10.07,0,0,0-.33-1.07h0a6.64,6.64,0,0,0-1.55-2.5v0a5.89,5.89,0,0,0-.86-.71v0c-.13-.09-.27-.16-.41-.24l-.25-.14-.55-.25-.36-.15-.56-.18-.48-.13-.57-.12-.6-.1-.29,0v0c-.3,0-.6-.07-.92-.08h0l-1,0h0c-.43,0-.83,0-1.21,0l-.31,0c-.29,0-.57.05-.84.1l-.27,0c-.31.05-.62.12-.9.19h-.07c-3.24.86-4.69,3-5.23,5.92v0c0,.27-.09.54-.13.83v0c0,.08,0,.18,0,.27,0,.25,0,.5-.07.75s0,.26,0,.4c0,.4,0,.8,0,1.22s0,.72,0,1.07,0,.44,0,.66,0,.24,0,.36c0,.29.06.57.1.83,0,0,0,.09,0,.14.05.35.12.69.2,1h0a9.48,9.48,0,0,0,.33,1.06h0a6.67,6.67,0,0,0,1.55,2.5v0a6.4,6.4,0,0,0,.86.7v0a4.41,4.41,0,0,0,.41.24l.25.15c.17.09.36.17.55.25l.36.15.56.19.48.13.57.12c.2,0,.4.07.6.1l.29.05v0l.92.08h0c.32,0,.65,0,1,0h0c.43,0,.83,0,1.21,0l.31,0,.84-.1.27,0c.32-.05.62-.11.9-.18l.07,0c3.24-.86,4.69-3,5.23-5.92h0c.05-.28.1-.55.13-.83v0c0-.09,0-.18,0-.27,0-.25,0-.5.07-.76s0-.26,0-.39c0-.39,0-.8,0-1.21h0c0-.36,0-.71,0-1.06s0-.44,0-.66,0-.25,0-.37c0-.28-.06-.56-.1-.83" transform="translate(-17.16 -13.34)"/></g></g><g class="bm"><g class="bq"><path class="f" d="M35.2,42.12s0-.09,0-.13c-.05-.35-.12-.69-.2-1h0a9.93,9.93,0,0,0-.33-1.07h0a6.71,6.71,0,0,0-1.55-2.5v0a5.85,5.85,0,0,0-.86-.7v0a4.17,4.17,0,0,0-.41-.24l-.25-.15-.55-.25-.36-.15-.56-.18-.48-.13c-.18,0-.38-.09-.57-.12s-.4-.08-.6-.1l-.29-.05v0l-.92-.08h0l-1,0h0c-.43,0-.83,0-1.21,0l-.31,0c-.29,0-.57.06-.84.1l-.27,0c-.31.05-.62.11-.9.19h-.07c-3.24.86-4.69,3-5.23,5.92v0c0,.27-.09.55-.13.83v0c0,.09,0,.18,0,.27,0,.25,0,.5-.07.76s0,.26,0,.4c0,.39,0,.79,0,1.21h0c0,.37,0,.71,0,1.07s0,.44,0,.66,0,.24,0,.36c0,.28.06.56.1.83,0,0,0,.09,0,.13.05.36.12.7.2,1h0a9,9,0,0,0,.33,1.06h0a6.61,6.61,0,0,0,1.55,2.5v0a5.91,5.91,0,0,0,.86.71v0l.41.24.25.14.55.25.36.15.56.18.48.13.57.12.6.1.29,0v0c.3,0,.6.07.92.08h0c.32,0,.65,0,1,0h0c.43,0,.83,0,1.21,0l.31,0c.29,0,.57-.05.84-.1l.27,0c.32-.05.62-.12.9-.19l.07,0c3.24-.86,4.69-3,5.23-5.92v0c.05-.27.1-.54.13-.83v0c0-.08,0-.18,0-.27,0-.24,0-.5.07-.75s0-.26,0-.4c0-.39,0-.8,0-1.21h0c0-.36,0-.71,0-1.06s0-.44,0-.66,0-.24,0-.36c0-.29-.06-.56-.1-.83" transform="translate(-17.16 -13.34)"/></g></g><g class="bm"><g class="br"><path class="f" d="M35.2,217.17s0-.09,0-.13c-.05-.35-.12-.69-.2-1h0a9.93,9.93,0,0,0-.33-1.07h0a6.71,6.71,0,0,0-1.55-2.5v0a5.85,5.85,0,0,0-.86-.7v0a4.17,4.17,0,0,0-.41-.24l-.25-.15-.55-.25-.36-.15-.56-.18-.48-.13c-.18,0-.38-.09-.57-.12s-.4-.08-.6-.1l-.29-.05v0l-.92-.08h0l-1,0h0c-.43,0-.83,0-1.21,0l-.31,0c-.29,0-.57.06-.84.1l-.27,0c-.31.05-.62.11-.9.19h-.07c-3.24.86-4.69,3-5.23,5.92v0c0,.27-.09.55-.13.83v0c0,.09,0,.18,0,.27,0,.25,0,.5-.07.76s0,.26,0,.4c0,.39,0,.79,0,1.21h0c0,.37,0,.71,0,1.07s0,.44,0,.66,0,.24,0,.36c0,.28.06.56.1.83,0,0,0,.09,0,.13.05.36.12.7.2,1h0a9,9,0,0,0,.33,1.06h0a6.61,6.61,0,0,0,1.55,2.5v0a5.91,5.91,0,0,0,.86.71v0l.41.24.25.14.55.25.36.15.56.18.48.13.57.12.6.1.29,0v0c.3,0,.6.07.92.08h0c.32,0,.65,0,1,0h0c.43,0,.83,0,1.21,0l.31,0c.29,0,.57-.05.84-.1l.27,0c.32-.05.62-.12.9-.19l.07,0c3.24-.86,4.69-3,5.23-5.92v0c.05-.27.1-.54.13-.83v0c0-.08,0-.18,0-.27,0-.24,0-.5.07-.75s0-.26,0-.4c0-.39,0-.8,0-1.21h0c0-.36,0-.71,0-1.06s0-.44,0-.66,0-.24,0-.36c0-.29-.06-.56-.1-.83" transform="translate(-17.16 -13.34)"/></g></g><g class="bm"><g class="bs"><path class="f" d="M35.2,64s0-.09,0-.13c-.05-.36-.12-.7-.2-1h0a10.07,10.07,0,0,0-.33-1.07h0a6.64,6.64,0,0,0-1.55-2.5v0a5.89,5.89,0,0,0-.86-.71v0c-.13-.09-.27-.16-.41-.24l-.25-.14-.55-.25-.36-.15-.56-.18-.48-.13-.57-.12-.6-.1-.29,0v0c-.3,0-.6-.07-.92-.08h0l-1,0h0c-.43,0-.83,0-1.21,0l-.31,0c-.29,0-.57.05-.84.1l-.27,0c-.31.05-.62.12-.9.19h-.07c-3.24.86-4.69,3-5.23,5.92v0c0,.27-.09.54-.13.83v0c0,.08,0,.18,0,.27,0,.25,0,.5-.07.75s0,.26,0,.4c0,.4,0,.8,0,1.22s0,.72,0,1.07,0,.44,0,.66,0,.24,0,.36c0,.29.06.57.1.83,0,0,0,.09,0,.14.05.35.12.69.2,1h0a9.48,9.48,0,0,0,.33,1.06h0a6.67,6.67,0,0,0,1.55,2.5v0a6.4,6.4,0,0,0,.86.7v0a4.41,4.41,0,0,0,.41.24l.25.15c.17.09.36.17.55.25l.36.15.56.19.48.13.57.12c.2,0,.4.07.6.1l.29.05v0l.92.08h0c.32,0,.65,0,1,0h0c.43,0,.83,0,1.21,0l.31,0,.84-.1.27,0c.32-.05.62-.11.9-.18l.07,0c3.24-.86,4.69-3,5.23-5.92h0c.05-.28.1-.55.13-.83v0c0-.09,0-.18,0-.27,0-.25,0-.5.07-.76s0-.26,0-.39c0-.39,0-.8,0-1.21h0c0-.36,0-.71,0-1.06s0-.44,0-.66,0-.25,0-.37c0-.28-.06-.56-.1-.83" transform="translate(-17.16 -13.34)"/></g></g><g class="bm"><g class="bt"><path class="f" d="M35.2,239.05s0-.09,0-.13c-.05-.36-.12-.7-.2-1h0a10.07,10.07,0,0,0-.33-1.07h0a6.64,6.64,0,0,0-1.55-2.5v0a5.89,5.89,0,0,0-.86-.71v0c-.13-.09-.27-.16-.41-.24l-.25-.14-.55-.25-.36-.15-.56-.18-.48-.13-.57-.12-.6-.1-.29,0v0c-.3,0-.6-.07-.92-.08h0l-1,0h0c-.43,0-.83,0-1.21,0l-.31,0c-.29,0-.57.05-.84.1l-.27,0c-.31.05-.62.12-.9.19h-.07c-3.24.86-4.69,3-5.23,5.92v0c0,.27-.09.54-.13.83v0c0,.08,0,.18,0,.27,0,.25,0,.5-.07.75s0,.26,0,.4c0,.4,0,.8,0,1.22s0,.72,0,1.07,0,.44,0,.66,0,.24,0,.36c0,.29.06.57.1.83,0,0,0,.09,0,.14.05.35.12.69.2,1h0a9.48,9.48,0,0,0,.33,1.06h0a6.67,6.67,0,0,0,1.55,2.5v0a6.4,6.4,0,0,0,.86.7v0a4.41,4.41,0,0,0,.41.24l.25.15c.17.09.36.17.55.25l.36.15.56.19.48.13.57.12c.2,0,.4.07.6.1l.29.05v0l.92.08h0c.32,0,.65,0,1,0h0c.43,0,.83,0,1.21,0l.31,0,.84-.1.27,0c.32-.05.62-.11.9-.18l.07,0c3.24-.86,4.69-3,5.23-5.92h0c.05-.28.1-.55.13-.83v0c0-.09,0-.19,0-.27,0-.25,0-.5.07-.76s0-.26,0-.39c0-.39,0-.8,0-1.21h0c0-.36,0-.71,0-1.06s0-.44,0-.66,0-.25,0-.37c0-.28-.06-.56-.1-.83" transform="translate(-17.16 -13.34)"/></g></g><g class="bm"><g class="bu"><path class="f" d="M35.2,85.88s0-.09,0-.13c-.05-.35-.12-.69-.2-1h0a9.93,9.93,0,0,0-.33-1.07h0a6.71,6.71,0,0,0-1.55-2.5v0a5.85,5.85,0,0,0-.86-.7v0a4.17,4.17,0,0,0-.41-.24l-.25-.15-.55-.25-.36-.15-.56-.18-.48-.13c-.18,0-.38-.09-.57-.12s-.4-.08-.6-.1l-.29-.05v0L27.28,79h0l-1,0h0c-.43,0-.83,0-1.21,0l-.31,0c-.29,0-.57.06-.84.1l-.27,0c-.31.05-.62.11-.9.19h-.07c-3.24.86-4.69,3-5.23,5.92v0c0,.27-.09.55-.13.83v0c0,.09,0,.18,0,.27,0,.25,0,.5-.07.76s0,.26,0,.4c0,.39,0,.79,0,1.21h0c0,.37,0,.71,0,1.07s0,.44,0,.66,0,.24,0,.36c0,.28.06.56.1.83,0,0,0,.09,0,.13.05.36.12.7.2,1h0a9,9,0,0,0,.33,1.06h0a6.61,6.61,0,0,0,1.55,2.5v0a5.91,5.91,0,0,0,.86.71v0l.41.24.25.14.55.25.36.15.56.18.48.13.57.12.6.1.29,0v0c.3,0,.6.07.92.08h0c.32,0,.65,0,1,0h0c.43,0,.83,0,1.21,0l.31,0c.29,0,.57-.05.84-.1l.27,0c.32-.05.62-.12.9-.19l.07,0c3.24-.86,4.69-3,5.23-5.92v0c.05-.27.1-.54.13-.83v0c0-.08,0-.18,0-.27,0-.24,0-.5.07-.75s0-.26,0-.4c0-.39,0-.8,0-1.21h0c0-.36,0-.71,0-1.06s0-.44,0-.66,0-.24,0-.36c0-.29-.06-.56-.1-.83" transform="translate(-17.16 -13.34)"/></g></g><g class="bm"><g class="bv"><path class="f" d="M35.2,107.76s0-.09,0-.13c-.05-.36-.12-.7-.2-1h0a10.07,10.07,0,0,0-.33-1.07h0a6.64,6.64,0,0,0-1.55-2.5v0a5.89,5.89,0,0,0-.86-.71v0c-.13-.09-.27-.16-.41-.24L31.6,102l-.55-.25-.36-.15-.56-.18-.48-.13-.57-.12-.6-.1-.29,0v0c-.3,0-.6-.07-.92-.08h0l-1,0h0c-.43,0-.83,0-1.21,0l-.31,0c-.29,0-.57.05-.84.1l-.27,0c-.31.05-.62.12-.9.19h-.07c-3.24.86-4.69,3-5.23,5.92v0c0,.27-.09.54-.13.83v0c0,.08,0,.18,0,.27,0,.25,0,.5-.07.75s0,.26,0,.4c0,.4,0,.8,0,1.22s0,.72,0,1.07,0,.44,0,.66,0,.24,0,.36c0,.29.06.57.1.83,0,0,0,.09,0,.14.05.35.12.69.2,1h0a9.48,9.48,0,0,0,.33,1.06h0a6.67,6.67,0,0,0,1.55,2.5v0a6.4,6.4,0,0,0,.86.7v0a4.41,4.41,0,0,0,.41.24l.25.15c.17.09.36.17.55.25l.36.15.56.19.48.13.57.12c.2,0,.4.07.6.1l.29.05v0l.92.08h0c.32,0,.65,0,1,0h0c.43,0,.83,0,1.21,0l.31,0,.84-.1.27,0c.32-.05.62-.11.9-.18l.07,0c3.24-.86,4.69-3,5.23-5.92h0c.05-.28.1-.55.13-.83v0c0-.09,0-.18,0-.27,0-.25,0-.5.07-.76s0-.26,0-.39c0-.39,0-.8,0-1.21h0c0-.36,0-.71,0-1.06s0-.44,0-.66,0-.25,0-.37c0-.28-.06-.56-.1-.83" transform="translate(-17.16 -13.34)"/></g></g><g class="bm"><g class="bw"><path class="f" d="M35.2,129.65s0-.09,0-.13c-.05-.35-.12-.69-.2-1h0a9.93,9.93,0,0,0-.33-1.07h0a6.71,6.71,0,0,0-1.55-2.5v0a5.85,5.85,0,0,0-.86-.7v0a4.17,4.17,0,0,0-.41-.24l-.25-.15-.55-.25-.36-.15-.56-.18-.48-.13c-.18,0-.38-.09-.57-.12s-.4-.08-.6-.1l-.29-.05v0l-.92-.08h0l-1,0h0c-.43,0-.83,0-1.21,0l-.31,0c-.29,0-.57.06-.84.1l-.27,0c-.31.05-.62.11-.9.19h-.07c-3.24.86-4.69,3-5.23,5.92v0c0,.27-.09.55-.13.83v0c0,.09,0,.18,0,.27,0,.25,0,.5-.07.76s0,.26,0,.4c0,.39,0,.79,0,1.21h0c0,.37,0,.71,0,1.07s0,.44,0,.66,0,.24,0,.36c0,.28.06.56.1.83,0,0,0,.09,0,.13.05.36.12.7.2,1h0a9,9,0,0,0,.33,1.06h0a6.61,6.61,0,0,0,1.55,2.5v0a5.91,5.91,0,0,0,.86.71v0l.41.24.25.14.55.25.36.15.56.18.48.13.57.12.6.1.29,0v0c.3,0,.6.07.92.08h0c.32,0,.65,0,1,0h0c.43,0,.83,0,1.21,0l.31,0c.29,0,.57-.05.84-.1l.27,0c.32-.05.62-.12.9-.19l.07,0c3.24-.86,4.69-3,5.23-5.92v0c.05-.27.1-.54.13-.83v0c0-.08,0-.18,0-.27,0-.24,0-.5.07-.75s0-.26,0-.4c0-.39,0-.8,0-1.21h0c0-.36,0-.71,0-1.06s0-.44,0-.66,0-.24,0-.36c0-.29-.06-.56-.1-.83" transform="translate(-17.16 -13.34)"/></g></g><g class="bm"><g class="bx"><path class="f" d="M35.2,151.52s0-.09,0-.13c-.05-.36-.12-.7-.2-1h0a10.07,10.07,0,0,0-.33-1.07h0a6.64,6.64,0,0,0-1.55-2.5v0a5.89,5.89,0,0,0-.86-.71v0c-.13-.09-.27-.16-.41-.24l-.25-.14-.55-.25-.36-.15-.56-.18-.48-.13-.57-.12-.6-.1-.29,0v0c-.3,0-.6-.07-.92-.08h0l-1,0h0c-.43,0-.83,0-1.21,0l-.31,0c-.29,0-.57.05-.84.1l-.27,0c-.31.05-.62.12-.9.19h-.07c-3.24.86-4.69,3-5.23,5.92v0c0,.27-.09.54-.13.83v0c0,.08,0,.18,0,.27,0,.25,0,.5-.07.75s0,.26,0,.4c0,.4,0,.8,0,1.22s0,.72,0,1.07,0,.44,0,.66,0,.24,0,.36c0,.29.06.57.1.83,0,0,0,.09,0,.14.05.35.12.69.2,1h0a9.48,9.48,0,0,0,.33,1.06h0a6.67,6.67,0,0,0,1.55,2.5v0a6.4,6.4,0,0,0,.86.7v0a4.4,4.4,0,0,0,.41.24l.25.15c.17.09.36.17.55.25l.36.15.56.19.48.13.57.12c.2,0,.4.07.6.1l.29.05v0l.92.08h0c.32,0,.65,0,1,0h0c.43,0,.83,0,1.21,0l.31,0,.84-.1.27,0c.32-.05.62-.11.9-.18l.07,0c3.24-.86,4.69-3,5.23-5.92h0c.05-.28.1-.55.13-.83v0c0-.09,0-.18,0-.27,0-.25,0-.5.07-.76s0-.26,0-.39c0-.39,0-.8,0-1.21h0c0-.36,0-.71,0-1.06s0-.44,0-.66,0-.25,0-.37c0-.28-.06-.56-.1-.83" transform="translate(-17.16 -13.34)"/></g></g><g class="bm"><g class="by"><path class="f" d="M77.62,239.05s0-.09,0-.13c-.05-.36-.12-.7-.2-1h0a10.07,10.07,0,0,0-.33-1.07h0a6.64,6.64,0,0,0-1.55-2.5v0a5.89,5.89,0,0,0-.86-.71v0c-.13-.09-.27-.16-.41-.24l-.25-.14-.55-.25-.36-.15-.56-.18-.48-.13-.57-.12-.6-.1-.29,0v0c-.3,0-.6-.07-.92-.08h0l-1,0h0c-.43,0-.83,0-1.21,0l-.31,0c-.29,0-.57.05-.84.1l-.27,0c-.31.05-.62.12-.9.19h-.07c-3.24.86-4.69,3-5.23,5.92v0c0,.27-.09.54-.13.83v0c0,.08,0,.18,0,.27,0,.25,0,.5-.07.75s0,.26,0,.4c0,.4,0,.8,0,1.22s0,.72,0,1.07,0,.44,0,.66,0,.24,0,.36c0,.29.06.57.1.83,0,0,0,.09,0,.14.05.35.12.69.2,1h0a9.48,9.48,0,0,0,.33,1.06h0a6.67,6.67,0,0,0,1.55,2.5v0a6.4,6.4,0,0,0,.86.7v0a4.41,4.41,0,0,0,.41.24l.25.15c.17.09.36.17.55.25l.36.15.56.19.48.13.57.12c.2,0,.4.07.6.1l.29.05v0l.92.08h0c.32,0,.65,0,1,0h0c.43,0,.83,0,1.21,0l.31,0,.84-.1.27,0c.32-.05.62-.11.9-.18l.07,0c3.24-.86,4.69-3,5.23-5.92h0c.05-.28.1-.55.13-.83v0c0-.09,0-.19,0-.27,0-.25,0-.5.07-.76s0-.26,0-.39c0-.39,0-.8,0-1.21h0c0-.36,0-.71,0-1.06s0-.44,0-.66,0-.25,0-.37c0-.28-.06-.56-.1-.83" transform="translate(-17.16 -13.34)"/></g></g><g class="bm"><g class="bz"><path class="f" d="M120.05,217.17s0-.09,0-.13c-.05-.35-.12-.69-.2-1h0a9.93,9.93,0,0,0-.33-1.07h0a6.71,6.71,0,0,0-1.55-2.5v0a5.85,5.85,0,0,0-.86-.7v0a4.17,4.17,0,0,0-.41-.24l-.25-.15-.55-.25-.36-.15-.56-.18-.48-.13c-.18,0-.38-.09-.57-.12s-.4-.08-.6-.1l-.29-.05v0l-.92-.08h0l-1,0h0c-.43,0-.83,0-1.21,0l-.31,0c-.29,0-.57.06-.84.1l-.27,0c-.31.05-.62.11-.9.19h-.07c-3.24.86-4.69,3-5.23,5.92v0c0,.27-.09.55-.13.83v0c0,.09,0,.18,0,.27,0,.25,0,.5-.07.76s0,.26,0,.4c0,.39,0,.79,0,1.21h0c0,.37,0,.71,0,1.07s0,.44,0,.66,0,.24,0,.36c0,.28.06.56.1.83,0,0,0,.09,0,.13.05.36.12.7.2,1h0a9,9,0,0,0,.33,1.06h0a6.61,6.61,0,0,0,1.55,2.5v0a5.91,5.91,0,0,0,.86.71v0l.41.24.25.14.55.25.36.15.56.18.48.13.57.12.6.1.29,0v0c.3,0,.6.07.92.08h0c.32,0,.65,0,1,0h0c.43,0,.83,0,1.21,0l.31,0c.29,0,.57-.05.84-.1l.27,0c.32-.05.62-.12.9-.19l.07,0c3.24-.86,4.69-3,5.23-5.92v0c.05-.27.1-.54.13-.83v0c0-.08,0-.18,0-.27,0-.24,0-.5.07-.75s0-.26,0-.4c0-.39,0-.8,0-1.21h0c0-.36,0-.71,0-1.06s0-.44,0-.66,0-.24,0-.36c0-.29-.06-.56-.1-.83" transform="translate(-17.16 -13.34)"/></g></g><g class="bm"><g class="ca"><path class="f" d="M162.48,195.29s0-.09,0-.13c-.05-.36-.12-.7-.2-1h0a10.06,10.06,0,0,0-.33-1.07h0a6.64,6.64,0,0,0-1.55-2.5v0a5.89,5.89,0,0,0-.86-.71v0c-.13-.09-.27-.16-.41-.24l-.25-.14-.55-.25-.36-.15-.56-.18-.48-.13-.57-.12-.6-.1-.29,0v0c-.3,0-.6-.07-.92-.08h0l-1,0h0c-.43,0-.83,0-1.21,0l-.31,0c-.29,0-.57.05-.84.1l-.27,0c-.31.05-.62.12-.9.19h-.07c-3.24.86-4.69,3-5.23,5.92v0c0,.27-.09.54-.13.83v0c0,.08,0,.18,0,.27,0,.25,0,.5-.07.75s0,.26,0,.4c0,.4,0,.8,0,1.22s0,.72,0,1.07,0,.44,0,.66,0,.24,0,.36c0,.29.06.57.1.83,0,0,0,.09,0,.14.05.35.12.69.2,1h0a9.48,9.48,0,0,0,.33,1.06h0a6.67,6.67,0,0,0,1.55,2.5v0a6.4,6.4,0,0,0,.86.7v0a4.41,4.41,0,0,0,.41.24l.25.15c.17.09.36.17.55.25l.36.15.56.19.48.13.57.12c.2,0,.4.07.6.1l.29.05v0l.92.08h0c.32,0,.65,0,1,0h0c.43,0,.83,0,1.21,0l.31,0,.84-.1.27,0c.32-.05.62-.11.9-.18l.07,0c3.24-.86,4.69-3,5.23-5.92h0c.05-.28.1-.55.13-.83v0c0-.09,0-.18,0-.27,0-.25,0-.5.07-.76s0-.26,0-.39c0-.39,0-.8,0-1.21h0c0-.36,0-.71,0-1.06s0-.44,0-.66,0-.25,0-.37c0-.28-.06-.56-.1-.83" transform="translate(-17.16 -13.34)"/></g></g><g class="bm"><g class="cb"><path class="f" d="M204.91,173.41s0-.09,0-.13c-.05-.35-.12-.69-.2-1h0a9.93,9.93,0,0,0-.33-1.07h0a6.71,6.71,0,0,0-1.55-2.5v0a5.85,5.85,0,0,0-.86-.7v0a4.17,4.17,0,0,0-.41-.24l-.25-.15-.55-.25-.36-.15-.56-.18-.48-.13c-.18,0-.38-.09-.57-.12s-.4-.08-.6-.1l-.29-.05v0l-.92-.08h0l-1,0h0c-.43,0-.83,0-1.21,0l-.31,0c-.29,0-.57.06-.84.1l-.27,0c-.31.05-.62.11-.9.19h-.07c-3.24.86-4.69,3-5.23,5.92v0c0,.27-.09.55-.13.83v0c0,.09,0,.18,0,.27,0,.25,0,.5-.07.76s0,.26,0,.4c0,.39,0,.79,0,1.21h0c0,.37,0,.71,0,1.07s0,.44,0,.66,0,.24,0,.36c0,.28.06.56.1.83,0,0,0,.09,0,.13.05.36.12.7.2,1h0a9,9,0,0,0,.33,1.06h0a6.61,6.61,0,0,0,1.55,2.5v0a5.91,5.91,0,0,0,.86.71v0l.41.24.25.14.55.25.36.15.56.18.48.13.57.12.6.1.29,0v0c.3,0,.6.07.92.08h0c.32,0,.65,0,1,0h0c.43,0,.83,0,1.21,0l.31,0c.29,0,.57-.05.84-.1l.27,0c.32-.05.62-.12.9-.19l.07,0c3.24-.86,4.69-3,5.23-5.92v0c.05-.27.1-.54.13-.83v0c0-.08,0-.18,0-.27,0-.24,0-.5.07-.75s0-.26,0-.4c0-.39,0-.8,0-1.21h0c0-.36,0-.71,0-1.06s0-.44,0-.66,0-.24,0-.36c0-.29-.06-.56-.1-.83" transform="translate(-17.16 -13.34)"/></g></g><g class="d"><g class="cc"><path class="f" d="M226.12,129.65s0-.09,0-.13c-.05-.35-.12-.69-.2-1h0a9.93,9.93,0,0,0-.33-1.07h0a6.71,6.71,0,0,0-1.55-2.5v0a5.85,5.85,0,0,0-.86-.7v0a4.41,4.41,0,0,0-.41-.24l-.25-.15-.55-.25-.36-.15-.56-.18-.48-.13c-.18,0-.38-.09-.57-.12s-.4-.08-.6-.1l-.29-.05v0l-.92-.08h0l-1,0h0c-.43,0-.83,0-1.21,0l-.31,0c-.29,0-.57.06-.84.1l-.27,0c-.31.05-.62.11-.9.19h-.07c-3.24.86-4.69,3-5.23,5.92v0c0,.27-.09.55-.13.83v0c0,.09,0,.18,0,.27,0,.25,0,.5-.07.76s0,.26,0,.4c0,.39,0,.79,0,1.21h0c0,.37,0,.71,0,1.07s0,.44,0,.66,0,.24,0,.36c0,.28.06.56.1.83,0,0,0,.09,0,.13.05.36.12.7.2,1h0a9,9,0,0,0,.33,1.06h0a6.61,6.61,0,0,0,1.55,2.5v0a5.91,5.91,0,0,0,.86.71v0l.41.24.25.14.55.25.36.15.56.18.48.13.57.12.6.1.29,0v0c.3,0,.6.07.92.08h0c.32,0,.65,0,1,0h0c.43,0,.83,0,1.21,0l.31,0c.29,0,.57-.05.84-.1l.27,0c.32-.05.62-.12.9-.19l.07,0c3.24-.86,4.69-3,5.23-5.92v0c.05-.27.1-.54.13-.83v0c0-.08,0-.18,0-.27,0-.24,0-.5.07-.75s0-.26,0-.4c0-.39,0-.8,0-1.21h0c0-.36,0-.71,0-1.06s0-.44,0-.66,0-.24,0-.36c0-.29-.06-.56-.1-.83" transform="translate(-17.16 -13.34)"/></g></g><g class="cd"><g class="ce"><path class="f" d="M77.62,20.22s0-.09,0-.13c-.05-.36-.12-.7-.2-1h0A10.07,10.07,0,0,0,77.07,18h0a6.64,6.64,0,0,0-1.55-2.5v0a5.89,5.89,0,0,0-.86-.71v0c-.13-.09-.27-.16-.41-.24L74,14.42l-.55-.25L73.12,14l-.56-.18-.48-.13-.57-.12-.6-.1-.29,0v0c-.3,0-.6-.07-.92-.08h0l-1,0h0c-.43,0-.83,0-1.21,0l-.31,0c-.29,0-.57.05-.84.1l-.27,0c-.31.05-.62.12-.9.19h-.07c-3.24.86-4.69,3-5.23,5.92v0c0,.27-.09.54-.13.83v0c0,.08,0,.18,0,.27,0,.25,0,.5-.07.75s0,.26,0,.4c0,.4,0,.8,0,1.22s0,.72,0,1.07,0,.44,0,.66,0,.24,0,.36c0,.29.06.57.1.83,0,0,0,.09,0,.14.05.35.12.69.2,1h0a9.48,9.48,0,0,0,.33,1.06h0a6.67,6.67,0,0,0,1.55,2.5v0a6.4,6.4,0,0,0,.86.7v0a4.41,4.41,0,0,0,.41.24l.25.15c.17.09.36.17.55.25l.36.15.56.19.48.13.57.12c.2,0,.4.07.6.1l.29.05v0l.92.08h0c.32,0,.65,0,1,0h0c.43,0,.83,0,1.21,0l.31,0,.84-.1.27,0c.32-.05.62-.11.9-.18l.07,0c3.24-.86,4.69-3,5.23-5.92h0c.05-.28.1-.55.13-.83v0c0-.09,0-.18,0-.27,0-.25,0-.5.07-.76s0-.26,0-.39c0-.39,0-.8,0-1.21h0c0-.36,0-.71,0-1.06s0-.44,0-.66,0-.25,0-.37c0-.28-.06-.56-.1-.83" transform="translate(-17.16 -13.34)"/></g></g><g class="cd"><g class="cf"><path class="f" d="M98.84,239.05s0-.09,0-.13c-.05-.36-.12-.7-.2-1h0a10.07,10.07,0,0,0-.33-1.07h0a6.64,6.64,0,0,0-1.55-2.5v0a5.89,5.89,0,0,0-.86-.71v0c-.13-.09-.27-.16-.41-.24l-.25-.14-.55-.25-.36-.15-.56-.18-.48-.13-.57-.12-.6-.1-.29,0v0c-.3,0-.6-.07-.92-.08h0l-1,0h0c-.43,0-.83,0-1.21,0l-.31,0c-.29,0-.57.05-.84.1l-.27,0c-.31.05-.62.12-.9.19H86.3c-3.24.86-4.69,3-5.23,5.92v0c0,.27-.09.54-.13.83v0c0,.08,0,.18,0,.27,0,.25,0,.5-.07.75s0,.26,0,.4c0,.4,0,.8,0,1.22s0,.72,0,1.07,0,.44,0,.66,0,.24,0,.36c0,.29.06.57.1.83,0,0,0,.09,0,.14.05.35.12.69.2,1h0a9.48,9.48,0,0,0,.33,1.06h0a6.67,6.67,0,0,0,1.55,2.5v0a6.4,6.4,0,0,0,.86.7v0a4.41,4.41,0,0,0,.41.24l.25.15c.17.09.36.17.55.25l.36.15.56.19.48.13.57.12c.2,0,.4.07.6.1l.29.05v0l.92.08h0c.32,0,.65,0,1,0h0c.43,0,.83,0,1.21,0l.31,0,.84-.1.27,0c.32-.05.62-.11.9-.18l.07,0c3.24-.86,4.69-3,5.23-5.92h0c.05-.28.1-.55.13-.83v0c0-.09,0-.19,0-.27,0-.25,0-.5.07-.76s0-.26,0-.39c0-.39,0-.8,0-1.21h0c0-.36,0-.71,0-1.06s0-.44,0-.66,0-.25,0-.37c0-.28-.06-.56-.1-.83" transform="translate(-17.16 -13.34)"/></g></g><g class="cd"><g class="cg"><path class="f" d="M120.05,42.12s0-.09,0-.13c-.05-.35-.12-.69-.2-1h0a9.93,9.93,0,0,0-.33-1.07h0A6.71,6.71,0,0,0,118,37.4v0a5.85,5.85,0,0,0-.86-.7v0a4.17,4.17,0,0,0-.41-.24l-.25-.15-.55-.25-.36-.15-.56-.18-.48-.13c-.18,0-.38-.09-.57-.12s-.4-.08-.6-.1l-.29-.05v0l-.92-.08h0l-1,0h0c-.43,0-.83,0-1.21,0l-.31,0c-.29,0-.57.06-.84.1l-.27,0c-.31.05-.62.11-.9.19h-.07c-3.24.86-4.69,3-5.23,5.92v0c0,.27-.09.55-.13.83v0c0,.09,0,.18,0,.27,0,.25,0,.5-.07.76s0,.26,0,.4c0,.39,0,.79,0,1.21h0c0,.37,0,.71,0,1.07s0,.44,0,.66,0,.24,0,.36c0,.28.06.56.1.83,0,0,0,.09,0,.13.05.36.12.7.2,1h0a9,9,0,0,0,.33,1.06h0a6.61,6.61,0,0,0,1.55,2.5v0a5.91,5.91,0,0,0,.86.71v0l.41.24.25.14.55.25.36.15.56.18.48.13.57.12.6.1.29,0v0c.3,0,.6.07.92.08h0c.32,0,.65,0,1,0h0c.43,0,.83,0,1.21,0l.31,0c.29,0,.57-.05.84-.1l.27,0c.32-.05.62-.12.9-.19l.07,0c3.24-.86,4.69-3,5.23-5.92v0c.05-.27.1-.54.13-.83v0c0-.08,0-.18,0-.27,0-.24,0-.5.07-.75s0-.26,0-.4c0-.39,0-.8,0-1.21h0c0-.36,0-.71,0-1.06s0-.44,0-.66,0-.24,0-.36c0-.29-.06-.56-.1-.83" transform="translate(-17.16 -13.34)"/></g></g><g class="cd"><g class="ch"><path class="f" d="M141.27,217.17s0-.09,0-.13c-.05-.35-.12-.69-.2-1h0a9.93,9.93,0,0,0-.33-1.07h0a6.71,6.71,0,0,0-1.55-2.5v0a5.85,5.85,0,0,0-.86-.7v0a4.17,4.17,0,0,0-.41-.24l-.25-.15-.55-.25-.36-.15-.56-.18-.48-.13c-.18,0-.38-.09-.57-.12s-.4-.08-.6-.1l-.29-.05v0l-.92-.08h0l-1,0h0c-.43,0-.83,0-1.21,0l-.31,0c-.29,0-.57.06-.84.1l-.27,0c-.31.05-.62.11-.9.19h-.07c-3.24.86-4.69,3-5.23,5.92v0c0,.27-.09.55-.13.83v0c0,.09,0,.18,0,.27,0,.25,0,.5-.07.76s0,.26,0,.4c0,.39,0,.79,0,1.21h0c0,.37,0,.71,0,1.07s0,.44,0,.66,0,.24,0,.36c0,.28.06.56.1.83,0,0,0,.09,0,.13.05.36.12.7.2,1h0a9,9,0,0,0,.33,1.06h0a6.61,6.61,0,0,0,1.55,2.5v0a5.91,5.91,0,0,0,.86.71v0l.41.24.25.14.55.25.36.15.56.18.48.13.57.12.6.1.29,0v0c.3,0,.6.07.92.08h0c.32,0,.65,0,1,0h0c.43,0,.83,0,1.21,0l.31,0c.29,0,.57-.05.84-.1l.27,0c.32-.05.62-.12.9-.19l.07,0c3.24-.86,4.69-3,5.23-5.92v0c.05-.27.1-.54.13-.83v0c0-.08,0-.18,0-.27,0-.24,0-.5.07-.75s0-.26,0-.4c0-.39,0-.8,0-1.21h0c0-.36,0-.71,0-1.06s0-.44,0-.66,0-.24,0-.36c0-.29-.06-.56-.1-.83" transform="translate(-17.16 -13.34)"/></g></g><g class="cd"><g class="ci"><path class="f" d="M162.48,64s0-.09,0-.13c-.05-.36-.12-.7-.2-1h0a10.06,10.06,0,0,0-.33-1.07h0a6.64,6.64,0,0,0-1.55-2.5v0a5.89,5.89,0,0,0-.86-.71v0c-.13-.09-.27-.16-.41-.24l-.25-.14-.55-.25-.36-.15-.56-.18-.48-.13-.57-.12-.6-.1-.29,0v0c-.3,0-.6-.07-.92-.08h0l-1,0h0c-.43,0-.83,0-1.21,0l-.31,0c-.29,0-.57.05-.84.1l-.27,0c-.31.05-.62.12-.9.19h-.07c-3.24.86-4.69,3-5.23,5.92v0c0,.27-.09.54-.13.83v0c0,.08,0,.18,0,.27,0,.25,0,.5-.07.75s0,.26,0,.4c0,.4,0,.8,0,1.22s0,.72,0,1.07,0,.44,0,.66,0,.24,0,.36c0,.29.06.57.1.83,0,0,0,.09,0,.14.05.35.12.69.2,1h0a9.48,9.48,0,0,0,.33,1.06h0a6.67,6.67,0,0,0,1.55,2.5v0a6.4,6.4,0,0,0,.86.7v0a4.41,4.41,0,0,0,.41.24l.25.15c.17.09.36.17.55.25l.36.15.56.19.48.13.57.12c.2,0,.4.07.6.1l.29.05v0l.92.08h0c.32,0,.65,0,1,0h0c.43,0,.83,0,1.21,0l.31,0,.84-.1.27,0c.32-.05.62-.11.9-.18l.07,0c3.24-.86,4.69-3,5.23-5.92h0c.05-.28.1-.55.13-.83v0c0-.09,0-.18,0-.27,0-.25,0-.5.07-.76s0-.26,0-.39c0-.39,0-.8,0-1.21h0c0-.36,0-.71,0-1.06s0-.44,0-.66,0-.25,0-.37c0-.28-.06-.56-.1-.83" transform="translate(-17.16 -13.34)"/></g></g><g class="cd"><g class="cj"><path class="f" d="M183.69,195.29s0-.09,0-.13c-.05-.36-.12-.7-.2-1h0a10.06,10.06,0,0,0-.33-1.07h0a6.64,6.64,0,0,0-1.55-2.5v0a5.89,5.89,0,0,0-.86-.71v0c-.13-.09-.27-.16-.41-.24l-.25-.14-.55-.25-.36-.15-.56-.18-.48-.13-.57-.12-.6-.1-.29,0v0c-.3,0-.6-.07-.92-.08h0l-1,0h0c-.43,0-.83,0-1.21,0l-.31,0c-.29,0-.57.05-.84.1l-.27,0c-.31.05-.62.12-.9.19h-.07c-3.24.86-4.69,3-5.23,5.92v0c0,.27-.09.54-.13.83v0c0,.08,0,.18,0,.27,0,.25,0,.5-.07.75s0,.26,0,.4c0,.4,0,.8,0,1.22s0,.72,0,1.07,0,.44,0,.66,0,.24,0,.36c0,.29.06.57.1.83,0,0,0,.09,0,.14.05.35.12.69.2,1h0a9.48,9.48,0,0,0,.33,1.06h0a6.67,6.67,0,0,0,1.55,2.5v0a6.4,6.4,0,0,0,.86.7v0a4.41,4.41,0,0,0,.41.24l.25.15c.17.09.36.17.55.25l.36.15.56.19.48.13.57.12c.2,0,.4.07.6.1l.29.05v0l.92.08h0c.32,0,.65,0,1,0h0c.43,0,.83,0,1.21,0l.31,0,.84-.1.27,0c.32-.05.62-.11.9-.18l.07,0c3.24-.86,4.69-3,5.23-5.92h0c.05-.28.1-.55.13-.83v0c0-.09,0-.18,0-.27,0-.25,0-.5.07-.76s0-.26,0-.39c0-.39,0-.8,0-1.21h0c0-.36,0-.71,0-1.06s0-.44,0-.66,0-.25,0-.37c0-.28-.06-.56-.1-.83" transform="translate(-17.16 -13.34)"/></g></g><g class="cd"><g class="ck"><path class="f" d="M204.91,85.88s0-.09,0-.13c-.05-.35-.12-.69-.2-1h0a9.93,9.93,0,0,0-.33-1.07h0a6.71,6.71,0,0,0-1.55-2.5v0a5.85,5.85,0,0,0-.86-.7v0a4.17,4.17,0,0,0-.41-.24l-.25-.15-.55-.25-.36-.15-.56-.18-.48-.13c-.18,0-.38-.09-.57-.12s-.4-.08-.6-.1l-.29-.05v0L197,79h0l-1,0h0c-.43,0-.83,0-1.21,0l-.31,0c-.29,0-.57.06-.84.1l-.27,0c-.31.05-.62.11-.9.19h-.07c-3.24.86-4.69,3-5.23,5.92v0c0,.27-.09.55-.13.83v0c0,.09,0,.18,0,.27,0,.25,0,.5-.07.76s0,.26,0,.4c0,.39,0,.79,0,1.21h0c0,.37,0,.71,0,1.07s0,.44,0,.66,0,.24,0,.36c0,.28.06.56.1.83,0,0,0,.09,0,.13.05.36.12.7.2,1h0a9,9,0,0,0,.33,1.06h0a6.61,6.61,0,0,0,1.55,2.5v0a5.91,5.91,0,0,0,.86.71v0l.41.24.25.14.55.25.36.15.56.18.48.13.57.12.6.1.29,0v0c.3,0,.6.07.92.08h0c.32,0,.65,0,1,0h0c.43,0,.83,0,1.21,0l.31,0c.29,0,.57-.05.84-.1l.27,0c.32-.05.62-.12.9-.19l.07,0c3.24-.86,4.69-3,5.23-5.92v0c.05-.27.1-.54.13-.83v0c0-.08,0-.18,0-.27,0-.24,0-.5.07-.75s0-.26,0-.4c0-.39,0-.8,0-1.21h0c0-.36,0-.71,0-1.06s0-.44,0-.66,0-.24,0-.36c0-.29-.06-.56-.1-.83" transform="translate(-17.16 -13.34)"/></g></g><g class="cd"><g class="cl"><path class="f" d="M226.12,107.76s0-.09,0-.13c-.05-.36-.12-.7-.2-1h0a10.06,10.06,0,0,0-.33-1.07h0A6.64,6.64,0,0,0,224,103v0a5.89,5.89,0,0,0-.86-.71v0c-.13-.09-.27-.16-.41-.24l-.25-.14-.55-.25-.36-.15-.56-.18-.48-.13-.57-.12-.6-.1-.29,0v0c-.3,0-.6-.07-.92-.08h0l-1,0h0c-.43,0-.83,0-1.21,0l-.31,0c-.29,0-.57.05-.84.1l-.27,0c-.31.05-.62.12-.9.19h-.07c-3.24.86-4.69,3-5.23,5.92v0c0,.27-.09.54-.13.83v0c0,.08,0,.18,0,.27,0,.25,0,.5-.07.75s0,.26,0,.4c0,.4,0,.8,0,1.22s0,.72,0,1.07,0,.44,0,.66,0,.24,0,.36c0,.29.06.57.1.83,0,0,0,.09,0,.14.05.35.12.69.2,1h0a9.48,9.48,0,0,0,.33,1.06h0a6.67,6.67,0,0,0,1.55,2.5v0a6.4,6.4,0,0,0,.86.7v0a4.41,4.41,0,0,0,.41.24l.25.15c.17.09.36.17.55.25l.36.15.56.19.48.13.57.12c.2,0,.4.07.6.1l.29.05v0l.92.08h0c.32,0,.65,0,1,0h0c.43,0,.83,0,1.21,0l.31,0,.84-.1.27,0c.32-.05.62-.11.9-.18l.07,0c3.24-.86,4.69-3,5.23-5.92h0c.05-.28.1-.55.13-.83v0c0-.09,0-.18,0-.27,0-.25,0-.5.07-.76s0-.26,0-.39c0-.39,0-.8,0-1.21h0c0-.36,0-.71,0-1.06s0-.44,0-.66,0-.25,0-.37c0-.28-.06-.56-.1-.83" transform="translate(-17.16 -13.34)"/></g></g><g class="cd"><g class="cm"><path class="f" d="M226.12,151.52s0-.09,0-.13c-.05-.36-.12-.7-.2-1h0a10.06,10.06,0,0,0-.33-1.07h0a6.64,6.64,0,0,0-1.55-2.5v0a5.89,5.89,0,0,0-.86-.71v0c-.13-.09-.27-.16-.41-.24l-.25-.14-.55-.25-.36-.15-.56-.18-.48-.13-.57-.12-.6-.1-.29,0v0c-.3,0-.6-.07-.92-.08h0l-1,0h0c-.43,0-.83,0-1.21,0l-.31,0c-.29,0-.57.05-.84.1l-.27,0c-.31.05-.62.12-.9.19h-.07c-3.24.86-4.69,3-5.23,5.92v0c0,.27-.09.54-.13.83v0c0,.08,0,.18,0,.27,0,.25,0,.5-.07.75s0,.26,0,.4c0,.4,0,.8,0,1.22s0,.72,0,1.07,0,.44,0,.66,0,.24,0,.36c0,.29.06.57.1.83,0,0,0,.09,0,.14.05.35.12.69.2,1h0a9.48,9.48,0,0,0,.33,1.06h0a6.67,6.67,0,0,0,1.55,2.5v0a6.4,6.4,0,0,0,.86.7v0a4.41,4.41,0,0,0,.41.24l.25.15c.17.09.36.17.55.25l.36.15.56.19.48.13.57.12c.2,0,.4.07.6.1l.29.05v0l.92.08h0c.32,0,.65,0,1,0h0c.43,0,.83,0,1.21,0l.31,0,.84-.1.27,0c.32-.05.62-.11.9-.18l.07,0c3.24-.86,4.69-3,5.23-5.92h0c.05-.28.1-.55.13-.83v0c0-.09,0-.18,0-.27,0-.25,0-.5.07-.76s0-.26,0-.39c0-.39,0-.8,0-1.21h0c0-.36,0-.71,0-1.06s0-.44,0-.66,0-.25,0-.37c0-.28-.06-.56-.1-.83" transform="translate(-17.16 -13.34)"/></g></g></g></g></svg>