<svg xmlns="http://www.w3.org/2000/svg" xmlns:xlink="http://www.w3.org/1999/xlink" viewBox="0 0 150.87 206.27"><defs><style>.a{fill:none;}.b{fill:#fff;}.c{opacity:0.55;}.d{clip-path:url(#a);}.e{clip-path:url(#b);}.f{clip-path:url(#c);}.g{clip-path:url(#d);}.h{opacity:0.2;}.i{clip-path:url(#e);}.j{clip-path:url(#f);}.k{clip-path:url(#g);}.l{clip-path:url(#h);}.m{clip-path:url(#i);}.n{clip-path:url(#j);}.o{clip-path:url(#k);}.p{clip-path:url(#l);}.q{clip-path:url(#m);}.r{clip-path:url(#n);}.s{clip-path:url(#o);}.t{clip-path:url(#p);}.u{clip-path:url(#q);}.v{clip-path:url(#r);}.w{clip-path:url(#s);}.x{clip-path:url(#t);}.y{clip-path:url(#u);}.z{clip-path:url(#v);}.aa{clip-path:url(#w);}.ab{clip-path:url(#x);}.ac{clip-path:url(#y);}</style><clipPath id="a" transform="translate(-9 -7)"><rect class="a" x="25.45" y="13.13" width="28.93" height="19.76"/></clipPath><clipPath id="b" transform="translate(-9 -7)"><rect class="a" x="50.9" y="26.25" width="28.93" height="19.76"/></clipPath><clipPath id="c" transform="translate(-9 -7)"><rect class="a" x="76.35" y="39.38" width="28.93" height="19.76"/></clipPath><clipPath id="d" transform="translate(-9 -7)"><rect class="a" x="101.79" y="52.5" width="28.93" height="19.76"/></clipPath><clipPath id="e" transform="translate(-9 -7)"><rect class="a" x="12.72" width="28.93" height="19.76"/></clipPath><clipPath id="f" transform="translate(-9 -7)"><rect class="a" x="139.97" y="78.76" width="28.93" height="19.76"/></clipPath><clipPath id="g" transform="translate(-9 -7)"><rect class="a" x="38.17" y="13.13" width="28.93" height="19.76"/></clipPath><clipPath id="h" transform="translate(-9 -7)"><rect class="a" x="63.62" y="26.25" width="28.93" height="19.76"/></clipPath><clipPath id="i" transform="translate(-9 -7)"><rect class="a" x="89.07" y="39.38" width="28.93" height="19.76"/></clipPath><clipPath id="j" transform="translate(-9 -7)"><rect class="a" x="114.52" y="52.5" width="28.93" height="19.76"/></clipPath><clipPath id="k" transform="translate(-9 -7)"><rect class="a" x="127.24" y="65.63" width="28.93" height="19.76"/></clipPath><clipPath id="l" transform="translate(-9 -7)"><rect class="a" x="139.97" y="65.63" width="28.93" height="19.76"/></clipPath><clipPath id="m" transform="translate(-9 -7)"><rect class="a" width="28.93" height="19.76"/></clipPath><clipPath id="n" transform="translate(-9 -7)"><rect class="a" x="25.45" y="150.38" width="28.93" height="19.76"/></clipPath><clipPath id="o" transform="translate(-9 -7)"><rect class="a" x="50.9" y="137.26" width="28.93" height="19.76"/></clipPath><clipPath id="p" transform="translate(-9 -7)"><rect class="a" x="76.35" y="124.13" width="28.93" height="19.76"/></clipPath><clipPath id="q" transform="translate(-9 -7)"><rect class="a" x="101.79" y="111.01" width="28.93" height="19.76"/></clipPath><clipPath id="r" transform="translate(-9 -7)"><rect class="a" x="38.17" y="150.38" width="28.93" height="19.76"/></clipPath><clipPath id="s" transform="translate(-9 -7)"><rect class="a" x="63.62" y="137.26" width="28.93" height="19.76"/></clipPath><clipPath id="t" transform="translate(-9 -7)"><rect class="a" x="89.07" y="124.13" width="28.93" height="19.76"/></clipPath><clipPath id="u" transform="translate(-9 -7)"><rect class="a" x="114.52" y="111.01" width="28.93" height="19.76"/></clipPath><clipPath id="v" transform="translate(-9 -7)"><rect class="a" x="127.24" y="97.88" width="28.93" height="19.76"/></clipPath><clipPath id="w" transform="translate(-9 -7)"><rect class="a" x="139.97" y="97.88" width="28.93" height="19.76"/></clipPath><clipPath id="x" transform="translate(-9 -7)"><rect class="a" y="163.54" width="28.93" height="19.76"/></clipPath><clipPath id="y" transform="translate(-9 -7)"><rect class="a" x="12.72" y="163.54" width="28.93" height="19.76"/></clipPath></defs><title>play-button-text</title><path class="b" d="M33.37,208.66v4.46h-1.5V201.74h4.2a4.18,4.18,0,0,1,2.92,1,3.6,3.6,0,0,1,0,5.07,4.39,4.39,0,0,1-3,.89Zm0-1.22h2.7a2.67,2.67,0,0,0,1.84-.57,2.06,2.06,0,0,0,.64-1.64,2.14,2.14,0,0,0-.64-1.63,2.5,2.5,0,0,0-1.75-.63H33.37Z" transform="translate(-9 -7)"/><path class="b" d="M45.72,211.89h5.39v1.23h-6.9V201.74h1.51Z" transform="translate(-9 -7)"/><path class="b" d="M61.49,210.14H56.72l-1.07,3H54.1l4.35-11.38h1.31l4.35,11.38H62.57Zm-4.32-1.23H61l-1.94-5.32Z" transform="translate(-9 -7)"/><path class="b" d="M70.62,207.45l3-5.71h1.7l-3.92,7.14v4.24h-1.5v-4.24L66,201.74h1.71Z" transform="translate(-9 -7)"/><path class="b" d="M89,211.13l3.25-9.39h1.65l-4.22,11.38H88.31L84.1,201.74h1.63Z" transform="translate(-9 -7)"/><path class="b" d="M99.23,213.12h-1.5V201.74h1.5Z" transform="translate(-9 -7)"/><path class="b" d="M104.21,213.12V201.74h3.21a5.16,5.16,0,0,1,2.63.66,4.48,4.48,0,0,1,1.76,1.87,6.16,6.16,0,0,1,.63,2.78v.72a6.11,6.11,0,0,1-.62,2.82,4.38,4.38,0,0,1-1.78,1.86,5.41,5.41,0,0,1-2.68.67Zm1.5-10.15v8.92h1.58a3.45,3.45,0,0,0,2.7-1.08,4.46,4.46,0,0,0,1-3.07v-.67a4.51,4.51,0,0,0-.91-3,3.22,3.22,0,0,0-2.58-1.09Z" transform="translate(-9 -7)"/><path class="b" d="M123.37,207.86h-4.93v4h5.73v1.23h-7.23V201.74h7.15V203h-5.65v3.66h4.93Z" transform="translate(-9 -7)"/><path class="b" d="M137,207.8a7,7,0,0,1-.57,2.92,4.22,4.22,0,0,1-1.59,1.9,4.46,4.46,0,0,1-2.41.65,4.24,4.24,0,0,1-4-2.54,6.62,6.62,0,0,1-.59-2.83v-.82a7,7,0,0,1,.57-2.9,4.49,4.49,0,0,1,6.41-1.93,4.21,4.21,0,0,1,1.6,1.91,7,7,0,0,1,.57,2.92Zm-1.5-.74a5.09,5.09,0,0,0-.81-3.1,2.68,2.68,0,0,0-2.27-1.08,2.65,2.65,0,0,0-2.24,1.08,5,5,0,0,0-.84,3v.84a5.12,5.12,0,0,0,.82,3.08,2.89,2.89,0,0,0,4.52.06,5,5,0,0,0,.82-3Z" transform="translate(-9 -7)"/><g class="c"><g class="d"><path class="b" d="M45.27,24.25v-.07a6.18,6.18,0,0,0-.12-.62h0c-.06-.22-.13-.44-.2-.64h0a3.92,3.92,0,0,0-1-1.49h0a4.06,4.06,0,0,0-.5-.43h0l-.25-.14-.15-.09-.33-.15-.21-.09-.34-.1L42,20.35l-.35-.08-.36-.06H39.05a4.43,4.43,0,0,0-.51.06h-.16a5.23,5.23,0,0,0-.54.12h0A4.08,4.08,0,0,0,34.7,24h0a4,4,0,0,1-.08.5h0V26h0v1.25l.06.5a.11.11,0,0,1,0,.08,6.18,6.18,0,0,0,.12.62h0a4.71,4.71,0,0,0,.19.64h0a3.91,3.91,0,0,0,.93,1.5h0a5.3,5.3,0,0,0,.52.42h0c.08.06.17.1.25.15l.15.08.33.15.21.09.34.11.29.08.34.07.36.06h.18l.55.05h1.5l.51-.06h.16l.54-.11h0a4.07,4.07,0,0,0,3.14-3.55h0a4.71,4.71,0,0,1,.08-.5h0a.43.43,0,0,1,0-.16V26.08h0V24.83l-.06-.5" transform="translate(-9 -7)"/></g></g><g class="c"><g class="e"><path class="b" d="M70.72,37.38V37.3a6.18,6.18,0,0,0-.12-.62h0a5,5,0,0,0-.19-.63h0a3.91,3.91,0,0,0-.93-1.5h0a5.3,5.3,0,0,0-.52-.42h0c-.08-.06-.17-.1-.25-.15l-.15-.08a1.66,1.66,0,0,0-.33-.15L68,33.66l-.34-.11-.29-.08L67,33.4l-.36-.06H64.44l-.51.06h-.16a5.17,5.17,0,0,0-.54.11h0a4.07,4.07,0,0,0-3.14,3.55h0a4.71,4.71,0,0,1-.08.5h0v1.58h0v1.25l.06.5A.19.19,0,0,1,60,41a6.18,6.18,0,0,0,.12.62h0c.06.22.13.44.2.64h0a3.87,3.87,0,0,0,.93,1.49h0a5.3,5.3,0,0,0,.52.42h0l.25.14.15.09.33.15.21.09.34.1.29.08.34.08L64,45h.18l.55,0h1.52L66.8,45H67a5.23,5.23,0,0,0,.54-.12h0a4.08,4.08,0,0,0,3.14-3.56h0a4,4,0,0,1,.08-.5h0V39.19h0V37.94l-.06-.5" transform="translate(-9 -7)"/></g></g><g class="c"><g class="f"><path class="b" d="M96.17,50.5v-.07a2.52,2.52,0,0,0-.12-.62h0a4.71,4.71,0,0,0-.19-.64h0a3.87,3.87,0,0,0-.93-1.49h0a3.35,3.35,0,0,0-.51-.42h0l-.24-.14L94,47l-.33-.15-.22-.09-.33-.1-.29-.08-.34-.08-.36-.06H89.87a4.26,4.26,0,0,0-.5.06h-.16l-.54.12h0a4.06,4.06,0,0,0-3.14,3.56h0a4,4,0,0,1-.08.5h0v1.58h0v1.25a1.7,1.7,0,0,0,.06.5c.06.16,0,.05,0,.08a6.18,6.18,0,0,0,.12.62h0a5.1,5.1,0,0,0,.2.63h0a3.91,3.91,0,0,0,.93,1.5h0a5.3,5.3,0,0,0,.52.42h0c.08.06.17.1.25.15l.15.08a1.87,1.87,0,0,0,.32.15l.22.09.34.11.28.08.35.07.36.06h2.24l.5-.06h.17l.54-.11h0a4.07,4.07,0,0,0,3.14-3.55h0a4.71,4.71,0,0,1,.08-.5h0V52.25h0V51l-.06-.5" transform="translate(-9 -7)"/></g></g><g class="c"><g class="g"><path class="b" d="M121.61,63.63v-.08a3.22,3.22,0,0,0-.11-.62h0a4.61,4.61,0,0,0-.2-.63h0a3.91,3.91,0,0,0-.93-1.5h0a5.17,5.17,0,0,0-.51-.42h0l-.24-.15-.15-.08-.33-.15a.85.85,0,0,0-.22-.09l-.33-.11-.29-.08-.34-.07-.36-.06h-2.26l-.5.06h-.16a5.17,5.17,0,0,0-.54.11h0A4,4,0,0,0,111,63.3h0a1.26,1.26,0,0,1-.07.5h0v1.58h0v1.25a1.74,1.74,0,0,0,.06.5v.07a6.18,6.18,0,0,0,.12.62h0a4.75,4.75,0,0,0,.2.64h0a3.87,3.87,0,0,0,.93,1.49h0a3,3,0,0,0,.52.42h0l.25.14.15.09.32.15.22.09.34.1.28.08.34.08.37.06h2.24a4.26,4.26,0,0,0,.5-.06h.16a4.88,4.88,0,0,0,.55-.12h0a4.05,4.05,0,0,0,3.13-3.56h0a4,4,0,0,1,.08-.5h0V65.34h0V64.09a1.21,1.21,0,0,0-.07-.5" transform="translate(-9 -7)"/></g></g><g class="h"><g class="i"><path class="b" d="M32.54,11.13a.11.11,0,0,0,0-.08,3.22,3.22,0,0,0-.11-.62h0a4.61,4.61,0,0,0-.2-.63h0a3.91,3.91,0,0,0-.93-1.5h0a5.17,5.17,0,0,0-.51-.42h0a1.58,1.58,0,0,0-.24-.15l-.15-.08a2.41,2.41,0,0,0-.33-.15.85.85,0,0,0-.22-.09l-.33-.11-.29-.08-.34-.07-.36-.06h-.18L27.79,7H26.27l-.5.06h-.16a5.17,5.17,0,0,0-.54.11H25a4,4,0,0,0-3.13,3.55h0a4.61,4.61,0,0,1-.07.5h0V12.8h0v1.25a1.74,1.74,0,0,0,.06.5v.07a6.18,6.18,0,0,0,.12.62h0a4.75,4.75,0,0,0,.2.64h0a3.87,3.87,0,0,0,.93,1.49h0a3,3,0,0,0,.52.42h0l.25.14L24,18l.32.15.22.09.34.1.28.08.34.08.37.06h2.24a4.26,4.26,0,0,0,.5-.06h.16a4.88,4.88,0,0,0,.55-.12h0A4.07,4.07,0,0,0,32.49,15h0a4,4,0,0,1,.08-.5h0V12.92h0V11.67a1.21,1.21,0,0,0-.07-.5" transform="translate(-9 -7)"/></g></g><g class="c"><g class="j"><path class="b" d="M159.79,89.88a.11.11,0,0,1,0-.08,6,6,0,0,0-.12-.61h0a4.71,4.71,0,0,0-.19-.64h0a3.91,3.91,0,0,0-.93-1.5h0a5.3,5.3,0,0,0-.52-.42h0l-.25-.14-.15-.09-.33-.15-.21-.09-.34-.11-.29-.07-.34-.08-.36-.06h-2.25a4.43,4.43,0,0,0-.51.06h-.16a5.23,5.23,0,0,0-.54.12h0a4.07,4.07,0,0,0-3.14,3.55h0a4.33,4.33,0,0,1-.08.5h0v1.59h0v1a.81.81,0,0,0,0,.22l.06.5v.08a6.18,6.18,0,0,0,.12.62h0c.06.22.13.43.2.63h0a3.91,3.91,0,0,0,.93,1.5h0a5.3,5.3,0,0,0,.52.42h0l.25.14.15.09a2.41,2.41,0,0,0,.33.15l.21.09.34.11.29.08.34.07.36.06h2.24l.51-.06h.16l.54-.11h0a4.07,4.07,0,0,0,3.14-3.55h0a4.71,4.71,0,0,1,.08-.5h0V91.65h0V90.4l-.06-.5" transform="translate(-9 -7)"/></g></g><g class="h"><g class="k"><path class="b" d="M58,24.25v-.07a6.18,6.18,0,0,0-.12-.62h0a4.75,4.75,0,0,0-.2-.64h0a4,4,0,0,0-.92-1.49h0a3,3,0,0,0-.52-.42h0L56,20.86l-.15-.09-.32-.15-.22-.09-.33-.1-.29-.08-.34-.08L54,20.21H51.76a4.26,4.26,0,0,0-.5.06H51.1a4.88,4.88,0,0,0-.55.12h0A4.05,4.05,0,0,0,47.42,24h0a2.74,2.74,0,0,1-.08.5h0a.43.43,0,0,0,0,.16V26h0v1.25a4.26,4.26,0,0,0,.06.5v.08a3.22,3.22,0,0,0,.11.62h0a4.75,4.75,0,0,0,.2.64h0a4.25,4.25,0,0,0,.93,1.5h0a5.17,5.17,0,0,0,.51.42h0a1.58,1.58,0,0,0,.24.15l.15.08.33.15.22.09.33.11.29.08.34.07.36.06h.18l.55.05h1.52l.5-.06h.16l.54-.11h0A4,4,0,0,0,58,28.16h0a4.61,4.61,0,0,1,.07-.5h0V26.08h0V24.83a4.26,4.26,0,0,0-.06-.5" transform="translate(-9 -7)"/></g></g><g class="h"><g class="l"><path class="b" d="M83.44,37.38a.11.11,0,0,0,0-.08,6.18,6.18,0,0,0-.12-.62h0a5.1,5.1,0,0,0-.2-.63h0a3.91,3.91,0,0,0-.93-1.5h0a3,3,0,0,0-.52-.42h0a1.28,1.28,0,0,0-.25-.15l-.15-.08a1.87,1.87,0,0,0-.32-.15l-.22-.09-.34-.11-.28-.08-.34-.07-.37-.06H77.16l-.5.06H76.5a4.86,4.86,0,0,0-.55.11h0a4,4,0,0,0-3.13,3.55h0a3.05,3.05,0,0,1-.08.5h0v1.58h0v1.25a1.24,1.24,0,0,0,.07.5V41a3.09,3.09,0,0,0,.11.62h0a4.75,4.75,0,0,0,.2.64h0A3.88,3.88,0,0,0,74,43.71h0a5.17,5.17,0,0,0,.51.42h0l.24.14.15.09.33.15.22.09.33.1.29.08.34.08.36.06H77l.56,0h1.33L79,45a4.26,4.26,0,0,0,.5-.06h.16l.54-.12h0a4.05,4.05,0,0,0,3.13-3.56h0a1.21,1.21,0,0,1,.07-.5h0V39.18h0V37.93a4.26,4.26,0,0,0-.06-.5" transform="translate(-9 -7)"/></g></g><g class="h"><g class="m"><path class="b" d="M108.89,50.5v-.07a6.18,6.18,0,0,0-.12-.62h0a4.75,4.75,0,0,0-.2-.64h0a3.87,3.87,0,0,0-.93-1.49h0a5.3,5.3,0,0,0-.52-.42h0l-.25-.14-.15-.09-.32-.15-.22-.09-.34-.1-.28-.08-.35-.08-.36-.06h-2.24a4.26,4.26,0,0,0-.5.06h-.17l-.54.12h0a4.08,4.08,0,0,0-3.14,3.56h0a4,4,0,0,1-.08.5h0v1.58h0v1.25l.06.5a.11.11,0,0,1,0,.08,2.62,2.62,0,0,0,.12.62h0a5,5,0,0,0,.19.63h0a3.91,3.91,0,0,0,.93,1.5h0a3.35,3.35,0,0,0,.51.42h0a1.58,1.58,0,0,0,.24.15l.15.08.33.15.22.09.33.11.29.08.34.07.36.06h2.26L105,58h.16l.54-.11h0a4,4,0,0,0,3.14-3.55h0a4,4,0,0,0,.08-.5h0V52.26h0V51a1.74,1.74,0,0,0-.06-.5" transform="translate(-9 -7)"/></g></g><g class="h"><g class="n"><path class="b" d="M134.34,63.63v-.08a6.18,6.18,0,0,0-.12-.62h0a5.1,5.1,0,0,0-.2-.63h0a3.91,3.91,0,0,0-.93-1.5h0a5.3,5.3,0,0,0-.52-.42h0c-.08-.06-.17-.1-.25-.15l-.15-.08a1.87,1.87,0,0,0-.32-.15l-.22-.09-.34-.11-.28-.08-.35-.07-.36-.06h-2.25l-.5.06h-.17a5.17,5.17,0,0,0-.54.11h0a4.07,4.07,0,0,0-3.14,3.55h0a4.71,4.71,0,0,1-.08.5h0v1.58h0v1.25l.06.5v.07a2.52,2.52,0,0,0,.12.62h0a4.71,4.71,0,0,0,.19.64h0a3.87,3.87,0,0,0,.93,1.49h0a5.3,5.3,0,0,0,.52.42h0l.24.14.15.09.33.15.22.09.33.1.29,0,.34.08.36.06h2.21a4.43,4.43,0,0,0,.51-.06h.16a5.23,5.23,0,0,0,.54-.12h0a4.06,4.06,0,0,0,3.14-3.56h0a4,4,0,0,1,.08-.5h0V65.32h0v-1a.81.81,0,0,0,0-.22l-.06-.5" transform="translate(-9 -7)"/></g></g><g class="c"><g class="o"><path class="b" d="M147.06,76.76v-.08a3.22,3.22,0,0,0-.11-.62h0a4.61,4.61,0,0,0-.2-.63h0a3.91,3.91,0,0,0-.93-1.5h0a2.59,2.59,0,0,0-.51-.42h0a1.58,1.58,0,0,0-.24-.15l-.15-.08-.33-.16-.22-.09-.33-.1-.29-.08-.34-.07-.36-.06H140.8l-.5.06h-.16a5.17,5.17,0,0,0-.54.11h0a4,4,0,0,0-3.13,3.55h0a1.26,1.26,0,0,1-.07.5h0v1.58h0v1.25a4.26,4.26,0,0,0,.06.5v.07a6.18,6.18,0,0,0,.12.62h0a4.75,4.75,0,0,0,.2.64h0a4,4,0,0,0,.92,1.49h0a3,3,0,0,0,.52.42h0l.25.14.15.09.32.15.22.09.33.1.29.08.34.08h.54l.55.05h1.52a4.26,4.26,0,0,0,.5-.06h.16a2.08,2.08,0,0,0,.55-.12h0A4,4,0,0,0,147,80.59h0a2.74,2.74,0,0,1,.08-.5h0V78.51h0V77.26a4.26,4.26,0,0,0-.06-.5" transform="translate(-9 -7)"/></g></g><g class="h"><g class="p"><path class="b" d="M159.79,76.76v-.08a6.18,6.18,0,0,0-.12-.62h0a5,5,0,0,0-.19-.63h0a3.91,3.91,0,0,0-.93-1.5h0a3,3,0,0,0-.52-.42h0c-.08-.06-.17-.1-.25-.15l-.15-.08c-.1-.06-.21-.1-.33-.16l-.21-.09-.34-.1-.29-.08-.34-.07-.36-.06h-2.23l-.51.06h-.16a5.17,5.17,0,0,0-.54.11h0a4.07,4.07,0,0,0-3.14,3.55h0a4.71,4.71,0,0,1-.08.5h0v1.58h0v1.25l.06.5v.07a6.18,6.18,0,0,0,.12.62h0c.06.22.13.43.2.64h0a3.87,3.87,0,0,0,.93,1.49h0a5.3,5.3,0,0,0,.52.42h0l.25.14.15.09.33.15.21.09.34.1.29.08.34.08h.54l.55.05h1.51a4.43,4.43,0,0,0,.51-.06h.16a1.93,1.93,0,0,0,.54-.12h0a4.07,4.07,0,0,0,3.14-3.55h0a4,4,0,0,1,.08-.5h0V78.48h0V77.23l-.06-.5" transform="translate(-9 -7)"/></g></g><g class="c"><g class="q"><path class="b" d="M19.82,11.13v-.08a6.18,6.18,0,0,0-.12-.62h0a5.1,5.1,0,0,0-.2-.63h0a3.91,3.91,0,0,0-.93-1.5h0a5.3,5.3,0,0,0-.52-.42h0c-.08-.06-.17-.1-.25-.15l-.15-.08a1.87,1.87,0,0,0-.32-.15l-.22-.09-.34-.11-.28-.08-.35-.07-.36-.06H15.6L15.07,7H13.55l-.5.06h-.17a5.17,5.17,0,0,0-.54.11h0A4.06,4.06,0,0,0,9.16,10.8h0a4.71,4.71,0,0,1-.08.5h0v1.58H9v1.25l.06.5v.07a2.52,2.52,0,0,0,.12.62h0a4.71,4.71,0,0,0,.19.64h0a3.87,3.87,0,0,0,.93,1.49h0a5.3,5.3,0,0,0,.52.42h0l.24.14.15.09.33.15.22.09.33.1.29.08.34.08.36.06h2.25l.51-.06H16a5.23,5.23,0,0,0,.54-.12h0A4.08,4.08,0,0,0,19.77,15h0a4,4,0,0,1,.08-.5h0V12.92h0v-1a.81.81,0,0,0,0-.22l-.06-.5" transform="translate(-9 -7)"/></g></g><g class="c"><g class="r"><path class="b" d="M45.27,159v.07a6.18,6.18,0,0,1-.12.62h0c-.06.22-.13.43-.2.64h0a3.87,3.87,0,0,1-.93,1.49h0a5.3,5.3,0,0,1-.52.42h0l-.25.14-.15.09-.33.15-.21.09-.34.1-.28.08-.35.08-.36.05h-.18l-.55,0h0q-.3,0-.6,0H39a4.43,4.43,0,0,1-.51-.06h-.16a1.93,1.93,0,0,1-.54-.12h0a4.07,4.07,0,0,1-3.14-3.55h0a4,4,0,0,0-.08-.5h0v-1.58h0V156l.06-.5v-.08a6.18,6.18,0,0,1,.12-.62h0a4.71,4.71,0,0,1,.19-.64h0a3.91,3.91,0,0,1,.93-1.5h0a3,3,0,0,1,.52-.42h0c.08-.06.17-.1.25-.15l.15-.08c.1-.06.21-.1.33-.16l.21-.08.34-.11.29-.08.34-.07.36-.06h2.23l.51.06h.16l.54.11h0a4.07,4.07,0,0,1,3.14,3.55h0a4.71,4.71,0,0,0,.08.5h0v1.58h0v1.25l-.06.5" transform="translate(-9 -7)"/></g></g><g class="c"><g class="s"><path class="b" d="M70.72,145.89V146a6.18,6.18,0,0,1-.12.62h0a5,5,0,0,1-.19.63h0a3.91,3.91,0,0,1-.93,1.5h0a5.3,5.3,0,0,1-.52.42h0c-.08.06-.17.1-.25.15l-.15.08a1.66,1.66,0,0,1-.33.15l-.21.09-.34.11-.29.08-.34.07-.36.06h-.18L66,150H64.5l-.51-.06h-.16l-.54-.11h0a4.07,4.07,0,0,1-3.14-3.55h0a4.71,4.71,0,0,0-.08-.5h0V144.2h0V143l.06-.5a.11.11,0,0,0,0-.08,6,6,0,0,1,.12-.61h0c.06-.23.13-.44.2-.64h0a3.91,3.91,0,0,1,.93-1.5h0a5.3,5.3,0,0,1,.52-.42h0l.1-.2.15-.09.33-.15.21-.09.34-.11.29-.07.34-.08.36-.06h2.25l.51.06h.16a5.23,5.23,0,0,1,.54.12h0a4.07,4.07,0,0,1,3.14,3.55h0a4.33,4.33,0,0,0,.08.5h0v1.59h0v1.25l-.06.5" transform="translate(-9 -7)"/></g></g><g class="c"><g class="t"><path class="b" d="M96.17,132.77v.07a2.62,2.62,0,0,1-.12.62h0a2.14,2.14,0,0,1-.19.64h0a3.87,3.87,0,0,1-.93,1.49h0a3.35,3.35,0,0,1-.51.42h0l-.24.14-.15.09-.33.15-.22.09-.33.1-.29.08-.34.08-.36,0H92l-.56.05H89.9a4.26,4.26,0,0,1-.5-.06h-.16a1.93,1.93,0,0,1-.54-.12h0a4,4,0,0,1-3.14-3.55h0a4,4,0,0,0-.08-.5h0V131h0v-1.25a1.7,1.7,0,0,1,.06-.5c.06-.16,0,0,0-.08a6.18,6.18,0,0,1,.12-.62h0a5.1,5.1,0,0,1,.2-.63h0a3.91,3.91,0,0,1,.93-1.5h0a3,3,0,0,1,.52-.42h0c.08-.06.17-.1.25-.15l.15-.08c.1-.06.21-.1.32-.16l.22-.08.34-.11.28-.08.35-.07.36-.06h2.24l.5.06h.17l.54.11h0A4.07,4.07,0,0,1,96.17,129h0a4.71,4.71,0,0,0,.08.5h0V131h0v1.25l-.06.5" transform="translate(-9 -7)"/></g></g><g class="c"><g class="u"><path class="b" d="M121.61,119.64v.08a3.22,3.22,0,0,1-.11.62h0a4.61,4.61,0,0,1-.2.63h0a3.91,3.91,0,0,1-.93,1.5h0a5.17,5.17,0,0,1-.51.42h0a1.58,1.58,0,0,1-.24.15l-.15.08c-.11.06-.22.1-.33.15l-.22.09-.33.11-.29.08-.34.07-.36.06h-2.26l-.5-.06h-.16l-.54-.11h0A4,4,0,0,1,111,120h0a1.26,1.26,0,0,0-.07-.5h0v-1.58h0v-1.25a1.74,1.74,0,0,1,.06-.5v-.08a6,6,0,0,1,.12-.61h0a4.75,4.75,0,0,1,.2-.64h0a3.91,3.91,0,0,1,.93-1.5h0a3,3,0,0,1,.52-.42h0l.25-.14.15-.09.32-.15.22-.09.34-.11.28-.07.34-.08.37-.06h2.24a4.26,4.26,0,0,1,.5.06h.16a4.88,4.88,0,0,1,.55.12h0a4.05,4.05,0,0,1,3.13,3.55h0a4.33,4.33,0,0,0,.08.5h0V118h0v1.25a1.21,1.21,0,0,1-.07.5" transform="translate(-9 -7)"/></g></g><g class="h"><g class="v"><path class="b" d="M58,159v.07a6.18,6.18,0,0,1-.12.62h0a4.75,4.75,0,0,1-.2.64h0a4,4,0,0,1-.92,1.49h0a3,3,0,0,1-.52.42h0l-.25.14-.15.09-.32.15-.22.09-.33.1-.29.08-.34.08L54,163H53.8l-.55,0h0q-.3,0-.6,0h-.92a4.26,4.26,0,0,1-.5-.06h-.16a2.08,2.08,0,0,1-.55-.12h0a4,4,0,0,1-3.13-3.55h0a2.74,2.74,0,0,0-.08-.5h0v-1.58h0V156a4.26,4.26,0,0,1,.06-.5v-.08a3.22,3.22,0,0,1,.11-.62h0a4.75,4.75,0,0,1,.2-.64h0a4.25,4.25,0,0,1,.93-1.5h0a3.35,3.35,0,0,1,.51-.42h0a1.58,1.58,0,0,1,.24-.15l.15-.08.33-.16.22-.08.33-.11.29-.08.34-.07.36-.06h2.25l.5.06h.16l.54.11h.05A4,4,0,0,1,58,155.18h0a4.61,4.61,0,0,0,.07.5h0v1.58h0v1.25a4.26,4.26,0,0,1-.06.5" transform="translate(-9 -7)"/></g></g><g class="h"><g class="w"><path class="b" d="M83.44,145.89a.11.11,0,0,1,0,.08,6.18,6.18,0,0,1-.12.62h0a5.1,5.1,0,0,1-.2.63h0a3.91,3.91,0,0,1-.93,1.5h0a3,3,0,0,1-.52.42h0a1.28,1.28,0,0,1-.25.15l-.15.08a1.87,1.87,0,0,1-.32.15l-.22.09-.34.11-.28.08-.34.07-.37.06h-.17l-.55,0H77.16l-.5-.06H76.5l-.55-.11h0a4,4,0,0,1-3.13-3.55h0a3.05,3.05,0,0,0-.08-.5h0v-1.58h0v-1.25a1.24,1.24,0,0,1,.07-.5v-.08a3.12,3.12,0,0,1,.11-.61h0a4.75,4.75,0,0,1,.2-.64h0a3.91,3.91,0,0,1,.93-1.5h0a5.17,5.17,0,0,1,.51-.42h0l.24-.14L75,139l.33-.15.22-.09.33-.11.29-.07.34-.08.36-.06h2.26a4.26,4.26,0,0,1,.5.06h.16l.54.12h0a4.05,4.05,0,0,1,3.13,3.55h0a1.24,1.24,0,0,0,.07.5h0v1.59h0v1.25a4.26,4.26,0,0,1-.06.5" transform="translate(-9 -7)"/></g></g><g class="h"><g class="x"><path class="b" d="M108.89,132.77v.07a6.18,6.18,0,0,1-.12.62h0c-.06.22-.12.43-.2.64h0a3.87,3.87,0,0,1-.93,1.49h0a5.3,5.3,0,0,1-.52.42h0l-.25.14-.15.09-.32.15-.22.09-.34.1-.28.08-.35.08-.36,0h-.17l-.55.05h-1.52a4.26,4.26,0,0,1-.5-.06h-.17a2,2,0,0,1-.54-.12h0a4.07,4.07,0,0,1-3.14-3.55h0a4,4,0,0,0-.08-.5h0V131h0v-1.25l.06-.5v-.08a2.62,2.62,0,0,1,.12-.62h0a5,5,0,0,1,.19-.63h0a3.91,3.91,0,0,1,.93-1.5h0A3.17,3.17,0,0,1,100,126h0a1.58,1.58,0,0,1,.24-.15l.15-.08.33-.16.22-.08.33-.11.29-.08.34-.07.36-.06h2.26l.5.06h.16l.54.11h0a4,4,0,0,1,3.14,3.55h0a4,4,0,0,1,.08.5h0V131h0v1.25a1.74,1.74,0,0,1-.06.5" transform="translate(-9 -7)"/></g></g><g class="h"><g class="y"><path class="b" d="M134.34,119.64v.08a6.18,6.18,0,0,1-.12.62h0a5.1,5.1,0,0,1-.2.63h0a3.91,3.91,0,0,1-.93,1.5h0a5.3,5.3,0,0,1-.52.42h0c-.08.06-.17.1-.25.15l-.15.08a1.87,1.87,0,0,1-.32.15l-.22.09-.34.11-.28.08-.35.07-.36.06h-2.25l-.5-.06h-.17l-.54-.11h0A4.07,4.07,0,0,1,123.7,120h0a4.71,4.71,0,0,0-.08-.5h0v-1.58h0v-1.25l.06-.5a.11.11,0,0,0,0-.08,2.54,2.54,0,0,1,.12-.61h0a4.71,4.71,0,0,1,.19-.64h0a3.91,3.91,0,0,1,.93-1.5h0a5.3,5.3,0,0,1,.52-.42h0l.24-.14.15-.09.33-.15.22-.09.33-.11.29-.07.34-.08.36-.06h2.21a4.43,4.43,0,0,1,.51.06h.16a5.23,5.23,0,0,1,.54.12h0a4.07,4.07,0,0,1,3.14,3.55h0a4.33,4.33,0,0,0,.08.5h0a.43.43,0,0,0,0,.16v1.43h0v1a.81.81,0,0,1,0,.22l-.06.5" transform="translate(-9 -7)"/></g></g><g class="c"><g class="z"><path class="b" d="M147.06,106.52v.07a3.22,3.22,0,0,1-.11.62h0a4.75,4.75,0,0,1-.2.64h0a4,4,0,0,1-.93,1.49h0a5.17,5.17,0,0,1-.51.42h0l-.24.14-.15.09-.33.15-.22.09-.33.1-.29.08-.34.08h-.54l-.55.05H140.8a4.26,4.26,0,0,1-.5-.06h-.16a1.93,1.93,0,0,1-.54-.12h0a4,4,0,0,1-3.13-3.55h0a1.21,1.21,0,0,0-.07-.5h0v-1.58h0v-1.25a4.26,4.26,0,0,1,.06-.5v-.08a6.18,6.18,0,0,1,.12-.62h0a4.61,4.61,0,0,1,.2-.63h0a4.09,4.09,0,0,1,.92-1.5h0a3,3,0,0,1,.52-.42h0a1.28,1.28,0,0,1,.25-.15.84.84,0,0,1,.15-.08,3.13,3.13,0,0,0,.32-.16l.22-.08.33-.11.29-.08L140,99l.37-.06h2.24l.5.06h.16a4.86,4.86,0,0,1,.55.11h0a4,4,0,0,1,3.13,3.55h0a3.05,3.05,0,0,0,.08.5h0v1.58h0V106a4.26,4.26,0,0,1-.06.5" transform="translate(-9 -7)"/></g></g><path class="b" d="M58,37.38a.11.11,0,0,0,0-.08,6.18,6.18,0,0,0-.12-.62h0a4.61,4.61,0,0,0-.2-.63h0a4.09,4.09,0,0,0-.92-1.5h0a3,3,0,0,0-.52-.42h0L56,34l-.15-.08a1.87,1.87,0,0,0-.32-.15.85.85,0,0,0-.22-.09L55,33.55l-.29-.08-.34-.07L54,33.34H51.76l-.5.06H51.1a4.86,4.86,0,0,0-.55.11h0a4,4,0,0,0-3.13,3.55h0a3.05,3.05,0,0,1-.08.5h0v1.58h0v1.25a4.26,4.26,0,0,0,.06.5V41a3.09,3.09,0,0,0,.11.62h0a4.75,4.75,0,0,0,.2.64h0a4.12,4.12,0,0,0,.93,1.49h0a5.17,5.17,0,0,0,.51.42h0l.24.14.15.09.33.15.22.09.33.1.29.08.34.08.36.06h.18L52,45h1.52a4.26,4.26,0,0,0,.5-.06h.16l.54-.12h.05a4.05,4.05,0,0,0,3.13-3.56h0a4,4,0,0,1,.07-.5h0a.43.43,0,0,0,0-.16V39.18h0V37.93a4.26,4.26,0,0,0-.06-.5" transform="translate(-9 -7)"/><path class="b" d="M83.44,50.5v-.07a6.18,6.18,0,0,0-.12-.62h0a4.75,4.75,0,0,0-.2-.64h0a3.87,3.87,0,0,0-.93-1.49h0a3,3,0,0,0-.52-.42h0l-.25-.14L81.28,47,81,46.87l-.22-.09-.34-.1-.28-.08-.34-.08-.37-.06H77.21a4.26,4.26,0,0,0-.5.06h-.16a4.88,4.88,0,0,0-.55.12h0a4.05,4.05,0,0,0-3.13,3.56h0a2.74,2.74,0,0,1-.08.5h0a.43.43,0,0,0,0,.16v1.42h0v1.25a1.21,1.21,0,0,0,.07.5v.08a3.22,3.22,0,0,0,.11.62h0a4.61,4.61,0,0,0,.2.63h0a3.91,3.91,0,0,0,.93,1.5h0a5.17,5.17,0,0,0,.51.42h0a1.58,1.58,0,0,0,.24.15l.15.08.33.15.22.09.33.11.29.08.34.07.36.06H79l.5-.06h.16l.54-.11h0a4,4,0,0,0,3.13-3.55h0a1.26,1.26,0,0,1,.07-.5h0V52.27h0V51a4.26,4.26,0,0,0-.06-.5" transform="translate(-9 -7)"/><path class="b" d="M108.89,63.63v-.08a6.18,6.18,0,0,0-.12-.62h0a5.1,5.1,0,0,0-.2-.63h0a3.91,3.91,0,0,0-.93-1.5h0a5.3,5.3,0,0,0-.52-.42h0c-.08-.06-.17-.1-.25-.15l-.15-.08a1.87,1.87,0,0,0-.32-.15l-.22-.09-.34-.11-.28-.08-.35-.07-.36-.06h-2.24l-.5.06h-.17a5.17,5.17,0,0,0-.54.11h0a4.07,4.07,0,0,0-3.14,3.55h0a4.71,4.71,0,0,1-.08.5h0v1.58h0v1.25l.06.5v.07a2.52,2.52,0,0,0,.12.62h0a4.71,4.71,0,0,0,.19.64h0A3.86,3.86,0,0,0,99.43,70h0a3.35,3.35,0,0,0,.51.42h0l.24.14.15.09.33.15.22.09.33.1.29.08.34.08.36.06h2.26a4.26,4.26,0,0,0,.5-.06h.16a5.23,5.23,0,0,0,.54-.12h0a4.06,4.06,0,0,0,3.14-3.56h0a4.33,4.33,0,0,0,.08-.5h0V65.39h0V64.14a1.7,1.7,0,0,0-.06-.5" transform="translate(-9 -7)"/><path class="b" d="M134.34,76.75v-.07a6.18,6.18,0,0,0-.12-.62h0a4.75,4.75,0,0,0-.2-.64h0a3.87,3.87,0,0,0-.93-1.49h0a5.3,5.3,0,0,0-.52-.42h0l-.25-.14-.15-.09-.32-.15-.22-.09-.34-.1-.28-.08-.35-.08-.36-.06h-2.22a4.26,4.26,0,0,0-.5.06h-.17a5.23,5.23,0,0,0-.54.12h0a4.08,4.08,0,0,0-3.14,3.56h0a4,4,0,0,1-.08.5h0v1.58h0v1.25l.06.5v.08a2.62,2.62,0,0,0,.12.62h0a5,5,0,0,0,.19.63h0a3.91,3.91,0,0,0,.93,1.5h0a5.3,5.3,0,0,0,.52.42h0a1.58,1.58,0,0,0,.24.15l.15.08a2.41,2.41,0,0,0,.33.15.85.85,0,0,0,.22.09l.33.11.29.08.34.07.36.06h.18l.55,0H130l.51-.06h.16l.54-.11h0a4.07,4.07,0,0,0,3.14-3.55h0a4.71,4.71,0,0,1,.08-.5h0V78.58h0V77.33l-.06-.5" transform="translate(-9 -7)"/><path class="b" d="M45.27,37.38V37.3a6.18,6.18,0,0,0-.12-.62h0c-.06-.22-.13-.43-.2-.63h0a3.91,3.91,0,0,0-.93-1.5h0a5.3,5.3,0,0,0-.52-.42h0c-.08-.06-.17-.1-.25-.15l-.15-.08a1.66,1.66,0,0,0-.33-.15l-.21-.09-.34-.11L42,33.47l-.35-.07-.36-.06H39l-.51.06h-.16a5.17,5.17,0,0,0-.54.11h0a4.07,4.07,0,0,0-3.14,3.55h0a4.71,4.71,0,0,1-.08.5h0v1.58h0v1.25l.06.5V41a6.18,6.18,0,0,0,.12.62h0a4.71,4.71,0,0,0,.19.64h0a3.87,3.87,0,0,0,.93,1.49h0a5.3,5.3,0,0,0,.52.42h0l.25.14.15.09.33.15.21.09.34.1.29.08.34.08.36.06h.18l.55,0h1.52a4.43,4.43,0,0,0,.51-.06h.16a5.23,5.23,0,0,0,.54-.12h0a4.08,4.08,0,0,0,3.14-3.56h0a4,4,0,0,1,.08-.5h0V39.15h0v-1a.81.81,0,0,0,0-.22l-.06-.5" transform="translate(-9 -7)"/><path class="b" d="M45.27,50.5v-.07a6.18,6.18,0,0,0-.12-.62h0c-.06-.22-.13-.44-.2-.64h0a3.92,3.92,0,0,0-1-1.49h0a5.3,5.3,0,0,0-.52-.42h0l-.25-.14L43.11,47l-.33-.15-.21-.09-.34-.1L42,46.6l-.35-.08-.36-.06H39a4.43,4.43,0,0,0-.51.06h-.16a5.23,5.23,0,0,0-.54.12h0a4.08,4.08,0,0,0-3.14,3.56h0a4,4,0,0,1-.08.5h0v1.58h0v1.25l.06.5a.11.11,0,0,1,0,.08,6.18,6.18,0,0,0,.12.62h0a5,5,0,0,0,.19.63h0a3.91,3.91,0,0,0,.93,1.5h0a5.3,5.3,0,0,0,.52.42h0c.08.06.17.1.25.15l.15.08a2.41,2.41,0,0,0,.33.15l.21.09.34.11.29.08.34.07.36.06h2.23l.51-.06h.16l.4-.11h0a4.07,4.07,0,0,0,3.14-3.55h0a4.71,4.71,0,0,1,.08-.5h0a.43.43,0,0,1,0-.16V52.27h0V51l-.06-.5" transform="translate(-9 -7)"/><path class="b" d="M45.27,63.63v-.08a6.18,6.18,0,0,0-.12-.62h0c-.06-.22-.13-.43-.2-.63h0a3.88,3.88,0,0,0-1-1.5h0a5.3,5.3,0,0,0-.52-.42h0c-.08-.06-.17-.1-.25-.15l-.15-.08L42.75,60l-.21-.09-.34-.11-.2-.08-.35-.07-.36-.06H39l-.51.06h-.16a5.17,5.17,0,0,0-.54.11h0a4.07,4.07,0,0,0-3.14,3.55h0a4.71,4.71,0,0,1-.08.5h0v1.58h0v1.25l.06.5v.07a6.18,6.18,0,0,0,.12.62h0a4.71,4.71,0,0,0,.19.64h0A4,4,0,0,0,35.81,70h0a5.3,5.3,0,0,0,.52.42h0l.25.14.15.09.33.15.21.09.34.1.29.08.34.08.36.06h2.25a4.43,4.43,0,0,0,.51-.06h.16A4.42,4.42,0,0,0,42,71h0a4.08,4.08,0,0,0,3.14-3.56h0a4,4,0,0,1,.08-.5h0V65.36h0v-1a.81.81,0,0,0,0-.22l-.06-.5" transform="translate(-9 -7)"/><path class="b" d="M45.27,76.75v-.07a6.18,6.18,0,0,0-.12-.62h0c-.06-.22-.13-.44-.2-.64h0a3.92,3.92,0,0,0-1-1.49h0a5.3,5.3,0,0,0-.52-.42h0l-.25-.14-.15-.09-.33-.15L42.57,73l-.34-.1L42,72.85l-.35-.08-.36-.06H39a4.43,4.43,0,0,0-.51.06h-.16a5.23,5.23,0,0,0-.54.12h0a4.08,4.08,0,0,0-3.14,3.56h0a4,4,0,0,1-.08.5h0v1.58h0v1.25l.06.5v.08a6.18,6.18,0,0,0,.12.62h0a5,5,0,0,0,.19.63h0a3.91,3.91,0,0,0,.93,1.5h0a5.3,5.3,0,0,0,.52.42h0c.08.06.17.1.25.15l.15.08a2.41,2.41,0,0,0,.33.15l.21.09.34.11.29.08.34.07.36.06h.18l.55.05h1.5l.51-.06h.16l.54-.11h0a4.07,4.07,0,0,0,3.14-3.55h0a4.71,4.71,0,0,1,.08-.5h0V78.57h0V77.32l-.06-.5" transform="translate(-9 -7)"/><path class="b" d="M45.27,89.88V89.8a6.18,6.18,0,0,0-.12-.62h0c-.06-.22-.13-.43-.2-.63h0a3.91,3.91,0,0,0-.93-1.5h0a5.3,5.3,0,0,0-.52-.42h0c-.08-.06-.17-.1-.25-.15l-.15-.08a2.41,2.41,0,0,0-.33-.15l-.21-.09-.34-.11L42,86l-.35-.07-.36-.06H39l-.51.06h-.16l-.54.11h0a4.07,4.07,0,0,0-3.14,3.55h0a4.71,4.71,0,0,1-.08.5h0v1.58h0v1.25l.06.5v.07a6.18,6.18,0,0,0,.12.62h0a4.71,4.71,0,0,0,.19.64h0a3.87,3.87,0,0,0,.93,1.49h0a5.3,5.3,0,0,0,.52.42h0l.25.14.15.09.33.15.21.09.34.1.29.08.34.08.36.06h2.25a4.43,4.43,0,0,0,.51-.06h.16a5.23,5.23,0,0,0,.54-.12h0a4.08,4.08,0,0,0,3.14-3.56h0a4,4,0,0,1,.08-.5h0V91.63h0v-1a.81.81,0,0,0,0-.22l-.06-.5" transform="translate(-9 -7)"/><path class="b" d="M58,50.5v-.07a6.18,6.18,0,0,0-.12-.62h0a4.75,4.75,0,0,0-.2-.64h0a4,4,0,0,0-.92-1.49h0a3,3,0,0,0-.52-.42h0L56,47.11,55.83,47l-.32-.15-.22-.09-.33-.1-.29-.08-.34-.08-.33,0H51.76a4.26,4.26,0,0,0-.5.06H51.1a4.88,4.88,0,0,0-.55.12h0a4.05,4.05,0,0,0-3.13,3.56h0a2.74,2.74,0,0,1-.08.5h0a.43.43,0,0,0,0,.16v1.42h0v1.25a4.26,4.26,0,0,0,.06.5v.08a3.22,3.22,0,0,0,.11.62h0a4.61,4.61,0,0,0,.2.63h0a4.25,4.25,0,0,0,.93,1.5h0a5.17,5.17,0,0,0,.51.42h0a1.58,1.58,0,0,0,.24.15l.15.08.33.15.22.09.33.11.29.08L51,58l.36.06h2.25l.5-.06h.16l.54-.11h0A4,4,0,0,0,58,54.34h0a4.61,4.61,0,0,1,.07-.5h0V52.26h0V51a4.26,4.26,0,0,0-.06-.5" transform="translate(-9 -7)"/><path class="b" d="M58,63.63v-.08a6.18,6.18,0,0,0-.12-.62h0a4.61,4.61,0,0,0-.2-.63h0a4.09,4.09,0,0,0-.92-1.5h0a3,3,0,0,0-.52-.42h0a1.28,1.28,0,0,0-.25-.15l-.15-.08a1.87,1.87,0,0,0-.32-.15.85.85,0,0,0-.22-.09L55,59.8l-.29-.08-.34-.07L54,59.59H51.76l-.5.06H51.1a4.86,4.86,0,0,0-.55.11h0a4,4,0,0,0-3.13,3.55h0a3.05,3.05,0,0,1-.08.5h0v1.58h0v1.25a4.26,4.26,0,0,0,.06.5v.07a3.09,3.09,0,0,0,.11.62h0a4.75,4.75,0,0,0,.2.64h0A4.13,4.13,0,0,0,48.53,70h0a5.17,5.17,0,0,0,.51.42h0l.24.14.15.09.33.15.22.09.33.1.29.08.34.08.36.06h2.25a4.26,4.26,0,0,0,.5-.06h.16a5.23,5.23,0,0,0,.54-.12h0a4.05,4.05,0,0,0,3.13-3.56h0A4,4,0,0,1,58,67h0a.43.43,0,0,0,0-.16V65.39h0V64.14a4.26,4.26,0,0,0-.06-.5" transform="translate(-9 -7)"/><path class="b" d="M58,76.75v-.07a6.18,6.18,0,0,0-.12-.62h0a4.75,4.75,0,0,0-.2-.64h0a4,4,0,0,0-.92-1.49h0a3,3,0,0,0-.52-.42h0L56,73.36l-.15-.09-.32-.15L55.29,73,55,72.9l-.29-.08-.34-.08-.33,0H51.76a4.26,4.26,0,0,0-.5.06H51.1a4.88,4.88,0,0,0-.55.12h0a4.05,4.05,0,0,0-3.13,3.56h0a2.74,2.74,0,0,1-.08.5h0a.43.43,0,0,0,0,.16v1.42h0v1.25a4.26,4.26,0,0,0,.06.5v.08a3.22,3.22,0,0,0,.11.62h0a4.61,4.61,0,0,0,.2.63h0a4.25,4.25,0,0,0,.93,1.5h0a5.17,5.17,0,0,0,.51.42h0a1.58,1.58,0,0,0,.24.15l.15.08.33.15L50,84l.33.11.29.08.34.07.36.06h.18l.55.05h1.52l.5-.06h.16l.54-.11h0A4,4,0,0,0,58,80.65h0a4.61,4.61,0,0,1,.07-.5h0V78.57h0V77.32a4.26,4.26,0,0,0-.06-.5" transform="translate(-9 -7)"/><path class="b" d="M58,89.88V89.8a6.18,6.18,0,0,0-.12-.62h0a4.61,4.61,0,0,0-.2-.63h0a4.09,4.09,0,0,0-.92-1.5h0a3,3,0,0,0-.52-.42h0a1.28,1.28,0,0,0-.25-.15l-.15-.08a1.87,1.87,0,0,0-.32-.15.85.85,0,0,0-.22-.09l-.3-.11-.33,0-.34-.07L54,85.84H51.76l-.5.06H51.1l-.55.11h0a4,4,0,0,0-3.13,3.55h0a3.05,3.05,0,0,1-.08.5h0v1.58h0v1.25a4.26,4.26,0,0,0,.06.5v.07a3.09,3.09,0,0,0,.11.62h0a4.75,4.75,0,0,0,.2.64h0a4.12,4.12,0,0,0,.93,1.49h0a5.17,5.17,0,0,0,.51.42h0l.24.14.15.09.33.15.22.09.33.1.29.08.34.08.36.06h2.25a4.26,4.26,0,0,0,.5-.06h.16a5.23,5.23,0,0,0,.54-.12h0A4.05,4.05,0,0,0,58,93.68h0a4,4,0,0,1,.07-.5h0a.43.43,0,0,0,0-.16V91.6h0V90.35a4.26,4.26,0,0,0-.06-.5" transform="translate(-9 -7)"/><path class="b" d="M70.72,50.5v-.07a6.18,6.18,0,0,0-.12-.62h0a4.71,4.71,0,0,0-.19-.64h0a3.87,3.87,0,0,0-.93-1.49h0a5.3,5.3,0,0,0-.52-.42h0l-.25-.14L68.56,47l-.33-.15L68,46.78l-.34-.1-.29-.08L67,46.52l-.36-.06H64.42a4.43,4.43,0,0,0-.51.06h-.16a5.23,5.23,0,0,0-.54.12h0a4.08,4.08,0,0,0-3.14,3.56h0a4,4,0,0,1-.08.5h0v1.58h0v1a.81.81,0,0,0,0,.22V54a.11.11,0,0,1,0,.08,6.18,6.18,0,0,0,.12.62h0c.06.22.13.43.2.63h0a3.91,3.91,0,0,0,.93,1.5h0a5.3,5.3,0,0,0,.52.42h0c.08.06.17.1.25.15l.15.08a2.41,2.41,0,0,0,.33.15l.21.09.34.11.29.08.34.07L64,58h2.24l.51-.06L67,58l.54-.11h0a4.07,4.07,0,0,0,3.14-3.55h0a4.71,4.71,0,0,1,.08-.5h0V52.26h0V51l-.06-.5" transform="translate(-9 -7)"/><path class="b" d="M70.72,63.63v-.08a6.18,6.18,0,0,0-.12-.62h0a5,5,0,0,0-.19-.63h0a3.91,3.91,0,0,0-.93-1.5h0a5.3,5.3,0,0,0-.52-.42h0c-.08-.06-.17-.1-.25-.15l-.15-.08L68.23,60,68,59.91l-.34-.11-.29-.08L67,59.65l-.36-.06H64.44l-.51.06h-.16a5.17,5.17,0,0,0-.54.11h0a4.07,4.07,0,0,0-3.14,3.55h0a4.71,4.71,0,0,1-.08.5h0v1.58h0v1.25l.06.5v.07a6.18,6.18,0,0,0,.12.62h0c.06.22.13.44.2.64h0A4,4,0,0,0,61.26,70h0a5.3,5.3,0,0,0,.52.42h0l.25.14.15.09.33.15.21.09.34.1.29.08.34.08.36.06H66.3a4.43,4.43,0,0,0,.51-.06H67a5.23,5.23,0,0,0,.54-.12h0a4.08,4.08,0,0,0,3.14-3.56h0a4,4,0,0,1,.08-.5h0V65.39h0V64.14l-.06-.5" transform="translate(-9 -7)"/><path class="b" d="M70.72,76.75v-.07a6.18,6.18,0,0,0-.12-.62h0a4.71,4.71,0,0,0-.19-.64h0a3.87,3.87,0,0,0-.93-1.49h0a5.3,5.3,0,0,0-.52-.42h0l-.25-.14-.15-.09-.33-.15L68,73l-.34-.1-.29-.08L67,72.74l-.36-.06H64.42a4.43,4.43,0,0,0-.51.06h-.16a5.23,5.23,0,0,0-.54.12h0a4.08,4.08,0,0,0-3.14,3.56h0a4,4,0,0,1-.08.5h0V78.5h0v1a.81.81,0,0,0,0,.22l.06.5v.08a6.18,6.18,0,0,0,.12.62h0c.06.22.13.43.2.63h0a3.91,3.91,0,0,0,.93,1.5h0a5.3,5.3,0,0,0,.52.42h0c.08.06.17.1.25.15l.15.08a2.41,2.41,0,0,0,.33.15l.21.09.34.11.29.08.34.07.36.06h.18l.55,0h1.51l.51-.06H67l.54-.11h0a4.07,4.07,0,0,0,3.14-3.55h0a4.71,4.71,0,0,1,.08-.5h0V78.54h0V77.29l-.06-.5" transform="translate(-9 -7)"/><path class="b" d="M70.72,89.88V89.8a6.18,6.18,0,0,0-.12-.62h0a5,5,0,0,0-.19-.63h0a3.91,3.91,0,0,0-.93-1.5h0a5.3,5.3,0,0,0-.52-.42h0c-.08-.06-.17-.1-.25-.15l-.15-.08a2.41,2.41,0,0,0-.33-.15L68,86.16l-.34-.11-.29,0-.34-.07-.36-.06H64.46l-.51.06h-.16l-.54.11h0a4.07,4.07,0,0,0-3.14,3.55h0a4.71,4.71,0,0,1-.08.5h0v1.58h0v1.25l.06.5v.07a6.18,6.18,0,0,0,.12.62h0c.06.22.13.44.2.64h0a3.87,3.87,0,0,0,.93,1.49h0a5.3,5.3,0,0,0,.52.42h0l.25.14.15.09.33.15.21.09.34.1.29.08.34.08.36.06h2.25a4.43,4.43,0,0,0,.51-.06h.16a5.23,5.23,0,0,0,.54-.12h0a4.08,4.08,0,0,0,3.14-3.56h0a4,4,0,0,1,.08-.5h0V91.63h0V90.38l-.06-.5" transform="translate(-9 -7)"/><path class="b" d="M83.44,63.63v-.08a6.18,6.18,0,0,0-.12-.62h0a5.1,5.1,0,0,0-.2-.63h0a3.91,3.91,0,0,0-.93-1.5h0a3,3,0,0,0-.52-.42h0a1.28,1.28,0,0,0-.25-.15l-.15-.08L81,60l-.22-.09-.34-.11-.28-.08-.34-.07-.37-.06H77.21l-.5.06h-.16a4.86,4.86,0,0,0-.55.11h0a4,4,0,0,0-3.13,3.55h0a3.05,3.05,0,0,1-.08.5h0v1.58h0v1.25a1.24,1.24,0,0,0,.07.5v.07a3.09,3.09,0,0,0,.11.62h0a4.75,4.75,0,0,0,.2.64h0A3.87,3.87,0,0,0,74,70h0a5.17,5.17,0,0,0,.51.42h0l.24.14.15.09.33.15.22.09.33.1.29.08.34.08.36.06H79a4.26,4.26,0,0,0,.5-.06h.16a5.23,5.23,0,0,0,.54-.12h0a4.05,4.05,0,0,0,3.13-3.56h0a1.21,1.21,0,0,1,.07-.5h0V65.39h0V64.14a4.26,4.26,0,0,0-.06-.5" transform="translate(-9 -7)"/><path class="b" d="M83.44,76.75v-.07a6.18,6.18,0,0,0-.12-.62h0a4.75,4.75,0,0,0-.2-.64h0a3.87,3.87,0,0,0-.93-1.49h0a3,3,0,0,0-.52-.42h0l-.25-.14-.15-.09L81,73.12,80.74,73l-.34-.1-.28-.08-.34-.08-.37-.06H77.17a4.26,4.26,0,0,0-.5.06h-.16a4.88,4.88,0,0,0-.55.12h0a4.05,4.05,0,0,0-3.13,3.56h0a2.74,2.74,0,0,1-.08.5h0a.43.43,0,0,0,0,.16V78.5h0v1.25a1.21,1.21,0,0,0,.07.5v.08a3.22,3.22,0,0,0,.11.62h0a4.61,4.61,0,0,0,.2.63h0a3.91,3.91,0,0,0,.93,1.5h0a5.17,5.17,0,0,0,.51.42h0l.24.15.15.08c.11.06.22.1.33.15a.85.85,0,0,0,.22.09l.33.11.29.08.34.07.36.06H77l.56,0H79l.5-.06h.16l.54-.11h0a4,4,0,0,0,3.13-3.55h0a1.26,1.26,0,0,1,.07-.5h0V78.54h0V77.29a4.26,4.26,0,0,0-.06-.5" transform="translate(-9 -7)"/><path class="b" d="M83.44,89.88V89.8a6.18,6.18,0,0,0-.12-.62h0a5.1,5.1,0,0,0-.2-.63h0a3.91,3.91,0,0,0-.93-1.5h0a3,3,0,0,0-.52-.42h0a1.28,1.28,0,0,0-.25-.15l-.15-.08a1.87,1.87,0,0,0-.32-.15l-.22-.09-.34-.11-.27,0-.34-.07-.37-.06H77.17l-.5.06h-.16L76,86h0a4,4,0,0,0-3.13,3.55h0a3.05,3.05,0,0,1-.08.5h0v1.58h0v1.25a1.24,1.24,0,0,0,.07.5v.07a3.09,3.09,0,0,0,.11.62h0a4.75,4.75,0,0,0,.2.64h0a3.76,3.76,0,0,0,.83,1.5h0a5.17,5.17,0,0,0,.51.42h0l.24.14.15.09.33.15.22.09.33.1.29.08.34.08.36.06H79a4.26,4.26,0,0,0,.5-.06h.16a5.23,5.23,0,0,0,.54-.12h0a4.05,4.05,0,0,0,3.13-3.56h0a1.21,1.21,0,0,1,.07-.5h0V91.6h0V90.35a4.26,4.26,0,0,0-.06-.5" transform="translate(-9 -7)"/><path class="b" d="M96.17,63.63v-.08a2.62,2.62,0,0,0-.12-.62h0a5,5,0,0,0-.19-.63h0a3.91,3.91,0,0,0-.93-1.5h0a3.35,3.35,0,0,0-.51-.42h0l-.24-.15L94,60.15,93.68,60a.85.85,0,0,0-.22-.09l-.33-.11-.29-.08-.34-.07-.36-.06H89.88l-.5.06h-.16a5.17,5.17,0,0,0-.54.11h0a4,4,0,0,0-3.14,3.55h0a4.71,4.71,0,0,1-.08.5h0v1.58h0v1.25a1.74,1.74,0,0,0,.06.5v.07a6.18,6.18,0,0,0,.12.62h0a4.75,4.75,0,0,0,.2.64h0A4,4,0,0,0,86.71,70h0a5.3,5.3,0,0,0,.52.42h0l.25.14.15.09.32.15.22.09.34.1.28.08.35.08.36.06h2.24a4.26,4.26,0,0,0,.5-.06h.17A5.23,5.23,0,0,0,93,71h0a4.08,4.08,0,0,0,3.14-3.56h0a4,4,0,0,1,.08-.5h0V65.39h0V64.14l-.06-.5" transform="translate(-9 -7)"/><path class="b" d="M96.17,76.75v-.07a2.52,2.52,0,0,0-.12-.62h0a4.71,4.71,0,0,0-.19-.64h0a3.87,3.87,0,0,0-.93-1.49h0a3.35,3.35,0,0,0-.51-.42h0l-.24-.14-.18-.1-.33-.15L93.46,73l-.33-.1-.29-.08-.34-.08-.36-.06H89.88a4.26,4.26,0,0,0-.5.06h-.16a5.23,5.23,0,0,0-.54.12h0a4.06,4.06,0,0,0-3.14,3.56h0a4,4,0,0,1-.08.5h0V78.5h0v1.25a1.7,1.7,0,0,0,.06.5c.06.16,0,0,0,.08a6.18,6.18,0,0,0,.12.62h0a5.1,5.1,0,0,0,.2.63h0a3.91,3.91,0,0,0,.93,1.5h0a5.3,5.3,0,0,0,.52.42h0c.08.06.17.1.25.15l.15.08a1.87,1.87,0,0,0,.32.15l.22.09.34.11.28.08.35.07.36.06h.17l.55,0H91.8l.5-.06h.17l.54-.11h0a4.07,4.07,0,0,0,3.14-3.55h0a4.71,4.71,0,0,1,.08-.5h0V78.54h0V77.29l-.06-.5" transform="translate(-9 -7)"/><path class="b" d="M96.17,89.88V89.8a2.62,2.62,0,0,0-.12-.62h0a5,5,0,0,0-.19-.63h0a3.91,3.91,0,0,0-.93-1.5h0a3.35,3.35,0,0,0-.51-.42h0a1.58,1.58,0,0,0-.24-.15L94,86.4c-.11-.06-.22-.1-.33-.15a.85.85,0,0,0-.22-.09l-.33-.11-.28,0-.34-.07-.36-.06H89.88l-.5.06h-.16l-.54.11h0a4,4,0,0,0-3.14,3.55h0a4.71,4.71,0,0,1-.08.5h0v1.58h0v1.25a1.74,1.74,0,0,0,.06.5v.07a6.18,6.18,0,0,0,.12.62h0a4.75,4.75,0,0,0,.2.64h0a3.87,3.87,0,0,0,.93,1.49h0a5.3,5.3,0,0,0,.52.42h0l.25.14.15.09L88,97l.22.09.34.1.28.08.35.08.36.06H91.8a4.26,4.26,0,0,0,.5-.06h.17a5.23,5.23,0,0,0,.54-.12h0a4.08,4.08,0,0,0,3.14-3.56h0a4,4,0,0,1,.08-.5h0V91.63h0V90.38l-.06-.5" transform="translate(-9 -7)"/><path class="b" d="M108.89,76.75v-.07a6.18,6.18,0,0,0-.12-.62h0a4.75,4.75,0,0,0-.2-.64h0a3.87,3.87,0,0,0-.93-1.49h0a5.3,5.3,0,0,0-.52-.42h0l-.25-.14-.15-.09-.32-.15-.22-.09-.34-.1-.28-.08-.35-.08-.36-.06h-2.24a4.26,4.26,0,0,0-.5.06h-.17a5.23,5.23,0,0,0-.54.12h0a4.08,4.08,0,0,0-3.14,3.56h0a4,4,0,0,1-.08.5h0v1.58h0v1.25l.06.5v.08a2.62,2.62,0,0,0,.12.62h0a5,5,0,0,0,.19.63h0a3.91,3.91,0,0,0,.93,1.5h0a3.35,3.35,0,0,0,.51.42h0a1.58,1.58,0,0,0,.24.15l.15.08c.11.06.22.1.33.15a.85.85,0,0,0,.22.09l.33.11.29.08.34.07.36.06h.18l.56,0h1.52l.5-.06h.16l.54-.11h0a4,4,0,0,0,3.14-3.55h0a4,4,0,0,0,.08-.5h0V78.58h0V77.33a1.74,1.74,0,0,0-.06-.5" transform="translate(-9 -7)"/><path class="b" d="M108.89,89.88V89.8a6.18,6.18,0,0,0-.12-.62h0a5.1,5.1,0,0,0-.2-.63h0a3.91,3.91,0,0,0-.93-1.5h0a5.3,5.3,0,0,0-.52-.42h0c-.08-.06-.17-.1-.25-.15l-.15-.08a1.87,1.87,0,0,0-.32-.15l-.22-.09-.34-.11-.28-.08-.35-.07-.36-.06h-2.24l-.5.06h-.17l-.54.11h0a4.07,4.07,0,0,0-3.14,3.55h0a4.71,4.71,0,0,1-.08.5h0v1.58h0v1.25l.06.5v.07a2.52,2.52,0,0,0,.12.62h0a4.71,4.71,0,0,0,.19.64h0a3.87,3.87,0,0,0,.93,1.49h0a3.35,3.35,0,0,0,.51.42h0l.24.14.15.09.33.15.22.09.33.1.29.08.34.08.36.06h2.26a4.26,4.26,0,0,0,.5-.06h.16a5.23,5.23,0,0,0,.54-.12h0a4.06,4.06,0,0,0,3.14-3.56h0a4.33,4.33,0,0,0,.08-.5h0V91.6h0V90.35a1.7,1.7,0,0,0-.06-.5" transform="translate(-9 -7)"/><path class="b" d="M121.61,76.75v-.07a3.09,3.09,0,0,0-.11-.62h0a4.75,4.75,0,0,0-.2-.64h0a3.87,3.87,0,0,0-.93-1.49h0a5.17,5.17,0,0,0-.51-.42h0l-.24-.14-.15-.09-.33-.15-.22-.09-.33-.1-.29-.08-.34-.08-.36-.06h-2.26a4.26,4.26,0,0,0-.5.06h-.16a5.23,5.23,0,0,0-.54.12h0A4.05,4.05,0,0,0,111,76.43h0a1.21,1.21,0,0,1-.07.5h0v1.58h0v1.25a1.7,1.7,0,0,0,.06.5v.08a4.85,4.85,0,0,0,0,.66h0a5.1,5.1,0,0,0,.2.63h0a3.91,3.91,0,0,0,.93,1.5h0a3,3,0,0,0,.52.42h0a1.28,1.28,0,0,0,.25.15l.15.08a1.87,1.87,0,0,0,.32.15l.22.09.34.11.28.08.34.07.37.06h.17l.55,0h1.52l.5-.06h.16l.55-.11h0a4,4,0,0,0,3.13-3.55h0a4.71,4.71,0,0,1,.08-.5h0V78.59h0V77.34a1.24,1.24,0,0,0-.07-.5" transform="translate(-9 -7)"/><path class="b" d="M121.61,89.88V89.8a3.22,3.22,0,0,0-.11-.62h0a4.61,4.61,0,0,0-.2-.63h0a3.91,3.91,0,0,0-.93-1.5h0a5.17,5.17,0,0,0-.51-.42h0a1.58,1.58,0,0,0-.24-.15l-.15-.08c-.11-.06-.22-.1-.33-.15a.85.85,0,0,0-.22-.09l-.33-.11L118.3,86l-.3-.07-.36-.06h-2.26l-.5.06h-.16l-.54.11h0A4,4,0,0,0,111,89.55h0a1.26,1.26,0,0,1-.07.5h0v1.58h0v1.25a1.74,1.74,0,0,0,.06.5v.07a6.18,6.18,0,0,0,.12.62h0a4.75,4.75,0,0,0,.2.64h0a3.87,3.87,0,0,0,.93,1.49h0a3,3,0,0,0,.52.42h0l.25.14.15.09.32.15.22.09.34.1.28.08.34.08.37.06h2.24a4.26,4.26,0,0,0,.5-.06h.16a4.88,4.88,0,0,0,.55-.12h0a4.05,4.05,0,0,0,3.13-3.56h0a4,4,0,0,1,.08-.5h0V91.59h0V90.34a1.21,1.21,0,0,0-.07-.5" transform="translate(-9 -7)"/><path class="b" d="M134.34,89.88V89.8a6.18,6.18,0,0,0-.12-.62h0a5.1,5.1,0,0,0-.2-.63h0a3.91,3.91,0,0,0-.93-1.5h0a5.3,5.3,0,0,0-.52-.42h0c-.08-.06-.17-.1-.25-.15l-.15-.08a1.87,1.87,0,0,0-.32-.15l-.22-.09-.34-.11L131,86l-.35-.07-.36-.06H128l-.5.06h-.17l-.54.11h0a4.07,4.07,0,0,0-3.14,3.55h0a4.71,4.71,0,0,1-.08.5h0v1.58h0v1.25l.06.5v.07a2.52,2.52,0,0,0,.12.62h0a4.71,4.71,0,0,0,.19.64h0a3.87,3.87,0,0,0,.93,1.49h0a5.3,5.3,0,0,0,.52.42h0l.24.14.15.09.33.15.22.09.33.1.29.08.34.08.36.06h2.22a4.43,4.43,0,0,0,.51-.06h.16l.54-.12h0a4.06,4.06,0,0,0,3.14-3.56h0a4,4,0,0,1,.08-.5h0V91.63h0v-1a.81.81,0,0,0,0-.22l-.06-.5" transform="translate(-9 -7)"/><path class="b" d="M147.06,89.88V89.8a3.22,3.22,0,0,0-.11-.62h0a4.61,4.61,0,0,0-.2-.63h0a3.91,3.91,0,0,0-.93-1.5h0a5.17,5.17,0,0,0-.51-.42h0a1.58,1.58,0,0,0-.24-.15l-.15-.08c-.11-.06-.22-.1-.33-.15a.85.85,0,0,0-.22-.09l-.33-.11-.29-.08-.34-.07-.36-.06H140.8l-.5.06h-.16l-.54.11h0a4,4,0,0,0-3.13,3.55h0a1.26,1.26,0,0,1-.07.5h0v1.58h0v1.25a4.26,4.26,0,0,0,.06.5v.07a6.18,6.18,0,0,0,.12.62h0a4.75,4.75,0,0,0,.2.64h0a4,4,0,0,0,.92,1.49h0a3,3,0,0,0,.52.42h0l.25.14.15.09.32.15.22.09.33.1.29.08.34.08.37.06h2.24a4.26,4.26,0,0,0,.5-.06h.16a4.88,4.88,0,0,0,.55-.12h0A4.06,4.06,0,0,0,147,93.71h0a2.74,2.74,0,0,1,.08-.5h0a.43.43,0,0,0,0-.16V91.63h0V90.38a4.26,4.26,0,0,0-.06-.5" transform="translate(-9 -7)"/><path class="b" d="M32.54,24.25v-.07a3.09,3.09,0,0,0-.11-.62h0a4.75,4.75,0,0,0-.2-.64h0a3.87,3.87,0,0,0-.93-1.49h0a5.17,5.17,0,0,0-.51-.42h0l-.24-.14-.15-.09-.33-.15-.22-.09-.33-.1-.29-.08-.34-.08-.36-.06H26.27a4.26,4.26,0,0,0-.5.06h-.16a5.23,5.23,0,0,0-.54.12H25A4.05,4.05,0,0,0,21.87,24h0a4,4,0,0,1-.07.5h0V26h0v1.25a1.7,1.7,0,0,0,.06.5v.08a6.18,6.18,0,0,0,.12.62h0a4.75,4.75,0,0,0,.2.64h0a3.91,3.91,0,0,0,.93,1.5h0a3,3,0,0,0,.52.42h0a1.28,1.28,0,0,0,.25.15l.15.08a1.87,1.87,0,0,0,.32.15l.22.09.34.11.28.08.34.07.37.06h.17l.55.05h1.52l.5-.06h.16l.55-.11h0a4,4,0,0,0,3.13-3.55h0a4.71,4.71,0,0,1,.08-.5h0V26.09h0V24.84a1.24,1.24,0,0,0-.07-.5" transform="translate(-9 -7)"/><path class="b" d="M32.54,37.38a.11.11,0,0,0,0-.08,3.22,3.22,0,0,0-.11-.62h0a4.61,4.61,0,0,0-.2-.63h0a3.91,3.91,0,0,0-.93-1.5h0a5.17,5.17,0,0,0-.51-.42h0L30.55,34l-.15-.08-.33-.15a.85.85,0,0,0-.22-.09l-.33-.11-.29-.08-.34-.07-.36-.06H26.27l-.5.06h-.16a5.17,5.17,0,0,0-.54.11H25a4,4,0,0,0-3.13,3.55h0a4.61,4.61,0,0,1-.07.5h0v1.58h0v1.25a1.74,1.74,0,0,0,.06.5V41a6.18,6.18,0,0,0,.12.62h0a4.75,4.75,0,0,0,.2.64h0a3.87,3.87,0,0,0,.93,1.49h0a3,3,0,0,0,.52.42h0l.25.14.15.09.32.15.22.09.34.1.28.08.34.08.37.06L26,45h0l.55,0h1.52a4.26,4.26,0,0,0,.5-.06h.16a4.88,4.88,0,0,0,.55-.12h0a4.05,4.05,0,0,0,3.13-3.56h0a4,4,0,0,1,.08-.5h0V39.23h0V38a1.21,1.21,0,0,0-.07-.5" transform="translate(-9 -7)"/><path class="b" d="M32.54,50.5v-.07a3.09,3.09,0,0,0-.11-.62h0a4.75,4.75,0,0,0-.2-.64h0a3.87,3.87,0,0,0-.93-1.49h0a5.17,5.17,0,0,0-.51-.42h0l-.24-.14L30.39,47l-.33-.15-.22-.09-.33-.1-.29-.08-.34-.08-.36-.06H26.26a4.26,4.26,0,0,0-.5.06H25.6l-.54.12H25a4.05,4.05,0,0,0-3.13,3.56h0a4,4,0,0,1-.07.5h0v1.58h0v1.25a1.7,1.7,0,0,0,.06.5v.08a6.18,6.18,0,0,0,.12.62h0a5.1,5.1,0,0,0,.2.63h0a3.91,3.91,0,0,0,.93,1.5h0a3,3,0,0,0,.52.42h0a1.28,1.28,0,0,0,.25.15l.15.08a1.87,1.87,0,0,0,.32.15l.22.09.34.11.28.08.34.07.37.06h2.24l.5-.06h.16l.55-.11h0a4,4,0,0,0,3.13-3.55h0a4.71,4.71,0,0,1,.08-.5h0V52.25h0V51a1.24,1.24,0,0,0-.07-.5" transform="translate(-9 -7)"/><path class="b" d="M32.54,63.63v-.08a3.22,3.22,0,0,0-.11-.62h0a4.61,4.61,0,0,0-.2-.63h0a3.91,3.91,0,0,0-.93-1.5h0a5.17,5.17,0,0,0-.51-.42h0l-.24-.15-.15-.08L30.06,60a.85.85,0,0,0-.22-.09l-.33-.11-.29-.08-.34-.07-.36-.06H26.26l-.5.06H25.6a5.17,5.17,0,0,0-.54.11H25a4,4,0,0,0-3.13,3.55h0a4.61,4.61,0,0,1-.07.5h0v1.58h0v1.25a1.74,1.74,0,0,0,.06.5v.07a6.18,6.18,0,0,0,.12.62h0a4.75,4.75,0,0,0,.2.64h0A3.85,3.85,0,0,0,23.09,70h0a3,3,0,0,0,.52.42h0l.25.14.15.09.32.15.22.09.34.1.28.08.34.08.37.06h2.24a4.26,4.26,0,0,0,.5-.06h.16a4.88,4.88,0,0,0,.55-.12h0a4.05,4.05,0,0,0,3.13-3.56h0a4,4,0,0,1,.08-.5h0V65.39h0V64.14a1.21,1.21,0,0,0-.07-.5" transform="translate(-9 -7)"/><path class="b" d="M32.54,76.75v-.07a3.09,3.09,0,0,0-.11-.62h0a4.75,4.75,0,0,0-.2-.64h0a3.87,3.87,0,0,0-.93-1.49h0a5.17,5.17,0,0,0-.51-.42h0l-.24-.14-.15-.09-.33-.15L29.84,73l-.33-.1-.29-.08-.34-.08-.36-.06H26.26a4.26,4.26,0,0,0-.5.06H25.6a5.23,5.23,0,0,0-.54.12H25a4.05,4.05,0,0,0-3.13,3.56h0a4,4,0,0,1-.07.5h0V78.5h0v1.25a1.7,1.7,0,0,0,.06.5v.08A5,5,0,0,0,22,81h0a5.1,5.1,0,0,0,.2.63h0a3.91,3.91,0,0,0,.93,1.5h0a3,3,0,0,0,.52.42h0a1.28,1.28,0,0,0,.25.15l.15.08a1.87,1.87,0,0,0,.32.15l.22.09.34.11.28.08.34.07.37.06h.17l.55,0h1.52l.5-.06h.16l.55-.11h0a4,4,0,0,0,3.13-3.55h0a4.71,4.71,0,0,1,.08-.5h0V78.59h0V77.34a1.24,1.24,0,0,0-.07-.5" transform="translate(-9 -7)"/><path class="b" d="M32.54,89.88V89.8a3.22,3.22,0,0,0-.11-.62h0a4.61,4.61,0,0,0-.2-.63h0a3.91,3.91,0,0,0-.93-1.5h0a5.17,5.17,0,0,0-.51-.42h0a1.58,1.58,0,0,0-.24-.15l-.15-.08c-.11-.06-.22-.1-.33-.15a.85.85,0,0,0-.22-.09l-.33-.11-.3,0-.34-.07-.36-.06H26.26l-.5.06H25.6l-.54.11H25a4,4,0,0,0-3.13,3.55h0a4.61,4.61,0,0,1-.07.5h0v1.58h0v1.25a1.74,1.74,0,0,0,.06.5v.07a6.18,6.18,0,0,0,.12.62h0a4.75,4.75,0,0,0,.2.64h0a3.87,3.87,0,0,0,.93,1.49h0a3,3,0,0,0,.52.42h0l.25.14.15.09.32.15.22.09.34.1.28.08.34.08.37.06h2.24a4.26,4.26,0,0,0,.5-.06h.16a4.88,4.88,0,0,0,.55-.12h0a4.05,4.05,0,0,0,3.13-3.56h0a4,4,0,0,1,.08-.5h0V91.63h0V90.38a1.21,1.21,0,0,0-.07-.5" transform="translate(-9 -7)"/><path class="b" d="M19.82,24.25v-.07a6.18,6.18,0,0,0-.12-.62h0a4.75,4.75,0,0,0-.2-.64h0a3.87,3.87,0,0,0-.93-1.49h0a5.3,5.3,0,0,0-.52-.42h0l-.25-.14-.15-.09-.32-.15-.22-.09-.34-.1-.28-.08-.35-.08-.36-.06H13.53a4.26,4.26,0,0,0-.5.06h-.17a5.23,5.23,0,0,0-.54.12h0A4.08,4.08,0,0,0,9.18,24h0a4,4,0,0,1-.08.5h0V26H9v1.18l.06.5a.11.11,0,0,1,0,.08,2.62,2.62,0,0,0,.12.62h0a4.71,4.71,0,0,0,.19.64h0a3.91,3.91,0,0,0,.93,1.5h0a5.3,5.3,0,0,0,.52.42h0a1.58,1.58,0,0,0,.24.15l.15.08a2.41,2.41,0,0,0,.33.15l.22.09.33.11.29.08.34.07.36.06h.18l.55.05h1.5l.51-.06H16l.54-.11h0a4.07,4.07,0,0,0,3.14-3.55h0a4.71,4.71,0,0,1,.08-.5h0a.43.43,0,0,1,0-.16V26h0V24.77l-.06-.5" transform="translate(-9 -7)"/><path class="b" d="M19.82,37.38V37.3a6.18,6.18,0,0,0-.12-.62h0a5.1,5.1,0,0,0-.2-.63h0a3.91,3.91,0,0,0-.93-1.5h0a5.3,5.3,0,0,0-.52-.42h0c-.08-.06-.17-.1-.25-.15l-.15-.08a1.87,1.87,0,0,0-.32-.15l-.22-.09-.34-.11-.28-.08-.35-.07-.36-.06H13.53l-.5.06h-.17a5.17,5.17,0,0,0-.54.11h0a4.07,4.07,0,0,0-3.14,3.55h0a4.71,4.71,0,0,1-.08.5h0v1.58H9v1.25l.06.5V41a2.52,2.52,0,0,0,.12.62h0a4.71,4.71,0,0,0,.19.64h0a3.87,3.87,0,0,0,.93,1.49h0a5.3,5.3,0,0,0,.52.42h0l.24.14.15.09.33.15.22.09.33.1.29.08.34.08.36.06h.18l.55,0h1.52a4.43,4.43,0,0,0,.51-.06H16a5.23,5.23,0,0,0,.54-.12h0a4.06,4.06,0,0,0,3.14-3.56h0a4,4,0,0,1,.08-.5h0V39.15h0v-1a.81.81,0,0,0,0-.22l-.06-.5" transform="translate(-9 -7)"/><path class="b" d="M19.82,50.5v-.07a6.18,6.18,0,0,0-.12-.62h0a4.75,4.75,0,0,0-.2-.64h0a3.87,3.87,0,0,0-.93-1.49h0a5.3,5.3,0,0,0-.52-.42h0l-.25-.14L17.66,47l-.32-.15-.22-.09-.34-.1-.28-.08-.35-.08-.36-.06H13.54a4.26,4.26,0,0,0-.5.06h-.17l-.54.12h0a4.08,4.08,0,0,0-3.14,3.56h0a4,4,0,0,1-.08.5h0v1.58H9v1.25l.06.5a.11.11,0,0,1,0,.08,2.62,2.62,0,0,0,.12.62h0a5,5,0,0,0,.19.63h0a3.91,3.91,0,0,0,.93,1.5h0a5.3,5.3,0,0,0,.52.42h0a1.58,1.58,0,0,0,.24.15l.15.08.33.15.22.09.33.11.29.08.34.07.36.06h2.23l.51-.06H16l.54-.11h0a4.07,4.07,0,0,0,3.14-3.55h0a4.71,4.71,0,0,1,.08-.5h0a.43.43,0,0,1,0-.16V52.25h0V51l-.06-.5" transform="translate(-9 -7)"/><path class="b" d="M19.82,63.63v-.08a6.18,6.18,0,0,0-.12-.62h0a5.1,5.1,0,0,0-.2-.63h0a3.91,3.91,0,0,0-.93-1.5h0a5.3,5.3,0,0,0-.52-.42h0c-.08-.06-.17-.1-.25-.15l-.15-.08a1.87,1.87,0,0,0-.32-.15l-.22-.09-.34-.11-.28-.08-.35-.07-.36-.06H13.53l-.5.06h-.17a5.17,5.17,0,0,0-.54.11h0A4.07,4.07,0,0,0,9.16,63.3h0a4.71,4.71,0,0,1-.08.5h0v1.58H9v1.25l.06.5v.07a2.52,2.52,0,0,0,.12.62h0a4.71,4.71,0,0,0,.19.64h0a3.89,3.89,0,0,0,1,1.54h0a5.3,5.3,0,0,0,.52.42h0l.24.14.15.09.33.15.22.09.33.1.29.08.34.08.36.06h2.25a4.43,4.43,0,0,0,.51-.06h.16A5.23,5.23,0,0,0,16.6,71h0a4.06,4.06,0,0,0,3.14-3.56h0a4,4,0,0,1,.08-.5h0V65.39h0v-1a.81.81,0,0,0,0-.22l-.06-.5" transform="translate(-9 -7)"/><path class="b" d="M19.82,76.75v-.07a6.18,6.18,0,0,0-.12-.62h0a4.75,4.75,0,0,0-.2-.64h0a3.87,3.87,0,0,0-.93-1.49h0a5.3,5.3,0,0,0-.52-.42h0l-.25-.14-.15-.09-.32-.15L17.12,73l-.34-.1-.28-.08-.35-.08-.36-.06H13.54a4.26,4.26,0,0,0-.5.06h-.17a5.23,5.23,0,0,0-.54.12h0a4.08,4.08,0,0,0-3.14,3.56h0a4,4,0,0,1-.08.5h0V78.5H9v1.25l.06.5v.08a2.62,2.62,0,0,0,.12.62h0a5,5,0,0,0,.19.63h0a3.91,3.91,0,0,0,.93,1.5h0a5.3,5.3,0,0,0,.52.42h0a1.58,1.58,0,0,0,.24.15l.15.08a2.41,2.41,0,0,0,.33.15.85.85,0,0,0,.22.09l.33.11.29.08.34.07.36.06h.18l.55,0h1.5l.51-.06H16l.54-.11h0a4.07,4.07,0,0,0,3.14-3.55h0a4.71,4.71,0,0,1,.08-.5h0V78.54h0V77.29l-.06-.5" transform="translate(-9 -7)"/><path class="b" d="M19.82,89.88V89.8a6.18,6.18,0,0,0-.12-.62h0a5.1,5.1,0,0,0-.2-.63h0a3.91,3.91,0,0,0-.93-1.5h0a5.3,5.3,0,0,0-.52-.42h0c-.08-.06-.17-.1-.25-.15l-.15-.08a1.87,1.87,0,0,0-.32-.15l-.22-.09-.34-.11-.27,0-.35-.07-.36-.06H13.54l-.5.06h-.17l-.54.11h0a4.07,4.07,0,0,0-3.14,3.55h0a4.71,4.71,0,0,1-.08.5h0v1.58H9v1.25l.06.5v.07a2.52,2.52,0,0,0,.12.62h0a4.71,4.71,0,0,0,.19.64h0a3.87,3.87,0,0,0,.93,1.49h0a5.3,5.3,0,0,0,.52.42h0l.24.14.15.09.33.15.22.09.33.1.29.08.34.08.36.06h2.25a4.43,4.43,0,0,0,.51-.06H16a5.23,5.23,0,0,0,.54-.12h0a4.06,4.06,0,0,0,3.14-3.56h0a4,4,0,0,1,.08-.5h0V91.63h0v-1a.81.81,0,0,0,0-.22l-.06-.5" transform="translate(-9 -7)"/><path class="b" d="M58,145.89a.11.11,0,0,1,0,.08,6.18,6.18,0,0,1-.12.62h0a4.61,4.61,0,0,1-.2.63h0a4.09,4.09,0,0,1-.92,1.5h0a3,3,0,0,1-.52.42h0a1.28,1.28,0,0,1-.25.15l-.15.08a1.87,1.87,0,0,1-.32.15l-.22.09-.33.11-.29.08-.34.07-.37.06H53.8l-.55,0H51.73l-.5-.06h-.16l-.55-.11h0a4,4,0,0,1-3.13-3.55h0a3.05,3.05,0,0,0-.08-.5h0v-1.58h0v-1.25a4.26,4.26,0,0,1,.06-.5v-.08a3.12,3.12,0,0,1,.11-.61h0a4.75,4.75,0,0,1,.2-.64h0a4.25,4.25,0,0,1,.93-1.5h0a5.17,5.17,0,0,1,.51-.42h0l.24-.14.15-.09.33-.15.22-.09.33-.11.29-.07.34-.08.36-.06h2.25a4.26,4.26,0,0,1,.5.06h.16l.54.12h.05A4.05,4.05,0,0,1,58,142.12h0a4.29,4.29,0,0,0,.07.5h0v1.59h0v1.25a4.26,4.26,0,0,1-.06.5" transform="translate(-9 -7)"/><path class="b" d="M83.44,132.77v.07a6.18,6.18,0,0,1-.12.62h0c-.06.22-.12.43-.2.64h0a3.87,3.87,0,0,1-.93,1.49h0a3,3,0,0,1-.52.42h0l-.25.14-.15.09-.32.15-.22.09-.34.1-.28.08-.34.08-.37,0h-.17l-.55.05H77.16a4.26,4.26,0,0,1-.5-.06H76.5a2.08,2.08,0,0,1-.55-.12h0a4,4,0,0,1-3.13-3.55h0a2.74,2.74,0,0,0-.08-.5h0V131h0v-1.25a1.21,1.21,0,0,1,.07-.5v-.08a3.22,3.22,0,0,1,.11-.62h0a4.61,4.61,0,0,1,.2-.63h0a3.91,3.91,0,0,1,.93-1.5h0a3.35,3.35,0,0,1,.51-.42h0a1.58,1.58,0,0,1,.24-.15l.15-.08.33-.16.22-.08.33-.11.29-.08.34-.07.36-.06H79l.5.06h.16l.54.11h0A4,4,0,0,1,83.38,129h0a1.26,1.26,0,0,0,.07.5h0V131h0v1.25a4.26,4.26,0,0,1-.06.5" transform="translate(-9 -7)"/><path class="b" d="M108.89,119.64v.08a6.18,6.18,0,0,1-.12.62h0a5.1,5.1,0,0,1-.2.63h0a3.91,3.91,0,0,1-.93,1.5h0a5.3,5.3,0,0,1-.52.42h0c-.08.06-.17.1-.25.15l-.15.08a1.87,1.87,0,0,1-.32.15l-.22.09-.34.11-.28.08-.35.07-.36.06h-2.24l-.5-.06h-.17l-.54-.11h0A4.06,4.06,0,0,1,98.23,120h0a4.71,4.71,0,0,0-.08-.5h0v-1.58h0v-1.25l.06-.5a.11.11,0,0,0,0-.08,2.54,2.54,0,0,1,.12-.61h0a4.71,4.71,0,0,1,.19-.64h0a3.91,3.91,0,0,1,.93-1.5h0a3.35,3.35,0,0,1,.51-.42h0l.24-.14.15-.09.33-.15.22-.09.33-.11.29-.07.34-.08.36-.06h2.26a4.26,4.26,0,0,1,.5.06h.16a5.23,5.23,0,0,1,.54.12h0a4.07,4.07,0,0,1,3.14,3.55h0a4,4,0,0,1,.08.5h0V118h0v1.25a1.7,1.7,0,0,1-.06.5" transform="translate(-9 -7)"/><path class="b" d="M134.34,106.51v.08a6.18,6.18,0,0,1-.12.62h0a5.1,5.1,0,0,1-.2.63h0a3.91,3.91,0,0,1-.93,1.5h0a5.3,5.3,0,0,1-.52.42h0c-.08.06-.17.1-.25.15l-.15.08a1.87,1.87,0,0,1-.32.15l-.22.09-.34.11-.28.08-.35.07-.36.06h-.18l-.55,0h-1.52l-.5-.06h-.17a5.17,5.17,0,0,1-.54-.11h0a4.07,4.07,0,0,1-3.14-3.55h0a4.71,4.71,0,0,0-.08-.5h0V104.8h0v-1.25l.06-.5V103a2.52,2.52,0,0,1,.12-.62h0a4.71,4.71,0,0,1,.19-.64h0a3.87,3.87,0,0,1,.93-1.49h0a5.3,5.3,0,0,1,.52-.42h0l.24-.14.15-.09.33-.15.22-.09.33-.1.29-.08.34-.08.36-.06h2.21a4.43,4.43,0,0,1,.51.06h.16l.54.12h0a4.06,4.06,0,0,1,3.14,3.56h0a4,4,0,0,0,.08.5h0v1.58h0v1a.81.81,0,0,1,0,.22l-.06.5" transform="translate(-9 -7)"/><path class="b" d="M45.27,145.89V146a6.18,6.18,0,0,1-.12.62h0c-.06.22-.13.43-.2.63h0a3.91,3.91,0,0,1-.93,1.5h0a5.3,5.3,0,0,1-.52.42h0c-.08.06-.17.1-.25.15l-.15.08a1.66,1.66,0,0,1-.33.15l-.21.09-.34.11-.28.08-.35.07-.36.06h-.18l-.55,0H39l-.51-.06h-.16l-.54-.11h0a4.07,4.07,0,0,1-3.14-3.55h0a4.71,4.71,0,0,0-.08-.5h0v-1.58h0v-1.25l.06-.5a.11.11,0,0,0,0-.08,6,6,0,0,1,.12-.61h0a4.71,4.71,0,0,1,.19-.64h0a3.91,3.91,0,0,1,.93-1.5h0a5.3,5.3,0,0,1,.52-.42h0l.25-.14.15-.09.33-.15.21-.09.34-.11.29-.07.34-.08.36-.06h2.25l.51.06h.16l.54.12h0a4.07,4.07,0,0,1,3.14,3.55h0a4.33,4.33,0,0,0,.08.5h0a.43.43,0,0,0,0,.16v1.43h0v1a.81.81,0,0,1,0,.22l-.06.5" transform="translate(-9 -7)"/><path class="b" d="M45.27,132.77v.07a6.18,6.18,0,0,1-.12.62h0c-.06.22-.13.43-.2.64h0a3.87,3.87,0,0,1-.93,1.49h0a5.3,5.3,0,0,1-.52.42h0l-.25.14-.15.09-.33.15-.21.09-.34.1-.28.08-.35.08-.36,0h-.18l-.55.05H39a4.43,4.43,0,0,1-.51-.06h-.16a1.93,1.93,0,0,1-.54-.12h0a4.07,4.07,0,0,1-3.14-3.55h0a4,4,0,0,0-.08-.5h0V131h0v-1.25l.06-.5v-.08a6.18,6.18,0,0,1,.12-.62h0a5,5,0,0,1,.19-.63h0a3.91,3.91,0,0,1,.93-1.5h0a3,3,0,0,1,.52-.42h0c.08-.06.17-.1.25-.15l.15-.08c.1-.06.21-.1.33-.16l.21-.08.34-.11.29-.08.34-.07.36-.06h2.23l.51.06h.16l.54.11h0A4.07,4.07,0,0,1,45.23,129h0a4.71,4.71,0,0,0,.08.5h0V131h0v1.25l-.06.5" transform="translate(-9 -7)"/><path class="b" d="M45.27,119.64v.08a6.18,6.18,0,0,1-.12.62h0c-.06.22-.13.43-.2.63h0a3.91,3.91,0,0,1-.93,1.5h0a5.3,5.3,0,0,1-.52.42h0c-.08.06-.17.1-.25.15l-.15.08a2.41,2.41,0,0,1-.33.15l-.21.09-.34.11-.28.08-.35.07-.36.06H39l-.51-.06h-.16l-.54-.11h0A4.07,4.07,0,0,1,34.61,120h0a4.71,4.71,0,0,0-.08-.5h0v-1.58h0v-1.25l.06-.5a.11.11,0,0,0,0-.08,6,6,0,0,1,.12-.61h0a4.71,4.71,0,0,1,.19-.64h0a3.91,3.91,0,0,1,.93-1.5h0a5.3,5.3,0,0,1,.52-.42h0l.25-.14.15-.09.33-.15.21-.09.34-.11.29-.07.34-.08.36-.06h2.25a4.43,4.43,0,0,1,.51.06h.16a5.23,5.23,0,0,1,.54.12h0a4.07,4.07,0,0,1,3.14,3.55h0a4.33,4.33,0,0,0,.08.5h0a.43.43,0,0,0,0,.16V118h0v1a.81.81,0,0,1,0,.22l-.06.5" transform="translate(-9 -7)"/><path class="b" d="M45.27,106.51v.08a6.18,6.18,0,0,1-.12.62h0c-.06.22-.13.43-.2.63h0a3.91,3.91,0,0,1-.93,1.5h0a5.3,5.3,0,0,1-.52.42h0c-.08.06-.17.1-.25.15l-.15.08a2.41,2.41,0,0,1-.33.15l-.21.09-.34.11-.28.08-.35.07-.36.06h-.18l-.55,0H39l-.51-.06h-.16a5.17,5.17,0,0,1-.54-.11h0a4.07,4.07,0,0,1-3.14-3.55h0a4.71,4.71,0,0,0-.08-.5h0V104.8h0v-1.25l.06-.5V103a6.18,6.18,0,0,1,.12-.62h0a4.71,4.71,0,0,1,.19-.64h0a3.87,3.87,0,0,1,.93-1.49h0a5.3,5.3,0,0,1,.52-.42h0l.25-.14.15-.09.33-.15.21-.09.34-.1.29-.08.34-.08.36-.06h2.25a4.43,4.43,0,0,1,.51.06h.16a5.23,5.23,0,0,1,.54.12h0a4.08,4.08,0,0,1,3.14,3.56h0a4,4,0,0,0,.08.5h0v1.58h0v1a.81.81,0,0,1,0,.22l-.06.5" transform="translate(-9 -7)"/><path class="b" d="M58,132.77v.07a6.18,6.18,0,0,1-.12.62h0a4.75,4.75,0,0,1-.2.64h0a4,4,0,0,1-.92,1.49h0a3,3,0,0,1-.52.42h0l-.25.14-.15.09-.32.15-.22.09-.33.1-.29.08-.34.08-.37,0H53.8l-.55.05H51.73a4.26,4.26,0,0,1-.5-.06h-.16a2.08,2.08,0,0,1-.55-.12h0a4,4,0,0,1-3.13-3.55h0a2.74,2.74,0,0,0-.08-.5h0V131h0v-1.25a4.26,4.26,0,0,1,.06-.5v-.08a3.22,3.22,0,0,1,.11-.62h0a4.61,4.61,0,0,1,.2-.63h0a4.25,4.25,0,0,1,.93-1.5h0a3.35,3.35,0,0,1,.51-.42h0l.24-.15.15-.08.33-.16.22-.08.33-.11.29-.08.34-.07.36-.06h2.25l.5.06h.16l.54.11h.05A4,4,0,0,1,58,129h0a4.61,4.61,0,0,0,.07.5h0V131h0v1.25a4.26,4.26,0,0,1-.06.5" transform="translate(-9 -7)"/><path class="b" d="M58,119.64v.08a6.18,6.18,0,0,1-.12.62h0a4.61,4.61,0,0,1-.2.63h0a4.09,4.09,0,0,1-.92,1.5h0a3,3,0,0,1-.52.42h0L56,123l-.15.08a1.87,1.87,0,0,1-.32.15l-.22.09-.33.11-.29.08-.34.07-.37.06H51.74l-.5-.06h-.16l-.55-.11h0A4,4,0,0,1,47.34,120h0a3.05,3.05,0,0,0-.08-.5h0v-1.58h0v-1.25a4.26,4.26,0,0,1,.06-.5v-.08a3.12,3.12,0,0,1,.11-.61h0a4.75,4.75,0,0,1,.2-.64h0a4.25,4.25,0,0,1,.93-1.5h0a5.17,5.17,0,0,1,.51-.42h0l.24-.14.15-.09.33-.15.22-.09.33-.11.29-.07.34-.08.36-.06h2.25a4.26,4.26,0,0,1,.5.06h.16a5.23,5.23,0,0,1,.54.12h0A4.05,4.05,0,0,1,58,115.86h0a4.29,4.29,0,0,0,.07.5h0V118h0v1.25a4.26,4.26,0,0,1-.06.5" transform="translate(-9 -7)"/><path class="b" d="M58,106.51v.08a6.18,6.18,0,0,1-.12.62h0a4.61,4.61,0,0,1-.2.63h0a4.09,4.09,0,0,1-.92,1.5h0a3,3,0,0,1-.52.42h0a1.28,1.28,0,0,1-.25.15l-.15.08a1.87,1.87,0,0,1-.32.15.85.85,0,0,1-.22.09l-.33.11-.29.08-.34.07-.37.06H53.8l-.55,0H51.73l-.5-.06h-.16a4.86,4.86,0,0,1-.55-.11h0a4,4,0,0,1-3.13-3.55h0a3.05,3.05,0,0,0-.08-.5h0V104.8h0v-1.25a4.26,4.26,0,0,1,.06-.5V103a3.09,3.09,0,0,1,.11-.62h0a4.75,4.75,0,0,1,.2-.64h0a4.12,4.12,0,0,1,.93-1.49h0a5.17,5.17,0,0,1,.51-.42h0l.24-.14.15-.09.33-.15.22-.09.33-.1.29-.08L51,99l.36-.06h2.25a4.26,4.26,0,0,1,.5.06h.16a5.23,5.23,0,0,1,.54.12h0A4.05,4.05,0,0,1,58,102.68h0a4,4,0,0,0,.07.5h0a.43.43,0,0,1,0,.16v1.42h0V106a4.26,4.26,0,0,1-.06.5" transform="translate(-9 -7)"/><path class="b" d="M70.72,132.77v.07a6.18,6.18,0,0,1-.12.62h0a2.14,2.14,0,0,1-.19.64h0a3.87,3.87,0,0,1-.93,1.49h0A3.72,3.72,0,0,1,69,136h0l-.25.14-.15.09-.33.15-.21.09-.34.1-.29.08-.34.08-.36.05h-.18l-.55.05H64.5l-.51-.06h-.16a1.93,1.93,0,0,1-.54-.12h0a4.07,4.07,0,0,1-3.14-3.55h0a4,4,0,0,0-.08-.5h0V131h0v-1a.81.81,0,0,1,0-.22l.06-.5v-.08a6.18,6.18,0,0,1,.12-.62h0c.06-.22.13-.43.2-.63h0a3.91,3.91,0,0,1,.93-1.5h0a3,3,0,0,1,.52-.42h0c.08-.06.17-.1.25-.15l.15-.08c.1-.06.21-.1.33-.16l.21-.08.34-.11.29-.08.34-.07.36-.06h2.24l.51.06h.16l.54.11h0A4.07,4.07,0,0,1,70.76,129h0a4.71,4.71,0,0,0,.08.5h0V131h0v1.25l-.06.5" transform="translate(-9 -7)"/><path class="b" d="M70.72,119.64v.08a6.18,6.18,0,0,1-.12.62h0a5,5,0,0,1-.19.63h0a3.91,3.91,0,0,1-.93,1.5h0a5.3,5.3,0,0,1-.52.42h0c-.08.06-.17.1-.25.15l-.15.08a2.41,2.41,0,0,1-.33.15l-.21.09-.34.11-.29.08-.34.07-.36.06H64.46l-.51-.06h-.16l-.54-.11h0A4.07,4.07,0,0,1,60.06,120h0a4.71,4.71,0,0,0-.08-.5h0v-1.58h0v-1.25l.06-.5a.11.11,0,0,0,0-.08,6,6,0,0,1,.12-.61h0c.06-.23.13-.44.2-.64h0a3.91,3.91,0,0,1,.93-1.5h0a5.3,5.3,0,0,1,.52-.42h0l.25-.14.15-.09.33-.15.21-.09.34-.11.29-.07.34-.08.36-.06h2.25a4.43,4.43,0,0,1,.51.06H67a5.23,5.23,0,0,1,.54.12h0a4.07,4.07,0,0,1,3.14,3.55h0a4.33,4.33,0,0,0,.08.5h0V118h0v1.25l-.06.5" transform="translate(-9 -7)"/><path class="b" d="M70.72,106.51v.08a6.18,6.18,0,0,1-.12.62h0a5,5,0,0,1-.19.63h0a3.91,3.91,0,0,1-.93,1.5h0a5.3,5.3,0,0,1-.52.42h0c-.08.06-.17.1-.25.15l-.15.08a2.41,2.41,0,0,1-.33.15l-.21.09-.34.11-.29.08-.34.07-.36.06h-.18l-.55,0h-1.5l-.51-.06h-.16a5.17,5.17,0,0,1-.54-.11h0a4.07,4.07,0,0,1-3.14-3.55h0a4.71,4.71,0,0,0-.08-.5h0V104.8h0v-1.25l0-.55v-.07a6.18,6.18,0,0,1,.12-.62h0c.06-.22.13-.44.2-.64h0a3.87,3.87,0,0,1,.93-1.49h0a5.3,5.3,0,0,1,.52-.42h0l.25-.14.15-.09.33-.15.21-.09.34-.1.29-.08.34-.08L64,99h2.25a4.43,4.43,0,0,1,.51.06L67,99a5.23,5.23,0,0,1,.54.12h0a4.08,4.08,0,0,1,3.14,3.56h0a4,4,0,0,0,.08.5h0v1.58h0V106l-.06.5" transform="translate(-9 -7)"/><path class="b" d="M83.44,119.64v.08a6.18,6.18,0,0,1-.12.62h0a5.1,5.1,0,0,1-.2.63h0a3.91,3.91,0,0,1-.93,1.5h0a3,3,0,0,1-.52.42h0a1.28,1.28,0,0,1-.25.15l-.15.08a1.87,1.87,0,0,1-.32.15l-.22.09-.34.11-.28.08-.34.07-.37.06H77.16l-.5-.06H76.5l-.55-.11h0A4,4,0,0,1,72.79,120h0a3.05,3.05,0,0,0-.08-.5h0v-1.58h0v-1.25a1.24,1.24,0,0,1,.07-.5v-.08a3.12,3.12,0,0,1,.11-.61h0a4.75,4.75,0,0,1,.2-.64h0a3.91,3.91,0,0,1,.93-1.5h0a5.17,5.17,0,0,1,.51-.42h0l.24-.14.15-.09.33-.15.22-.09.33-.11.29-.07.34-.08.36-.06h2.26a4.26,4.26,0,0,1,.5.06h.16a5.23,5.23,0,0,1,.54.12h0a4.05,4.05,0,0,1,3.13,3.55h0a1.24,1.24,0,0,0,.07.5h0V118h0v1.25a4.26,4.26,0,0,1-.06.5" transform="translate(-9 -7)"/><path class="b" d="M83.44,106.51v.08a6.18,6.18,0,0,1-.12.62h0a5.1,5.1,0,0,1-.2.63h0a3.91,3.91,0,0,1-.93,1.5h0a3,3,0,0,1-.52.42h0a1.28,1.28,0,0,1-.25.15l-.15.08a1.87,1.87,0,0,1-.32.15l-.22.09-.34.11-.28.08-.34.07-.37.06h-.17l-.55,0H77.16l-.5-.06H76.5a4.86,4.86,0,0,1-.55-.11h0a4,4,0,0,1-3.13-3.55h0a3.05,3.05,0,0,0-.08-.5h0V104.8h0v-1.25a1.24,1.24,0,0,1,.07-.5V103a3.09,3.09,0,0,1,.11-.62h0a4.75,4.75,0,0,1,.2-.64h0a3.87,3.87,0,0,1,.93-1.49h0a5.17,5.17,0,0,1,.51-.42h0l.24-.14.15-.09.33-.15.22-.09.33-.1.29-.08L76.4,99l.36-.06H79a4.26,4.26,0,0,1,.5.06h.16a5.23,5.23,0,0,1,.54.12h0a4.05,4.05,0,0,1,3.13,3.56h0a1.21,1.21,0,0,0,.07.5h0v1.58h0V106a4.26,4.26,0,0,1-.06.5" transform="translate(-9 -7)"/><path class="b" d="M96.17,119.64v.08a2.62,2.62,0,0,1-.12.62h0a5,5,0,0,1-.19.63h0a3.91,3.91,0,0,1-.93,1.5h0a3.35,3.35,0,0,1-.51.42h0a1.58,1.58,0,0,1-.24.15l-.15.08c-.11.06-.22.1-.33.15l-.22.09-.33.11-.29.08-.34.07-.36.06H89.9l-.5-.06h-.16l-.54-.11h0A4,4,0,0,1,85.51,120h0a4.71,4.71,0,0,0-.08-.5h0v-1.58h0v-1.25a1.74,1.74,0,0,1,.06-.5v-.08a6,6,0,0,1,.12-.61h0a4.75,4.75,0,0,1,.2-.64h0a3.91,3.91,0,0,1,.93-1.5h0a5.3,5.3,0,0,1,.52-.42h0l.25-.14.15-.09.32-.15.22-.09.34-.11.28-.07.35-.08.36-.06h2.24a4.26,4.26,0,0,1,.5.06h.17a5.23,5.23,0,0,1,.54.12h0a4.07,4.07,0,0,1,3.14,3.55h0a4.33,4.33,0,0,0,.08.5h0V118h0v1.25l-.06.5" transform="translate(-9 -7)"/><path class="b" d="M96.17,106.51v.08a2.62,2.62,0,0,1-.12.62h0a5,5,0,0,1-.19.63h0a3.91,3.91,0,0,1-.93,1.5h0a3.35,3.35,0,0,1-.51.42h0a1.58,1.58,0,0,1-.24.15L94,110c-.11.06-.22.1-.33.15a.85.85,0,0,1-.22.09l-.33.11-.29.08-.34.07-.36.06H92l-.56,0H89.87l-.5-.06h-.16a5.17,5.17,0,0,1-.54-.11h0a4,4,0,0,1-3.14-3.55h0a4.71,4.71,0,0,0-.08-.5h0v-1.58h0v-1.25a1.74,1.74,0,0,1,.06-.5V103a6.18,6.18,0,0,1,.12-.62h0a4.75,4.75,0,0,1,.2-.64h0a3.87,3.87,0,0,1,.93-1.49h0a5.3,5.3,0,0,1,.52-.42h0l.25-.14.15-.09.32-.15.22-.09.34-.1.28-.08.35-.08.36-.06h2.24a4.26,4.26,0,0,1,.5.06h.17a5.23,5.23,0,0,1,.54.12h0a4.08,4.08,0,0,1,3.14,3.56h0a4,4,0,0,0,.08.5h0v1.58h0v1.25l-.06.5" transform="translate(-9 -7)"/><path class="b" d="M108.89,106.51v.08a6.18,6.18,0,0,1-.12.62h0a5.1,5.1,0,0,1-.2.63h0a3.91,3.91,0,0,1-.93,1.5h0a5.3,5.3,0,0,1-.52.42h0c-.08.06-.17.1-.25.15l-.15.08a1.87,1.87,0,0,1-.32.15l-.22.09-.34.11-.28.08-.35.07-.36.06h-.17l-.55,0h-1.52l-.5-.06h-.17a5.17,5.17,0,0,1-.54-.11h0a4.07,4.07,0,0,1-3.14-3.55h0a4.71,4.71,0,0,0-.08-.5h0V104.8h0v-1.25l.06-.5V103a2.52,2.52,0,0,1,.12-.62h0a4.71,4.71,0,0,1,.19-.64h0a3.87,3.87,0,0,1,.93-1.49h0a3.35,3.35,0,0,1,.51-.42h0l.24-.14.15-.09.33-.15.22-.09.33-.1.29-.08.34-.08.36-.06h2.26a4.26,4.26,0,0,1,.5.06h.16a5.23,5.23,0,0,1,.54.12h0a4.06,4.06,0,0,1,3.14,3.56h0a4.33,4.33,0,0,1,.08.5h0v1.58h0v1.25a1.7,1.7,0,0,1-.06.5" transform="translate(-9 -7)"/><path class="b" d="M121.61,106.51v.08a3.22,3.22,0,0,1-.11.62h0a4.61,4.61,0,0,1-.2.63h0a3.91,3.91,0,0,1-.93,1.5h0a5.17,5.17,0,0,1-.51.42h0a1.58,1.58,0,0,1-.24.15l-.15.08c-.11.06-.22.1-.33.15a.85.85,0,0,1-.22.09l-.33.11-.29.08-.34.07-.36.06h-.18l-.56,0h-1.52l-.5-.06h-.16a5.17,5.17,0,0,1-.54-.11h0a4,4,0,0,1-3.13-3.55h0a1.26,1.26,0,0,0-.07-.5h0V104.8h0v-1.25a1.74,1.74,0,0,1,.06-.5V103a6.18,6.18,0,0,1,.12-.62h0a4.75,4.75,0,0,1,.2-.64h0a3.87,3.87,0,0,1,.93-1.49h0a3,3,0,0,1,.52-.42h0l.25-.14.15-.09.32-.15.22-.09.34-.1.28-.08.34-.08L115,99h2.24a4.26,4.26,0,0,1,.5.06h.16a4.88,4.88,0,0,1,.55.12h0a4.05,4.05,0,0,1,3.13,3.56h0a4,4,0,0,0,.08.5h0v1.58h0v1.25a1.21,1.21,0,0,1-.07.5" transform="translate(-9 -7)"/><path class="b" d="M32.54,159v.07a3.22,3.22,0,0,1-.11.62h0a4.75,4.75,0,0,1-.2.64h0a3.87,3.87,0,0,1-.93,1.49h0a5.17,5.17,0,0,1-.51.42h0l-.24.14-.15.09-.33.15-.22.09-.33.1-.29.08-.34.08-.36.05h-.18l-.56,0h0q-.3,0-.6,0h-.92a4.26,4.26,0,0,1-.5-.06h-.16a1.93,1.93,0,0,1-.54-.12H25a4,4,0,0,1-3.13-3.55h0a4,4,0,0,0-.07-.5h0v-1.58h0V156a1.7,1.7,0,0,1,.06-.5v-.08a6.18,6.18,0,0,1,.12-.62h0a4.75,4.75,0,0,1,.2-.64h0a3.91,3.91,0,0,1,.93-1.5h0a3,3,0,0,1,.52-.42h0a1.28,1.28,0,0,1,.25-.15A.84.84,0,0,1,24,152l.32-.16.22-.08.34-.11.28-.08.34-.07.37-.06h2.24l.5.06h.16l.55.11h0a4,4,0,0,1,3.13,3.55h0a4.71,4.71,0,0,0,.08.5h0v1.58h0v1.25a1.24,1.24,0,0,1-.07.5" transform="translate(-9 -7)"/><path class="b" d="M32.54,145.89a.11.11,0,0,1,0,.08,3.22,3.22,0,0,1-.11.62h0a4.61,4.61,0,0,1-.2.63h0a3.91,3.91,0,0,1-.93,1.5h0a5.17,5.17,0,0,1-.51.42h0a1.58,1.58,0,0,1-.24.15l-.15.08-.33.15-.22.09-.33.11-.29.08-.34.07-.36.06h-.18l-.56,0H26.27l-.5-.06h-.16l-.54-.11H25a4,4,0,0,1-3.13-3.55h0a4.61,4.61,0,0,0-.07-.5h0v-1.58h0v-1.25a1.74,1.74,0,0,1,.06-.5v-.08a6,6,0,0,1,.12-.61h0a4.75,4.75,0,0,1,.2-.64h0a3.91,3.91,0,0,1,.93-1.5h0a3,3,0,0,1,.52-.42h0l.25-.14L24,139l.32-.15.22-.09.34-.11.28-.07.34-.08.37-.06h2.24a4.26,4.26,0,0,1,.5.06h.16a4.88,4.88,0,0,1,.55.12h0a4.05,4.05,0,0,1,3.13,3.55h0a4.33,4.33,0,0,0,.08.5h0v1.59h0v1.25a1.21,1.21,0,0,1-.07.5" transform="translate(-9 -7)"/><path class="b" d="M32.54,132.77v.07a3.22,3.22,0,0,1-.11.62h0a4.75,4.75,0,0,1-.2.64h0a3.87,3.87,0,0,1-.93,1.49h0a5.17,5.17,0,0,1-.51.42h0l-.24.14-.15.09-.33.15-.22.09-.33.1-.29.08-.34.08-.36,0h-.18l-.56.05H26.27a4.26,4.26,0,0,1-.5-.06h-.16a1.93,1.93,0,0,1-.54-.12H25a4,4,0,0,1-3.13-3.55h0a4,4,0,0,0-.07-.5h0V131h0v-1.25a1.7,1.7,0,0,1,.06-.5v-.08a6.18,6.18,0,0,1,.12-.62h0a5.1,5.1,0,0,1,.2-.63h0a3.91,3.91,0,0,1,.93-1.5h0a3,3,0,0,1,.52-.42h0a1.28,1.28,0,0,1,.25-.15.84.84,0,0,1,.15-.08,3.13,3.13,0,0,0,.32-.16l.22-.08.34-.11.28-.08.34-.07.37-.06h2.24l.5.06h.16l.55.11h0A4,4,0,0,1,32.48,129h0a4.71,4.71,0,0,0,.08.5h0V131h0v1.25a1.24,1.24,0,0,1-.07.5" transform="translate(-9 -7)"/><path class="b" d="M32.54,119.64v.08a3.22,3.22,0,0,1-.11.62h0a4.61,4.61,0,0,1-.2.63h0a3.91,3.91,0,0,1-.93,1.5h0a5.17,5.17,0,0,1-.51.42h0a1.58,1.58,0,0,1-.24.15l-.15.08c-.11.06-.22.1-.33.15l-.22.09-.33.11-.29.08-.34.07-.36.06H26.27l-.5-.06h-.16l-.54-.11H25A4,4,0,0,1,21.89,120h0a4.61,4.61,0,0,0-.07-.5h0v-1.58h0v-1.25a1.74,1.74,0,0,1,.06-.5v-.08a6,6,0,0,1,.12-.61h0a4.75,4.75,0,0,1,.2-.64h0a3.91,3.91,0,0,1,.93-1.5h0a3,3,0,0,1,.52-.42h0l.25-.14.15-.09.32-.15.22-.09.34-.11.28-.07.34-.08.37-.06h2.24a4.26,4.26,0,0,1,.5.06h.16a4.88,4.88,0,0,1,.55.12h0a4.05,4.05,0,0,1,3.13,3.55h0a4.33,4.33,0,0,0,.08.5h0V118h0v1.25a1.21,1.21,0,0,1-.07.5" transform="translate(-9 -7)"/><path class="b" d="M32.54,106.51v.08a3.22,3.22,0,0,1-.11.62h0a4.61,4.61,0,0,1-.2.63h0a3.91,3.91,0,0,1-.93,1.5h0a5.17,5.17,0,0,1-.51.42h0a1.58,1.58,0,0,1-.24.15l-.15.08c-.11.06-.22.1-.33.15a.85.85,0,0,1-.22.09l-.33.11-.29.08-.34.07-.36.06h-.18l-.56,0H26.27l-.5-.06h-.16a5.17,5.17,0,0,1-.54-.11H25a4,4,0,0,1-3.13-3.55h0a4.61,4.61,0,0,0-.07-.5h0V104.8h0v-1.25a1.74,1.74,0,0,1,.06-.5V103a6.18,6.18,0,0,1,.12-.62h0a4.75,4.75,0,0,1,.2-.64h0a3.87,3.87,0,0,1,.93-1.49h0a3,3,0,0,1,.52-.42h0l.25-.14.15-.09.32-.15.22-.09.34-.1.28-.08L25.5,99l.37-.06h2.24a4.26,4.26,0,0,1,.5.06h.16a4.88,4.88,0,0,1,.55.12h0a4.05,4.05,0,0,1,3.13,3.56h0a4,4,0,0,0,.08.5h0v1.58h0V106a1.21,1.21,0,0,1-.07.5" transform="translate(-9 -7)"/><path class="b" d="M19.82,159v.07a6.18,6.18,0,0,1-.12.62h0c-.06.22-.12.43-.2.64h0a3.87,3.87,0,0,1-.93,1.49h0a5.3,5.3,0,0,1-.52.42h0l-.25.14-.15.09-.32.15-.22.09-.34.1-.28.08-.35.08-.36.05H15.6l-.55,0h0q-.3,0-.6,0h-.92A4.26,4.26,0,0,1,13,163h-.17a1.93,1.93,0,0,1-.54-.12h0a4.07,4.07,0,0,1-3.14-3.55h0a4,4,0,0,0-.08-.5h0v-1.58H9V156l.06-.5v-.08a2.62,2.62,0,0,1,.12-.62h0a4.71,4.71,0,0,1,.19-.64h0a3.91,3.91,0,0,1,.93-1.5h0a3,3,0,0,1,.52-.42h0a1.58,1.58,0,0,1,.24-.15l.15-.08c.1-.06.22-.1.33-.16l.22-.08.33-.11.29-.08.34-.07.36-.06h2.23l.51.06H16l.54.11h0a4,4,0,0,1,3.14,3.55h0a4.71,4.71,0,0,0,.08.5h0v1.58h0v1.25l-.06.5" transform="translate(-9 -7)"/><path class="b" d="M19.82,145.89V146a6.18,6.18,0,0,1-.12.62h0a5.1,5.1,0,0,1-.2.63h0a3.91,3.91,0,0,1-.93,1.5h0a5.3,5.3,0,0,1-.52.42h0c-.08.06-.17.1-.25.15l-.15.08a1.87,1.87,0,0,1-.32.15l-.22.09-.34.11-.28.08-.35.07-.36.06H15.6l-.55,0H13.53l-.5-.06h-.17l-.54-.11h0a4.07,4.07,0,0,1-3.14-3.55h0a4.71,4.71,0,0,0-.08-.5h0v-1.58H9v-1.25l.06-.5a.11.11,0,0,0,0-.08,2.54,2.54,0,0,1,.12-.61h0a4.71,4.71,0,0,1,.19-.64h0a3.91,3.91,0,0,1,.93-1.5h0a5.3,5.3,0,0,1,.52-.42h0l.24-.14.15-.09.33-.15.22-.09.33-.11.29-.07.34-.08.36-.06h2.25l.51.06H16l.54.12h0a4.07,4.07,0,0,1,3.14,3.55h0a4.33,4.33,0,0,0,.08.5h0a.43.43,0,0,0,0,.16v1.43h0v1a.81.81,0,0,1,0,.22l-.06.5" transform="translate(-9 -7)"/><path class="b" d="M19.82,132.77v.07a6.18,6.18,0,0,1-.12.62h0c-.06.22-.12.43-.2.64h0a3.87,3.87,0,0,1-.93,1.49h0a5.3,5.3,0,0,1-.52.42h0l-.25.14-.15.09-.32.15-.22.09-.34.1-.28.08-.35.08-.36,0H15.6l-.55.05H13.53a4.26,4.26,0,0,1-.5-.06h-.17a1.93,1.93,0,0,1-.54-.12h0a4.07,4.07,0,0,1-3.14-3.55h0a4,4,0,0,0-.08-.5h0V131H9v-1.25l.06-.5v-.08a2.62,2.62,0,0,1,.12-.62h0a5,5,0,0,1,.19-.63h0a3.91,3.91,0,0,1,.93-1.5h0a3,3,0,0,1,.52-.42h0a1.58,1.58,0,0,1,.24-.15l.15-.08c.1-.06.22-.1.33-.16l.22-.08.33-.11.29-.08.34-.07.36-.06h2.23l.51.06H16l.54.11h0A4,4,0,0,1,19.66,129h0a4.71,4.71,0,0,0,.08.5h0V131h0v1.25l-.06.5" transform="translate(-9 -7)"/><path class="b" d="M19.82,119.64v.08a6.18,6.18,0,0,1-.12.62h0a5.1,5.1,0,0,1-.2.63h0a3.91,3.91,0,0,1-.93,1.5h0a5.3,5.3,0,0,1-.52.42h0c-.08.06-.17.1-.25.15l-.15.08a1.87,1.87,0,0,1-.32.15l-.22.09-.34.11-.28.08-.35.07-.36.06H13.53l-.5-.06h-.17l-.54-.11h0A4.09,4.09,0,0,1,9.16,120h0a4.71,4.71,0,0,0-.08-.5h0v-1.58H9v-1.25l.06-.5a.11.11,0,0,0,0-.08,2.54,2.54,0,0,1,.12-.61h0a4.71,4.71,0,0,1,.19-.64h0a3.91,3.91,0,0,1,.93-1.5h0a5.3,5.3,0,0,1,.52-.42h0l.24-.14.15-.09.33-.15.22-.09.33-.11.29-.07.34-.08.36-.06h2.25a4.43,4.43,0,0,1,.51.06H16a5.23,5.23,0,0,1,.54.12h0a4.07,4.07,0,0,1,3.14,3.55h0a4.33,4.33,0,0,0,.08.5h0a.43.43,0,0,0,0,.16V118h0v1a.81.81,0,0,1,0,.22l-.06.5" transform="translate(-9 -7)"/><path class="b" d="M19.82,106.51v.08a6.18,6.18,0,0,1-.12.62h0a5.1,5.1,0,0,1-.2.63h0a3.91,3.91,0,0,1-.93,1.5h0a5.3,5.3,0,0,1-.52.42h0c-.08.06-.17.1-.25.15l-.15.08a1.87,1.87,0,0,1-.32.15l-.22.09-.34.11-.28.08-.35.07-.36.06H15.6l-.55,0H13.53l-.5-.06h-.17a5.17,5.17,0,0,1-.54-.11h0a4.07,4.07,0,0,1-3.14-3.55h0a4.71,4.71,0,0,0-.08-.5h0V104.8H9v-1.25l.06-.5V103a2.52,2.52,0,0,1,.12-.62h0a4.71,4.71,0,0,1,.19-.64h0a3.87,3.87,0,0,1,.93-1.49h0a5.3,5.3,0,0,1,.52-.42h0l.24-.14.15-.09.33-.15.22-.09.33-.1.29-.08.34-.08.36-.06h2.25a4.43,4.43,0,0,1,.51.06H16a5.23,5.23,0,0,1,.54.12h0a4.06,4.06,0,0,1,3.14,3.56h0a4,4,0,0,0,.08.5h0v1.58h0v1a.81.81,0,0,1,0,.22l-.06.5" transform="translate(-9 -7)"/><g class="h"><g class="aa"><path class="b" d="M159.79,106.52v.07a6.18,6.18,0,0,1-.12.62h0c0,.22-.12.43-.19.64h0a3.87,3.87,0,0,1-.93,1.49h0a5.3,5.3,0,0,1-.52.42h0l-.25.14-.15.09-.33.15-.21.09-.34.1-.29.08-.34.08h-.54l-.55.05h-1.5a4.43,4.43,0,0,1-.51-.06h-.16a1.93,1.93,0,0,1-.54-.12h0a4.07,4.07,0,0,1-3.14-3.55h0a4,4,0,0,0-.08-.5h0v-1.58h0v-1a.81.81,0,0,1,0-.22l.06-.5v-.08a6.18,6.18,0,0,1,.12-.62h0c.06-.22.13-.43.2-.63h0a3.91,3.91,0,0,1,.93-1.5h0a3,3,0,0,1,.52-.42h0c.08-.06.17-.1.25-.15l.15-.08c.1-.06.21-.1.33-.16l.21-.08.34-.11.29-.08.34-.07.36-.06h2.24L156,99h.16a5.17,5.17,0,0,1,.54.11h0a4.07,4.07,0,0,1,3.14,3.55h0a4.71,4.71,0,0,0,.08.5h0v1.58h0V106l-.06.5" transform="translate(-9 -7)"/></g></g><g class="c"><g class="ab"><path class="b" d="M19.82,172.17v.08a6,6,0,0,1-.12.61h0a4.75,4.75,0,0,1-.2.64h0a3.91,3.91,0,0,1-.93,1.5h0a5.3,5.3,0,0,1-.52.42h0l-.25.14-.15.09-.32.15-.22.09-.34.11-.28.07-.35.08-.36.06H13.53a4.26,4.26,0,0,1-.5-.06h-.17a5.23,5.23,0,0,1-.54-.12h0a4.07,4.07,0,0,1-3.14-3.55h0a4.33,4.33,0,0,0-.08-.5h0v-1.59H9v-1.25l.06-.5a.11.11,0,0,0,0-.08,2.62,2.62,0,0,1,.12-.62h0a4.71,4.71,0,0,1,.19-.64h0a3.91,3.91,0,0,1,.93-1.5h0a5.3,5.3,0,0,1,.52-.42h0l.24-.14.15-.09a2.41,2.41,0,0,1,.33-.15l.22-.09.33-.11.29-.08.34-.07.36-.06h2.23l.51.06H16l.54.11h0a4.07,4.07,0,0,1,3.14,3.55h0a4.71,4.71,0,0,0,.08.5h0a.43.43,0,0,0,0,.16v1.42h0v1.25l-.06.5" transform="translate(-9 -7)"/></g></g><g class="h"><g class="ac"><path class="b" d="M32.54,172.17v.08a3.12,3.12,0,0,1-.11.61h0a4.75,4.75,0,0,1-.2.64h0a3.91,3.91,0,0,1-.93,1.5h0a5.17,5.17,0,0,1-.51.42h0l-.24.14-.15.09-.33.15-.22.09-.33.11-.29.07-.34.08-.36.06H26.27a4.26,4.26,0,0,1-.5-.06h-.16a5.23,5.23,0,0,1-.54-.12H25a4.05,4.05,0,0,1-3.13-3.55h0a4.29,4.29,0,0,0-.07-.5h0v-1.59h0v-1.25a1.7,1.7,0,0,1,.06-.5v-.08A5.09,5.09,0,0,1,22,168h0a4.75,4.75,0,0,1,.2-.64h0a3.91,3.91,0,0,1,.93-1.5h0a3,3,0,0,1,.52-.42h0a2,2,0,0,1,.25-.14l.15-.09a1.87,1.87,0,0,1,.32-.15l.22-.09.34-.11.28-.08.34-.07.37-.06h2.24l.5.06h.16l.55.11h0a4,4,0,0,1,3.13,3.55h0a4.71,4.71,0,0,0,.08.5h0v1.58h0v1.25a1.24,1.24,0,0,1-.07.5" transform="translate(-9 -7)"/></g></g></svg>