<svg xmlns="http://www.w3.org/2000/svg" viewBox="0 0 209.15 238.44"><defs><style>.a{fill:none;}.b{clip-path:url(#a);}.c{clip-path:url(#b);}.d{opacity:0.5;}.e{clip-path:url(#c);}.f{fill:#fff;}.g{clip-path:url(#d);}.h{clip-path:url(#e);}.i{clip-path:url(#f);}.j{clip-path:url(#g);}.k{clip-path:url(#h);}.l{clip-path:url(#i);}.m{clip-path:url(#j);}.n{clip-path:url(#k);}.o{clip-path:url(#l);}.p{clip-path:url(#m);}.q{clip-path:url(#n);}.r{clip-path:url(#o);}.s{clip-path:url(#p);}.t{clip-path:url(#q);}.u{opacity:0.95;}.v{clip-path:url(#r);}.w{opacity:0.9;}.x{clip-path:url(#s);}.y{clip-path:url(#t);}.z{clip-path:url(#u);}.aa{clip-path:url(#v);}.ab{clip-path:url(#w);}.ac{clip-path:url(#x);}.ad{clip-path:url(#y);}.ae{clip-path:url(#z);}.af{clip-path:url(#aa);}.ag{clip-path:url(#ab);}.ah{clip-path:url(#ac);}.ai{clip-path:url(#ad);}.aj{clip-path:url(#ae);}.ak{clip-path:url(#af);}.al{clip-path:url(#ag);}.am{clip-path:url(#ah);}.an{clip-path:url(#ai);}.ao{clip-path:url(#aj);}.ap{clip-path:url(#ak);}.aq{clip-path:url(#al);}.ar{clip-path:url(#am);}.as{clip-path:url(#an);}.at{clip-path:url(#ao);}.au{clip-path:url(#ap);}.av{clip-path:url(#aq);}.aw{clip-path:url(#ar);}.ax{clip-path:url(#as);}.ay{clip-path:url(#at);}.az{clip-path:url(#au);}.ba{clip-path:url(#av);}.bb{clip-path:url(#aw);}.bc{clip-path:url(#ax);}.bd{clip-path:url(#ay);}.be{clip-path:url(#az);}.bf{clip-path:url(#ba);}.bg{clip-path:url(#bb);}.bh{clip-path:url(#bc);}.bi{clip-path:url(#bd);}.bj{clip-path:url(#be);}.bk{clip-path:url(#bf);}.bl{clip-path:url(#bg);}.bm{opacity:0.26;}.bn{clip-path:url(#bh);}.bo{clip-path:url(#bi);}.bp{clip-path:url(#bj);}.bq{clip-path:url(#bk);}.br{clip-path:url(#bl);}.bs{clip-path:url(#bm);}.bt{clip-path:url(#bn);}.bu{clip-path:url(#bo);}.bv{clip-path:url(#bp);}.bw{clip-path:url(#bq);}.bx{clip-path:url(#br);}.by{clip-path:url(#bs);}.bz{clip-path:url(#bt);}.ca{clip-path:url(#bu);}.cb{clip-path:url(#bv);}.cc{clip-path:url(#bw);}.cd{opacity:0.08;}.ce{clip-path:url(#bx);}.cf{clip-path:url(#by);}.cg{clip-path:url(#bz);}.ch{clip-path:url(#ca);}.ci{clip-path:url(#cb);}.cj{clip-path:url(#cc);}.ck{clip-path:url(#cd);}.cl{clip-path:url(#ce);}.cm{clip-path:url(#cf);}</style><clipPath id="a" transform="translate(-17.16 -13.34)"><path class="a" d="M17.16 13.35h209.15v238.43H17.16z"/></clipPath><clipPath id="b" transform="translate(-17.16 -13.34)"><path class="a" d="M17.16 13.35h209.15v238.43H17.16z"/></clipPath><clipPath id="c" transform="translate(-17.16 -13.34)"><path class="a" d="M21.21.01h52.54v34.86H21.21z"/></clipPath><clipPath id="d" transform="translate(-17.16 -13.34)"><path class="a" d="M21.21 218.83h52.54v34.86H21.21z"/></clipPath><clipPath id="e" transform="translate(-17.16 -13.34)"><path class="a" d="M42.43 21.89h52.54v34.86H42.43z"/></clipPath><clipPath id="f" transform="translate(-17.16 -13.34)"><path class="a" d="M42.43 196.96h52.54v34.86H42.43z"/></clipPath><clipPath id="g" transform="translate(-17.16 -13.34)"><path class="a" d="M63.64 21.89h52.54v34.86H63.64z"/></clipPath><clipPath id="h" transform="translate(-17.16 -13.34)"><path class="a" d="M63.64 196.96h52.54v34.86H63.64z"/></clipPath><clipPath id="i" transform="translate(-17.16 -13.34)"><path class="a" d="M84.86 175.07h52.54v34.86H84.86z"/></clipPath><clipPath id="j" transform="translate(-17.16 -13.34)"><path class="a" d="M84.86 43.77h52.54v34.86H84.86z"/></clipPath><clipPath id="k" transform="translate(-17.16 -13.34)"><path class="a" d="M106.07 175.07h52.54v34.86h-52.54z"/></clipPath><clipPath id="l" transform="translate(-17.16 -13.34)"><path class="a" d="M106.07 43.77h52.54v34.86h-52.54z"/></clipPath><clipPath id="m" transform="translate(-17.16 -13.34)"><path class="a" d="M127.28 153.19h52.54v34.86h-52.54z"/></clipPath><clipPath id="n" transform="translate(-17.16 -13.34)"><path class="a" d="M127.28 65.66h52.54v34.86h-52.54z"/></clipPath><clipPath id="o" transform="translate(-17.16 -13.34)"><path class="a" d="M148.5 153.19h52.54v34.86H148.5z"/></clipPath><clipPath id="p" transform="translate(-17.16 -13.34)"><path class="a" d="M148.5 65.66h52.54v34.86H148.5z"/></clipPath><clipPath id="q" transform="translate(-17.16 -13.34)"><path class="a" d="M169.71 87.54h52.54v34.86h-52.54z"/></clipPath><clipPath id="r" transform="translate(-17.16 -13.34)"><path class="a" d="M5.96 10.45H237.5v221.36H5.96z"/></clipPath><clipPath id="s" transform="translate(-17.16 -13.34)"><path class="a" d="M21.21 153.19h52.54v34.86H21.21z"/></clipPath><clipPath id="t" transform="translate(-17.16 -13.34)"><path class="a" d="M21.21 175.06h52.54v34.86H21.21z"/></clipPath><clipPath id="u" transform="translate(-17.16 -13.34)"><path class="a" d="M21.21 21.89h52.54v34.86H21.21z"/></clipPath><clipPath id="v" transform="translate(-17.16 -13.34)"><path class="a" d="M21.21 196.95h52.54v34.86H21.21z"/></clipPath><clipPath id="w" transform="translate(-17.16 -13.34)"><path class="a" d="M21.21 43.77h52.54v34.86H21.21z"/></clipPath><clipPath id="x" transform="translate(-17.16 -13.34)"><path class="a" d="M21.21 65.66h52.54v34.86H21.21z"/></clipPath><clipPath id="y" transform="translate(-17.16 -13.34)"><path class="a" d="M21.21 87.54h52.54v34.86H21.21z"/></clipPath><clipPath id="z" transform="translate(-17.16 -13.34)"><path class="a" d="M21.21 109.42h52.54v34.86H21.21z"/></clipPath><clipPath id="aa" transform="translate(-17.16 -13.34)"><path class="a" d="M21.21 131.3h52.54v34.86H21.21z"/></clipPath><clipPath id="ab" transform="translate(-17.16 -13.34)"><path class="a" d="M42.43 153.19h52.54v34.86H42.43z"/></clipPath><clipPath id="ac" transform="translate(-17.16 -13.34)"><path class="a" d="M42.43 175.06h52.54v34.86H42.43z"/></clipPath><clipPath id="ad" transform="translate(-17.16 -13.34)"><path class="a" d="M42.43 43.77h52.54v34.86H42.43z"/></clipPath><clipPath id="ae" transform="translate(-17.16 -13.34)"><path class="a" d="M42.43 65.66h52.54v34.86H42.43z"/></clipPath><clipPath id="af" transform="translate(-17.16 -13.34)"><path class="a" d="M42.43 87.54h52.54v34.86H42.43z"/></clipPath><clipPath id="ag" transform="translate(-17.16 -13.34)"><path class="a" d="M42.43 109.42h52.54v34.86H42.43z"/></clipPath><clipPath id="ah" transform="translate(-17.16 -13.34)"><path class="a" d="M42.43 131.3h52.54v34.86H42.43z"/></clipPath><clipPath id="ai" transform="translate(-17.16 -13.34)"><path class="a" d="M63.64 153.19h52.54v34.86H63.64z"/></clipPath><clipPath id="aj" transform="translate(-17.16 -13.34)"><path class="a" d="M63.64 175.06h52.54v34.86H63.64z"/></clipPath><clipPath id="ak" transform="translate(-17.16 -13.34)"><path class="a" d="M63.64 43.77h52.54v34.86H63.64z"/></clipPath><clipPath id="al" transform="translate(-17.16 -13.34)"><path class="a" d="M63.64 65.66h52.54v34.86H63.64z"/></clipPath><clipPath id="am" transform="translate(-17.16 -13.34)"><path class="a" d="M63.64 87.54h52.54v34.86H63.64z"/></clipPath><clipPath id="an" transform="translate(-17.16 -13.34)"><path class="a" d="M63.64 109.42h52.54v34.86H63.64z"/></clipPath><clipPath id="ao" transform="translate(-17.16 -13.34)"><path class="a" d="M63.64 131.3h52.54v34.86H63.64z"/></clipPath><clipPath id="ap" transform="translate(-17.16 -13.34)"><path class="a" d="M84.86 153.19h52.54v34.86H84.86z"/></clipPath><clipPath id="aq" transform="translate(-17.16 -13.34)"><path class="a" d="M84.86 65.66h52.54v34.86H84.86z"/></clipPath><clipPath id="ar" transform="translate(-17.16 -13.34)"><path class="a" d="M84.86 87.54h52.54v34.86H84.86z"/></clipPath><clipPath id="as" transform="translate(-17.16 -13.34)"><path class="a" d="M84.86 109.42h52.54v34.86H84.86z"/></clipPath><clipPath id="at" transform="translate(-17.16 -13.34)"><path class="a" d="M84.86 131.3h52.54v34.86H84.86z"/></clipPath><clipPath id="au" transform="translate(-17.16 -13.34)"><path class="a" d="M106.07 153.19h52.54v34.86h-52.54z"/></clipPath><clipPath id="av" transform="translate(-17.16 -13.34)"><path class="a" d="M106.07 65.66h52.54v34.86h-52.54z"/></clipPath><clipPath id="aw" transform="translate(-17.16 -13.34)"><path class="a" d="M106.07 87.54h52.54v34.86h-52.54z"/></clipPath><clipPath id="ax" transform="translate(-17.16 -13.34)"><path class="a" d="M106.07 109.42h52.54v34.86h-52.54z"/></clipPath><clipPath id="ay" transform="translate(-17.16 -13.34)"><path class="a" d="M106.07 131.3h52.54v34.86h-52.54z"/></clipPath><clipPath id="az" transform="translate(-17.16 -13.34)"><path class="a" d="M127.28 87.54h52.54v34.86h-52.54z"/></clipPath><clipPath id="ba" transform="translate(-17.16 -13.34)"><path class="a" d="M127.28 109.42h52.54v34.86h-52.54z"/></clipPath><clipPath id="bb" transform="translate(-17.16 -13.34)"><path class="a" d="M127.28 131.3h52.54v34.86h-52.54z"/></clipPath><clipPath id="bc" transform="translate(-17.16 -13.34)"><path class="a" d="M148.5 87.54h52.54v34.86H148.5z"/></clipPath><clipPath id="bd" transform="translate(-17.16 -13.34)"><path class="a" d="M148.5 109.42h52.54v34.86H148.5z"/></clipPath><clipPath id="be" transform="translate(-17.16 -13.34)"><path class="a" d="M148.5 131.3h52.54v34.86H148.5z"/></clipPath><clipPath id="bf" transform="translate(-17.16 -13.34)"><path class="a" d="M169.71 109.42h52.54v34.86h-52.54z"/></clipPath><clipPath id="bg" transform="translate(-17.16 -13.34)"><path class="a" d="M169.71 131.3h52.54v34.86h-52.54z"/></clipPath><clipPath id="bh" transform="translate(-17.16 -13.34)"><path class="a" d="M0 153.19h52.54v34.86H0z"/></clipPath><clipPath id="bi" transform="translate(-17.16 -13.34)"><path class="a" d="M0 0h52.54v34.86H0z"/></clipPath><clipPath id="bj" transform="translate(-17.16 -13.34)"><path class="a" d="M0 175.06h52.54v34.86H0z"/></clipPath><clipPath id="bk" transform="translate(-17.16 -13.34)"><path class="a" d="M0 21.89h52.54v34.86H0z"/></clipPath><clipPath id="bl" transform="translate(-17.16 -13.34)"><path class="a" d="M0 196.95h52.54v34.86H0z"/></clipPath><clipPath id="bm" transform="translate(-17.16 -13.34)"><path class="a" d="M0 43.77h52.54v34.86H0z"/></clipPath><clipPath id="bn" transform="translate(-17.16 -13.34)"><path class="a" d="M0 218.83h52.54v34.86H0z"/></clipPath><clipPath id="bo" transform="translate(-17.16 -13.34)"><path class="a" d="M0 65.66h52.54v34.86H0z"/></clipPath><clipPath id="bp" transform="translate(-17.16 -13.34)"><path class="a" d="M0 87.54h52.54v34.86H0z"/></clipPath><clipPath id="bq" transform="translate(-17.16 -13.34)"><path class="a" d="M0 109.42h52.54v34.86H0z"/></clipPath><clipPath id="br" transform="translate(-17.16 -13.34)"><path class="a" d="M0 131.3h52.54v34.86H0z"/></clipPath><clipPath id="bs" transform="translate(-17.16 -13.34)"><path class="a" d="M42.43 218.83h52.54v34.86H42.43z"/></clipPath><clipPath id="bt" transform="translate(-17.16 -13.34)"><path class="a" d="M84.86 196.95h52.54v34.86H84.86z"/></clipPath><clipPath id="bu" transform="translate(-17.16 -13.34)"><path class="a" d="M127.28 175.06h52.54v34.86h-52.54z"/></clipPath><clipPath id="bv" transform="translate(-17.16 -13.34)"><path class="a" d="M169.71 153.19h52.54v34.86h-52.54z"/></clipPath><clipPath id="bw" transform="translate(-17.16 -13.34)"><path class="a" d="M190.93 109.42h52.54v34.86h-52.54z"/></clipPath><clipPath id="bx" transform="translate(-17.16 -13.34)"><path class="a" d="M42.43 0h52.54v34.86H42.43z"/></clipPath><clipPath id="by" transform="translate(-17.16 -13.34)"><path class="a" d="M63.64 218.83h52.54v34.86H63.64z"/></clipPath><clipPath id="bz" transform="translate(-17.16 -13.34)"><path class="a" d="M84.86 21.89h52.54v34.86H84.86z"/></clipPath><clipPath id="ca" transform="translate(-17.16 -13.34)"><path class="a" d="M106.07 196.95h52.54v34.86h-52.54z"/></clipPath><clipPath id="cb" transform="translate(-17.16 -13.34)"><path class="a" d="M127.28 43.77h52.54v34.86h-52.54z"/></clipPath><clipPath id="cc" transform="translate(-17.16 -13.34)"><path class="a" d="M148.5 175.06h52.54v34.86H148.5z"/></clipPath><clipPath id="cd" transform="translate(-17.16 -13.34)"><path class="a" d="M169.71 65.66h52.54v34.86h-52.54z"/></clipPath><clipPath id="ce" transform="translate(-17.16 -13.34)"><path class="a" d="M190.93 87.54h52.54v34.86h-52.54z"/></clipPath><clipPath id="cf" transform="translate(-17.16 -13.34)"><path class="a" d="M190.93 131.3h52.54v34.86h-52.54z"/></clipPath></defs><title>play-button</title><g class="b c"><path class="d e f" d="M39.25 6.89v-.13c-.05-.36-.12-.7-.2-1a10.07 10.07 0 0 0-.35-1.1 6.64 6.64 0 0 0-1.55-2.5 5.89 5.89 0 0 0-.86-.71c-.13-.09-.27-.16-.41-.24l-.25-.14-.55-.25-.33-.16-.56-.18-.48-.13-.57-.12-.6-.1h-.29c-.3 0-.6-.07-.92-.08h-2.52c-.29 0-.57.05-.84.1h-.27c-.31.05-.62.12-.9.19h-.07c-3.24.86-4.69 3-5.23 5.92 0 .27-.09.54-.13.83v.27c0 .25 0 .5-.07.75s0 .26 0 .4v3.31c0 .29.06.57.1.83v.14c.05.35.12.69.2 1a9.48 9.48 0 0 0 .33 1.06 6.67 6.67 0 0 0 1.55 2.5 6.4 6.4 0 0 0 .86.7 4.41 4.41 0 0 0 .41.24l.25.15c.17.09.36.17.55.25l.36.15.56.19.48.13.57.12c.2 0 .4.07.6.1l.29.05.92.08h2.52l.84-.1h.27c.32-.05.62-.11.9-.18h.07c3.24-.86 4.69-3 5.23-5.92.05-.28.1-.55.13-.83v-.27c0-.25 0-.5.07-.76s0-.26 0-.39V9.85 8.79v-.66-.37c0-.28-.06-.56-.1-.83"/><path class="d g f" d="M39.25 225.72v-.13c-.05-.36-.12-.7-.2-1a10.07 10.07 0 0 0-.33-1.07 6.64 6.64 0 0 0-1.55-2.5 5.89 5.89 0 0 0-.86-.71c-.13-.09-.27-.16-.41-.24l-.25-.14-.55-.25-.36-.15-.56-.18-.48-.13-.57-.12-.6-.1h-.29c-.3 0-.6-.07-.92-.08H28.8c-.29 0-.57.05-.84.1h-.27c-.31.05-.62.12-.9.19h-.07c-3.24.86-4.69 3-5.23 5.92 0 .27-.09.54-.13.83v.27c0 .25 0 .5-.07.75s0 .26 0 .4v3.31c0 .29.06.57.1.83v.14c.05.35.12.69.2 1a9.48 9.48 0 0 0 .33 1.06 6.67 6.67 0 0 0 1.55 2.5 6.4 6.4 0 0 0 .86.7 4.41 4.41 0 0 0 .41.24l.25.15c.17.09.36.17.55.25l.36.15.56.19.48.13.57.12c.2 0 .4.07.6.1l.29.05.92.08h2.52l.84-.1h.27c.32-.05.62-.11.9-.18h.07c3.24-.86 4.69-3 5.23-5.92.05-.28.1-.55.13-.83v-.27c0-.25 0-.5.07-.76s0-.26 0-.39v-1.21-1.06-.66-.37c0-.28-.06-.56-.1-.83"/><path class="d h f" d="M60.46 28.78v-.13c-.05-.35-.12-.69-.2-1a9.93 9.93 0 0 0-.33-1.07 6.71 6.71 0 0 0-1.55-2.5 5.85 5.85 0 0 0-.86-.7 4.17 4.17 0 0 0-.41-.24l-.27-.17-.55-.25-.36-.15-.56-.18-.48-.13c-.18 0-.38-.09-.57-.12s-.4-.08-.6-.1l-.29-.05-.92-.08h-2.52c-.29 0-.57.06-.84.1h-.27c-.31.05-.62.11-.9.19h-.07c-3.24.86-4.69 3-5.23 5.92 0 .27-.09.55-.13.83v.27c0 .25 0 .5-.07.76s0 .26 0 .4V33.68c0 .28.06.56.1.83v.13c.05.36.12.7.2 1a9 9 0 0 0 .33 1.06 6.61 6.61 0 0 0 1.55 2.5 5.91 5.91 0 0 0 .86.71l.41.24.25.14.55.25.36.15.56.18.48.13.57.12.6.1h.29c.3 0 .6.07.92.08h2.52c.29 0 .57-.05.84-.1h.27c.32-.05.62-.12.9-.19h.07c3.24-.86 4.69-3 5.23-5.92.05-.27.1-.54.13-.83v-.27c0-.24 0-.5.07-.75s0-.26 0-.4v-1.21-1.06-.66-.36c0-.29-.06-.56-.1-.83"/><path class="d i f" d="M60.46 203.84v-.13c-.05-.35-.12-.69-.2-1a9.93 9.93 0 0 0-.33-1.07 6.71 6.71 0 0 0-1.55-2.5 5.85 5.85 0 0 0-.86-.7 4.17 4.17 0 0 0-.41-.24l-.25-.15-.55-.25-.36-.15-.56-.18-.48-.13c-.18 0-.38-.09-.57-.12s-.4-.08-.6-.1l-.29-.05-.92-.08h-2.52c-.29 0-.57.06-.84.1h-.27c-.31.05-.62.11-.9.19h-.07c-3.24.86-4.69 3-5.23 5.92 0 .27-.09.55-.13.83v.27c0 .25 0 .5-.07.76s0 .26 0 .4V208.76c0 .28.06.56.1.83v.13c.05.36.12.7.2 1a9 9 0 0 0 .33 1.06 6.61 6.61 0 0 0 1.55 2.5 5.91 5.91 0 0 0 .86.71l.41.24.25.14.55.25.36.15.56.18.48.13.57.12.6.1h.29c.3 0 .6.07.92.08h2.52c.29 0 .57-.05.84-.1h.27c.32-.05.62-.12.9-.19h.07c3.24-.86 4.69-3 5.23-5.92.05-.27.1-.54.13-.83v-.27c0-.24 0-.5.07-.75s0-.26 0-.4v-1.21-1.06-.66-.36c0-.29-.06-.56-.1-.83"/><path class="d j f" d="M81.68 28.78v-.13c-.05-.35-.12-.69-.2-1a9.93 9.93 0 0 0-.33-1.07 6.71 6.71 0 0 0-1.55-2.5 5.85 5.85 0 0 0-.86-.7 4.17 4.17 0 0 0-.41-.24l-.25-.15-.55-.25-.36-.15-.56-.18-.48-.13c-.18 0-.38-.09-.57-.12s-.4-.08-.6-.1l-.29-.05-.92-.08h-2.52c-.29 0-.57.06-.84.1h-.27c-.31.05-.62.11-.9.19h-.08c-3.24.86-4.69 3-5.23 5.92 0 .27-.09.55-.13.83v.27c0 .25 0 .5-.07.76s0 .26 0 .4V33.7c0 .28.06.56.1.83v.13c.05.36.12.7.2 1a9 9 0 0 0 .33 1.06 6.61 6.61 0 0 0 1.55 2.5 5.91 5.91 0 0 0 .86.71l.41.24.25.14.55.25.36.15.56.18.48.13.57.12.6.1h.29c.3 0 .6.07.92.08h2.52c.29 0 .57-.05.84-.1h.27c.32-.05.62-.12.9-.19h.07c3.24-.86 4.69-3 5.23-5.92.05-.27.1-.54.13-.83v-.27c0-.24 0-.5.07-.75s0-.26 0-.4v-1.21-1.06-.66-.36c0-.29-.06-.56-.1-.83"/><path class="d k f" d="M81.68 203.84v-.13c-.05-.35-.12-.69-.2-1a9.93 9.93 0 0 0-.33-1.07 6.71 6.71 0 0 0-1.55-2.5 5.85 5.85 0 0 0-.86-.7 4.17 4.17 0 0 0-.41-.24l-.25-.15-.55-.25-.36-.15-.56-.18-.48-.13c-.18 0-.38-.09-.57-.12s-.4-.08-.6-.1l-.29-.05-.92-.08h-2.52c-.29 0-.57.06-.84.1h-.27c-.31.05-.62.11-.9.19h-.08c-3.24.86-4.69 3-5.23 5.92 0 .27-.09.55-.13.83v.27c0 .25 0 .5-.07.76s0 .26 0 .4V208.76c0 .28.06.56.1.83v.13c.05.36.12.7.2 1a9 9 0 0 0 .33 1.06 6.61 6.61 0 0 0 1.55 2.5 5.91 5.91 0 0 0 .86.71l.41.24.25.14.55.25.36.15.56.18.48.13.57.12.6.1h.29c.3 0 .6.07.92.08h2.52c.29 0 .57-.05.84-.1h.27c.32-.05.62-.12.9-.19h.07c3.24-.86 4.69-3 5.23-5.92.05-.27.1-.54.13-.83v-.27c0-.24 0-.5.07-.75s0-.26 0-.4v-1.21-1.06-.66-.36c0-.29-.06-.56-.1-.83"/><path class="d l f" d="M102.89 181.96v-.13c-.05-.36-.12-.7-.2-1a10.07 10.07 0 0 0-.33-1.07 6.64 6.64 0 0 0-1.55-2.5 5.89 5.89 0 0 0-.86-.71c-.13-.09-.27-.16-.41-.24l-.25-.14-.55-.25-.36-.15-.56-.18-.48-.13-.57-.12-.6-.1h-.29c-.3 0-.6-.07-.92-.08h-2.52c-.29 0-.57.05-.84.1h-.27c-.31.05-.62.12-.9.19h-.07c-3.24.86-4.69 3-5.23 5.92 0 .27-.09.54-.13.83v.27c0 .25 0 .5-.07.75s0 .26 0 .4v3.31c0 .29.06.57.1.83v.14c.05.35.12.69.2 1a9.48 9.48 0 0 0 .33 1.06 6.67 6.67 0 0 0 1.55 2.5 6.4 6.4 0 0 0 .86.7 4.41 4.41 0 0 0 .41.24l.25.15c.17.09.36.17.55.25l.36.15.56.19.48.13.57.12c.2 0 .4.07.6.1l.29.05.92.08h2.52l.84-.1h.27c.32-.05.62-.11.9-.18h.07c3.24-.86 4.69-3 5.23-5.92.05-.28.1-.55.13-.83v-.27c0-.25 0-.5.07-.76s0-.26 0-.39v-1.21-1.06-.66-.37c0-.28-.06-.56-.1-.83"/><path class="d m f" d="M102.89 50.66v-.13c-.05-.36-.12-.7-.2-1a10.07 10.07 0 0 0-.33-1.07 6.64 6.64 0 0 0-1.55-2.5 5.89 5.89 0 0 0-.86-.71c-.13-.09-.27-.16-.41-.24l-.25-.14-.55-.25-.36-.15-.56-.18-.48-.13-.57-.12-.6-.1h-.29c-.3 0-.6-.07-.92-.08h-2.52c-.29 0-.57.05-.84.1h-.27c-.31.05-.62.12-.9.19h-.07c-3.24.86-4.69 3-5.23 5.92 0 .27-.09.54-.13.83v.27c0 .25 0 .5-.07.75s0 .26 0 .4v3.31c0 .29.06.57.1.83v.14c.05.35.12.69.2 1a9.48 9.48 0 0 0 .33 1.06 6.67 6.67 0 0 0 1.55 2.5 6.4 6.4 0 0 0 .86.7 4.41 4.41 0 0 0 .41.24l.25.15c.17.09.36.17.55.25l.36.15.56.19.48.13.57.12c.2 0 .4.07.6.1l.29.05.92.08h2.52l.84-.1h.27c.32-.05.62-.11.9-.18h.07c3.24-.86 4.69-3 5.23-5.92.05-.28.1-.55.13-.83v-.27c0-.25 0-.5.07-.76s0-.26 0-.39v-1.21-1.06-.66-.37c0-.28-.06-.56-.1-.83"/><path class="d n f" d="M124.11 181.96v-.13c-.05-.36-.12-.7-.2-1a10.06 10.06 0 0 0-.33-1.07 6.64 6.64 0 0 0-1.55-2.5 5.89 5.89 0 0 0-.86-.71c-.13-.09-.27-.16-.41-.24l-.25-.14-.55-.25-.36-.15-.56-.18-.48-.13-.57-.12-.6-.1h-.29c-.3 0-.6-.07-.92-.08h-2.52c-.29 0-.57.05-.84.1h-.27c-.31.05-.62.12-.9.19h-.07c-3.24.86-4.69 3-5.23 5.92 0 .27-.09.54-.13.83v.27c0 .25 0 .5-.07.75s0 .26 0 .4v3.31c0 .29.06.57.1.83v.14c.05.35.12.69.2 1a9.48 9.48 0 0 0 .33 1.06 6.67 6.67 0 0 0 1.55 2.5 6.4 6.4 0 0 0 .86.7 4.41 4.41 0 0 0 .41.24l.25.15c.17.09.36.17.55.25l.36.15.56.19.48.13.57.12c.2 0 .4.07.6.1l.29.05.92.08h2.52l.84-.1h.27c.32-.05.62-.11.9-.18h.07c3.24-.86 4.69-3 5.23-5.92.05-.28.1-.55.13-.83v-.27c0-.25 0-.5.07-.76s0-.26 0-.39v-1.21-1.06-.66-.37c0-.28-.06-.56-.1-.83"/><path class="d o f" d="M124.11 50.66v-.13c-.05-.36-.12-.7-.2-1a10.06 10.06 0 0 0-.33-1.07 6.64 6.64 0 0 0-1.55-2.5 5.89 5.89 0 0 0-.86-.71c-.13-.09-.27-.16-.41-.24l-.25-.14-.55-.25-.36-.15-.56-.18-.48-.13-.57-.12-.6-.1h-.29c-.3 0-.6-.07-.92-.08h-2.52c-.29 0-.57.05-.84.1h-.27c-.31.05-.62.12-.9.19h-.07c-3.24.86-4.69 3-5.23 5.92 0 .27-.09.54-.13.83v.27c0 .25 0 .5-.07.75s0 .26 0 .4v3.31c0 .29.06.57.1.83v.14c.05.35.12.69.2 1a9.48 9.48 0 0 0 .33 1.06 6.67 6.67 0 0 0 1.55 2.5 6.4 6.4 0 0 0 .86.7 4.41 4.41 0 0 0 .41.24l.25.15c.17.09.36.17.55.25l.36.15.56.19.48.13.57.12c.2 0 .4.07.6.1l.29.05.92.08h2.52l.84-.1h.27c.32-.05.62-.11.9-.18h.07c3.24-.86 4.69-3 5.23-5.92.05-.28.1-.55.13-.83v-.27c0-.25 0-.5.07-.76s0-.26 0-.39v-1.21-1.06-.66-.37c0-.28-.06-.56-.1-.83"/><path class="d p f" d="M145.32 160.08v-.13c-.05-.35-.12-.69-.2-1a9.93 9.93 0 0 0-.33-1.07 6.71 6.71 0 0 0-1.55-2.5 5.85 5.85 0 0 0-.86-.7 4.17 4.17 0 0 0-.41-.24l-.25-.15-.55-.25-.36-.15-.56-.18-.48-.13c-.18 0-.38-.09-.57-.12s-.4-.08-.6-.1l-.29-.05-.92-.08h-2.52c-.29 0-.57.06-.84.1h-.27c-.31.05-.62.11-.9.19h-.07c-3.24.86-4.69 3-5.23 5.92 0 .27-.09.55-.13.83v.27c0 .25 0 .5-.07.76s0 .26 0 .4V165c0 .28.06.56.1.83v.13c.05.36.12.7.2 1a9 9 0 0 0 .33 1.06 6.61 6.61 0 0 0 1.55 2.5 5.91 5.91 0 0 0 .86.71l.41.24.25.14.55.25.36.15.56.18.48.13.57.12.6.1h.29c.3 0 .6.07.92.08h2.52c.29 0 .57-.05.84-.1h.27c.32-.05.62-.12.9-.19h.07c3.24-.86 4.69-3 5.23-5.92.05-.27.1-.54.13-.83v-.27c0-.24 0-.5.07-.75s0-.26 0-.4v-1.21-1.06-.66-.36c0-.29-.06-.56-.1-.83"/><path class="d q f" d="M145.32 72.54v-.13c-.05-.35-.12-.69-.2-1a9.93 9.93 0 0 0-.33-1.07 6.71 6.71 0 0 0-1.55-2.5 5.85 5.85 0 0 0-.86-.7 4.17 4.17 0 0 0-.41-.24l-.25-.15-.55-.25-.36-.15-.56-.18-.48-.13c-.18 0-.38-.09-.57-.12s-.4-.08-.6-.1l-.29-.05-.92-.08h-2.52c-.29 0-.57.06-.84.1h-.27c-.31.05-.62.11-.9.19h-.07c-3.24.86-4.69 3-5.23 5.92 0 .27-.09.55-.13.83V73c0 .25 0 .5-.07.76s0 .26 0 .4V77.46c0 .28.06.56.1.83v.13c.05.36.12.7.2 1a9 9 0 0 0 .33 1.06 6.61 6.61 0 0 0 1.55 2.5 5.91 5.91 0 0 0 .86.71l.41.24.25.14.55.25.36.15.56.18.48.13.57.12.6.1h.29c.3 0 .6.07.92.08h2.52c.29 0 .57-.05.84-.1h.27c.32-.05.62-.12.9-.19h.07c3.24-.86 4.69-3 5.23-5.92.05-.27.1-.54.13-.83v-.27c0-.24 0-.5.07-.75s0-.26 0-.4v-1.21-1.06-.66-.36c0-.29-.06-.56-.1-.83"/><path class="d r f" d="M166.53 160.08v-.13c-.05-.35-.12-.69-.2-1a9.93 9.93 0 0 0-.33-1.07 6.71 6.71 0 0 0-1.55-2.5 5.85 5.85 0 0 0-.86-.7 4.17 4.17 0 0 0-.41-.24l-.25-.15-.55-.25-.36-.15-.56-.18-.48-.13c-.18 0-.38-.09-.57-.12s-.4-.08-.6-.1l-.29-.05-.92-.08h-2.52c-.29 0-.57.06-.84.1h-.27c-.31.05-.62.11-.9.19H154c-3.24.86-4.69 3-5.23 5.92 0 .27-.09.55-.13.83v.27c0 .25 0 .5-.07.76s0 .26 0 .4V165c0 .28.06.56.1.83v.13c.05.36.12.7.2 1a9 9 0 0 0 .33 1.06 6.61 6.61 0 0 0 1.55 2.5 5.91 5.91 0 0 0 .86.71l.41.24.25.14.55.25.36.15.56.18.48.13.57.12.6.1h.29c.3 0 .6.07.92.08h2.52c.29 0 .57-.05.84-.1h.27c.32-.05.62-.12.9-.19h.07c3.24-.86 4.69-3 5.23-5.92.05-.27.1-.54.13-.83v-.27c0-.24 0-.5.07-.75s0-.26 0-.4v-1.21-1.06-.66-.36c0-.29-.06-.56-.1-.83"/><path class="d s f" d="M166.53 72.54v-.13c-.05-.35-.12-.69-.2-1a9.93 9.93 0 0 0-.33-1.07 6.71 6.71 0 0 0-1.55-2.5 5.85 5.85 0 0 0-.86-.7 4.17 4.17 0 0 0-.41-.24l-.25-.15-.55-.25-.36-.15-.56-.18-.48-.13c-.18 0-.38-.09-.57-.12s-.4-.08-.6-.1l-.29-.05-.92-.08h-2.52c-.29 0-.57.06-.84.1h-.27c-.31.05-.62.11-.9.19H154c-3.24.86-4.69 3-5.23 5.92 0 .27-.09.55-.13.83V73c0 .25 0 .5-.07.76s0 .26 0 .4V77.46c0 .28.06.56.1.83v.13c.05.36.12.7.2 1a9 9 0 0 0 .33 1.06 6.61 6.61 0 0 0 1.55 2.5 5.91 5.91 0 0 0 .86.71l.41.24.25.14.55.25.36.15.56.18.48.13.57.12.6.1h.29c.3 0 .6.07.92.08h2.52c.29 0 .57-.05.84-.1h.27c.32-.05.62-.12.9-.19h.07c3.24-.86 4.69-3 5.23-5.92.05-.27.1-.54.13-.83v-.27c0-.24 0-.5.07-.75s0-.26 0-.4v-1.21-1.06-.66-.36c0-.29-.06-.56-.1-.83"/><path class="d t f" d="M187.75 94.42v-.13c-.05-.36-.12-.7-.2-1a10.06 10.06 0 0 0-.33-1.07 6.64 6.64 0 0 0-1.55-2.5 5.89 5.89 0 0 0-.86-.71c-.13-.09-.27-.16-.41-.24l-.25-.14-.55-.25-.36-.15-.56-.18-.48-.13-.57-.12-.6-.1h-.29c-.3 0-.6-.07-.92-.08h-2.52c-.29 0-.57.05-.84.1h-.27c-.31.05-.62.12-.9.19h-.07c-3.24.86-4.69 3-5.23 5.92 0 .27-.09.54-.13.83v.27c0 .25 0 .5-.07.75s0 .26 0 .4v3.31c0 .29.06.57.1.83v.14c.05.35.12.69.2 1a9.48 9.48 0 0 0 .33 1.06 6.67 6.67 0 0 0 1.55 2.5 6.4 6.4 0 0 0 .86.7 4.41 4.41 0 0 0 .41.24l.25.15c.17.09.36.17.55.25l.36.15.56.19.48.13.57.12c.2 0 .4.07.6.1l.29.05.92.08h2.52l.84-.1h.27c.32-.05.62-.11.9-.18h.07c3.24-.86 4.69-3 5.23-5.92.05-.28.1-.55.13-.83v-.27c0-.25 0-.5.07-.76s0-.26 0-.39v-1.21-1.06-.66-.37c0-.28-.06-.56-.1-.83"/><g class="u v"><path class="w x f" d="M39.25 160.07v-.13c-.05-.35-.12-.69-.2-1a9.93 9.93 0 0 0-.33-1.07 6.71 6.71 0 0 0-1.55-2.5 5.85 5.85 0 0 0-.86-.7 4.41 4.41 0 0 0-.41-.24l-.25-.15-.55-.25-.36-.15-.56-.18-.48-.13c-.18 0-.38-.09-.57-.12s-.4-.08-.6-.1l-.29-.05-.92-.08H28.8c-.29 0-.57.06-.84.1h-.27c-.31.05-.62.11-.9.19h-.07c-3.24.86-4.69 3-5.23 5.92 0 .27-.09.55-.13.83v.27c0 .25 0 .5-.07.76s0 .26 0 .4V164.99c0 .28.06.56.1.83v.13c.05.36.12.7.2 1a9 9 0 0 0 .33 1.06 6.61 6.61 0 0 0 1.55 2.5 5.91 5.91 0 0 0 .86.71l.41.24.25.14.55.25.36.15.56.18.48.13.57.12.6.1h.29c.3 0 .6.07.92.08h2.52c.29 0 .57-.05.84-.1h.27c.32-.05.62-.12.9-.19h.07c3.24-.86 4.69-3 5.23-5.92.05-.27.1-.54.13-.83v-.27c0-.24 0-.5.07-.75s0-.26 0-.4v-1.21-1.06-.66-.36c0-.29-.06-.56-.1-.83"/><path class="w y f" d="M39.25 181.95v-.13c-.05-.36-.12-.7-.2-1a10.07 10.07 0 0 0-.33-1.07 6.64 6.64 0 0 0-1.55-2.5 5.89 5.89 0 0 0-.86-.71c-.13-.09-.27-.16-.41-.24l-.25-.14-.55-.25-.36-.15-.56-.18-.48-.13-.57-.12-.6-.1h-.29c-.3 0-.6-.07-.92-.08H28.8c-.29 0-.57.05-.84.1h-.27c-.31.05-.62.12-.9.19h-.07c-3.24.86-4.69 3-5.23 5.92 0 .27-.09.54-.13.83v.27c0 .25 0 .5-.07.75s0 .26 0 .4v3.31c0 .29.06.57.1.83v.14c.05.35.12.69.2 1a9.48 9.48 0 0 0 .33 1.06 6.67 6.67 0 0 0 1.55 2.5 6.4 6.4 0 0 0 .86.7 4.41 4.41 0 0 0 .41.24l.25.15c.17.09.36.17.55.25l.36.15.56.19.48.13.57.12c.2 0 .4.07.6.1l.29.05.92.08h2.52l.84-.1h.27c.32-.05.62-.11.9-.18h.07c3.24-.86 4.69-3 5.23-5.92.05-.28.1-.55.13-.83v-.27c0-.25 0-.5.07-.76s0-.26 0-.39v-1.21-1.06-.66-.37c0-.28-.06-.56-.1-.83"/><path class="w z f" d="M39.25 28.78v-.13c-.05-.35-.12-.69-.2-1a9.93 9.93 0 0 0-.33-1.07 6.71 6.71 0 0 0-1.55-2.5 5.85 5.85 0 0 0-.86-.7 4.41 4.41 0 0 0-.41-.24l-.25-.15-.55-.25-.36-.15-.56-.18-.48-.13c-.18 0-.38-.09-.57-.12s-.4-.08-.6-.1l-.29-.05-.92-.08H28.8c-.29 0-.57.06-.84.1h-.27c-.31.05-.62.11-.9.19h-.07c-3.24.86-4.69 3-5.23 5.92 0 .27-.09.55-.13.83v.27c0 .25 0 .5-.07.76s0 .26 0 .4V33.7c0 .28.06.56.1.83v.13c.05.36.12.7.2 1a9 9 0 0 0 .33 1.06 6.61 6.61 0 0 0 1.55 2.5 5.91 5.91 0 0 0 .86.71l.41.24.25.14.55.25.36.15.56.18.48.13.57.12.6.1h.29c.3 0 .6.07.92.08h2.52c.29 0 .57-.05.84-.1h.27c.32-.05.62-.12.9-.19h.07c3.24-.86 4.69-3 5.23-5.92.05-.27.1-.54.13-.83v-.27c0-.24 0-.5.07-.75s0-.26 0-.4v-1.21-1.06-.66-.36c0-.29-.06-.56-.1-.83"/><path class="w aa f" d="M39.25 203.83v-.13c-.05-.35-.12-.69-.2-1a9.93 9.93 0 0 0-.33-1.07 6.71 6.71 0 0 0-1.55-2.5 5.85 5.85 0 0 0-.86-.7 4.41 4.41 0 0 0-.41-.24l-.25-.15-.55-.25-.36-.13-.56-.18-.48-.13c-.18 0-.38-.09-.57-.12s-.4-.08-.6-.1l-.29-.05-.92-.08H28.8c-.29 0-.57.06-.84.1h-.27c-.31.05-.62.11-.9.19h-.07c-3.24.86-4.69 3-5.23 5.92 0 .27-.09.55-.13.83v.27c0 .25 0 .5-.07.76s0 .26 0 .4V208.77c0 .28.06.56.1.83v.13c.05.36.12.7.2 1a9 9 0 0 0 .33 1.06 6.61 6.61 0 0 0 1.55 2.5 5.91 5.91 0 0 0 .86.71l.41.24.25.14.55.25.36.15.56.18.48.13.57.12.6.1h.29c.3 0 .6.07.92.08h2.52c.29 0 .57-.05.84-.1h.27c.32-.05.62-.12.9-.19h.07c3.24-.86 4.69-3 5.23-5.92.05-.27.1-.54.13-.83v-.27c0-.24 0-.5.07-.75s0-.26 0-.4v-1.21-1.06-.66-.36c0-.29-.06-.56-.1-.83"/><path class="w ab f" d="M39.25 50.66v-.13c-.05-.36-.12-.7-.2-1a10.07 10.07 0 0 0-.33-1.07 6.64 6.64 0 0 0-1.55-2.5 5.89 5.89 0 0 0-.86-.71c-.13-.09-.27-.16-.41-.24l-.25-.14-.55-.25-.36-.15-.56-.18-.48-.13-.57-.12-.6-.1h-.29c-.3 0-.6-.07-.92-.08H28.8c-.29 0-.57.05-.84.1h-.27c-.31.05-.62.12-.9.19h-.07c-3.24.86-4.69 3-5.23 5.92 0 .27-.09.54-.13.83v.27c0 .25 0 .5-.07.75s0 .26 0 .4v3.31c0 .29.06.57.1.83v.14c.05.35.12.69.2 1a9.48 9.48 0 0 0 .33 1.06 6.67 6.67 0 0 0 1.55 2.5 6.4 6.4 0 0 0 .86.7 4.41 4.41 0 0 0 .41.24l.25.15c.17.09.36.17.55.25l.36.15.56.19.48.13.57.12c.2 0 .4.07.6.1l.29.05.92.08h2.52l.84-.1h.27c.32-.05.62-.11.9-.18h.07c3.24-.86 4.69-3 5.23-5.92.05-.28.1-.55.13-.83v-.27c0-.25 0-.5.07-.76s0-.26 0-.39v-1.21-1.06-.66-.37c0-.28-.06-.56-.1-.83"/><path class="w ac f" d="M39.25 72.54v-.13c-.05-.35-.12-.69-.2-1a9.93 9.93 0 0 0-.33-1.07 6.71 6.71 0 0 0-1.55-2.5 5.85 5.85 0 0 0-.86-.7 4.41 4.41 0 0 0-.41-.24l-.25-.15-.55-.25-.36-.15-.56-.18-.48-.13c-.18 0-.38-.09-.57-.12s-.4-.08-.6-.1l-.29-.05-.91-.11h-2.52c-.29 0-.57.06-.84.1h-.27c-.31.05-.62.11-.9.19h-.07c-3.24.86-4.69 3-5.23 5.92 0 .27-.09.55-.13.83v.27c0 .25 0 .5-.07.76s0 .26 0 .4V77.43c0 .28.06.56.1.83v.13c.05.36.12.7.2 1a9 9 0 0 0 .33 1.06 6.61 6.61 0 0 0 1.55 2.5 5.91 5.91 0 0 0 .86.71l.41.24.25.14.55.25.36.15.56.18.48.13.57.12.6.1h.29c.3 0 .6.07.92.08h2.52c.29 0 .57-.05.84-.1h.27c.32-.05.62-.12.9-.19h.07c3.24-.86 4.69-3 5.23-5.92.05-.27.1-.54.13-.83v-.27c0-.24 0-.5.07-.75s0-.26 0-.4v-1.21-1.06-.66-.36c0-.29-.06-.56-.1-.83"/><path class="w ad f" d="M39.25 94.42v-.13c-.05-.36-.12-.7-.2-1a10.07 10.07 0 0 0-.33-1.07 6.64 6.64 0 0 0-1.55-2.5 5.89 5.89 0 0 0-.86-.71c-.13-.09-.27-.16-.41-.24l-.25-.14-.55-.25-.36-.15-.56-.18-.48-.13-.57-.12-.6-.1h-.29c-.3 0-.6-.07-.92-.08h-2.21l-.27.04c-.29 0-.57.05-.84.1h-.27c-.31.05-.62.12-.9.19h-.07c-3.24.86-4.69 3-5.23 5.92 0 .27-.09.54-.13.83v.27c0 .25 0 .5-.07.75s0 .26 0 .4v3.31c0 .29.06.57.1.83v.14c.05.35.12.69.2 1a9.48 9.48 0 0 0 .33 1.06 6.67 6.67 0 0 0 1.55 2.5 6.4 6.4 0 0 0 .86.7 4.41 4.41 0 0 0 .41.24l.25.15c.17.09.36.17.55.25l.36.15.56.19.48.13.57.12c.2 0 .4.07.6.1l.29.05.92.08h2.52l.84-.1h.27c.32-.05.62-.11.9-.18h.07c3.24-.86 4.69-3 5.23-5.92.05-.28.1-.55.13-.83v-.27c0-.25 0-.5.07-.76s0-.26 0-.39v-1.21-1.06-.66-.37c0-.28-.06-.56-.1-.83"/><path class="w ae f" d="M39.25 116.31v-.13c-.05-.35-.12-.69-.2-1a9.93 9.93 0 0 0-.33-1.07 6.71 6.71 0 0 0-1.55-2.5 5.85 5.85 0 0 0-.86-.7 4.41 4.41 0 0 0-.41-.24l-.25-.15-.55-.25-.36-.15-.56-.18-.48-.13c-.18 0-.38-.09-.57-.12s-.4-.08-.6-.1l-.29-.05-.92-.08H28.8c-.29 0-.57.06-.84.1h-.27c-.31.05-.62.11-.9.19h-.07c-3.24.86-4.69 3-5.23 5.92 0 .27-.09.55-.13.83v.27c0 .25 0 .5-.07.76s0 .26 0 .4V121.23c0 .28.06.56.1.83v.13c.05.36.12.7.2 1a9 9 0 0 0 .33 1.06 6.61 6.61 0 0 0 1.55 2.5 5.91 5.91 0 0 0 .86.71l.41.24.25.14.55.25.36.15.56.18.48.13.57.12.6.1h.29c.3 0 .6.07.92.08h2.52c.29 0 .57-.05.84-.1h.27c.32-.05.62-.12.9-.19h.07c3.24-.86 4.69-3 5.23-5.92.05-.27.1-.54.13-.83v-.27c0-.24 0-.5.07-.75s0-.26 0-.4v-1.21-1.06-.66-.36c0-.29-.06-.56-.1-.83"/><path class="w af f" d="M39.25 138.18v-.13c-.05-.36-.12-.7-.2-1a10.07 10.07 0 0 0-.33-1.07 6.64 6.64 0 0 0-1.55-2.5 5.89 5.89 0 0 0-.86-.71c-.13-.09-.27-.16-.41-.24l-.25-.14-.55-.25-.36-.15-.56-.18-.48-.13-.57-.12-.6-.1h-.29c-.3 0-.6-.07-.92-.08H28.8c-.29 0-.57.05-.84.1h-.27c-.31.05-.62.12-.9.19h-.07c-3.24.86-4.69 3-5.23 5.92 0 .27-.09.54-.13.83v.27c0 .25 0 .5-.07.75s0 .26 0 .4v3.31c0 .29.06.57.1.83v.14c.05.35.12.69.2 1a9.48 9.48 0 0 0 .33 1.06 6.67 6.67 0 0 0 1.55 2.5 6.4 6.4 0 0 0 .86.7 4.4 4.4 0 0 0 .41.24l.25.15c.17.09.36.17.55.25l.36.15.56.19.48.13.57.12c.2 0 .4.07.6.1l.29.05.92.08h2.52l.84-.1h.27c.32-.05.62-.11.9-.18h.07c3.24-.86 4.69-3 5.23-5.92.05-.28.1-.55.13-.83v-.27c0-.25 0-.5.07-.76s0-.26 0-.39v-1.21-1.06-.66-.37c0-.28-.06-.56-.1-.83"/><path class="w ag f" d="M60.46 160.07v-.13c-.05-.35-.12-.69-.2-1a9.93 9.93 0 0 0-.33-1.07 6.71 6.71 0 0 0-1.55-2.5 5.85 5.85 0 0 0-.86-.7 4.17 4.17 0 0 0-.41-.24l-.27-.17-.55-.25-.36-.15-.56-.18-.48-.13c-.18 0-.38-.09-.57-.12s-.4-.08-.6-.1l-.29-.05-.92-.08h-2.52c-.29 0-.57.06-.84.1h-.27c-.31.05-.62.11-.9.19h-.07c-3.24.86-4.69 3-5.23 5.92 0 .27-.09.55-.13.83v.27c0 .25 0 .5-.07.76s0 .26 0 .4V164.97c0 .28.06.56.1.83v.13c.05.36.12.7.2 1a9 9 0 0 0 .33 1.06 6.61 6.61 0 0 0 1.55 2.5 5.91 5.91 0 0 0 .86.71l.41.24.25.14.55.25.36.15.56.18.48.13.57.12.6.1h.29c.3 0 .6.07.92.08h2.52c.29 0 .57-.05.84-.1h.27c.32-.05.62-.12.9-.19h.07c3.24-.86 4.69-3 5.23-5.92.05-.27.1-.54.13-.83v-.27c0-.24 0-.5.07-.75s0-.26 0-.4v-1.21-1.06-.66-.36c0-.29-.06-.56-.1-.83"/><path class="w ah f" d="M60.46 181.95v-.13c-.05-.36-.12-.7-.2-1a10.07 10.07 0 0 0-.33-1.07 6.64 6.64 0 0 0-1.55-2.5 5.89 5.89 0 0 0-.86-.71c-.13-.09-.27-.16-.41-.24l-.25-.14-.55-.25-.36-.15-.56-.18-.48-.13-.57-.12-.6-.1h-.29c-.3 0-.6-.07-.92-.08h-2.52c-.29 0-.57.05-.84.1h-.27c-.31.05-.62.12-.9.19h-.07c-3.24.86-4.69 3-5.23 5.92 0 .27-.09.54-.13.83v.27c0 .25 0 .5-.07.75s0 .26 0 .4v3.31c0 .29.06.57.1.83v.14c.05.35.12.69.2 1a9.48 9.48 0 0 0 .33 1.06 6.67 6.67 0 0 0 1.55 2.5 6.4 6.4 0 0 0 .86.7 4.41 4.41 0 0 0 .41.24l.25.15c.17.09.36.17.55.25l.36.15.56.19.48.13.57.12c.2 0 .4.07.6.1l.29.05.92.08h2.52l.84-.1h.27c.32-.05.62-.11.9-.18h.07c3.24-.86 4.69-3 5.23-5.92.05-.28.1-.55.13-.83v-.27c0-.25 0-.5.07-.76s0-.26 0-.39v-1.21-1.06-.66-.37c0-.28-.06-.56-.1-.83"/><path class="w ai f" d="M60.46 50.66v-.13c-.05-.36-.12-.7-.2-1a10.07 10.07 0 0 0-.33-1.07 6.64 6.64 0 0 0-1.55-2.5 5.89 5.89 0 0 0-.86-.71c-.13-.09-.27-.16-.41-.24l-.27-.15-.55-.25-.36-.15-.56-.18-.48-.13-.57-.12-.6-.1h-.29c-.3 0-.6-.07-.92-.08h-2.52c-.29 0-.57.05-.84.1h-.27c-.31.05-.62.12-.9.19h-.07c-3.24.86-4.69 3-5.23 5.92 0 .27-.09.54-.13.83v.27c0 .25 0 .5-.07.75s0 .26 0 .4v3.31c0 .29.06.57.1.83v.14c.05.35.12.69.2 1a9.48 9.48 0 0 0 .33 1.06 6.67 6.67 0 0 0 1.55 2.5 6.4 6.4 0 0 0 .86.7 4.41 4.41 0 0 0 .41.24l.25.15c.17.09.36.17.55.25l.36.15.56.19.48.13.57.12c.2 0 .4.07.6.1l.29.05.92.08h2.52l.84-.1h.27c.32-.05.62-.11.9-.18h.07c3.24-.86 4.69-3 5.23-5.92.05-.28.1-.55.13-.83v-.27c0-.25 0-.5.07-.76s0-.26 0-.39v-1.21-1.06-.66-.37c0-.28-.06-.56-.1-.83"/><path class="w aj f" d="M60.46 72.54v-.13c-.05-.35-.12-.69-.2-1a9.93 9.93 0 0 0-.33-1.07 6.71 6.71 0 0 0-1.55-2.5 5.85 5.85 0 0 0-.86-.7 4.17 4.17 0 0 0-.41-.24l-.27-.17-.55-.25-.36-.15-.56-.18-.48-.13c-.18 0-.38-.09-.57-.12s-.4-.08-.6-.1l-.29-.05-.89-.09h-2.52c-.29 0-.57.06-.84.1h-.27c-.31.05-.62.11-.9.19h-.07c-3.24.86-4.69 3-5.23 5.92 0 .27-.09.55-.13.83v.27c0 .25 0 .5-.07.76s0 .26 0 .4V77.43c0 .28.06.56.1.83v.13c.05.36.12.7.2 1a9 9 0 0 0 .33 1.06 6.61 6.61 0 0 0 1.55 2.5 5.91 5.91 0 0 0 .86.71l.41.24.25.14.55.25.36.15.56.18.48.13.57.12.6.1h.29c.3 0 .6.07.92.08h2.52c.29 0 .57-.05.84-.1h.27c.32-.05.62-.12.9-.19h.07c3.24-.86 4.69-3 5.23-5.92.05-.27.1-.54.13-.83v-.27c0-.24 0-.5.07-.75s0-.26 0-.4v-1.21-1.06-.66-.36c0-.29-.06-.56-.1-.83"/><path class="w ak f" d="M60.46 94.42v-.13c-.05-.36-.12-.7-.2-1a10.07 10.07 0 0 0-.33-1.07 6.64 6.64 0 0 0-1.55-2.5 5.89 5.89 0 0 0-.86-.71c-.13-.09-.27-.16-.41-.24l-.27-.11-.55-.25-.36-.15-.56-.18-.48-.13-.57-.12-.6-.1h-.29c-.3 0-.6-.07-.92-.08h-2.52c-.29 0-.57.05-.84.1h-.27c-.31.05-.62.12-.9.19h-.07c-3.24.86-4.69 3-5.23 5.92 0 .27-.09.54-.13.83v.27c0 .25 0 .5-.07.75s0 .26 0 .4v3.31c0 .29.06.57.1.83v.14c.05.35.12.69.2 1a9.48 9.48 0 0 0 .33 1.06 6.67 6.67 0 0 0 1.55 2.5 6.4 6.4 0 0 0 .86.7 4.41 4.41 0 0 0 .41.24l.25.15c.17.09.36.17.55.25l.36.15.56.19.48.13.57.12c.2 0 .4.07.6.1l.29.05.92.08h2.52l.84-.1h.27c.32-.05.62-.11.9-.18h.07c3.24-.86 4.69-3 5.23-5.92.05-.28.1-.55.13-.83v-.27c0-.25 0-.5.07-.76s0-.26 0-.39v-1.21-1.06-.66-.37c0-.28-.06-.56-.1-.83"/><path class="w al f" d="M60.46 116.31v-.13c-.05-.35-.12-.69-.2-1a9.93 9.93 0 0 0-.33-1.07 6.71 6.71 0 0 0-1.55-2.5 5.85 5.85 0 0 0-.86-.7 4.17 4.17 0 0 0-.41-.24l-.25-.15-.55-.25-.36-.15-.56-.18-.48-.13c-.18 0-.38-.09-.57-.12s-.4-.08-.6-.1l-.29-.05-.92-.08h-2.52c-.29 0-.57.06-.84.1h-.27c-.31.05-.62.11-.9.19h-.07c-3.24.86-4.69 3-5.23 5.92 0 .27-.09.55-.13.83v.27c0 .25 0 .5-.07.76s0 .26 0 .4V121.23c0 .28.06.56.1.83v.13c.05.36.12.7.2 1a9 9 0 0 0 .33 1.06 6.61 6.61 0 0 0 1.55 2.5 5.91 5.91 0 0 0 .86.71l.41.24.25.14.55.25.36.15.56.18.48.13.57.12.6.1h.29c.3 0 .6.07.92.08h2.52c.29 0 .57-.05.84-.1h.27c.32-.05.62-.12.9-.19h.07c3.24-.86 4.69-3 5.23-5.92.05-.27.1-.54.13-.83v-.27c0-.24 0-.5.07-.75s0-.26 0-.4v-1.21-1.06-.66-.36c0-.29-.06-.56-.1-.83"/><path class="w am f" d="M60.46 138.18v-.13c-.05-.36-.12-.7-.2-1a10.07 10.07 0 0 0-.33-1.07 6.64 6.64 0 0 0-1.55-2.5 5.89 5.89 0 0 0-.86-.71c-.13-.09-.27-.16-.41-.24l-.25-.14-.55-.25-.36-.15-.56-.18-.48-.13-.57-.12-.6-.1h-.29c-.3 0-.6-.07-.92-.08h-2.52c-.29 0-.57.05-.84.1h-.27c-.31.05-.62.12-.9.19h-.07c-3.24.86-4.69 3-5.23 5.92 0 .27-.09.54-.13.83v.27c0 .25 0 .5-.07.75s0 .26 0 .4v3.31c0 .29.06.57.1.83v.14c.05.35.12.69.2 1a9.48 9.48 0 0 0 .33 1.06 6.67 6.67 0 0 0 1.55 2.5 6.4 6.4 0 0 0 .86.7 4.4 4.4 0 0 0 .41.24l.25.15c.17.09.36.17.55.25l.36.15.56.19.48.13.57.12c.2 0 .4.07.6.1l.29.05.92.08h2.52l.84-.1h.27c.32-.05.62-.11.9-.18h.07c3.24-.86 4.69-3 5.23-5.92.05-.28.1-.55.13-.83v-.27c0-.25 0-.5.07-.76s0-.26 0-.39v-1.21-1.06-.66-.37c0-.28-.06-.56-.1-.83"/><path class="w an f" d="M81.68 160.07v-.13c-.05-.35-.12-.69-.2-1a9.93 9.93 0 0 0-.33-1.07 6.71 6.71 0 0 0-1.55-2.5 5.85 5.85 0 0 0-.86-.7 4.17 4.17 0 0 0-.41-.24l-.25-.15-.55-.25-.36-.15-.56-.18-.48-.13c-.18 0-.38-.09-.57-.12s-.4-.08-.6-.1l-.29-.05-.92-.08h-2.52c-.29 0-.57.06-.84.1h-.27c-.31.05-.62.11-.9.19h-.08c-3.24.86-4.69 3-5.23 5.92 0 .27-.09.55-.13.83v.27c0 .25 0 .5-.07.76s0 .26 0 .4V164.99c0 .28.06.56.1.83v.13c.05.36.12.7.2 1a9 9 0 0 0 .33 1.06 6.61 6.61 0 0 0 1.55 2.5 5.91 5.91 0 0 0 .86.71l.41.24.25.14.55.25.36.15.56.18.48.13.57.12.6.1h.29c.3 0 .6.07.92.08h2.52c.29 0 .57-.05.84-.1h.27c.32-.05.62-.12.9-.19h.07c3.24-.86 4.69-3 5.23-5.92.05-.27.1-.54.13-.83v-.27c0-.24 0-.5.07-.75s0-.26 0-.4v-1.21-1.06-.66-.36c0-.29-.06-.56-.1-.83"/><path class="w ao f" d="M81.68 181.95v-.13c-.05-.36-.12-.7-.2-1a10.07 10.07 0 0 0-.33-1.07 6.64 6.64 0 0 0-1.55-2.5 5.89 5.89 0 0 0-.86-.71c-.13-.09-.27-.16-.41-.24l-.25-.14-.55-.25-.36-.15-.56-.18-.48-.13-.57-.12-.6-.1h-.29c-.3 0-.6-.07-.92-.08h-2.52c-.29 0-.57.05-.84.1h-.27c-.31.05-.62.12-.9.19h-.08c-3.24.86-4.69 3-5.23 5.92 0 .27-.09.54-.13.83v.27c0 .25 0 .5-.07.75s0 .26 0 .4v3.31c0 .29.06.57.1.83v.14c.05.35.12.69.2 1a9.48 9.48 0 0 0 .33 1.06 6.67 6.67 0 0 0 1.55 2.5 6.4 6.4 0 0 0 .86.7 4.41 4.41 0 0 0 .41.24l.25.15c.17.09.36.17.55.25l.36.15.56.19.48.13.57.12c.2 0 .4.07.6.1l.29.05.92.08h2.52l.84-.1h.27c.32-.05.62-.11.9-.18h.07c3.24-.86 4.69-3 5.23-5.92.05-.28.1-.55.13-.83v-.27c0-.25 0-.5.07-.76s0-.26 0-.39v-1.21-1.06-.66-.37c0-.28-.06-.56-.1-.83"/><path class="w ap f" d="M81.68 50.66v-.13c-.05-.36-.12-.7-.2-1a10.07 10.07 0 0 0-.33-1.07 6.64 6.64 0 0 0-1.55-2.5 5.89 5.89 0 0 0-.86-.71c-.13-.09-.27-.16-.41-.24l-.25-.14-.55-.25-.36-.15-.56-.18-.48-.13-.57-.12-.6-.1h-.29c-.3 0-.6-.07-.92-.08h-2.52c-.29 0-.57.05-.84.1h-.27c-.31.05-.62.12-.9.19h-.08c-3.24.86-4.69 3-5.23 5.92 0 .27-.09.54-.13.83v.27c0 .25 0 .5-.07.75s0 .26 0 .4v3.31c0 .29.06.57.1.83v.14c.05.35.12.69.2 1a9.48 9.48 0 0 0 .33 1.06 6.67 6.67 0 0 0 1.55 2.5 6.4 6.4 0 0 0 .86.7 4.41 4.41 0 0 0 .41.24l.25.15c.17.09.36.17.55.25l.36.15.56.19.48.13.57.12c.2 0 .4.07.6.1l.29.05.92.08h2.52l.84-.1h.27c.32-.05.62-.11.9-.18h.07c3.24-.86 4.69-3 5.23-5.92.05-.28.1-.55.13-.83v-.27c0-.25 0-.5.07-.76s0-.26 0-.39v-1.21-1.06-.66-.37c0-.28-.06-.56-.1-.83"/><path class="w aq f" d="M81.68 72.54v-.13c-.05-.35-.12-.69-.2-1a9.93 9.93 0 0 0-.33-1.07 6.71 6.71 0 0 0-1.55-2.5 5.85 5.85 0 0 0-.86-.7 4.17 4.17 0 0 0-.41-.24l-.25-.15-.55-.25-.36-.15-.56-.18-.48-.13c-.18 0-.38-.09-.57-.12s-.4-.08-.6-.1l-.29-.05-.91-.11h-2.52c-.29 0-.57.06-.84.1h-.27c-.31.05-.62.11-.9.19h-.09c-3.24.86-4.69 3-5.23 5.92 0 .27-.09.55-.13.83v.27c0 .25 0 .5-.07.76s0 .26 0 .4V77.43c0 .28.06.56.1.83v.13c.05.36.12.7.2 1a9 9 0 0 0 .33 1.06 6.61 6.61 0 0 0 1.55 2.5 5.91 5.91 0 0 0 .86.71l.41.24.25.14.55.25.36.15.56.18.48.13.57.12.6.1h.29c.3 0 .6.07.92.08h2.52c.29 0 .57-.05.84-.1h.27c.32-.05.62-.12.9-.19h.07c3.24-.86 4.69-3 5.23-5.92.05-.27.1-.54.13-.83v-.27c0-.24 0-.5.07-.75s0-.26 0-.4v-1.21-1.06-.66-.36c0-.29-.06-.56-.1-.83"/><path class="w ar f" d="M81.68 94.42v-.13c-.05-.36-.12-.7-.2-1a10.07 10.07 0 0 0-.33-1.07 6.64 6.64 0 0 0-1.55-2.5 5.89 5.89 0 0 0-.86-.71c-.13-.09-.27-.16-.41-.24l-.25-.14-.55-.25-.36-.15-.56-.18-.48-.13-.57-.12-.6-.1h-.29c-.3 0-.6-.07-.92-.08h-2.52c-.29 0-.57.05-.84.1h-.27c-.31.05-.62.12-.9.19h-.08c-3.24.86-4.69 3-5.23 5.92 0 .27-.09.54-.13.83v.27c0 .25 0 .5-.07.75s0 .26 0 .4v3.31c0 .29.06.57.1.83v.14c.05.35.12.69.2 1a9.48 9.48 0 0 0 .33 1.06 6.67 6.67 0 0 0 1.55 2.5 6.4 6.4 0 0 0 .86.7 4.41 4.41 0 0 0 .41.24l.25.15c.17.09.36.17.55.25l.36.15.56.19.48.13.57.12c.2 0 .4.07.6.1l.29.05.92.08h2.52l.84-.1h.27c.32-.05.62-.11.9-.18h.07c3.24-.86 4.69-3 5.23-5.92.05-.28.1-.55.13-.83v-.27c0-.25 0-.5.07-.76s0-.26 0-.39v-1.21-1.06-.66-.37c0-.28-.06-.56-.1-.83"/><path class="w as f" d="M81.68 116.31v-.13c-.05-.35-.12-.69-.2-1a9.93 9.93 0 0 0-.33-1.07 6.71 6.71 0 0 0-1.55-2.5 5.85 5.85 0 0 0-.86-.7 4.17 4.17 0 0 0-.41-.24l-.25-.15-.55-.25-.36-.15-.56-.18-.48-.13c-.18 0-.38-.09-.57-.12s-.4-.08-.6-.1l-.29-.05-.92-.08h-2.52c-.29 0-.57.06-.84.1h-.27c-.31.05-.62.11-.9.19h-.08c-3.24.86-4.69 3-5.23 5.92 0 .27-.09.55-.13.83v.27c0 .25 0 .5-.07.76s0 .26 0 .4V121.23c0 .28.06.56.1.83v.13c.05.36.12.7.2 1a9 9 0 0 0 .33 1.06 6.61 6.61 0 0 0 1.55 2.5 5.91 5.91 0 0 0 .86.71l.41.24.25.14.55.25.36.15.56.18.48.13.57.12.6.1h.29c.3 0 .6.07.92.08h2.52c.29 0 .57-.05.84-.1h.27c.32-.05.62-.12.9-.19h.07c3.24-.86 4.69-3 5.23-5.92.05-.27.1-.54.13-.83v-.27c0-.24 0-.5.07-.75s0-.26 0-.4v-1.21-1.06-.66-.36c0-.29-.06-.56-.1-.83"/><path class="w at f" d="M81.68 138.18v-.13c-.05-.36-.12-.7-.2-1a10.07 10.07 0 0 0-.33-1.07 6.64 6.64 0 0 0-1.55-2.5 5.89 5.89 0 0 0-.86-.71c-.13-.09-.27-.16-.41-.24l-.25-.14-.55-.25-.36-.15-.56-.18-.47-.15-.57-.12-.6-.1h-.29c-.3 0-.6-.07-.92-.08h-2.52c-.29 0-.57.05-.84.1h-.27c-.31.05-.62.12-.9.19h-.09c-3.24.86-4.69 3-5.23 5.92 0 .27-.09.54-.13.83v.27c0 .25 0 .5-.07.75s0 .26 0 .4v3.31c0 .29.06.57.1.83v.14c.05.35.12.69.2 1a9.48 9.48 0 0 0 .33 1.06 6.67 6.67 0 0 0 1.55 2.5 6.4 6.4 0 0 0 .86.7 4.41 4.41 0 0 0 .41.24l.25.15c.17.09.36.17.55.25l.36.15.56.19.48.13.57.12c.2 0 .4.07.6.1l.29.05.92.08h2.52l.84-.1h.27c.32-.05.62-.11.9-.18h.07c3.24-.86 4.69-3 5.23-5.92.05-.28.1-.55.13-.83v-.27c0-.25 0-.5.07-.76s0-.26 0-.39v-1.21-1.06-.66-.37c0-.28-.06-.56-.1-.83"/><path class="w au f" d="M102.89 160.07v-.13c-.05-.35-.12-.69-.2-1a9.93 9.93 0 0 0-.33-1.07 6.71 6.71 0 0 0-1.55-2.5 5.85 5.85 0 0 0-.86-.7 4.17 4.17 0 0 0-.41-.24l-.25-.15-.55-.25-.36-.15-.54-.22-.48-.13c-.18 0-.38-.09-.57-.12s-.4-.08-.6-.1l-.29-.05-.92-.08h-2.52c-.29 0-.57.06-.84.1h-.27c-.31.05-.62.11-.9.19h-.07c-3.24.86-4.69 3-5.23 5.92 0 .27-.09.55-.13.83v.27c0 .25 0 .5-.07.76s0 .26 0 .4V164.95c0 .28.06.56.1.83v.13c.05.36.12.7.2 1a9 9 0 0 0 .33 1.06 6.61 6.61 0 0 0 1.55 2.5 5.91 5.91 0 0 0 .86.71l.41.24.25.14.55.25.36.15.56.18.48.13.57.12.6.1h.29c.3 0 .6.07.92.08h2.52c.29 0 .57-.05.84-.1h.27c.32-.05.62-.12.9-.19h.07c3.24-.86 4.69-3 5.23-5.92.05-.27.1-.54.13-.83v-.27c0-.24 0-.5.07-.75s0-.26 0-.4v-1.21-1.06-.66-.36c0-.29-.06-.56-.1-.83"/><path class="w av f" d="M102.89 72.54v-.13c-.05-.35-.12-.69-.2-1a9.93 9.93 0 0 0-.33-1.07 6.71 6.71 0 0 0-1.55-2.5 5.85 5.85 0 0 0-.86-.7 4.17 4.17 0 0 0-.41-.24l-.25-.15-.55-.25-.36-.15-.56-.18-.48-.13c-.18 0-.38-.09-.57-.12s-.4-.08-.6-.1l-.33-.06-.92-.08H92.4c-.29 0-.57.06-.84.1h-.27c-.31.05-.62.11-.9.19h-.07c-3.24.86-4.69 3-5.23 5.92 0 .27-.09.55-.13.83v.27c0 .25 0 .5-.07.76s0 .26 0 .4V77.45c0 .28.06.56.1.83v.13c.05.36.12.7.2 1a9 9 0 0 0 .33 1.06 6.61 6.61 0 0 0 1.55 2.5 5.91 5.91 0 0 0 .86.71l.41.24.25.14.55.25.36.15.56.18.48.13.57.12.6.1H92c.3 0 .6.07.92.08h2.52c.29 0 .57-.05.84-.1h.27c.32-.05.62-.12.9-.19h.07c3.24-.86 4.69-3 5.23-5.92.05-.27.1-.54.13-.83v-.27c0-.24 0-.5.07-.75s0-.26 0-.4V75.4v-1.06-.66-.36c0-.29-.06-.56-.1-.83"/><path class="w aw f" d="M102.89 94.42v-.13c-.05-.36-.12-.7-.2-1a10.07 10.07 0 0 0-.33-1.07 6.64 6.64 0 0 0-1.52-2.56 5.89 5.89 0 0 0-.86-.71c-.13-.09-.27-.16-.41-.24l-.25-.14-.55-.25-.36-.15-.56-.18-.48-.13-.57-.12-.6-.1h-.29c-.3 0-.6-.07-.92-.08h-2.52c-.29 0-.57.05-.84.1h-.27c-.31.05-.62.12-.9.19h-.07c-3.24.86-4.69 3-5.23 5.92 0 .27-.09.54-.13.83v.27c0 .25 0 .5-.07.75s0 .26 0 .4v3.31c0 .29.06.57.1.83v.14c.05.35.12.69.2 1a9.48 9.48 0 0 0 .33 1.06 6.67 6.67 0 0 0 1.55 2.5 6.4 6.4 0 0 0 .86.7 4.41 4.41 0 0 0 .41.24l.25.15c.17.09.36.17.55.25l.36.15.56.19.48.13.57.12c.2 0 .4.07.6.1l.29.05.92.08h2.52l.84-.1h.27c.32-.05.62-.11.9-.18h.07c3.24-.86 4.69-3 5.23-5.92.05-.28.1-.55.13-.83v-.27c0-.25 0-.5.07-.76s0-.26 0-.39v-1.21-1.06-.66-.37c0-.28-.06-.56-.1-.83"/><path class="w ax f" d="M102.89 116.31v-.13c-.05-.35-.12-.69-.2-1a9.93 9.93 0 0 0-.33-1.07 6.71 6.71 0 0 0-1.55-2.5 5.85 5.85 0 0 0-.86-.7 4.17 4.17 0 0 0-.41-.24l-.25-.15-.55-.25-.36-.15-.56-.18-.48-.13c-.18 0-.38-.09-.57-.12s-.4-.08-.6-.1l-.29-.05-.92-.08h-2.52c-.29 0-.57.06-.84.1h-.27c-.31.05-.62.11-.9.19h-.07c-3.24.86-4.69 3-5.23 5.92 0 .27-.09.55-.13.83v.27c0 .25 0 .5-.07.76s0 .26 0 .4V121.23c0 .28.06.56.1.83v.13c.05.36.12.7.2 1a9 9 0 0 0 .33 1.06 6.61 6.61 0 0 0 1.55 2.5 5.91 5.91 0 0 0 .86.71l.41.24.25.14.55.25.36.15.56.18.48.13.57.12.6.1h.29c.3 0 .6.07.92.08h2.52c.29 0 .57-.05.84-.1h.27c.32-.05.62-.12.9-.19h.07c3.24-.86 4.69-3 5.23-5.92.05-.27.1-.54.13-.83v-.27c0-.24 0-.5.07-.75s0-.26 0-.4v-1.21-1.06-.66-.36c0-.29-.06-.56-.1-.83"/><path class="w ay f" d="M102.89 138.18v-.13c-.05-.36-.12-.7-.2-1a10.07 10.07 0 0 0-.33-1.07 6.64 6.64 0 0 0-1.55-2.5 5.89 5.89 0 0 0-.86-.71c-.13-.09-.27-.16-.41-.24l-.25-.14-.55-.25-.36-.15-.56-.18-.48-.13-.57-.12-.6-.1h-.29c-.3 0-.6-.07-.92-.08h-2.52c-.29 0-.57.05-.84.1h-.27c-.31.05-.62.12-.9.19h-.07c-3.24.86-4.69 3-5.23 5.92 0 .27-.09.54-.13.83v.27c0 .25 0 .5-.07.75s0 .26 0 .4v3.31c0 .29.06.57.1.83v.14c.05.35.12.69.2 1a9.48 9.48 0 0 0 .33 1.06 6.67 6.67 0 0 0 1.55 2.5 6.4 6.4 0 0 0 .86.7 4.41 4.41 0 0 0 .41.24l.25.15c.17.09.36.17.55.25l.36.15.56.19.48.13.57.12c.2 0 .4.07.6.1l.29.05.92.08h2.52l.84-.1h.27c.32-.05.62-.11.9-.18h.07c3.24-.86 4.69-3 5.23-5.92.05-.28.1-.55.13-.83v-.27c0-.25 0-.5.07-.76s0-.26 0-.39v-1.21-1.06-.66-.37c0-.28-.06-.56-.1-.83"/><path class="w az f" d="M124.11 160.07v-.13c-.05-.35-.12-.69-.2-1a9.93 9.93 0 0 0-.33-1.07 6.71 6.71 0 0 0-1.55-2.5 5.85 5.85 0 0 0-.86-.7 4.17 4.17 0 0 0-.41-.24l-.25-.15-.55-.25-.36-.15-.56-.18-.48-.13c-.18 0-.38-.09-.57-.12s-.4-.08-.6-.1l-.29-.05-.92-.08h-2.52c-.29 0-.57.06-.84.1h-.27c-.31.05-.62.11-.9.19h-.07c-3.24.86-4.69 3-5.23 5.92 0 .27-.09.55-.13.83v.27c0 .25 0 .5-.07.76s0 .26 0 .4V164.99c0 .28.06.56.1.83v.13c.05.36.12.7.2 1a9 9 0 0 0 .33 1.06 6.61 6.61 0 0 0 1.55 2.5 5.91 5.91 0 0 0 .86.71l.41.24.25.14.55.25.36.15.56.18.48.13.57.12.6.1h.29c.3 0 .6.07.92.08h2.52c.29 0 .57-.05.84-.1h.27c.32-.05.62-.12.9-.19h.07c3.24-.86 4.69-3 5.23-5.92.05-.27.1-.54.13-.83v-.27c0-.24 0-.5.07-.75s0-.26 0-.4v-1.21-1.06-.66-.36c0-.29-.06-.56-.1-.83"/><path class="w ba f" d="M124.11 72.54v-.13c-.05-.35-.12-.69-.2-1a9.93 9.93 0 0 0-.33-1.07 6.71 6.71 0 0 0-1.55-2.5 5.85 5.85 0 0 0-.86-.7 4.17 4.17 0 0 0-.41-.24l-.25-.15-.55-.25-.36-.15-.56-.18-.48-.13c-.18 0-.38-.09-.57-.12s-.4-.08-.6-.1l-.29-.05-.92-.08h-2.52c-.29 0-.57.06-.84.1h-.27c-.31.05-.62.11-.9.19h-.07c-3.24.86-4.69 3-5.23 5.92 0 .27-.09.55-.13.83V73c0 .25 0 .5-.07.76s0 .26 0 .4V77.46c0 .28.06.56.1.83v.13c.05.36.12.7.2 1a9 9 0 0 0 .33 1.06 6.61 6.61 0 0 0 1.55 2.5 5.91 5.91 0 0 0 .86.71l.41.24.25.14.55.25.36.15.56.18.48.13.57.12.6.1h.29c.3 0 .6.07.92.08h2.52c.29 0 .57-.05.84-.1h.27c.32-.05.62-.12.9-.19h.07c3.24-.86 4.69-3 5.23-5.92.05-.27.1-.54.13-.83v-.27c0-.24 0-.5.07-.75s0-.26 0-.4v-1.21-1.06-.66-.36c0-.29-.06-.56-.1-.83"/><path class="w bb f" d="M124.11 94.42v-.13c-.05-.36-.12-.7-.2-1a10.06 10.06 0 0 0-.33-1.07 6.64 6.64 0 0 0-1.55-2.5 5.89 5.89 0 0 0-.86-.71c-.13-.09-.27-.16-.41-.24l-.25-.14-.55-.25-.36-.15-.56-.18-.48-.13-.57-.12-.6-.1h-.29c-.3 0-.6-.07-.92-.08h-2.52c-.29 0-.57.05-.84.1h-.27c-.31.05-.62.12-.9.19h-.07c-3.24.86-4.69 3-5.23 5.92 0 .27-.09.54-.13.83v.27c0 .25 0 .5-.07.75s0 .26 0 .4v3.31c0 .29.06.57.1.83v.14c.05.35.12.69.2 1a9.48 9.48 0 0 0 .33 1.06 6.67 6.67 0 0 0 1.55 2.5 6.4 6.4 0 0 0 .86.7 4.41 4.41 0 0 0 .41.24l.25.15c.17.09.36.17.55.25l.36.15.56.19.48.13.57.12c.2 0 .4.07.6.1l.29.05.92.08h2.52l.84-.1h.27c.32-.05.62-.11.9-.18h.07c3.24-.86 4.69-3 5.23-5.92.05-.28.1-.55.13-.83v-.27c0-.25 0-.5.07-.76s0-.26 0-.39v-1.21-1.06-.66-.37c0-.28-.06-.56-.1-.83"/><path class="w bc f" d="M124.11 116.31v-.13c-.05-.35-.12-.69-.2-1a9.93 9.93 0 0 0-.33-1.07 6.71 6.71 0 0 0-1.55-2.5 5.85 5.85 0 0 0-.86-.7 4.17 4.17 0 0 0-.41-.24l-.25-.15-.55-.25-.36-.15-.56-.18-.48-.13c-.18 0-.38-.09-.57-.12s-.4-.08-.6-.1l-.29-.05-.92-.08h-2.52c-.29 0-.57.06-.84.1h-.27c-.31.05-.62.11-.9.19h-.07c-3.24.86-4.69 3-5.23 5.92 0 .27-.09.55-.13.83v.27c0 .25 0 .5-.07.76s0 .26 0 .4V121.23c0 .28.06.56.1.83v.13c.05.36.12.7.2 1a9 9 0 0 0 .33 1.06 6.61 6.61 0 0 0 1.55 2.5 5.91 5.91 0 0 0 .86.71l.41.24.25.14.55.25.36.15.56.18.48.13.57.12.6.1h.29c.3 0 .6.07.92.08h2.52c.29 0 .57-.05.84-.1h.27c.32-.05.62-.12.9-.19h.07c3.24-.86 4.69-3 5.23-5.92.05-.27.1-.54.13-.83v-.27c0-.24 0-.5.07-.75s0-.26 0-.4v-1.21-1.06-.66-.36c0-.29-.06-.56-.1-.83"/><path class="w bd f" d="M124.11 138.18v-.13c-.05-.36-.12-.7-.2-1a10.06 10.06 0 0 0-.33-1.07 6.64 6.64 0 0 0-1.55-2.5 5.89 5.89 0 0 0-.86-.71c-.13-.09-.27-.16-.41-.24l-.25-.14-.55-.25-.36-.15-.56-.18-.48-.13-.57-.12-.6-.1h-.29c-.3 0-.6-.07-.92-.08h-2.52c-.29 0-.57.05-.84.1h-.27c-.31.05-.62.12-.9.19h-.07c-3.24.86-4.69 3-5.23 5.92 0 .27-.09.54-.13.83v.27c0 .25 0 .5-.07.75s0 .26 0 .4v3.31c0 .29.06.57.1.83v.14c.05.35.12.69.2 1a9.48 9.48 0 0 0 .33 1.06 6.67 6.67 0 0 0 1.55 2.5 6.4 6.4 0 0 0 .86.7 4.41 4.41 0 0 0 .41.24l.25.15c.17.09.36.17.55.25l.36.15.56.19.48.13.57.12c.2 0 .4.07.6.1l.29.05.92.08h2.52l.84-.1h.27c.32-.05.62-.11.9-.18h.07c3.24-.86 4.69-3 5.23-5.92.05-.28.1-.55.13-.83v-.27c0-.25 0-.5.07-.76s0-.26 0-.39v-1.21-1.06-.66-.37c0-.28-.06-.56-.1-.83"/><path class="w be f" d="M145.32 94.42v-.13c-.05-.36-.12-.7-.2-1a10.06 10.06 0 0 0-.33-1.07 6.64 6.64 0 0 0-1.55-2.5 5.89 5.89 0 0 0-.86-.71c-.13-.09-.27-.16-.41-.24l-.25-.14-.55-.25-.36-.15-.56-.18-.48-.13-.57-.12-.6-.1h-.29c-.3 0-.6-.07-.92-.08h-2.52c-.29 0-.57.05-.84.1h-.27c-.31.05-.62.12-.9.19h-.07c-3.24.86-4.69 3-5.23 5.92 0 .27-.09.54-.13.83v.27c0 .25 0 .5-.07.75s0 .26 0 .4v3.31c0 .29.06.57.1.83v.14c.05.35.12.69.2 1a9.48 9.48 0 0 0 .33 1.06 6.67 6.67 0 0 0 1.55 2.5 6.4 6.4 0 0 0 .86.7 4.41 4.41 0 0 0 .41.24l.25.15c.17.09.36.17.55.25l.36.15.56.19.48.13.57.12c.2 0 .4.07.6.1l.29.05.92.08h2.52l.84-.1h.27c.32-.05.62-.11.9-.18h.07c3.24-.86 4.69-3 5.23-5.92.05-.28.1-.55.13-.83v-.27c0-.25 0-.5.07-.76s0-.26 0-.39v-1.21-1.06-.66-.37c0-.28-.06-.56-.1-.83"/><path class="w bf f" d="M145.32 116.31v-.13c-.05-.35-.12-.69-.2-1a9.93 9.93 0 0 0-.33-1.07 6.71 6.71 0 0 0-1.55-2.5 5.85 5.85 0 0 0-.86-.7 4.17 4.17 0 0 0-.41-.24l-.25-.15-.55-.25-.36-.15-.56-.18-.48-.13c-.18 0-.38-.09-.57-.12s-.4-.08-.6-.1l-.29-.05-.92-.08h-2.52c-.29 0-.57.06-.84.1h-.27c-.31.05-.62.11-.9.19h-.07c-3.24.86-4.69 3-5.23 5.92 0 .27-.09.55-.13.83v.27c0 .25 0 .5-.07.76s0 .26 0 .4V121.23c0 .28.06.56.1.83v.13c.05.36.12.7.2 1a9 9 0 0 0 .33 1.06 6.61 6.61 0 0 0 1.55 2.5 5.91 5.91 0 0 0 .86.71l.41.24.25.14.55.25.36.15.56.18.48.13.57.12.6.1h.29c.3 0 .6.07.92.08h2.52c.29 0 .57-.05.84-.1h.27c.32-.05.62-.12.9-.19h.07c3.24-.86 4.69-3 5.23-5.92.05-.27.1-.54.13-.83v-.27c0-.24 0-.5.07-.75s0-.26 0-.4v-1.21-1.06-.66-.36c0-.29-.06-.56-.1-.83"/><path class="w bg f" d="M145.32 138.18v-.13c-.05-.36-.12-.7-.2-1a10.06 10.06 0 0 0-.33-1.07 6.64 6.64 0 0 0-1.55-2.5 5.89 5.89 0 0 0-.86-.71c-.13-.09-.27-.16-.41-.24l-.25-.14-.55-.25-.36-.15-.56-.18-.48-.13-.57-.12-.6-.1h-.29c-.3 0-.6-.07-.92-.08h-2.52c-.29 0-.57.05-.84.1h-.27c-.31.05-.62.12-.9.19h-.07c-3.24.86-4.69 3-5.23 5.92 0 .27-.09.54-.13.83v.27c0 .25 0 .5-.07.75s0 .26 0 .4v3.31c0 .29.06.57.1.83v.14c.05.35.12.69.2 1a9.48 9.48 0 0 0 .33 1.06 6.67 6.67 0 0 0 1.55 2.5 6.4 6.4 0 0 0 .86.7 4.41 4.41 0 0 0 .41.24l.25.15c.17.09.36.17.55.25l.36.15.56.19.48.13.57.12c.2 0 .4.07.6.1l.29.05.92.08h2.52l.84-.1h.27c.32-.05.62-.11.9-.18h.07c3.24-.86 4.69-3 5.23-5.92.05-.28.1-.55.13-.83v-.27c0-.25 0-.5.07-.76s0-.26 0-.39v-1.21-1.06-.66-.37c0-.28-.06-.56-.1-.83"/><path class="w bh f" d="M166.53 94.42v-.13c-.05-.36-.12-.7-.2-1a10.06 10.06 0 0 0-.33-1.07 6.64 6.64 0 0 0-1.55-2.5 5.89 5.89 0 0 0-.86-.71c-.13-.09-.27-.16-.41-.24l-.25-.14-.55-.25-.36-.15-.56-.18-.48-.13-.57-.12-.6-.1h-.29c-.3 0-.6-.07-.92-.08h-2.52c-.29 0-.57.05-.84.1h-.27c-.31.05-.62.12-.9.19H154c-3.24.86-4.69 3-5.23 5.92 0 .27-.09.54-.13.83v.27c0 .25 0 .5-.07.75s0 .26 0 .4v3.31c0 .29.06.57.1.83v.14c.05.35.12.69.2 1a9.48 9.48 0 0 0 .33 1.06 6.67 6.67 0 0 0 1.55 2.5 6.4 6.4 0 0 0 .86.7 4.41 4.41 0 0 0 .41.24l.25.15c.17.09.36.17.55.25l.36.15.56.19.48.13.57.12c.2 0 .4.07.6.1l.29.05.92.08h2.52l.84-.1h.27c.32-.05.62-.11.9-.18h.07c3.24-.86 4.69-3 5.23-5.92.05-.28.1-.55.13-.83v-.27c0-.25 0-.5.07-.76s0-.26 0-.39v-1.21-1.06-.66-.37c0-.28-.06-.56-.1-.83"/><path class="w bi f" d="M166.53 116.31v-.13c-.05-.35-.12-.69-.2-1a9.93 9.93 0 0 0-.33-1.07 6.71 6.71 0 0 0-1.55-2.5 5.85 5.85 0 0 0-.86-.7 4.17 4.17 0 0 0-.41-.24l-.25-.15-.55-.25-.36-.15-.56-.18-.48-.13c-.18 0-.38-.09-.57-.12s-.4-.08-.6-.1l-.29-.05-.92-.08h-2.52c-.29 0-.57.06-.84.1h-.27c-.31.05-.62.11-.9.19H154c-3.24.86-4.69 3-5.23 5.92 0 .27-.09.55-.13.83v.27c0 .25 0 .5-.07.76s0 .26 0 .4V121.23c0 .28.06.56.1.83v.13c.05.36.12.7.2 1a9 9 0 0 0 .33 1.06 6.61 6.61 0 0 0 1.55 2.5 5.91 5.91 0 0 0 .86.71l.41.24.25.14.55.25.36.15.56.18.48.13.57.12.6.1h.29c.3 0 .6.07.92.08h2.52c.29 0 .57-.05.84-.1h.27c.32-.05.62-.12.9-.19h.07c3.24-.86 4.69-3 5.23-5.92.05-.27.1-.54.13-.83v-.27c0-.24 0-.5.07-.75s0-.26 0-.4v-1.21-1.06-.66-.36c0-.29-.06-.56-.1-.83"/><path class="w bj f" d="M166.53 138.18v-.13c-.05-.36-.12-.7-.2-1a10.06 10.06 0 0 0-.33-1.07 6.64 6.64 0 0 0-1.55-2.5 5.89 5.89 0 0 0-.86-.71c-.13-.09-.27-.16-.41-.24l-.25-.14-.55-.25-.36-.15-.56-.18-.48-.13-.57-.12-.6-.1h-.29c-.3 0-.6-.07-.92-.08h-2.52c-.29 0-.57.05-.84.1h-.27c-.31.05-.62.12-.9.19H154c-3.24.86-4.69 3-5.23 5.92 0 .27-.09.54-.13.83v.27c0 .25 0 .5-.07.75s0 .26 0 .4v3.31c0 .29.06.57.1.83v.14c.05.35.12.69.2 1a9.48 9.48 0 0 0 .33 1.06 6.67 6.67 0 0 0 1.55 2.5 6.4 6.4 0 0 0 .86.7 4.41 4.41 0 0 0 .41.24l.25.15c.17.09.36.17.55.25l.36.15.56.19.48.13.57.12c.2 0 .4.07.6.1l.29.05.92.08h2.52l.84-.1h.27c.32-.05.62-.11.9-.18h.07c3.24-.86 4.69-3 5.23-5.92.05-.28.1-.55.13-.83v-.27c0-.25 0-.5.07-.76s0-.26 0-.39v-1.21-1.06-.66-.37c0-.28-.06-.56-.1-.83"/><path class="w bk f" d="M187.75 116.31v-.13c-.05-.35-.12-.69-.2-1a9.93 9.93 0 0 0-.33-1.07 6.71 6.71 0 0 0-1.55-2.5 5.85 5.85 0 0 0-.86-.7 4.17 4.17 0 0 0-.41-.24l-.25-.15-.55-.25-.36-.15-.56-.18-.48-.13c-.18 0-.38-.09-.57-.12s-.4-.08-.6-.1l-.29-.05-.92-.08h-2.52c-.29 0-.57.06-.84.1h-.27c-.31.05-.62.11-.9.19h-.07c-3.24.86-4.69 3-5.23 5.92 0 .27-.09.55-.13.83v.27c0 .25 0 .5-.07.76s0 .26 0 .4V121.23c0 .28.06.56.1.83v.13c.05.36.12.7.2 1a9 9 0 0 0 .33 1.06 6.61 6.61 0 0 0 1.55 2.5 5.91 5.91 0 0 0 .86.71l.41.24.25.14.55.25.36.15.56.18.48.13.57.12.6.1h.29c.3 0 .6.07.92.08h2.52c.29 0 .57-.05.84-.1h.27c.32-.05.62-.12.9-.19h.07c3.24-.86 4.69-3 5.23-5.92.05-.27.1-.54.13-.83v-.27c0-.24 0-.5.07-.75s0-.26 0-.4v-1.21-1.06-.66-.36c0-.29-.06-.56-.1-.83"/></g><path class="d bl f" d="M187.75 138.18v-.13c-.05-.36-.12-.7-.2-1a10.06 10.06 0 0 0-.33-1.07 6.64 6.64 0 0 0-1.55-2.5 5.89 5.89 0 0 0-.86-.71c-.13-.09-.27-.16-.41-.24l-.25-.14-.55-.25-.36-.15-.56-.18-.48-.13-.57-.12-.6-.1h-.29c-.3 0-.6-.07-.92-.08h-2.52c-.29 0-.57.05-.84.1h-.27c-.31.05-.62.12-.9.19h-.07c-3.24.86-4.69 3-5.23 5.92 0 .27-.09.54-.13.83v.27c0 .25 0 .5-.07.75s0 .26 0 .4v3.31c0 .29.06.57.1.83v.14c.05.35.12.69.2 1a9.48 9.48 0 0 0 .33 1.06 6.67 6.67 0 0 0 1.55 2.5 6.4 6.4 0 0 0 .86.7 4.41 4.41 0 0 0 .41.24l.25.15c.17.09.36.17.55.25l.36.15.56.19.48.13.57.12c.2 0 .4.07.6.1l.29.05.92.08h2.52l.84-.1h.27c.32-.05.62-.11.9-.18h.07c3.24-.86 4.69-3 5.23-5.92.05-.28.1-.55.13-.83v-.27c0-.25 0-.5.07-.76s0-.26 0-.39v-1.21-1.06-.66-.37c0-.28-.06-.56-.1-.83"/><path class="bm bn f" d="M18.04 160.07v-.13c-.05-.35-.12-.69-.2-1a9.93 9.93 0 0 0-.33-1.07 6.71 6.71 0 0 0-1.55-2.5 5.85 5.85 0 0 0-.86-.7 4.17 4.17 0 0 0-.41-.24l-.25-.15-.55-.25-.36-.15-.56-.18-.48-.13c-.18 0-.38-.09-.57-.12s-.4-.08-.6-.1l-.29-.05-.92-.08H7.59c-.29 0-.57.06-.84.1h-.27c-.31.05-.62.11-.9.19h-.07c-3.24.86-4.69 3-5.23 5.92 0 .27-.09.55-.13.83v.27c0 .25 0 .5-.07.76s0 .26 0 .4V164.99c0 .28.06.56.1.83v.13c.05.36.12.7.2 1a9 9 0 0 0 .33 1.06 6.61 6.61 0 0 0 1.55 2.5 5.91 5.91 0 0 0 .86.71l.41.24.25.14.55.25.36.15.56.18.48.13.57.12.6.1h.29c.3 0 .6.07.92.08h2.52c.29 0 .57-.05.84-.1h.27c.32-.05.62-.12.9-.19h.07c3.24-.86 4.69-3 5.23-5.92.05-.27.1-.54.13-.83v-.27c0-.24 0-.5.07-.75s0-.26 0-.4v-1.21-1.06-.66-.36c0-.29-.06-.56-.1-.83"/><path class="bm bo f" d="M18.04 6.88v-.13c-.05-.36-.12-.7-.2-1a10.07 10.07 0 0 0-.35-1.09 6.64 6.64 0 0 0-1.55-2.5 5.89 5.89 0 0 0-.86-.71c-.13-.09-.27-.16-.41-.24l-.25-.14-.55-.25-.34-.16-.56-.18-.48-.13-.57-.12-.6-.1h-.29c-.3 0-.6-.07-.92-.08H7.59c-.29 0-.57.05-.84.1h-.27c-.31.05-.62.12-.9.19h-.07C2.27 1.2.82 3.34.28 6.26c0 .27-.09.54-.13.83v.27c0 .25 0 .5-.07.75s0 .26 0 .4v3.31c0 .29.06.57.1.83v.14c.05.35.12.69.2 1a9.48 9.48 0 0 0 .33 1.06 6.67 6.67 0 0 0 1.55 2.5 6.4 6.4 0 0 0 .86.7 4.41 4.41 0 0 0 .41.24l.25.15c.17.09.36.17.55.25l.36.15.56.19.48.13.57.12c.2 0 .4.07.6.1l.29.05.92.08h2.52l.84-.1h.27c.32-.05.62-.11.9-.18h.07c3.24-.86 4.69-3 5.23-5.92.05-.28.1-.55.13-.83v-.27c0-.25 0-.5.07-.76s0-.26 0-.39V9.85 8.79v-.66-.37c0-.28-.06-.56-.1-.83"/><path class="bm bp f" d="M18.04 181.95v-.13c-.05-.36-.12-.7-.2-1a10.07 10.07 0 0 0-.33-1.07 6.64 6.64 0 0 0-1.55-2.5 5.89 5.89 0 0 0-.86-.71c-.13-.09-.27-.16-.41-.24l-.25-.14-.55-.25-.36-.15-.56-.18-.48-.13-.57-.12-.6-.1h-.29c-.3 0-.6-.07-.92-.08H7.59c-.29 0-.57.05-.84.1h-.27c-.31.05-.62.12-.9.19h-.07c-3.24.86-4.69 3-5.23 5.92 0 .27-.09.54-.13.83v.27c0 .25 0 .5-.07.75s0 .26 0 .4v3.31c0 .29.06.57.1.83v.14c.05.35.12.69.2 1a9.48 9.48 0 0 0 .33 1.06 6.67 6.67 0 0 0 1.55 2.5 6.4 6.4 0 0 0 .86.7 4.41 4.41 0 0 0 .41.24l.25.15c.17.09.36.17.55.25l.36.15.56.19.48.13.57.12c.2 0 .4.07.6.1l.29.05.92.08h2.52l.84-.1h.27c.32-.05.62-.11.9-.18h.07c3.24-.86 4.69-3 5.23-5.92.05-.28.1-.55.13-.83v-.27c0-.25 0-.5.07-.76s0-.26 0-.39v-1.21-1.06-.66-.37c0-.28-.06-.56-.1-.83"/><path class="bm bq f" d="M18.04 28.78v-.13c-.05-.35-.12-.69-.2-1a9.93 9.93 0 0 0-.33-1.07 6.71 6.71 0 0 0-1.55-2.5 5.85 5.85 0 0 0-.86-.7 4.17 4.17 0 0 0-.41-.24l-.25-.15-.55-.25-.36-.15-.56-.18-.48-.13c-.18 0-.38-.09-.57-.12s-.4-.08-.6-.1l-.29-.05-.92-.08H7.59c-.29 0-.57.06-.84.1h-.27c-.31.05-.62.11-.9.19h-.07c-3.24.86-4.69 3-5.23 5.92 0 .27-.09.55-.13.83v.27c0 .25 0 .5-.07.76s0 .26 0 .4V33.7c0 .28.06.56.1.83v.13c.05.36.12.7.2 1a9 9 0 0 0 .33 1.06 6.61 6.61 0 0 0 1.55 2.5 5.91 5.91 0 0 0 .86.71l.41.24.25.14.55.25.36.15.56.18.48.13.57.12.6.1h.29c.3 0 .6.07.92.08h2.52c.29 0 .57-.05.84-.1h.27c.32-.05.62-.12.9-.19h.07c3.24-.86 4.69-3 5.23-5.92.05-.27.1-.54.13-.83v-.27c0-.24 0-.5.07-.75s0-.26 0-.4v-1.21-1.06-.66-.36c0-.29-.06-.56-.1-.83"/><path class="bm br f" d="M18.04 203.83v-.13c-.05-.35-.12-.69-.2-1a9.93 9.93 0 0 0-.33-1.07 6.71 6.71 0 0 0-1.55-2.5 5.85 5.85 0 0 0-.86-.7 4.17 4.17 0 0 0-.41-.24l-.25-.15-.55-.25-.36-.15-.56-.18-.48-.13c-.18 0-.38-.09-.57-.12s-.4-.08-.6-.1l-.29-.05-.92-.08H7.59c-.29 0-.57.06-.84.1h-.27c-.31.05-.62.11-.9.19h-.07c-3.24.86-4.69 3-5.23 5.92 0 .27-.09.55-.13.83v.27c0 .25 0 .5-.07.76s0 .26 0 .4V208.75c0 .28.06.56.1.83v.13c.05.36.12.7.2 1a9 9 0 0 0 .33 1.06 6.61 6.61 0 0 0 1.55 2.5 5.91 5.91 0 0 0 .86.71l.41.24.25.14.55.25.36.15.56.18.48.13.57.12.6.1h.29c.3 0 .6.07.92.08h2.52c.29 0 .57-.05.84-.1h.27c.32-.05.62-.12.9-.19h.07c3.24-.86 4.69-3 5.23-5.92.05-.27.1-.54.13-.83v-.27c0-.24 0-.5.07-.75s0-.26 0-.4v-1.21-1.06-.66-.36c0-.29-.06-.56-.1-.83"/><path class="bm bs f" d="M18.04 50.66v-.13c-.05-.36-.12-.7-.2-1a10.07 10.07 0 0 0-.33-1.07 6.64 6.64 0 0 0-1.55-2.5 5.89 5.89 0 0 0-.86-.71c-.13-.09-.27-.16-.41-.24l-.25-.14-.55-.25-.36-.15-.56-.18-.48-.13-.57-.12-.6-.1h-.29c-.3 0-.6-.07-.92-.08H7.59c-.29 0-.57.05-.84.1h-.27c-.31.05-.62.12-.9.19h-.07c-3.24.86-4.69 3-5.23 5.92 0 .27-.09.54-.13.83v.27c0 .25 0 .5-.07.75s0 .26 0 .4v3.31c0 .29.06.57.1.83v.14c.05.35.12.69.2 1a9.48 9.48 0 0 0 .33 1.06 6.67 6.67 0 0 0 1.55 2.5 6.4 6.4 0 0 0 .86.7 4.41 4.41 0 0 0 .41.24l.25.15c.17.09.36.17.55.25l.36.15.56.19.48.13.57.12c.2 0 .4.07.6.1l.29.05.92.08h2.52l.84-.1h.27c.32-.05.62-.11.9-.18h.07c3.24-.86 4.69-3 5.23-5.92.05-.28.1-.55.13-.83v-.27c0-.25 0-.5.07-.76s0-.26 0-.39v-1.21-1.06-.66-.37c0-.28-.06-.56-.1-.83"/><path class="bm bt f" d="M18.04 225.71v-.13c-.05-.36-.12-.7-.2-1a10.07 10.07 0 0 0-.33-1.07 6.64 6.64 0 0 0-1.55-2.5 5.89 5.89 0 0 0-.86-.71c-.13-.09-.27-.16-.41-.24l-.25-.14-.55-.25-.36-.15-.56-.18-.48-.13-.57-.12-.6-.1h-.29c-.3 0-.6-.07-.92-.08H7.59c-.29 0-.57.05-.84.1h-.27c-.31.05-.62.12-.9.19h-.07c-3.24.86-4.69 3-5.23 5.92 0 .27-.09.54-.13.83v.27c0 .25 0 .5-.07.75s0 .26 0 .4v3.31c0 .29.06.57.1.83v.14c.05.35.12.69.2 1a9.48 9.48 0 0 0 .33 1.06 6.67 6.67 0 0 0 1.55 2.5 6.4 6.4 0 0 0 .86.7 4.41 4.41 0 0 0 .41.24l.25.15c.17.09.36.17.55.25l.36.15.56.19.48.13.57.12c.2 0 .4.07.6.1l.29.05.92.08h2.52l.84-.1h.27c.32-.05.62-.11.9-.18h.07c3.24-.86 4.69-3 5.23-5.92.05-.28.1-.55.13-.83v-.27c0-.25 0-.5.07-.76s0-.26 0-.39v-1.21-1.06-.66-.37c0-.28-.06-.56-.1-.83"/><path class="bm bu f" d="M18.04 72.54v-.13c-.05-.35-.12-.69-.2-1a9.93 9.93 0 0 0-.33-1.07 6.71 6.71 0 0 0-1.55-2.5 5.85 5.85 0 0 0-.86-.7 4.17 4.17 0 0 0-.41-.24l-.25-.15-.55-.25-.36-.15-.56-.18-.48-.13c-.18 0-.38-.09-.57-.12s-.4-.08-.6-.1l-.29-.05-.91-.11H7.6c-.29 0-.57.06-.84.1h-.27c-.31.05-.62.11-.9.19h-.07c-3.24.86-4.69 3-5.23 5.92 0 .27-.09.55-.13.83v.27c0 .25 0 .5-.07.76s0 .26 0 .4V77.43c0 .28.06.56.1.83v.13c.05.36.12.7.2 1a9 9 0 0 0 .33 1.06 6.61 6.61 0 0 0 1.55 2.5 5.91 5.91 0 0 0 .86.71l.41.24.25.14.55.25.36.15.56.18.48.13.57.12.6.1h.29c.3 0 .6.07.92.08h2.52c.29 0 .57-.05.84-.1h.27c.32-.05.62-.12.9-.19h.07c3.24-.86 4.69-3 5.23-5.92.05-.27.1-.54.13-.83v-.27c0-.24 0-.5.07-.75s0-.26 0-.4v-1.21-1.06-.66-.36c0-.29-.06-.56-.1-.83"/><path class="bm bv f" d="M18.04 94.42v-.13c-.05-.36-.12-.7-.2-1a10.07 10.07 0 0 0-.33-1.07 6.64 6.64 0 0 0-1.55-2.5 5.89 5.89 0 0 0-.86-.71c-.13-.09-.27-.16-.41-.24l-.25-.11-.55-.25-.36-.15-.56-.18-.48-.13-.57-.12-.6-.1h-.29c-.3 0-.6-.07-.92-.08H7.59c-.29 0-.57.05-.84.1h-.27c-.31.05-.62.12-.9.19h-.07c-3.24.86-4.69 3-5.23 5.92 0 .27-.09.54-.13.83v.27c0 .25 0 .5-.07.75s0 .26 0 .4v3.31c0 .29.06.57.1.83v.14c.05.35.12.69.2 1a9.48 9.48 0 0 0 .33 1.06 6.67 6.67 0 0 0 1.55 2.5 6.4 6.4 0 0 0 .86.7 4.41 4.41 0 0 0 .41.24l.25.15c.17.09.36.17.55.25l.36.15.56.19.48.13.57.12c.2 0 .4.07.6.1l.29.05.92.08h2.52l.84-.1h.27c.32-.05.62-.11.9-.18h.07c3.24-.86 4.69-3 5.23-5.92.05-.28.1-.55.13-.83v-.27c0-.25 0-.5.07-.76s0-.26 0-.39v-1.21-1.06-.66-.37c0-.28-.06-.56-.1-.83"/><path class="bm bw f" d="M18.04 116.31v-.13c-.05-.35-.12-.69-.2-1a9.93 9.93 0 0 0-.33-1.07 6.71 6.71 0 0 0-1.55-2.5 5.85 5.85 0 0 0-.86-.7 4.17 4.17 0 0 0-.41-.24l-.25-.15-.55-.25-.36-.15-.56-.18-.48-.13c-.18 0-.38-.09-.57-.12s-.4-.08-.6-.1l-.29-.05-.92-.08H7.59c-.29 0-.57.06-.84.1h-.27c-.31.05-.62.11-.9.19h-.07c-3.24.86-4.69 3-5.23 5.92 0 .27-.09.55-.13.83v.27c0 .25 0 .5-.07.76s0 .26 0 .4V121.23c0 .28.06.56.1.83v.13c.05.36.12.7.2 1a9 9 0 0 0 .33 1.06 6.61 6.61 0 0 0 1.55 2.5 5.91 5.91 0 0 0 .86.71l.41.24.25.14.55.25.36.15.56.18.48.13.57.12.6.1h.29c.3 0 .6.07.92.08h2.52c.29 0 .57-.05.84-.1h.27c.32-.05.62-.12.9-.19h.07c3.24-.86 4.69-3 5.23-5.92.05-.27.1-.54.13-.83v-.27c0-.24 0-.5.07-.75s0-.26 0-.4v-1.21-1.06-.66-.36c0-.29-.06-.56-.1-.83"/><path class="bm bx f" d="M18.04 138.18v-.13c-.05-.36-.12-.7-.2-1a10.07 10.07 0 0 0-.33-1.07 6.64 6.64 0 0 0-1.55-2.5 5.89 5.89 0 0 0-.86-.71c-.13-.09-.27-.16-.41-.24l-.25-.14-.55-.25-.36-.15-.56-.18-.48-.13-.57-.12-.6-.1h-.29c-.3 0-.6-.07-.92-.08H7.59c-.29 0-.57.05-.84.1h-.27c-.31.05-.62.12-.9.19h-.07c-3.24.86-4.69 3-5.23 5.92 0 .27-.09.54-.13.83v.27c0 .25 0 .5-.07.75s0 .26 0 .4v3.31c0 .29.06.57.1.83v.14c.05.35.12.69.2 1a9.48 9.48 0 0 0 .33 1.06 6.67 6.67 0 0 0 1.55 2.5 6.4 6.4 0 0 0 .86.7 4.4 4.4 0 0 0 .41.24l.25.15c.17.09.36.17.55.25l.36.15.56.19.48.13.57.12c.2 0 .4.07.6.1l.29.05.92.08h2.52l.84-.1h.27c.32-.05.62-.11.9-.18h.07c3.24-.86 4.69-3 5.23-5.92.05-.28.1-.55.13-.83v-.27c0-.25 0-.5.07-.76s0-.26 0-.39v-1.21-1.06-.66-.37c0-.28-.06-.56-.1-.83"/><path class="bm by f" d="M60.46 225.71v-.13c-.05-.36-.12-.7-.2-1a10.07 10.07 0 0 0-.33-1.07 6.64 6.64 0 0 0-1.55-2.5 5.89 5.89 0 0 0-.86-.71c-.13-.09-.27-.16-.41-.24l-.25-.14-.55-.25-.36-.15-.56-.18-.48-.13-.57-.12-.6-.1h-.29c-.3 0-.6-.07-.92-.08h-2.52c-.29 0-.57.05-.84.1h-.27c-.31.05-.62.12-.9.19h-.07c-3.24.86-4.69 3-5.23 5.92 0 .27-.09.54-.13.83v.27c0 .25 0 .5-.07.75s0 .26 0 .4v3.31c0 .29.06.57.1.83v.14c.05.35.12.69.2 1a9.48 9.48 0 0 0 .33 1.06 6.67 6.67 0 0 0 1.55 2.5 6.4 6.4 0 0 0 .86.7 4.41 4.41 0 0 0 .41.24l.25.15c.17.09.36.17.55.25l.36.15.56.19.48.13.57.12c.2 0 .4.07.6.1l.29.05.92.08h2.52l.84-.1h.27c.32-.05.62-.11.9-.18h.07c3.24-.86 4.69-3 5.23-5.92.05-.28.1-.55.13-.83v-.27c0-.25 0-.5.07-.76s0-.26 0-.39v-1.21-1.06-.66-.37c0-.28-.06-.56-.1-.83"/><path class="bm bz f" d="M102.89 203.83v-.13c-.05-.35-.12-.69-.2-1a9.93 9.93 0 0 0-.33-1.07 6.71 6.71 0 0 0-1.55-2.5 5.85 5.85 0 0 0-.86-.7 4.17 4.17 0 0 0-.41-.24l-.25-.15-.55-.25-.36-.15-.56-.18-.48-.13c-.18 0-.38-.09-.57-.12s-.4-.08-.6-.1l-.29-.05-.92-.08h-2.52c-.29 0-.57.06-.84.1h-.27c-.31.05-.62.11-.9.19h-.07c-3.24.86-4.69 3-5.23 5.92 0 .27-.09.55-.13.83v.27c0 .25 0 .5-.07.76s0 .26 0 .4V208.75c0 .28.06.56.1.83v.13c.05.36.12.7.2 1a9 9 0 0 0 .33 1.06 6.61 6.61 0 0 0 1.55 2.5 5.91 5.91 0 0 0 .86.71l.41.24.25.14.55.25.36.15.56.18.48.13.57.12.6.1h.29c.3 0 .6.07.92.08h2.52c.29 0 .57-.05.84-.1h.27c.32-.05.62-.12.9-.19h.07c3.24-.86 4.69-3 5.23-5.92.05-.27.1-.54.13-.83v-.27c0-.24 0-.5.07-.75s0-.26 0-.4v-1.21-1.06-.66-.36c0-.29-.06-.56-.1-.83"/><path class="bm ca f" d="M145.32 181.95v-.13c-.05-.36-.12-.7-.2-1a10.06 10.06 0 0 0-.33-1.07 6.64 6.64 0 0 0-1.55-2.5 5.89 5.89 0 0 0-.86-.71c-.13-.09-.27-.16-.41-.24l-.25-.14-.55-.25-.36-.15-.56-.18-.48-.13-.57-.12-.6-.1h-.29c-.3 0-.6-.07-.92-.08h-2.52c-.29 0-.57.05-.84.1h-.27c-.31.05-.62.12-.9.19h-.07c-3.24.86-4.69 3-5.23 5.92 0 .27-.09.54-.13.83v.27c0 .25 0 .5-.07.75s0 .26 0 .4v3.31c0 .29.06.57.1.83v.14c.05.35.12.69.2 1a9.48 9.48 0 0 0 .33 1.06 6.67 6.67 0 0 0 1.55 2.5 6.4 6.4 0 0 0 .86.7 4.41 4.41 0 0 0 .41.24l.25.15c.17.09.36.17.55.25l.36.15.56.19.48.13.57.12c.2 0 .4.07.6.1l.29.05.92.08h2.52l.84-.1h.27c.32-.05.62-.11.9-.18h.07c3.24-.86 4.69-3 5.23-5.92.05-.28.1-.55.13-.83v-.27c0-.25 0-.5.07-.76s0-.26 0-.39v-1.21-1.06-.66-.37c0-.28-.06-.56-.1-.83"/><path class="bm cb f" d="M187.75 160.07v-.13c-.05-.35-.12-.69-.2-1a9.93 9.93 0 0 0-.33-1.07 6.71 6.71 0 0 0-1.55-2.5 5.85 5.85 0 0 0-.86-.7 4.17 4.17 0 0 0-.41-.24l-.25-.15-.55-.25-.36-.15-.56-.18-.48-.13c-.18 0-.38-.09-.57-.12s-.4-.08-.6-.1l-.29-.05-.92-.08h-2.52c-.29 0-.57.06-.84.1h-.27c-.31.05-.62.11-.9.19h-.07c-3.24.86-4.69 3-5.23 5.92 0 .27-.09.55-.13.83v.27c0 .25 0 .5-.07.76s0 .26 0 .4V164.99c0 .28.06.56.1.83v.13c.05.36.12.7.2 1a9 9 0 0 0 .33 1.06 6.61 6.61 0 0 0 1.55 2.5 5.91 5.91 0 0 0 .86.71l.41.24.25.14.55.25.36.15.56.18.48.13.57.12.6.1h.29c.3 0 .6.07.92.08h2.52c.29 0 .57-.05.84-.1h.27c.32-.05.62-.12.9-.19h.07c3.24-.86 4.69-3 5.23-5.92.05-.27.1-.54.13-.83v-.27c0-.24 0-.5.07-.75s0-.26 0-.4v-1.21-1.06-.66-.36c0-.29-.06-.56-.1-.83"/><path class="d cc f" d="M208.96 116.31v-.13c-.05-.35-.12-.69-.2-1a9.93 9.93 0 0 0-.33-1.07 6.71 6.71 0 0 0-1.55-2.5 5.85 5.85 0 0 0-.86-.7 4.41 4.41 0 0 0-.41-.24l-.25-.15-.55-.25-.36-.15-.56-.18-.48-.13c-.18 0-.38-.09-.57-.12s-.4-.08-.6-.1l-.29-.05-.92-.08h-2.52c-.29 0-.57.06-.84.1h-.27c-.31.05-.62.11-.9.19h-.07c-3.24.86-4.69 3-5.23 5.92 0 .27-.09.55-.13.83v.27c0 .25 0 .5-.07.76s0 .26 0 .4V121.23c0 .28.06.56.1.83v.13c.05.36.12.7.2 1a9 9 0 0 0 .33 1.06 6.61 6.61 0 0 0 1.55 2.5 5.91 5.91 0 0 0 .86.71l.41.24.25.14.55.25.36.15.56.18.48.13.57.12.6.1h.29c.3 0 .6.07.92.08h2.52c.29 0 .57-.05.84-.1h.27c.32-.05.62-.12.9-.19h.07c3.24-.86 4.69-3 5.23-5.92.05-.27.1-.54.13-.83v-.27c0-.24 0-.5.07-.75s0-.26 0-.4v-1.21-1.06-.66-.36c0-.29-.06-.56-.1-.83"/><path class="cd ce f" d="M60.46 6.88v-.13c-.05-.36-.12-.7-.2-1a10.07 10.07 0 0 0-.35-1.09 6.64 6.64 0 0 0-1.55-2.5 5.89 5.89 0 0 0-.86-.71c-.13-.09-.27-.16-.41-.24l-.25-.13-.55-.25-.33-.17-.56-.18-.48-.13-.57-.12-.6-.1h-.29c-.3 0-.6-.07-.92-.08h-2.52c-.29 0-.57.05-.84.1h-.27c-.31.05-.62.12-.9.19h-.07c-3.24.86-4.69 3-5.23 5.92 0 .27-.09.54-.13.83v.27c0 .25 0 .5-.07.75s0 .26 0 .4v3.31c0 .29.06.57.1.83v.14c.05.35.12.69.2 1a9.48 9.48 0 0 0 .33 1.06 6.67 6.67 0 0 0 1.55 2.5 6.4 6.4 0 0 0 .86.7 4.41 4.41 0 0 0 .41.24l.25.15c.17.09.36.17.55.25l.36.15.56.19.48.13.57.12c.2 0 .4.07.6.1l.29.05.92.08h2.52l.84-.1h.27c.32-.05.62-.11.9-.18h.07c3.24-.86 4.69-3 5.23-5.92.05-.28.1-.55.13-.83v-.27c0-.25 0-.5.07-.76s0-.26 0-.39V9.85 8.79v-.66-.37c0-.28-.06-.56-.1-.83"/><path class="cd cf f" d="M81.68 225.71v-.13c-.05-.36-.12-.7-.2-1a10.07 10.07 0 0 0-.33-1.07 6.64 6.64 0 0 0-1.55-2.5 5.89 5.89 0 0 0-.86-.71c-.13-.09-.27-.16-.41-.24l-.25-.14-.55-.25-.36-.15-.56-.18-.48-.13-.57-.12-.6-.1h-.29c-.3 0-.6-.07-.92-.08h-2.52c-.29 0-.57.05-.84.1h-.27c-.31.05-.62.12-.9.19h-.08c-3.24.86-4.69 3-5.23 5.92 0 .27-.09.54-.13.83v.27c0 .25 0 .5-.07.75s0 .26 0 .4v3.31c0 .29.06.57.1.83v.14c.05.35.12.69.2 1a9.48 9.48 0 0 0 .33 1.06 6.67 6.67 0 0 0 1.55 2.5 6.4 6.4 0 0 0 .86.7 4.41 4.41 0 0 0 .41.24l.25.15c.17.09.36.17.55.25l.36.15.56.19.48.13.57.12c.2 0 .4.07.6.1l.29.05.92.08h2.52l.84-.1h.27c.32-.05.62-.11.9-.18h.07c3.24-.86 4.69-3 5.23-5.92.05-.28.1-.55.13-.83v-.27c0-.25 0-.5.07-.76s0-.26 0-.39v-1.21-1.06-.66-.37c0-.28-.06-.56-.1-.83"/><path class="cd cg f" d="M102.89 28.78v-.13c-.05-.35-.12-.69-.2-1a9.93 9.93 0 0 0-.33-1.07 6.71 6.71 0 0 0-1.52-2.52 5.85 5.85 0 0 0-.86-.7 4.17 4.17 0 0 0-.41-.24l-.25-.15-.55-.25-.36-.15-.56-.18-.48-.13c-.18 0-.38-.09-.57-.12s-.4-.08-.6-.1l-.29-.05-.92-.08h-2.52c-.29 0-.57.06-.84.1h-.27c-.31.05-.62.11-.9.19h-.07c-3.24.86-4.69 3-5.23 5.92 0 .27-.09.55-.13.83v.27c0 .25 0 .5-.07.76s0 .26 0 .4V33.68c0 .28.06.56.1.83v.13c.05.36.12.7.2 1a9 9 0 0 0 .33 1.06 6.61 6.61 0 0 0 1.55 2.5 5.91 5.91 0 0 0 .86.71l.41.24.25.14.55.25.36.15.56.18.48.13.57.12.6.1h.29c.3 0 .6.07.92.08h2.52c.29 0 .57-.05.84-.1h.27c.32-.05.62-.12.9-.19h.07c3.24-.86 4.69-3 5.23-5.92.05-.27.1-.54.13-.83v-.27c0-.24 0-.5.07-.75s0-.26 0-.4v-1.21-1.06-.66-.36c0-.29-.06-.56-.1-.83"/><path class="cd ch f" d="M124.11 203.83v-.13c-.05-.35-.12-.69-.2-1a9.93 9.93 0 0 0-.33-1.07 6.71 6.71 0 0 0-1.55-2.5 5.85 5.85 0 0 0-.86-.7 4.17 4.17 0 0 0-.41-.24l-.25-.15-.55-.25-.36-.15-.56-.18-.48-.13c-.18 0-.38-.09-.57-.12s-.4-.08-.6-.1l-.29-.05-.92-.08h-2.52c-.29 0-.57.06-.84.1h-.27c-.31.05-.62.11-.9.19h-.07c-3.24.86-4.69 3-5.23 5.92 0 .27-.09.55-.13.83v.27c0 .25 0 .5-.07.76s0 .26 0 .4V208.75c0 .28.06.56.1.83v.13c.05.36.12.7.2 1a9 9 0 0 0 .33 1.06 6.61 6.61 0 0 0 1.55 2.5 5.91 5.91 0 0 0 .86.71l.41.24.25.14.55.25.36.15.56.18.48.13.57.12.6.1h.29c.3 0 .6.07.92.08h2.52c.29 0 .57-.05.84-.1h.27c.32-.05.62-.12.9-.19h.07c3.24-.86 4.69-3 5.23-5.92.05-.27.1-.54.13-.83v-.27c0-.24 0-.5.07-.75s0-.26 0-.4v-1.21-1.06-.66-.36c0-.29-.06-.56-.1-.83"/><path class="cd ci f" d="M145.32 50.66v-.13c-.05-.36-.12-.7-.2-1a10.06 10.06 0 0 0-.33-1.07 6.64 6.64 0 0 0-1.55-2.5 5.89 5.89 0 0 0-.86-.71c-.13-.09-.27-.16-.41-.24l-.25-.14-.55-.25-.36-.15-.56-.18-.48-.13-.57-.12-.6-.1h-.29c-.3 0-.6-.07-.92-.08h-2.52c-.29 0-.57.05-.84.1h-.27c-.31.05-.62.12-.9.19h-.07c-3.24.86-4.69 3-5.23 5.92 0 .27-.09.54-.13.83v.27c0 .25 0 .5-.07.75s0 .26 0 .4v3.31c0 .29.06.57.1.83v.14c.05.35.12.69.2 1a9.48 9.48 0 0 0 .33 1.06 6.67 6.67 0 0 0 1.55 2.5 6.4 6.4 0 0 0 .86.7 4.41 4.41 0 0 0 .41.24l.25.15c.17.09.36.17.55.25l.36.15.56.19.48.13.57.12c.2 0 .4.07.6.1l.29.05.92.08h2.52l.84-.1h.27c.32-.05.62-.11.9-.18h.07c3.24-.86 4.69-3 5.23-5.92.05-.28.1-.55.13-.83v-.27c0-.25 0-.5.07-.76s0-.26 0-.39v-1.21-1.06-.66-.37c0-.28-.06-.56-.1-.83"/><path class="cd cj f" d="M166.53 181.95v-.13c-.05-.36-.12-.7-.2-1a10.06 10.06 0 0 0-.33-1.07 6.64 6.64 0 0 0-1.55-2.5 5.89 5.89 0 0 0-.86-.71c-.13-.09-.27-.16-.41-.24l-.25-.14-.55-.25-.36-.15-.56-.18-.48-.13-.57-.12-.6-.1h-.29c-.3 0-.6-.07-.92-.08h-2.52c-.29 0-.57.05-.84.1h-.27c-.31.05-.62.12-.9.19H154c-3.24.86-4.69 3-5.23 5.92 0 .27-.09.54-.13.83v.27c0 .25 0 .5-.07.75s0 .26 0 .4v3.31c0 .29.06.57.1.83v.14c.05.35.12.69.2 1a9.48 9.48 0 0 0 .33 1.06 6.67 6.67 0 0 0 1.55 2.5 6.4 6.4 0 0 0 .86.7 4.41 4.41 0 0 0 .41.24l.25.15c.17.09.36.17.55.25l.36.15.56.19.48.13.57.12c.2 0 .4.07.6.1l.29.05.92.08h2.52l.84-.1h.27c.32-.05.62-.11.9-.18h.07c3.24-.86 4.69-3 5.23-5.92.05-.28.1-.55.13-.83v-.27c0-.25 0-.5.07-.76s0-.26 0-.39v-1.21-1.06-.66-.37c0-.28-.06-.56-.1-.83"/><path class="cd ck f" d="M187.75 72.54v-.13c-.05-.35-.12-.69-.2-1a9.93 9.93 0 0 0-.33-1.07 6.71 6.71 0 0 0-1.55-2.5 5.85 5.85 0 0 0-.86-.7 4.17 4.17 0 0 0-.41-.24l-.25-.15-.55-.25-.36-.15-.56-.18-.48-.13c-.18 0-.38-.09-.57-.12s-.4-.08-.6-.1l-.29-.05-.9-.11h-2.52c-.29 0-.57.06-.84.1h-.27c-.31.05-.62.11-.9.19h-.07c-3.24.86-4.69 3-5.23 5.92 0 .27-.09.55-.13.83v.27c0 .25 0 .5-.07.76s0 .26 0 .4V77.43c0 .28.06.56.1.83v.13c.05.36.12.7.2 1a9 9 0 0 0 .33 1.06 6.61 6.61 0 0 0 1.55 2.5 5.91 5.91 0 0 0 .86.71l.41.24.25.14.55.25.36.15.56.18.48.13.57.12.6.1h.29c.3 0 .6.07.92.08h2.52c.29 0 .57-.05.84-.1h.27c.32-.05.62-.12.9-.19h.07c3.24-.86 4.69-3 5.23-5.92.05-.27.1-.54.13-.83v-.27c0-.24 0-.5.07-.75s0-.26 0-.4v-1.21-1.06-.66-.36c0-.29-.06-.56-.1-.83"/><path class="cd cl f" d="M208.96 94.42v-.13c-.05-.36-.12-.7-.2-1a10.06 10.06 0 0 0-.33-1.07 6.64 6.64 0 0 0-1.59-2.56 5.89 5.89 0 0 0-.86-.71c-.13-.09-.27-.16-.41-.24l-.25-.14-.55-.25-.36-.15-.56-.18-.48-.13-.57-.12-.6-.1h-.29c-.3 0-.6-.07-.92-.08h-2.52c-.29 0-.57.05-.84.1h-.27c-.31.05-.62.12-.9.19h-.07c-3.24.86-4.69 3-5.23 5.92 0 .27-.09.54-.13.83v.27c0 .25 0 .5-.07.75s0 .26 0 .4v3.31c0 .29.06.57.1.83v.14c.05.35.12.69.2 1a9.48 9.48 0 0 0 .33 1.06 6.67 6.67 0 0 0 1.55 2.5 6.4 6.4 0 0 0 .86.7 4.41 4.41 0 0 0 .41.24l.25.15c.17.09.36.17.55.25l.36.15.56.19.48.13.57.12c.2 0 .4.07.6.1l.29.05.92.08h2.52l.84-.1h.27c.32-.05.62-.11.9-.18h.07c3.24-.86 4.69-3 5.23-5.92.05-.28.1-.55.13-.83v-.27c0-.25 0-.5.07-.76s0-.26 0-.39v-1.21-1.06-.66-.37c0-.28-.06-.56-.1-.83"/><path class="cd cm f" d="M208.96 138.18v-.13c-.05-.36-.12-.7-.2-1a10.06 10.06 0 0 0-.33-1.07 6.64 6.64 0 0 0-1.55-2.5 5.89 5.89 0 0 0-.86-.71c-.13-.09-.27-.16-.41-.24l-.25-.14-.55-.25-.36-.15-.56-.18-.48-.13-.57-.12-.6-.1h-.29c-.3 0-.6-.07-.92-.08h-2.52c-.29 0-.57.05-.84.1h-.27c-.31.05-.62.12-.9.19h-.07c-3.24.86-4.69 3-5.23 5.92 0 .27-.09.54-.13.83v.27c0 .25 0 .5-.07.75s0 .26 0 .4v3.31c0 .29.06.57.1.83v.14c.05.35.12.69.2 1a9.48 9.48 0 0 0 .33 1.06 6.67 6.67 0 0 0 1.55 2.5 6.4 6.4 0 0 0 .86.7 4.41 4.41 0 0 0 .41.24l.25.15c.17.09.36.17.55.25l.36.15.56.19.48.13.57.12c.2 0 .4.07.6.1l.29.05.92.08h2.52l.84-.1h.27c.32-.05.62-.11.9-.18h.07c3.24-.86 4.69-3 5.23-5.92.05-.28.1-.55.13-.83v-.27c0-.25 0-.5.07-.76s0-.26 0-.39v-1.21-1.06-.66-.37c0-.28-.06-.56-.1-.83"/></g></svg>