<svg xmlns="http://www.w3.org/2000/svg" xmlns:xlink="http://www.w3.org/1999/xlink" viewBox="0 0 150.9 169.3"><defs><style>.a{fill:none;}.b{opacity:0.55;}.c{clip-path:url(#a);}.d{fill:#fff;}.e{clip-path:url(#b);}.f{clip-path:url(#c);}.g{clip-path:url(#d);}.h{opacity:0.2;}.i{clip-path:url(#e);}.j{clip-path:url(#f);}.k{clip-path:url(#g);}.l{clip-path:url(#h);}.m{clip-path:url(#i);}.n{clip-path:url(#j);}.o{clip-path:url(#k);}.p{clip-path:url(#l);}.q{clip-path:url(#m);}.r{clip-path:url(#n);}.s{clip-path:url(#o);}.t{clip-path:url(#p);}.u{clip-path:url(#q);}.v{clip-path:url(#r);}.w{clip-path:url(#s);}.x{clip-path:url(#t);}.y{clip-path:url(#u);}.z{clip-path:url(#v);}.aa{clip-path:url(#w);}.ab{clip-path:url(#x);}.ac{clip-path:url(#y);}</style><clipPath id="a" transform="translate(-9 -7)"><rect class="a" x="25.45" y="13.13" width="28.93" height="19.76"/></clipPath><clipPath id="b" transform="translate(-9 -7)"><rect class="a" x="50.9" y="26.25" width="28.93" height="19.76"/></clipPath><clipPath id="c" transform="translate(-9 -7)"><rect class="a" x="76.35" y="39.38" width="28.93" height="19.76"/></clipPath><clipPath id="d" transform="translate(-9 -7)"><rect class="a" x="101.79" y="52.5" width="28.93" height="19.76"/></clipPath><clipPath id="e" transform="translate(-9 -7)"><rect class="a" x="12.72" width="28.93" height="19.76"/></clipPath><clipPath id="f" transform="translate(-9 -7)"><rect class="a" x="139.97" y="78.76" width="28.93" height="19.76"/></clipPath><clipPath id="g" transform="translate(-9 -7)"><rect class="a" x="38.17" y="13.13" width="28.93" height="19.76"/></clipPath><clipPath id="h" transform="translate(-9 -7)"><rect class="a" x="63.62" y="26.25" width="28.93" height="19.76"/></clipPath><clipPath id="i" transform="translate(-9 -7)"><rect class="a" x="89.07" y="39.38" width="28.93" height="19.76"/></clipPath><clipPath id="j" transform="translate(-9 -7)"><rect class="a" x="114.52" y="52.5" width="28.93" height="19.76"/></clipPath><clipPath id="k" transform="translate(-9 -7)"><rect class="a" x="127.24" y="65.63" width="28.93" height="19.76"/></clipPath><clipPath id="l" transform="translate(-9 -7)"><rect class="a" x="139.97" y="65.63" width="28.93" height="19.76"/></clipPath><clipPath id="m" transform="translate(-9 -7)"><rect class="a" width="28.93" height="19.76"/></clipPath><clipPath id="n" transform="translate(-9 -7)"><rect class="a" x="25.45" y="150.38" width="28.93" height="19.76"/></clipPath><clipPath id="o" transform="translate(-9 -7)"><rect class="a" x="50.9" y="137.26" width="28.93" height="19.76"/></clipPath><clipPath id="p" transform="translate(-9 -7)"><rect class="a" x="76.35" y="124.13" width="28.93" height="19.76"/></clipPath><clipPath id="q" transform="translate(-9 -7)"><rect class="a" x="101.79" y="111.01" width="28.93" height="19.76"/></clipPath><clipPath id="r" transform="translate(-9 -7)"><rect class="a" x="38.17" y="150.38" width="28.93" height="19.76"/></clipPath><clipPath id="s" transform="translate(-9 -7)"><rect class="a" x="63.62" y="137.26" width="28.93" height="19.76"/></clipPath><clipPath id="t" transform="translate(-9 -7)"><rect class="a" x="89.07" y="124.13" width="28.93" height="19.76"/></clipPath><clipPath id="u" transform="translate(-9 -7)"><rect class="a" x="114.52" y="111.01" width="28.93" height="19.76"/></clipPath><clipPath id="v" transform="translate(-9 -7)"><rect class="a" x="127.24" y="97.88" width="28.93" height="19.76"/></clipPath><clipPath id="w" transform="translate(-9 -7)"><rect class="a" x="139.97" y="97.88" width="28.93" height="19.76"/></clipPath><clipPath id="x" transform="translate(-9 -7)"><rect class="a" y="163.54" width="28.93" height="19.76"/></clipPath><clipPath id="y" transform="translate(-9 -7)"><rect class="a" x="12.72" y="163.54" width="28.93" height="19.76"/></clipPath></defs><title>play-button</title><g class="b"><g class="c"><path class="d" d="M45.27,24.25a.17.17,0,0,1,0-.07,5.67,5.67,0,0,0-.12-.62h0c-.06-.22-.13-.44-.2-.64h0A3.88,3.88,0,0,0,44,21.43h0A4.33,4.33,0,0,0,43.5,21h0l-.25-.14-.15-.09-.33-.15-.21-.09-.34-.1L42,20.35l-.35-.08-.36-.06-.18,0h0l-.55,0h0l-.6,0h0c-.25,0-.49,0-.72,0l-.19,0a4.18,4.18,0,0,0-.51.06l-.16,0a4.28,4.28,0,0,0-.54.12h0a4.08,4.08,0,0,0-3.14,3.56h0c0,.17-.06.34-.08.5h0c0,.05,0,.1,0,.16s0,.3,0,.45,0,.16,0,.24c0,.24,0,.48,0,.73h0c0,.22,0,.43,0,.64l0,.39c0,.08,0,.15,0,.22l.06.5a.19.19,0,0,1,0,.08,6.18,6.18,0,0,0,.12.62h0a5.36,5.36,0,0,0,.19.64h0a3.92,3.92,0,0,0,.93,1.5h0a4.33,4.33,0,0,0,.52.42h0c.08.06.17.1.25.15l.15.08a2.52,2.52,0,0,0,.33.15l.21.09.34.11.29.08.34.07.36.06.18,0h0l.55.05h0l.59,0h0c.25,0,.49,0,.73,0h.18l.51-.06.16,0,.54-.11h0a4.07,4.07,0,0,0,3.14-3.55h0c0-.16.06-.33.08-.5h0a.81.81,0,0,1,0-.16c0-.15,0-.3,0-.45s0-.16,0-.24c0-.24,0-.48,0-.73h0c0-.22,0-.43,0-.63l0-.4a1.62,1.62,0,0,0,0-.22l-.06-.5" transform="translate(-9 -7)"/></g></g><g class="b"><g class="e"><path class="d" d="M70.72,37.38a.25.25,0,0,1,0-.08,6.18,6.18,0,0,0-.12-.62h0a5.79,5.79,0,0,0-.19-.63h0a3.92,3.92,0,0,0-.93-1.5h0a4.33,4.33,0,0,0-.52-.42h0c-.08-.06-.17-.1-.25-.15l-.15-.08a1.66,1.66,0,0,0-.33-.15L68,33.66l-.34-.11-.29-.08-.34-.07-.36-.06-.18,0h0l-.55,0h0l-.59,0h0c-.25,0-.49,0-.73,0h-.18l-.51.06-.16,0a4.29,4.29,0,0,0-.54.11h0a4.07,4.07,0,0,0-3.14,3.55h0c0,.16-.06.33-.08.5h0c0,.05,0,.11,0,.16s0,.3,0,.45,0,.16,0,.24c0,.24,0,.48,0,.73h0c0,.21,0,.43,0,.63l0,.4a1.62,1.62,0,0,0,0,.22l.06.5A.17.17,0,0,1,60,41a5.67,5.67,0,0,0,.12.62h0c.06.22.13.44.2.64h0a3.88,3.88,0,0,0,.93,1.49h0a4.33,4.33,0,0,0,.52.42h0l.25.14.15.09.33.15.21.09.34.1.29.08.34.08.36.06.18,0h0l.55.05h.61l.72,0,.19,0a4.18,4.18,0,0,0,.51-.06l.16,0a4.28,4.28,0,0,0,.54-.12h0a4.08,4.08,0,0,0,3.14-3.56h0c0-.17.06-.34.08-.5h0c0-.05,0-.1,0-.16s0-.3,0-.45,0-.16,0-.24c0-.24,0-.48,0-.73h0c0-.22,0-.43,0-.64l0-.39c0-.08,0-.15,0-.22l-.06-.5" transform="translate(-9 -7)"/></g></g><g class="b"><g class="f"><path class="d" d="M96.17,50.5a.17.17,0,0,1,0-.07c0-.22-.07-.42-.12-.62h0a6,6,0,0,0-.19-.64h0a3.88,3.88,0,0,0-.93-1.49h0a3.57,3.57,0,0,0-.51-.42h0l-.24-.14L94,47l-.33-.15-.22-.09-.33-.1-.29-.08-.34-.08-.36-.06-.18,0h0l-.56,0h-.6l-.73,0-.19,0a4,4,0,0,0-.5.06l-.16,0a4.28,4.28,0,0,0-.54.12h0a4.06,4.06,0,0,0-3.14,3.56h0c0,.17-.06.34-.08.5h0s0,.1,0,.16,0,.3,0,.45,0,.16,0,.24c0,.24,0,.48,0,.73h0c0,.22,0,.43,0,.64s0,.26,0,.39,0,.15,0,.22,0,.34.06.5,0,.05,0,.08a6.18,6.18,0,0,0,.12.62h0a5.8,5.8,0,0,0,.2.63h0a3.92,3.92,0,0,0,.93,1.5h0a4.33,4.33,0,0,0,.52.42h0c.08.06.17.1.25.15l.15.08a3.13,3.13,0,0,0,.32.15l.22.09.34.11.28.08.35.07.36.06.17,0h0l.55,0h0l.6,0h0c.26,0,.5,0,.73,0h.19l.5-.06.17,0,.54-.11h0a4.07,4.07,0,0,0,3.14-3.55h0c0-.16.06-.33.08-.5h0c0-.06,0-.11,0-.16s0-.3,0-.45,0-.16,0-.24c0-.24,0-.48,0-.73h0c0-.21,0-.43,0-.63l0-.4c0-.07,0-.15,0-.22l-.06-.5" transform="translate(-9 -7)"/></g></g><g class="b"><g class="g"><path class="d" d="M121.61,63.63a.22.22,0,0,0,0-.08c0-.21-.07-.42-.11-.62h0a4.21,4.21,0,0,0-.2-.63h0a3.92,3.92,0,0,0-.93-1.5h0a4.22,4.22,0,0,0-.51-.42h0a1.94,1.94,0,0,0-.24-.15l-.15-.08-.33-.15a1.45,1.45,0,0,0-.22-.09l-.33-.11-.29-.08-.34-.07-.36-.06-.18,0h0l-.56,0h0l-.6,0h0c-.25,0-.5,0-.73,0h-.19l-.5.06-.16,0a4.29,4.29,0,0,0-.54.11h0A4,4,0,0,0,111,63.3h0c0,.16,0,.33-.07.5h0c0,.05,0,.11,0,.16s0,.3,0,.45,0,.16,0,.24c0,.24,0,.48,0,.73h0c0,.21,0,.43,0,.63s0,.27,0,.4,0,.15,0,.22,0,.33.06.5a.17.17,0,0,0,0,.07,5.67,5.67,0,0,0,.12.62h0a6,6,0,0,0,.2.64h0a3.88,3.88,0,0,0,.93,1.49h0a3.67,3.67,0,0,0,.52.42h0l.25.14.15.09.32.15.22.09.34.1.28.08.34.08.37.06.17,0h0l.55,0h.6l.73,0,.19,0a4,4,0,0,0,.5-.06l.16,0a4.88,4.88,0,0,0,.55-.12h0a4.06,4.06,0,0,0,3.13-3.56h0c0-.17.06-.34.08-.5h0s0-.1,0-.16,0-.3,0-.45a1.94,1.94,0,0,0,0-.24c0-.24,0-.48,0-.73h0c0-.22,0-.43,0-.64l0-.39a1.7,1.7,0,0,1,0-.22c0-.17,0-.34-.07-.5" transform="translate(-9 -7)"/></g></g><g class="h"><g class="i"><path class="d" d="M32.54,11.13a.19.19,0,0,0,0-.08c0-.21-.07-.42-.11-.62h0a4.21,4.21,0,0,0-.2-.63h0a3.92,3.92,0,0,0-.93-1.5h0a4.22,4.22,0,0,0-.51-.42h0a1.94,1.94,0,0,0-.24-.15l-.15-.08a2.41,2.41,0,0,0-.33-.15.85.85,0,0,0-.22-.09l-.33-.11-.29-.08-.34-.07-.36-.06-.18,0h0L27.79,7h0l-.6,0h0c-.25,0-.5,0-.73,0h-.19l-.5.06-.16,0a4.29,4.29,0,0,0-.54.11H25a4,4,0,0,0-3.13,3.55h0c0,.16-.05.33-.07.5h0s0,.11,0,.16,0,.3,0,.45,0,.16,0,.24c0,.24,0,.48,0,.73h0c0,.21,0,.43,0,.63s0,.27,0,.4,0,.15,0,.22,0,.33.06.5a.17.17,0,0,0,0,.07,5.67,5.67,0,0,0,.12.62h0a6,6,0,0,0,.2.64h0a3.88,3.88,0,0,0,.93,1.49h0a3.67,3.67,0,0,0,.52.42h0l.25.14.15.09.32.15.22.09.34.1.28.08.34.08.37.06.17,0h0l.55,0h.6l.73,0,.19,0a4,4,0,0,0,.5-.06l.16,0a4.88,4.88,0,0,0,.55-.12h0A4.06,4.06,0,0,0,32.49,15h0c0-.17.06-.34.08-.5h0c0-.05,0-.1,0-.16l0-.45a1.94,1.94,0,0,0,0-.24c0-.24,0-.48,0-.73h0c0-.22,0-.43,0-.64l0-.39a1.7,1.7,0,0,1,0-.22c0-.17,0-.34-.07-.5" transform="translate(-9 -7)"/></g></g><g class="b"><g class="j"><path class="d" d="M159.79,89.88a.19.19,0,0,1,0-.08,6,6,0,0,0-.12-.61h0a5.36,5.36,0,0,0-.19-.64h0a4,4,0,0,0-.93-1.5h0a4.33,4.33,0,0,0-.52-.42h0l-.25-.14-.15-.09-.33-.15-.21-.09-.34-.11-.29-.07-.34-.08-.36-.06-.18,0h0l-.55,0h-.61l-.73,0-.18,0a4,4,0,0,0-.51.06l-.16,0a4.28,4.28,0,0,0-.54.12h0a4.08,4.08,0,0,0-3.14,3.55h0c0,.17-.06.33-.08.5h0c0,.06,0,.11,0,.16s0,.31,0,.46,0,.16,0,.24c0,.23,0,.48,0,.73h0c0,.22,0,.43,0,.64l0,.39a1.55,1.55,0,0,0,0,.22l.06.5a.22.22,0,0,1,0,.08,6.18,6.18,0,0,0,.12.62h0c.06.22.13.43.2.63h0a4,4,0,0,0,.93,1.5h0a4.33,4.33,0,0,0,.52.42h0l.25.14.15.09a2.52,2.52,0,0,0,.33.15l.21.09.34.11.29.08.34.07.36.06.18,0h0l.55,0h0l.6,0h0q.38,0,.72,0h.19l.51-.06.16,0,.54-.11h0a4.07,4.07,0,0,0,3.14-3.55h0c0-.16.06-.33.08-.5h0s0-.11,0-.16,0-.3,0-.45,0-.16,0-.24c0-.24,0-.48,0-.73h0c0-.21,0-.43,0-.63l0-.4c0-.07,0-.15,0-.22l-.06-.5" transform="translate(-9 -7)"/></g></g><g class="h"><g class="k"><path class="d" d="M58,24.25a.17.17,0,0,0,0-.07,5.67,5.67,0,0,0-.12-.62h0a4.34,4.34,0,0,0-.2-.64h0a4,4,0,0,0-.92-1.49h0a3.67,3.67,0,0,0-.52-.42h0L56,20.86l-.15-.09-.32-.15-.22-.09-.33-.1-.29-.08-.34-.08L54,20.21l-.17,0h0l-.55,0h0l-.6,0h0c-.26,0-.5,0-.73,0l-.19,0a4,4,0,0,0-.5.06l-.16,0a4.88,4.88,0,0,0-.55.12h0a4.06,4.06,0,0,0-3.13,3.56h0c0,.17-.05.34-.08.5h0a.81.81,0,0,0,0,.16c0,.14,0,.3,0,.45s0,.16,0,.24c0,.24,0,.48,0,.73h0c0,.22,0,.43,0,.64s0,.26,0,.39,0,.15,0,.22a4,4,0,0,0,.06.5.25.25,0,0,0,0,.08c0,.21.07.42.11.62h0a4,4,0,0,0,.2.64h0a4.18,4.18,0,0,0,.93,1.5h0a4.22,4.22,0,0,0,.51.42h0a1.94,1.94,0,0,0,.24.15l.15.08c.11.06.22.1.33.15l.22.09.33.11.29.08.34.07.36.06.18,0h0l.55.05h0l.6,0h0c.26,0,.5,0,.73,0h.19l.5-.06.16,0,.54-.11h.05a4,4,0,0,0,3.13-3.55h0c0-.16.05-.33.07-.5h0a.92.92,0,0,0,0-.16c0-.15,0-.3,0-.45s0-.16,0-.24c0-.24,0-.48,0-.73h0c0-.22,0-.43,0-.63s0-.27,0-.4,0-.15,0-.22a4.26,4.26,0,0,0-.06-.5" transform="translate(-9 -7)"/></g></g><g class="h"><g class="l"><path class="d" d="M83.44,37.38a.19.19,0,0,0,0-.08,6.18,6.18,0,0,0-.12-.62h0a5.8,5.8,0,0,0-.2-.63h0a3.92,3.92,0,0,0-.93-1.5h0a3.67,3.67,0,0,0-.52-.42h0a2.07,2.07,0,0,0-.25-.15l-.15-.08a1.87,1.87,0,0,0-.32-.15,2,2,0,0,0-.22-.09l-.34-.11-.28-.08-.34-.07-.37-.06-.17,0h0l-.55,0h0l-.6,0h0c-.26,0-.5,0-.73,0h-.19l-.5.06-.16,0a4.86,4.86,0,0,0-.55.11h0a4,4,0,0,0-3.13,3.55h0c0,.16-.05.33-.08.5h0a.86.86,0,0,0,0,.16c0,.15,0,.3,0,.45a2.12,2.12,0,0,0,0,.24c0,.24,0,.48,0,.73h0c0,.21,0,.43,0,.63l0,.4a1.62,1.62,0,0,1,0,.22c0,.17,0,.33.07.5a.17.17,0,0,0,0,.07c0,.22.07.42.11.62h0a4.34,4.34,0,0,0,.2.64h0A3.88,3.88,0,0,0,74,43.71h0a4.22,4.22,0,0,0,.51.42h0l.24.14.15.09.33.15.22.09.33.1.29.08.34.08.36.06.18,0h0l.56.05h.6l.73,0L79,45a4,4,0,0,0,.5-.06l.16,0a4.28,4.28,0,0,0,.54-.12h.05a4.06,4.06,0,0,0,3.13-3.56h0c0-.17,0-.34.07-.5h0c0-.05,0-.1,0-.16s0-.3,0-.45,0-.16,0-.24c0-.24,0-.48,0-.73h0c0-.22,0-.43,0-.64s0-.26,0-.39,0-.15,0-.22a4,4,0,0,0-.06-.5" transform="translate(-9 -7)"/></g></g><g class="h"><g class="m"><path class="d" d="M108.89,50.5s0,0,0-.07a5.67,5.67,0,0,0-.12-.62h0a6,6,0,0,0-.2-.64h0a3.88,3.88,0,0,0-.93-1.49h0a4.33,4.33,0,0,0-.52-.42h0l-.25-.14-.15-.09-.32-.15-.22-.09-.34-.1-.28-.08-.35-.08-.36-.06-.17,0h0l-.55,0h-.6l-.73,0-.19,0a4,4,0,0,0-.5.06l-.17,0a4.71,4.71,0,0,0-.54.12h0a4.08,4.08,0,0,0-3.14,3.56h0c0,.17-.06.34-.08.5h0s0,.1,0,.16,0,.3,0,.45,0,.16,0,.24c0,.24,0,.48,0,.73h0c0,.22,0,.43,0,.64l0,.39c0,.08,0,.15,0,.22l.06.5a.19.19,0,0,1,0,.08c0,.21.07.42.12.62h0a5.79,5.79,0,0,0,.19.63h0a3.92,3.92,0,0,0,.93,1.5h0a3.57,3.57,0,0,0,.51.42h0a1.94,1.94,0,0,0,.24.15l.15.08.33.15.22.09.33.11.29.08.34.07.36.06.18,0h0l.56,0h0l.6,0h0c.25,0,.49,0,.73,0h.19L105,58l.16,0,.54-.11h0a4,4,0,0,0,3.14-3.55h0a4,4,0,0,0,.08-.5h0c0-.06,0-.11,0-.16s0-.3,0-.45,0-.16,0-.24c0-.24,0-.48,0-.73h0c0-.21,0-.43,0-.63s0-.27,0-.4,0-.15,0-.22,0-.33-.06-.5" transform="translate(-9 -7)"/></g></g><g class="h"><g class="n"><path class="d" d="M134.34,63.63s0-.05,0-.08a6.18,6.18,0,0,0-.12-.62h0a5.8,5.8,0,0,0-.2-.63h0a3.92,3.92,0,0,0-.93-1.5h0a4.33,4.33,0,0,0-.52-.42h0c-.08-.06-.17-.1-.25-.15l-.15-.08a3.13,3.13,0,0,0-.32-.15l-.22-.09-.34-.11-.28-.08-.35-.07-.36-.06-.18,0h0l-.55,0h0l-.6,0h0c-.26,0-.5,0-.73,0h-.19l-.5.06-.17,0a4.29,4.29,0,0,0-.54.11h0a4.07,4.07,0,0,0-3.14,3.55h0c0,.16-.06.33-.08.5h0c0,.05,0,.11,0,.16s0,.3,0,.45,0,.16,0,.24c0,.24,0,.48,0,.73h0c0,.21,0,.43,0,.63l0,.4c0,.07,0,.15,0,.22l.06.5a.17.17,0,0,1,0,.07c0,.22.07.42.12.62h0a6,6,0,0,0,.19.64h0a3.88,3.88,0,0,0,.93,1.49h0a4.33,4.33,0,0,0,.52.42h0l.24.14.15.09.33.15.22.09.33.1L127,71l.34.08.36.06.18,0h0l.55,0H129l.73,0,.18,0a4,4,0,0,0,.51-.06l.16,0a4.28,4.28,0,0,0,.54-.12h0a4.07,4.07,0,0,0,3.14-3.56h0c0-.17.06-.34.08-.5h0a.92.92,0,0,1,0-.16c0-.14,0-.3,0-.45s0-.16,0-.24c0-.24,0-.48,0-.73h0c0-.22,0-.43,0-.64s0-.26,0-.39a1.55,1.55,0,0,0,0-.22l-.06-.5" transform="translate(-9 -7)"/></g></g><g class="b"><g class="o"><path class="d" d="M147.06,76.76a.22.22,0,0,0,0-.08c0-.21-.07-.42-.11-.62h0a4.21,4.21,0,0,0-.2-.63h0a4,4,0,0,0-.93-1.5h0a2.92,2.92,0,0,0-.51-.42h0a1.94,1.94,0,0,0-.24-.15l-.15-.08-.33-.16-.22-.09-.33-.1-.29-.08-.34-.07-.36-.06-.18,0h0l-.55,0h0l-.6,0h0c-.26,0-.5,0-.73,0h-.19l-.5.06-.16,0a4.29,4.29,0,0,0-.54.11h-.05a4,4,0,0,0-3.13,3.55h0c0,.16,0,.33-.07.5h0a.86.86,0,0,0,0,.16c0,.15,0,.3,0,.45s0,.16,0,.24c0,.24,0,.48,0,.73h0c0,.21,0,.43,0,.63s0,.27,0,.4,0,.15,0,.22a4.26,4.26,0,0,0,.06.5.17.17,0,0,0,0,.07,6.18,6.18,0,0,0,.12.62h0a4.75,4.75,0,0,0,.2.64h0a4,4,0,0,0,.92,1.49h0a3.67,3.67,0,0,0,.52.42h0l.25.14.15.09.32.15.22.09.33.1.29.08.34.08.37,0,.17,0h0l.55.05h0a5.82,5.82,0,0,0,.6,0h0l.73,0,.19,0a4,4,0,0,0,.5-.06l.16,0c.19,0,.37-.07.55-.12h0A4,4,0,0,0,147,80.59h0c0-.17.05-.34.08-.5h0a.86.86,0,0,0,0-.16c0-.15,0-.3,0-.45a1.94,1.94,0,0,0,0-.24c0-.24,0-.48,0-.73h0c0-.22,0-.43,0-.64s0-.26,0-.39,0-.15,0-.22a4,4,0,0,0-.06-.5" transform="translate(-9 -7)"/></g></g><g class="h"><g class="p"><path class="d" d="M159.79,76.76a.22.22,0,0,1,0-.08,6.18,6.18,0,0,0-.12-.62h0a5.79,5.79,0,0,0-.19-.63h0a3.92,3.92,0,0,0-.93-1.5h0a3,3,0,0,0-.52-.42h0c-.08-.06-.17-.1-.25-.15l-.15-.08c-.1-.06-.21-.1-.33-.16l-.21-.09-.34-.1-.29-.08-.34-.07-.36-.06-.18,0h0l-.55,0h0l-.59,0h0c-.25,0-.49,0-.73,0h-.18l-.51.06-.16,0a4.29,4.29,0,0,0-.54.11h0a4.06,4.06,0,0,0-3.14,3.55h0c0,.16-.06.33-.08.5h0s0,.11,0,.16,0,.3,0,.45,0,.16,0,.24c0,.24,0,.48,0,.73h0c0,.21,0,.43,0,.63l0,.4a1.62,1.62,0,0,0,0,.22l.06.5a.17.17,0,0,1,0,.07,6.18,6.18,0,0,0,.12.62h0c.06.22.13.43.2.64h0a3.88,3.88,0,0,0,.93,1.49h0a4.33,4.33,0,0,0,.52.42h0l.25.14.15.09.33.15.21.09.34.1.29.08.34.08.36,0,.18,0h0l.55.05h0c.2,0,.4,0,.6,0h0l.72,0,.19,0a4.18,4.18,0,0,0,.51-.06l.16,0c.19,0,.37-.07.54-.12h0a4.06,4.06,0,0,0,3.14-3.55h0c0-.17.06-.34.08-.5h0s0-.11,0-.16,0-.3,0-.45,0-.16,0-.24c0-.24,0-.48,0-.73h0c0-.22,0-.43,0-.64s0-.26,0-.39,0-.15,0-.22l-.06-.5" transform="translate(-9 -7)"/></g></g><g class="b"><g class="q"><path class="d" d="M19.82,11.13s0-.06,0-.08a6.18,6.18,0,0,0-.12-.62h0a5.8,5.8,0,0,0-.2-.63h0a3.92,3.92,0,0,0-.93-1.5h0a4.33,4.33,0,0,0-.52-.42h0c-.08-.06-.17-.1-.25-.15l-.15-.08a1.87,1.87,0,0,0-.32-.15l-.22-.09-.34-.11-.28-.08-.35-.07-.36-.06-.18,0h0L15.07,7h0l-.6,0h0c-.26,0-.5,0-.73,0h-.19l-.5.06-.17,0a4.29,4.29,0,0,0-.54.11h0A4.07,4.07,0,0,0,9.16,10.8h0c0,.16-.06.33-.08.5h0s0,.11,0,.16,0,.3,0,.45,0,.16,0,.24c0,.24,0,.48,0,.73H9c0,.21,0,.43,0,.63l0,.4c0,.07,0,.15,0,.22l.06.5a.17.17,0,0,1,0,.07c0,.22.07.42.12.62h0a6,6,0,0,0,.19.64h0a3.88,3.88,0,0,0,.93,1.49h0a4.33,4.33,0,0,0,.52.42h0l.24.14.15.09.33.15.22.09.33.1.29.08.34.08.36.06.18,0h0l.55,0h.61l.73,0,.18,0a4,4,0,0,0,.51-.06l.16,0a4.28,4.28,0,0,0,.54-.12h0A4.07,4.07,0,0,0,19.77,15h0c0-.17.06-.34.08-.5h0a.92.92,0,0,1,0-.16c0-.14,0-.3,0-.45s0-.16,0-.24c0-.24,0-.48,0-.73h0c0-.22,0-.43,0-.64s0-.26,0-.39a1.55,1.55,0,0,0,0-.22l-.06-.5" transform="translate(-9 -7)"/></g></g><g class="b"><g class="r"><path class="d" d="M45.27,159a.17.17,0,0,0,0,.07,6.18,6.18,0,0,1-.12.62h0c-.06.22-.13.43-.2.64h0a3.88,3.88,0,0,1-.93,1.49h0a4.33,4.33,0,0,1-.52.42h0l-.25.14-.15.09-.33.15-.21.09-.34.1-.28.08-.35.08-.36.05-.18,0h0l-.55.05h0a5.91,5.91,0,0,1-.6,0h0l-.72,0-.19,0a4.18,4.18,0,0,1-.51-.06l-.16,0c-.19,0-.37-.07-.54-.12h0a4.06,4.06,0,0,1-3.14-3.55h0c0-.17-.06-.34-.08-.5h0c0-.05,0-.11,0-.16s0-.3,0-.45,0-.16,0-.24c0-.24,0-.48,0-.73h0c0-.22,0-.43,0-.64s0-.26,0-.39,0-.15,0-.22l.06-.5a.22.22,0,0,0,0-.08,6.18,6.18,0,0,1,.12-.62h0a5.36,5.36,0,0,1,.19-.64h0a3.92,3.92,0,0,1,.93-1.5h0a3.54,3.54,0,0,1,.52-.42h0c.08-.06.17-.1.25-.15l.15-.08c.1-.06.21-.1.33-.16l.21-.08.34-.11.29-.08.34-.07.36-.06.18,0h0l.55,0h0l.59,0h0c.25,0,.49,0,.73,0h.18l.51.06.16,0,.54.11h0a4.06,4.06,0,0,1,3.14,3.55h0c0,.16.06.33.08.5h0a.86.86,0,0,0,0,.16c0,.15,0,.3,0,.45s0,.16,0,.24c0,.24,0,.48,0,.73h0c0,.21,0,.43,0,.63l0,.4a1.62,1.62,0,0,1,0,.22l-.06.5" transform="translate(-9 -7)"/></g></g><g class="b"><g class="s"><path class="d" d="M70.72,145.89a.25.25,0,0,0,0,.08,6.18,6.18,0,0,1-.12.62h0a5.79,5.79,0,0,1-.19.63h0a4,4,0,0,1-.93,1.5h0a4.33,4.33,0,0,1-.52.42h0c-.08.06-.17.1-.25.15l-.15.08a1.66,1.66,0,0,1-.33.15l-.21.09-.34.11-.29.08-.34.07-.36.06-.18,0h0L66,150h0l-.59,0h0c-.25,0-.49,0-.73,0h-.18l-.51-.06-.16,0-.54-.11h0a4.07,4.07,0,0,1-3.14-3.55h0c0-.16-.06-.33-.08-.5h0c0-.05,0-.11,0-.16s0-.3,0-.45,0-.16,0-.24c0-.24,0-.48,0-.73h0c0-.21,0-.43,0-.63l0-.4a1.62,1.62,0,0,1,0-.22l.06-.5a.19.19,0,0,0,0-.08,6,6,0,0,1,.12-.61h0c.06-.23.13-.44.2-.64h0a4,4,0,0,1,.93-1.5h0a4.33,4.33,0,0,1,.52-.42h0L62,139l.15-.09.33-.15.21-.09.34-.11.29-.07.34-.08.36-.06.18,0h0l.55,0h.61l.72,0,.19,0a4.18,4.18,0,0,1,.51.06l.16,0a4.28,4.28,0,0,1,.54.12h0a4.08,4.08,0,0,1,3.14,3.55h0c0,.17.06.33.08.5h0c0,.06,0,.11,0,.16s0,.31,0,.46,0,.16,0,.24c0,.23,0,.48,0,.73h0c0,.22,0,.43,0,.64l0,.39c0,.08,0,.15,0,.22l-.06.5" transform="translate(-9 -7)"/></g></g><g class="b"><g class="t"><path class="d" d="M96.17,132.77a.17.17,0,0,0,0,.07c0,.21-.07.42-.12.62h0c0,.22-.12.43-.19.64h0a3.88,3.88,0,0,1-.93,1.49h0a3.57,3.57,0,0,1-.51.42h0l-.24.14-.15.09-.33.15-.22.09-.33.1-.29.08-.34.08-.36.05-.18,0h0l-.56.05h0a5.82,5.82,0,0,1-.6,0h0l-.73,0-.19,0a4,4,0,0,1-.5-.06l-.16,0c-.19,0-.37-.07-.54-.12h0a4,4,0,0,1-3.14-3.55h0c0-.17-.06-.34-.08-.5h0c0-.05,0-.11,0-.16s0-.3,0-.45,0-.16,0-.24c0-.24,0-.48,0-.73h0c0-.22,0-.43,0-.64s0-.26,0-.39,0-.15,0-.22,0-.34.06-.5,0,0,0-.08a6.18,6.18,0,0,1,.12-.62h0a5.8,5.8,0,0,1,.2-.63h0a3.92,3.92,0,0,1,.93-1.5h0a3.54,3.54,0,0,1,.52-.42h0c.08-.06.17-.1.25-.15l.15-.08c.1-.06.21-.1.32-.16l.22-.08.34-.11.28-.08.35-.07.36-.06.17,0h0l.55,0h0l.6,0h0c.26,0,.5,0,.73,0h.19l.5.06.17,0,.54.11h0a4.06,4.06,0,0,1,3.14,3.55h0c0,.16.06.33.08.5h0s0,.11,0,.16,0,.3,0,.45,0,.16,0,.24c0,.24,0,.48,0,.73h0c0,.21,0,.43,0,.63l0,.4c0,.07,0,.15,0,.22l-.06.5" transform="translate(-9 -7)"/></g></g><g class="b"><g class="u"><path class="d" d="M121.61,119.64a.22.22,0,0,1,0,.08c0,.21-.07.42-.11.62h0a4.21,4.21,0,0,1-.2.63h0a4,4,0,0,1-.93,1.5h0a4.22,4.22,0,0,1-.51.42h0a1.94,1.94,0,0,1-.24.15l-.15.08c-.11.06-.22.1-.33.15l-.22.09-.33.11-.29.08-.34.07-.36.06-.18,0h0l-.56,0h0l-.6,0h0c-.25,0-.5,0-.73,0h-.19l-.5-.06-.16,0-.54-.11h0A4,4,0,0,1,111,120h0c0-.16,0-.33-.07-.5h0s0-.11,0-.16,0-.3,0-.45,0-.16,0-.24c0-.24,0-.48,0-.73h0c0-.21,0-.43,0-.63s0-.27,0-.4,0-.15,0-.22,0-.33.06-.5a.25.25,0,0,1,0-.08,6,6,0,0,1,.12-.61h0a5.35,5.35,0,0,1,.2-.64h0a4,4,0,0,1,.93-1.5h0a3.67,3.67,0,0,1,.52-.42h0l.25-.14.15-.09.32-.15.22-.09.34-.11.28-.07.34-.08.37-.06.17,0h0l.55,0h.6l.73,0,.19,0a4,4,0,0,1,.5.06l.16,0a4.88,4.88,0,0,1,.55.12h0a4.06,4.06,0,0,1,3.13,3.55h0c0,.17.06.33.08.5h0c0,.06,0,.11,0,.16l0,.46a1.94,1.94,0,0,1,0,.24c0,.23,0,.48,0,.73h0c0,.22,0,.43,0,.64l0,.39a1.7,1.7,0,0,0,0,.22c0,.17,0,.34-.07.5" transform="translate(-9 -7)"/></g></g><g class="h"><g class="v"><path class="d" d="M58,159a.17.17,0,0,1,0,.07,6.18,6.18,0,0,1-.12.62h0a4.75,4.75,0,0,1-.2.64h0a4,4,0,0,1-.92,1.49h0a3.67,3.67,0,0,1-.52.42h0l-.25.14-.15.09-.32.15-.22.09-.33.1-.29.08-.34.08-.37.05-.17,0h0l-.55.05h0a5.82,5.82,0,0,1-.6,0h0l-.73,0-.19,0a4,4,0,0,1-.5-.06l-.16,0c-.19,0-.37-.07-.55-.12h0a4,4,0,0,1-3.13-3.55h0c0-.17-.05-.34-.08-.5h0a.86.86,0,0,1,0-.16c0-.14,0-.3,0-.45s0-.16,0-.24c0-.24,0-.48,0-.73h0c0-.22,0-.43,0-.64s0-.26,0-.39,0-.15,0-.22a4,4,0,0,1,.06-.5.22.22,0,0,1,0-.08c0-.21.07-.42.11-.62h0a4,4,0,0,1,.2-.64h0a4.18,4.18,0,0,1,.93-1.5h0a3.45,3.45,0,0,1,.51-.42h0a1.94,1.94,0,0,1,.24-.15l.15-.08.33-.16.22-.08.33-.11.29-.08.34-.07.36-.06.18,0h0l.55,0h0l.6,0h0c.26,0,.5,0,.73,0h.19l.5.06.16,0,.54.11h.05a4,4,0,0,1,3.13,3.55h0c0,.16.05.33.07.5h0a.86.86,0,0,1,0,.16c0,.15,0,.3,0,.45s0,.16,0,.24c0,.24,0,.48,0,.73h0c0,.21,0,.43,0,.63s0,.27,0,.4,0,.15,0,.22a4.26,4.26,0,0,1-.06.5" transform="translate(-9 -7)"/></g></g><g class="h"><g class="w"><path class="d" d="M83.44,145.89a.19.19,0,0,1,0,.08,6.18,6.18,0,0,1-.12.62h0a5.8,5.8,0,0,1-.2.63h0a4,4,0,0,1-.93,1.5h0a3.67,3.67,0,0,1-.52.42h0a2.07,2.07,0,0,1-.25.15l-.15.08a1.87,1.87,0,0,1-.32.15l-.22.09-.34.11-.28.08-.34.07-.37.06-.17,0h0l-.55.05h0l-.6,0h0c-.26,0-.5,0-.73,0h-.19l-.5-.06-.16,0-.55-.11h0a4,4,0,0,1-3.13-3.55h0c0-.16-.05-.33-.08-.5h0a.86.86,0,0,1,0-.16c0-.15,0-.3,0-.45a2.12,2.12,0,0,1,0-.24c0-.24,0-.48,0-.73h0c0-.21,0-.43,0-.63l0-.4a1.62,1.62,0,0,0,0-.22c0-.17,0-.33.07-.5a.25.25,0,0,1,0-.08c0-.21.07-.41.11-.61h0a4,4,0,0,1,.2-.64h0a4,4,0,0,1,.93-1.5h0a4.22,4.22,0,0,1,.51-.42h0l.24-.14.15-.09.33-.15.22-.09.33-.11.29-.07.34-.08.36-.06.18,0h0l.56,0h.6l.73,0,.19,0a4,4,0,0,1,.5.06l.16,0a4.28,4.28,0,0,1,.54.12h.05a4.06,4.06,0,0,1,3.13,3.55h0c0,.17,0,.33.07.5h0c0,.06,0,.11,0,.16s0,.31,0,.46,0,.16,0,.24c0,.23,0,.48,0,.73h0c0,.22,0,.43,0,.64s0,.26,0,.39,0,.15,0,.22a4,4,0,0,1-.06.5" transform="translate(-9 -7)"/></g></g><g class="h"><g class="x"><path class="d" d="M108.89,132.77s0,0,0,.07a6.18,6.18,0,0,1-.12.62h0c-.06.22-.12.43-.2.64h0a3.88,3.88,0,0,1-.93,1.49h0a4.33,4.33,0,0,1-.52.42h0l-.25.14-.15.09-.32.15-.22.09-.34.1-.28.08-.35.08-.36.05-.17,0h0l-.55.05h0a5.91,5.91,0,0,1-.6,0h0l-.73,0-.19,0a4,4,0,0,1-.5-.06l-.17,0c-.18,0-.37-.07-.54-.12h0a4.06,4.06,0,0,1-3.14-3.55h0c0-.17-.06-.34-.08-.5h0c0-.05,0-.11,0-.16s0-.3,0-.45,0-.16,0-.24c0-.24,0-.48,0-.73h0c0-.22,0-.43,0-.64l0-.39c0-.08,0-.15,0-.22l.06-.5a.22.22,0,0,0,0-.08c0-.21.07-.42.12-.62h0a5.79,5.79,0,0,1,.19-.63h0a3.92,3.92,0,0,1,.93-1.5h0A3,3,0,0,1,100,126h0a1.94,1.94,0,0,1,.24-.15l.15-.08.33-.16.22-.08.33-.11.29-.08.34-.07.36-.06.18,0h0l.56,0h0l.6,0h0c.25,0,.49,0,.73,0h.19l.5.06.16,0,.54.11h0a4,4,0,0,1,3.14,3.55h0a4,4,0,0,1,.08.5h0s0,.11,0,.16,0,.3,0,.45,0,.16,0,.24c0,.24,0,.48,0,.73h0c0,.21,0,.43,0,.63s0,.27,0,.4,0,.15,0,.22,0,.33-.06.5" transform="translate(-9 -7)"/></g></g><g class="h"><g class="y"><path class="d" d="M134.34,119.64s0,0,0,.08a6.18,6.18,0,0,1-.12.62h0a5.8,5.8,0,0,1-.2.63h0a4,4,0,0,1-.93,1.5h0a4.33,4.33,0,0,1-.52.42h0c-.08.06-.17.1-.25.15l-.15.08a3.13,3.13,0,0,1-.32.15l-.22.09-.34.11-.28.08-.35.07-.36.06-.18,0h0l-.55,0h0l-.6,0h0c-.26,0-.5,0-.73,0h-.19l-.5-.06-.17,0-.54-.11h0a4.07,4.07,0,0,1-3.14-3.55h0c0-.16-.06-.33-.08-.5h0s0-.11,0-.16,0-.3,0-.45,0-.16,0-.24c0-.24,0-.48,0-.73h0c0-.21,0-.43,0-.63l0-.4c0-.07,0-.15,0-.22l.06-.5a.19.19,0,0,0,0-.08c0-.21.07-.41.12-.61h0a5.36,5.36,0,0,1,.19-.64h0a4,4,0,0,1,.93-1.5h0a4.33,4.33,0,0,1,.52-.42h0l.24-.14.15-.09.33-.15.22-.09.33-.11.29-.07.34-.08.36-.06.18,0h0l.55,0H129l.73,0,.18,0a4,4,0,0,1,.51.06l.16,0a4.28,4.28,0,0,1,.54.12h0a4.07,4.07,0,0,1,3.14,3.55h0c0,.17.06.33.08.5h0a.81.81,0,0,0,0,.16c0,.15,0,.31,0,.46s0,.16,0,.24c0,.23,0,.48,0,.73h0c0,.22,0,.43,0,.64s0,.26,0,.39a1.55,1.55,0,0,1,0,.22l-.06.5" transform="translate(-9 -7)"/></g></g><g class="b"><g class="z"><path class="d" d="M147.06,106.52a.17.17,0,0,1,0,.07c0,.21-.07.42-.11.62h0a4.75,4.75,0,0,1-.2.64h0a4,4,0,0,1-.93,1.49h0a4.22,4.22,0,0,1-.51.42h0l-.24.14-.15.09-.33.15-.22.09-.33.1-.29.08-.34.08-.36,0-.18,0h0l-.55.05h0a5.82,5.82,0,0,1-.6,0h0l-.73,0-.19,0a4,4,0,0,1-.5-.06l-.16,0c-.19,0-.37-.07-.54-.12h-.05a4,4,0,0,1-3.13-3.55h0c0-.17,0-.34-.07-.5h0a.86.86,0,0,1,0-.16c0-.14,0-.3,0-.45s0-.16,0-.24c0-.24,0-.48,0-.73h0c0-.22,0-.43,0-.64s0-.26,0-.39,0-.15,0-.22a4,4,0,0,1,.06-.5.22.22,0,0,1,0-.08,6.18,6.18,0,0,1,.12-.62h0a4.21,4.21,0,0,1,.2-.63h0a4,4,0,0,1,.92-1.5h0a3.08,3.08,0,0,1,.52-.42h0a2.07,2.07,0,0,1,.25-.15s.09-.06.15-.08.21-.1.32-.16l.22-.08.33-.11.29-.08L140,99l.37-.06.17,0h0l.55,0h0l.6,0h0c.26,0,.5,0,.73,0h.19l.5.06.16,0a4.86,4.86,0,0,1,.55.11h0a4,4,0,0,1,3.13,3.55h0c0,.16.05.33.08.5h0a.86.86,0,0,1,0,.16c0,.15,0,.3,0,.45a1.94,1.94,0,0,1,0,.24c0,.24,0,.48,0,.73h0c0,.21,0,.43,0,.63s0,.27,0,.4,0,.15,0,.22a4.26,4.26,0,0,1-.06.5" transform="translate(-9 -7)"/></g></g><path class="d" d="M58,37.38a.19.19,0,0,0,0-.08,6.18,6.18,0,0,0-.12-.62h0a4.21,4.21,0,0,0-.2-.63h0a4,4,0,0,0-.92-1.5h0a3.67,3.67,0,0,0-.52-.42h0A2.07,2.07,0,0,0,56,34l-.15-.08a1.87,1.87,0,0,0-.32-.15,1.45,1.45,0,0,0-.22-.09L55,33.55l-.29-.08-.34-.07L54,33.34l-.17,0h0l-.55,0h0l-.6,0h0c-.26,0-.5,0-.73,0h-.19l-.5.06-.16,0a4.86,4.86,0,0,0-.55.11h0a4,4,0,0,0-3.13,3.55h0c0,.16-.05.33-.08.5h0a.86.86,0,0,0,0,.16c0,.15,0,.3,0,.45s0,.16,0,.24c0,.24,0,.48,0,.73h0c0,.21,0,.43,0,.63s0,.27,0,.4,0,.15,0,.22a4.26,4.26,0,0,0,.06.5.17.17,0,0,0,0,.07c0,.22.07.42.11.62h0a4.34,4.34,0,0,0,.2.64h0a4.14,4.14,0,0,0,.93,1.49h0a4.22,4.22,0,0,0,.51.42h0l.24.14.15.09.33.15.22.09.33.1.29.08.34.08.36.06.18,0h0L52,45h.6l.73,0,.19,0a4,4,0,0,0,.5-.06l.16,0a4.28,4.28,0,0,0,.54-.12h.05a4.06,4.06,0,0,0,3.13-3.56h0c0-.17.05-.34.07-.5h0a.81.81,0,0,0,0-.16c0-.14,0-.3,0-.45s0-.16,0-.24c0-.24,0-.48,0-.73h0c0-.22,0-.43,0-.64s0-.26,0-.39,0-.15,0-.22a4,4,0,0,0-.06-.5" transform="translate(-9 -7)"/><path class="d" d="M83.44,50.5a.17.17,0,0,0,0-.07,5.67,5.67,0,0,0-.12-.62h0a6,6,0,0,0-.2-.64h0a3.88,3.88,0,0,0-.93-1.49h0a3.67,3.67,0,0,0-.52-.42h0l-.25-.14L81.28,47,81,46.87l-.22-.09-.34-.1-.28-.08-.34-.08-.37-.06-.17,0h0l-.55,0h-.6l-.73,0-.19,0a4,4,0,0,0-.5.06l-.16,0a4.88,4.88,0,0,0-.55.12h0a4.06,4.06,0,0,0-3.13,3.56h0c0,.17-.05.34-.08.5h0a.81.81,0,0,0,0,.16c0,.14,0,.3,0,.45a1.94,1.94,0,0,0,0,.24c0,.24,0,.48,0,.73h0c0,.22,0,.43,0,.64l0,.39a1.7,1.7,0,0,1,0,.22c0,.17,0,.34.07.5a.25.25,0,0,0,0,.08c0,.21.07.42.11.62h0a4.21,4.21,0,0,0,.2.63h0a3.92,3.92,0,0,0,.93,1.5h0a4.22,4.22,0,0,0,.51.42h0a1.94,1.94,0,0,0,.24.15l.15.08.33.15.22.09.33.11.29.08.34.07.36.06.18,0h0l.56,0h0l.6,0h0c.26,0,.5,0,.73,0H79l.5-.06.16,0,.54-.11h.05a4,4,0,0,0,3.13-3.55h0c0-.16,0-.33.07-.5h0c0-.06,0-.11,0-.16s0-.3,0-.45,0-.16,0-.24c0-.24,0-.48,0-.73h0c0-.21,0-.43,0-.63s0-.27,0-.4,0-.15,0-.22a4.26,4.26,0,0,0-.06-.5" transform="translate(-9 -7)"/><path class="d" d="M108.89,63.63s0-.05,0-.08a6.18,6.18,0,0,0-.12-.62h0a5.8,5.8,0,0,0-.2-.63h0a3.92,3.92,0,0,0-.93-1.5h0a4.33,4.33,0,0,0-.52-.42h0c-.08-.06-.17-.1-.25-.15l-.15-.08a3.13,3.13,0,0,0-.32-.15l-.22-.09-.34-.11-.28-.08-.35-.07-.36-.06-.17,0h0l-.55,0h0l-.6,0h0c-.26,0-.5,0-.73,0h-.19l-.5.06-.17,0a4.69,4.69,0,0,0-.54.11h0a4.07,4.07,0,0,0-3.14,3.55h0c0,.16-.06.33-.08.5h0c0,.05,0,.11,0,.16s0,.3,0,.45,0,.16,0,.24c0,.24,0,.48,0,.73h0c0,.21,0,.43,0,.63l0,.4c0,.07,0,.15,0,.22l.06.5a.17.17,0,0,1,0,.07c0,.22.07.42.12.62h0a6,6,0,0,0,.19.64h0A3.88,3.88,0,0,0,99.43,70h0a3.57,3.57,0,0,0,.51.42h0l.24.14.15.09.33.15.22.09.33.1.29.08.34.08.36.06.18,0h0l.56,0h.6l.73,0,.19,0a4,4,0,0,0,.5-.06l.16,0a4.28,4.28,0,0,0,.54-.12h0a4.06,4.06,0,0,0,3.14-3.56h0a4.71,4.71,0,0,0,.08-.5h0s0-.1,0-.16,0-.3,0-.45,0-.16,0-.24c0-.24,0-.48,0-.73h0c0-.22,0-.43,0-.64s0-.26,0-.39,0-.15,0-.22,0-.34-.06-.5" transform="translate(-9 -7)"/><path class="d" d="M134.34,76.75s0,0,0-.07a5.67,5.67,0,0,0-.12-.62h0a6,6,0,0,0-.2-.64h0a3.88,3.88,0,0,0-.93-1.49h0a4.33,4.33,0,0,0-.52-.42h0l-.25-.14-.15-.09-.32-.15-.22-.09-.34-.1-.28-.08-.35-.08-.36-.06-.18,0h0l-.55,0H129l-.73,0-.19,0a4,4,0,0,0-.5.06l-.17,0a4.28,4.28,0,0,0-.54.12h0a4.08,4.08,0,0,0-3.14,3.56h0c0,.17-.06.34-.08.5h0s0,.1,0,.16,0,.3,0,.45,0,.16,0,.24c0,.24,0,.48,0,.73h0c0,.22,0,.43,0,.64l0,.39c0,.08,0,.15,0,.22l.06.5a.22.22,0,0,1,0,.08c0,.21.07.42.12.62h0a5.79,5.79,0,0,0,.19.63h0a3.92,3.92,0,0,0,.93,1.5h0a4.33,4.33,0,0,0,.52.42h0a1.94,1.94,0,0,0,.24.15l.15.08a3.31,3.31,0,0,0,.33.15,1.45,1.45,0,0,0,.22.09l.33.11.29.08.34.07.36.06.18,0h0l.55.05h0l.59,0h0c.25,0,.49,0,.73,0h.18l.51-.06.16,0,.54-.11h0a4.06,4.06,0,0,0,3.14-3.55h0c0-.16.06-.33.08-.5h0a.86.86,0,0,1,0-.16c0-.15,0-.3,0-.45s0-.16,0-.24c0-.24,0-.48,0-.73h0c0-.21,0-.43,0-.63s0-.27,0-.4a1.62,1.62,0,0,0,0-.22l-.06-.5" transform="translate(-9 -7)"/><path class="d" d="M45.27,37.38a.25.25,0,0,1,0-.08,6.18,6.18,0,0,0-.12-.62h0c-.06-.22-.13-.43-.2-.63h0a3.92,3.92,0,0,0-.93-1.5h0a4.33,4.33,0,0,0-.52-.42h0c-.08-.06-.17-.1-.25-.15l-.15-.08a1.66,1.66,0,0,0-.33-.15l-.21-.09-.34-.11L42,33.47l-.35-.07-.36-.06-.18,0h0l-.55,0h0l-.6,0h0q-.37,0-.72,0H39l-.51.06-.16,0a4.29,4.29,0,0,0-.54.11h0a4.07,4.07,0,0,0-3.14,3.55h0c0,.16-.06.33-.08.5h0c0,.05,0,.11,0,.16s0,.3,0,.45,0,.16,0,.24c0,.24,0,.48,0,.73h0c0,.21,0,.43,0,.63l0,.4c0,.07,0,.15,0,.22l.06.5a.17.17,0,0,1,0,.07,5.67,5.67,0,0,0,.12.62h0a6,6,0,0,0,.19.64h0a3.88,3.88,0,0,0,.93,1.49h0a4.33,4.33,0,0,0,.52.42h0l.25.14.15.09.33.15.21.09.34.1.29.08.34.08.36.06.18,0h0l.55.05h.61l.73,0,.18,0a4,4,0,0,0,.51-.06l.16,0a4.28,4.28,0,0,0,.54-.12h0a4.08,4.08,0,0,0,3.14-3.56h0c0-.17.06-.34.08-.5h0a.92.92,0,0,1,0-.16c0-.14,0-.3,0-.45s0-.16,0-.24c0-.24,0-.48,0-.73h0c0-.22,0-.43,0-.64l0-.39a1.55,1.55,0,0,0,0-.22l-.06-.5" transform="translate(-9 -7)"/><path class="d" d="M45.27,50.5a.17.17,0,0,1,0-.07,5.67,5.67,0,0,0-.12-.62h0c-.06-.22-.13-.44-.2-.64h0A3.88,3.88,0,0,0,44,47.68h0a4.33,4.33,0,0,0-.52-.42h0l-.25-.14L43.11,47l-.33-.15-.21-.09-.34-.1L42,46.6l-.35-.08-.36-.06-.18,0h0l-.55,0h-.61l-.72,0-.19,0a4.18,4.18,0,0,0-.51.06l-.16,0a4.28,4.28,0,0,0-.54.12h0a4.08,4.08,0,0,0-3.14,3.56h0c0,.17-.06.34-.08.5h0s0,.1,0,.16,0,.3,0,.45,0,.16,0,.24c0,.24,0,.48,0,.73h0c0,.22,0,.43,0,.64l0,.39c0,.08,0,.15,0,.22l.06.5a.19.19,0,0,1,0,.08,6.18,6.18,0,0,0,.12.62h0a5.79,5.79,0,0,0,.19.63h0a3.92,3.92,0,0,0,.93,1.5h0a4.33,4.33,0,0,0,.52.42h0c.08.06.17.1.25.15l.15.08a2.52,2.52,0,0,0,.33.15l.21.09.34.11.29.08.34.07.36.06.18,0h0l.55,0h0l.59,0h0c.25,0,.49,0,.73,0h.18l.51-.06.16,0L42,57.9h0a4.07,4.07,0,0,0,3.14-3.55h0c0-.16.06-.33.08-.5h0a.81.81,0,0,1,0-.16c0-.15,0-.3,0-.45s0-.16,0-.24c0-.24,0-.48,0-.73h0c0-.21,0-.43,0-.63l0-.4a1.62,1.62,0,0,0,0-.22l-.06-.5" transform="translate(-9 -7)"/><path class="d" d="M45.27,63.63a.22.22,0,0,1,0-.08,6.18,6.18,0,0,0-.12-.62h0c-.06-.22-.13-.43-.2-.63h0A3.92,3.92,0,0,0,44,60.8h0a4.33,4.33,0,0,0-.52-.42h0c-.08-.06-.17-.1-.25-.15l-.15-.08a2.52,2.52,0,0,0-.33-.15l-.21-.09-.34-.11L42,59.72l-.35-.07-.36-.06-.18,0h0l-.55,0h0l-.6,0h0q-.37,0-.72,0H39l-.51.06-.16,0a4.29,4.29,0,0,0-.54.11h0a4.07,4.07,0,0,0-3.14,3.55h0c0,.16-.06.33-.08.5h0c0,.05,0,.11,0,.16s0,.3,0,.45,0,.16,0,.24c0,.24,0,.48,0,.73h0c0,.21,0,.43,0,.63l0,.4c0,.07,0,.15,0,.22l.06.5a.17.17,0,0,1,0,.07,5.67,5.67,0,0,0,.12.62h0a6,6,0,0,0,.19.64h0A3.88,3.88,0,0,0,35.81,70h0a4.33,4.33,0,0,0,.52.42h0l.25.14.15.09.33.15.21.09.34.1.29.08.34.08.36.06.18,0h0l.55,0h.61l.73,0,.18,0a4,4,0,0,0,.51-.06l.16,0A4.28,4.28,0,0,0,42,71h0a4.08,4.08,0,0,0,3.14-3.56h0c0-.17.06-.34.08-.5h0a.92.92,0,0,1,0-.16c0-.14,0-.3,0-.45s0-.16,0-.24c0-.24,0-.48,0-.73h0c0-.22,0-.43,0-.64l0-.39a1.55,1.55,0,0,0,0-.22l-.06-.5" transform="translate(-9 -7)"/><path class="d" d="M45.27,76.75a.17.17,0,0,1,0-.07,5.67,5.67,0,0,0-.12-.62h0c-.06-.22-.13-.44-.2-.64h0A3.88,3.88,0,0,0,44,73.93h0a4.33,4.33,0,0,0-.52-.42h0l-.25-.14-.15-.09-.33-.15L42.57,73l-.34-.1L42,72.85l-.35-.08-.36-.06-.18,0h0l-.55,0h-.61l-.72,0-.19,0a4.18,4.18,0,0,0-.51.06l-.16,0a4.28,4.28,0,0,0-.54.12h0a4.08,4.08,0,0,0-3.14,3.56h0c0,.17-.06.34-.08.5h0s0,.1,0,.16,0,.3,0,.45,0,.16,0,.24c0,.24,0,.48,0,.73h0c0,.22,0,.43,0,.64l0,.39c0,.08,0,.15,0,.22l.06.5a.22.22,0,0,1,0,.08,6.18,6.18,0,0,0,.12.62h0a5.79,5.79,0,0,0,.19.63h0a3.92,3.92,0,0,0,.93,1.5h0a4.33,4.33,0,0,0,.52.42h0c.08.06.17.1.25.15l.15.08a2.52,2.52,0,0,0,.33.15,1.89,1.89,0,0,0,.21.09l.34.11.29.08.34.07.36.06.18,0h0l.55.05h0l.59,0h0c.25,0,.49,0,.73,0h.18l.51-.06.16,0,.54-.11h0a4.07,4.07,0,0,0,3.14-3.55h0c0-.16.06-.33.08-.5h0a.86.86,0,0,1,0-.16c0-.15,0-.3,0-.45s0-.16,0-.24c0-.24,0-.48,0-.73h0c0-.21,0-.43,0-.63l0-.4a1.62,1.62,0,0,0,0-.22l-.06-.5" transform="translate(-9 -7)"/><path class="d" d="M45.27,89.88a.22.22,0,0,1,0-.08,6.18,6.18,0,0,0-.12-.62h0c-.06-.22-.13-.43-.2-.63h0a3.92,3.92,0,0,0-.93-1.5h0a4.33,4.33,0,0,0-.52-.42h0c-.08-.06-.17-.1-.25-.15l-.15-.08a2.52,2.52,0,0,0-.33-.15,1.89,1.89,0,0,0-.21-.09l-.34-.11L42,86l-.35-.07-.36-.06-.18,0h0l-.55,0h0l-.6,0h0q-.37,0-.72,0H39l-.51.06-.16,0-.54.11h0a4.07,4.07,0,0,0-3.14,3.55h0c0,.16-.06.33-.08.5h0s0,.11,0,.16,0,.3,0,.45,0,.16,0,.24c0,.24,0,.48,0,.73h0c0,.21,0,.43,0,.63l0,.4c0,.07,0,.15,0,.22l.06.5a.17.17,0,0,1,0,.07,5.67,5.67,0,0,0,.12.62h0a6,6,0,0,0,.19.64h0a3.88,3.88,0,0,0,.93,1.49h0a4.33,4.33,0,0,0,.52.42h0l.25.14.15.09.33.15.21.09.34.1.29.08.34.08.36.06.18,0h0l.55,0h.61l.73,0,.18,0a4,4,0,0,0,.51-.06l.16,0a4.28,4.28,0,0,0,.54-.12h0a4.08,4.08,0,0,0,3.14-3.56h0c0-.17.06-.34.08-.5h0a.92.92,0,0,1,0-.16c0-.14,0-.3,0-.45s0-.16,0-.24c0-.24,0-.48,0-.73h0c0-.22,0-.43,0-.64l0-.39a1.55,1.55,0,0,0,0-.22l-.06-.5" transform="translate(-9 -7)"/><path class="d" d="M58,50.5a.17.17,0,0,0,0-.07,5.67,5.67,0,0,0-.12-.62h0a4.34,4.34,0,0,0-.2-.64h0a4,4,0,0,0-.92-1.49h0a3.67,3.67,0,0,0-.52-.42h0L56,47.11,55.83,47l-.32-.15-.22-.09-.33-.1-.29-.08-.34-.08L54,46.46l-.17,0h0l-.55,0h-.6l-.73,0-.19,0a4,4,0,0,0-.5.06l-.16,0a4.88,4.88,0,0,0-.55.12h0a4.06,4.06,0,0,0-3.13,3.56h0c0,.17-.05.34-.08.5h0a.81.81,0,0,0,0,.16c0,.14,0,.3,0,.45s0,.16,0,.24c0,.24,0,.48,0,.73h0c0,.22,0,.43,0,.64s0,.26,0,.39,0,.15,0,.22a4,4,0,0,0,.06.5.25.25,0,0,0,0,.08c0,.21.07.42.11.62h0a4.21,4.21,0,0,0,.2.63h0a4.18,4.18,0,0,0,.93,1.5h0a4.22,4.22,0,0,0,.51.42h0a1.94,1.94,0,0,0,.24.15l.15.08.33.15.22.09.33.11.29.08L51,58l.36.06.18,0h0l.55,0h0l.6,0h0c.26,0,.5,0,.73,0h.19l.5-.06.16,0,.54-.11h.05a4,4,0,0,0,3.13-3.55h0c0-.16.05-.33.07-.5h0a.92.92,0,0,0,0-.16c0-.15,0-.3,0-.45s0-.16,0-.24c0-.24,0-.48,0-.73h0c0-.21,0-.43,0-.63s0-.27,0-.4,0-.15,0-.22a4.26,4.26,0,0,0-.06-.5" transform="translate(-9 -7)"/><path class="d" d="M58,63.63a.22.22,0,0,0,0-.08,6.18,6.18,0,0,0-.12-.62h0a4.21,4.21,0,0,0-.2-.63h0a4,4,0,0,0-.92-1.5h0a3.67,3.67,0,0,0-.52-.42h0a2.07,2.07,0,0,0-.25-.15l-.15-.08a3.13,3.13,0,0,0-.32-.15,1.45,1.45,0,0,0-.22-.09L55,59.8l-.29-.08-.34-.07L54,59.59l-.17,0h0l-.55,0h0l-.6,0h0c-.26,0-.5,0-.73,0h-.19l-.5.06-.16,0a4.86,4.86,0,0,0-.55.11h0a4,4,0,0,0-3.13,3.55h0c0,.16-.05.33-.08.5h0a.86.86,0,0,0,0,.16c0,.15,0,.3,0,.45s0,.16,0,.24c0,.24,0,.48,0,.73h0c0,.21,0,.43,0,.63s0,.27,0,.4,0,.15,0,.22a4.26,4.26,0,0,0,.06.5.17.17,0,0,0,0,.07c0,.22.07.42.11.62h0a4.34,4.34,0,0,0,.2.64h0A4.14,4.14,0,0,0,48.53,70h0a4.22,4.22,0,0,0,.51.42h0l.24.14.15.09.33.15.22.09.33.1.29.08.34.08.36.06.18,0h0l.55,0h.6l.73,0,.19,0a4,4,0,0,0,.5-.06l.16,0a4.28,4.28,0,0,0,.54-.12h.05a4.06,4.06,0,0,0,3.13-3.56h0c0-.17.05-.34.07-.5h0a.81.81,0,0,0,0-.16c0-.14,0-.3,0-.45s0-.16,0-.24c0-.24,0-.48,0-.73h0c0-.22,0-.43,0-.64s0-.26,0-.39,0-.15,0-.22a4,4,0,0,0-.06-.5" transform="translate(-9 -7)"/><path class="d" d="M58,76.75a.17.17,0,0,0,0-.07,5.67,5.67,0,0,0-.12-.62h0a4.34,4.34,0,0,0-.2-.64h0a4,4,0,0,0-.92-1.49h0a3.67,3.67,0,0,0-.52-.42h0L56,73.36l-.15-.09-.32-.15L55.29,73l-.33-.1-.29-.08-.34-.08L54,72.71l-.17,0h0l-.55,0h-.6l-.73,0-.19,0a4,4,0,0,0-.5.06l-.16,0a4.88,4.88,0,0,0-.55.12h0a4.06,4.06,0,0,0-3.13,3.56h0c0,.17-.05.34-.08.5h0a.81.81,0,0,0,0,.16c0,.14,0,.3,0,.45s0,.16,0,.24c0,.24,0,.48,0,.73h0c0,.22,0,.43,0,.64s0,.26,0,.39,0,.15,0,.22a4,4,0,0,0,.06.5.22.22,0,0,0,0,.08c0,.21.07.42.11.62h0a4.21,4.21,0,0,0,.2.63h0a4.18,4.18,0,0,0,.93,1.5h0a4.22,4.22,0,0,0,.51.42h0a1.94,1.94,0,0,0,.24.15l.15.08c.11.06.22.1.33.15A1.45,1.45,0,0,0,50,84l.33.11.29.08.34.07.36.06.18,0h0l.55.05h0l.6,0h0c.26,0,.5,0,.73,0h.19l.5-.06.16,0,.54-.11h.05a4,4,0,0,0,3.13-3.55h0c0-.16.05-.33.07-.5h0a.86.86,0,0,0,0-.16c0-.15,0-.3,0-.45s0-.16,0-.24c0-.24,0-.48,0-.73h0c0-.21,0-.43,0-.63s0-.27,0-.4,0-.15,0-.22a4.26,4.26,0,0,0-.06-.5" transform="translate(-9 -7)"/><path class="d" d="M58,89.88a.22.22,0,0,0,0-.08,6.18,6.18,0,0,0-.12-.62h0a4.21,4.21,0,0,0-.2-.63h0a4,4,0,0,0-.92-1.5h0a3.67,3.67,0,0,0-.52-.42h0a2.07,2.07,0,0,0-.25-.15l-.15-.08a3.13,3.13,0,0,0-.32-.15,1.45,1.45,0,0,0-.22-.09L55,86.05,54.67,86l-.34-.07L54,85.84l-.17,0h0l-.55,0h0l-.6,0h0c-.26,0-.5,0-.73,0h-.19l-.5.06-.16,0-.55.11h0a4,4,0,0,0-3.13,3.55h0c0,.16-.05.33-.08.5h0a.86.86,0,0,0,0,.16c0,.15,0,.3,0,.45s0,.16,0,.24c0,.24,0,.48,0,.73h0c0,.21,0,.43,0,.63s0,.27,0,.4,0,.15,0,.22a4.26,4.26,0,0,0,.06.5.17.17,0,0,0,0,.07c0,.22.07.42.11.62h0a4.34,4.34,0,0,0,.2.64h0a4.14,4.14,0,0,0,.93,1.49h0a4.22,4.22,0,0,0,.51.42h0l.24.14.15.09.33.15.22.09.33.1.29.08.34.08.36.06.18,0h0l.55,0h.6l.73,0,.19,0a4,4,0,0,0,.5-.06l.16,0a4.28,4.28,0,0,0,.54-.12h.05a4.06,4.06,0,0,0,3.13-3.56h0c0-.17.05-.34.07-.5h0a.81.81,0,0,0,0-.16c0-.14,0-.3,0-.45s0-.16,0-.24c0-.24,0-.48,0-.73h0c0-.22,0-.43,0-.64s0-.26,0-.39,0-.15,0-.22a4,4,0,0,0-.06-.5" transform="translate(-9 -7)"/><path class="d" d="M70.72,50.5a.17.17,0,0,1,0-.07,5.67,5.67,0,0,0-.12-.62h0a6,6,0,0,0-.19-.64h0a3.88,3.88,0,0,0-.93-1.49h0a4.33,4.33,0,0,0-.52-.42h0l-.25-.14L68.56,47l-.33-.15L68,46.78l-.34-.1-.29-.08-.34-.08-.36-.06-.18,0h0l-.55,0h-.61l-.73,0-.18,0a4,4,0,0,0-.51.06l-.16,0a4.28,4.28,0,0,0-.54.12h0a4.08,4.08,0,0,0-3.14,3.56h0c0,.17-.06.34-.08.5h0s0,.1,0,.16,0,.3,0,.45,0,.16,0,.24c0,.24,0,.48,0,.73h0c0,.22,0,.43,0,.64l0,.39a1.55,1.55,0,0,0,0,.22L60,54a.19.19,0,0,1,0,.08,6.18,6.18,0,0,0,.12.62h0c.06.22.13.43.2.63h0a3.92,3.92,0,0,0,.93,1.5h0a4.33,4.33,0,0,0,.52.42h0c.08.06.17.1.25.15l.15.08a2.52,2.52,0,0,0,.33.15l.21.09.34.11.29.08.34.07.36.06.18,0h0l.55,0h0l.6,0h0q.38,0,.72,0h.19l.51-.06L67,58l.54-.11h0a4.07,4.07,0,0,0,3.14-3.55h0c0-.16.06-.33.08-.5h0c0-.06,0-.11,0-.16s0-.3,0-.45,0-.16,0-.24c0-.24,0-.48,0-.73h0c0-.21,0-.43,0-.63l0-.4c0-.07,0-.15,0-.22l-.06-.5" transform="translate(-9 -7)"/><path class="d" d="M70.72,63.63a.22.22,0,0,1,0-.08,6.18,6.18,0,0,0-.12-.62h0a5.79,5.79,0,0,0-.19-.63h0a3.92,3.92,0,0,0-.93-1.5h0a4.33,4.33,0,0,0-.52-.42h0c-.08-.06-.17-.1-.25-.15l-.15-.08a2.52,2.52,0,0,0-.33-.15L68,59.91l-.34-.11-.29-.08-.34-.07-.36-.06-.18,0h0l-.55,0h0l-.59,0h0c-.25,0-.49,0-.73,0h-.18l-.51.06-.16,0a4.29,4.29,0,0,0-.54.11h0a4.07,4.07,0,0,0-3.14,3.55h0c0,.16-.06.33-.08.5h0c0,.05,0,.11,0,.16s0,.3,0,.45,0,.16,0,.24c0,.24,0,.48,0,.73h0c0,.21,0,.43,0,.63l0,.4a1.62,1.62,0,0,0,0,.22l.06.5a.17.17,0,0,1,0,.07,5.67,5.67,0,0,0,.12.62h0c.06.22.13.44.2.64h0A3.88,3.88,0,0,0,61.26,70h0a4.33,4.33,0,0,0,.52.42h0l.25.14.15.09.33.15.21.09.34.1.29.08.34.08.36.06.18,0h0l.55,0h.61l.72,0,.19,0a4.18,4.18,0,0,0,.51-.06l.16,0a4.28,4.28,0,0,0,.54-.12h0a4.08,4.08,0,0,0,3.14-3.56h0c0-.17.06-.34.08-.5h0s0-.1,0-.16,0-.3,0-.45,0-.16,0-.24c0-.24,0-.48,0-.73h0c0-.22,0-.43,0-.64l0-.39c0-.08,0-.15,0-.22l-.06-.5" transform="translate(-9 -7)"/><path class="d" d="M70.72,76.75a.17.17,0,0,1,0-.07,5.67,5.67,0,0,0-.12-.62h0a6,6,0,0,0-.19-.64h0a3.88,3.88,0,0,0-.93-1.49h0a4.33,4.33,0,0,0-.52-.42h0l-.25-.14-.15-.09-.33-.15L68,73l-.34-.1-.29-.08-.34-.08-.36-.06-.18,0h0l-.55,0h-.61l-.73,0-.18,0a4,4,0,0,0-.51.06l-.16,0a4.28,4.28,0,0,0-.54.12h0a4.08,4.08,0,0,0-3.14,3.56h0c0,.17-.06.34-.08.5h0s0,.1,0,.16,0,.3,0,.45,0,.16,0,.24c0,.24,0,.48,0,.73h0c0,.22,0,.43,0,.64l0,.39a1.55,1.55,0,0,0,0,.22l.06.5a.22.22,0,0,1,0,.08,6.18,6.18,0,0,0,.12.62h0c.06.22.13.43.2.63h0a3.92,3.92,0,0,0,.93,1.5h0a4.33,4.33,0,0,0,.52.42h0c.08.06.17.1.25.15l.15.08a2.52,2.52,0,0,0,.33.15,1.89,1.89,0,0,0,.21.09l.34.11.29.08.34.07.36.06.18,0h0l.55.05h0l.6,0h0q.38,0,.72,0h.19l.51-.06.16,0,.54-.11h0a4.07,4.07,0,0,0,3.14-3.55h0c0-.16.06-.33.08-.5h0s0-.11,0-.16,0-.3,0-.45,0-.16,0-.24c0-.24,0-.48,0-.73h0c0-.21,0-.43,0-.63l0-.4c0-.07,0-.15,0-.22l-.06-.5" transform="translate(-9 -7)"/><path class="d" d="M70.72,89.88a.22.22,0,0,1,0-.08,6.18,6.18,0,0,0-.12-.62h0a5.79,5.79,0,0,0-.19-.63h0a3.92,3.92,0,0,0-.93-1.5h0a4.33,4.33,0,0,0-.52-.42h0c-.08-.06-.17-.1-.25-.15l-.15-.08a2.52,2.52,0,0,0-.33-.15,1.89,1.89,0,0,0-.21-.09l-.34-.11L67.39,86l-.34-.07-.36-.06-.18,0h0l-.55,0h0l-.59,0h0c-.25,0-.49,0-.73,0h-.18l-.51.06-.16,0-.54.11h0a4.07,4.07,0,0,0-3.14,3.55h0c0,.16-.06.33-.08.5h0s0,.11,0,.16,0,.3,0,.45,0,.16,0,.24c0,.24,0,.48,0,.73h0c0,.21,0,.43,0,.63l0,.4a1.62,1.62,0,0,0,0,.22l.06.5a.17.17,0,0,1,0,.07,5.67,5.67,0,0,0,.12.62h0c.06.22.13.44.2.64h0a3.88,3.88,0,0,0,.93,1.49h0a4.33,4.33,0,0,0,.52.42h0l.25.14.15.09.33.15.21.09.34.1.29.08.34.08.36.06.18,0h0l.55,0h.61l.72,0,.19,0a4.18,4.18,0,0,0,.51-.06l.16,0a4.28,4.28,0,0,0,.54-.12h0a4.08,4.08,0,0,0,3.14-3.56h0c0-.17.06-.34.08-.5h0s0-.1,0-.16,0-.3,0-.45,0-.16,0-.24c0-.24,0-.48,0-.73h0c0-.22,0-.43,0-.64l0-.39c0-.08,0-.15,0-.22l-.06-.5" transform="translate(-9 -7)"/><path class="d" d="M83.44,63.63a.22.22,0,0,0,0-.08,6.18,6.18,0,0,0-.12-.62h0a5.8,5.8,0,0,0-.2-.63h0a3.92,3.92,0,0,0-.93-1.5h0a3.67,3.67,0,0,0-.52-.42h0a2.07,2.07,0,0,0-.25-.15l-.15-.08A3.13,3.13,0,0,0,81,60a2,2,0,0,0-.22-.09l-.34-.11-.28-.08-.34-.07-.37-.06-.17,0h0l-.55,0h0l-.6,0h0c-.26,0-.5,0-.73,0h-.19l-.5.06-.16,0a4.86,4.86,0,0,0-.55.11h0a4,4,0,0,0-3.13,3.55h0c0,.16-.05.33-.08.5h0a.86.86,0,0,0,0,.16c0,.15,0,.3,0,.45a2.12,2.12,0,0,0,0,.24c0,.24,0,.48,0,.73h0c0,.21,0,.43,0,.63l0,.4a1.62,1.62,0,0,1,0,.22c0,.17,0,.33.07.5a.17.17,0,0,0,0,.07c0,.22.07.42.11.62h0a4.34,4.34,0,0,0,.2.64h0A3.88,3.88,0,0,0,74,70h0a4.22,4.22,0,0,0,.51.42h0l.24.14.15.09.33.15.22.09.33.1.29.08.34.08.36.06.18,0h0l.56,0h.6l.73,0,.19,0a4,4,0,0,0,.5-.06l.16,0a4.28,4.28,0,0,0,.54-.12h.05a4.06,4.06,0,0,0,3.13-3.56h0c0-.17,0-.34.07-.5h0s0-.1,0-.16,0-.3,0-.45,0-.16,0-.24c0-.24,0-.48,0-.73h0c0-.22,0-.43,0-.64s0-.26,0-.39,0-.15,0-.22a4,4,0,0,0-.06-.5" transform="translate(-9 -7)"/><path class="d" d="M83.44,76.75a.17.17,0,0,0,0-.07,5.67,5.67,0,0,0-.12-.62h0a6,6,0,0,0-.2-.64h0a3.88,3.88,0,0,0-.93-1.49h0a3.67,3.67,0,0,0-.52-.42h0l-.25-.14-.15-.09L81,73.12,80.74,73l-.34-.1-.28-.08-.34-.08-.37-.06-.17,0h0l-.55,0h-.6l-.73,0-.19,0a4,4,0,0,0-.5.06l-.16,0a4.88,4.88,0,0,0-.55.12h0a4.06,4.06,0,0,0-3.13,3.56h0c0,.17-.05.34-.08.5h0a.81.81,0,0,0,0,.16c0,.14,0,.3,0,.45a1.94,1.94,0,0,0,0,.24c0,.24,0,.48,0,.73h0c0,.22,0,.43,0,.64l0,.39a1.7,1.7,0,0,1,0,.22c0,.17,0,.34.07.5a.22.22,0,0,0,0,.08c0,.21.07.42.11.62h0a4.21,4.21,0,0,0,.2.63h0a3.92,3.92,0,0,0,.93,1.5h0a4.22,4.22,0,0,0,.51.42h0a1.94,1.94,0,0,0,.24.15l.15.08c.11.06.22.1.33.15a1.45,1.45,0,0,0,.22.09l.33.11.29.08.34.07.36.06.18,0h0l.56.05h0l.6,0h0c.26,0,.5,0,.73,0H79l.5-.06.16,0,.54-.11h.05a4,4,0,0,0,3.13-3.55h0c0-.16,0-.33.07-.5h0s0-.11,0-.16,0-.3,0-.45,0-.16,0-.24c0-.24,0-.48,0-.73h0c0-.21,0-.43,0-.63s0-.27,0-.4,0-.15,0-.22a4.26,4.26,0,0,0-.06-.5" transform="translate(-9 -7)"/><path class="d" d="M83.44,89.88a.22.22,0,0,0,0-.08,6.18,6.18,0,0,0-.12-.62h0a5.8,5.8,0,0,0-.2-.63h0a3.92,3.92,0,0,0-.93-1.5h0a3.67,3.67,0,0,0-.52-.42h0a2.07,2.07,0,0,0-.25-.15l-.15-.08a3.13,3.13,0,0,0-.32-.15,2,2,0,0,0-.22-.09l-.34-.11L80.12,86l-.34-.07-.37-.06-.17,0h0l-.55,0h0l-.6,0h0c-.26,0-.5,0-.73,0h-.19l-.5.06-.16,0L76,86h0a4,4,0,0,0-3.13,3.55h0c0,.16-.05.33-.08.5h0a.86.86,0,0,0,0,.16c0,.15,0,.3,0,.45a2.12,2.12,0,0,0,0,.24c0,.24,0,.48,0,.73h0c0,.21,0,.43,0,.63l0,.4a1.62,1.62,0,0,1,0,.22c0,.17,0,.33.07.5a.17.17,0,0,0,0,.07c0,.22.07.42.11.62h0a4.34,4.34,0,0,0,.2.64h0A3.88,3.88,0,0,0,74,96.21h0a4.22,4.22,0,0,0,.51.42h0l.24.14.15.09.33.15.22.09.33.1.29.08.34.08.36.06.18,0h0l.56,0h.6l.73,0,.19,0a4,4,0,0,0,.5-.06l.16,0a4.28,4.28,0,0,0,.54-.12h.05a4.06,4.06,0,0,0,3.13-3.56h0c0-.17,0-.34.07-.5h0s0-.1,0-.16,0-.3,0-.45,0-.16,0-.24c0-.24,0-.48,0-.73h0c0-.22,0-.43,0-.64s0-.26,0-.39,0-.15,0-.22a4,4,0,0,0-.06-.5" transform="translate(-9 -7)"/><path class="d" d="M96.17,63.63a.22.22,0,0,1,0-.08c0-.21-.07-.42-.12-.62h0a5.79,5.79,0,0,0-.19-.63h0a3.92,3.92,0,0,0-.93-1.5h0a3.57,3.57,0,0,0-.51-.42h0a1.94,1.94,0,0,0-.24-.15L94,60.15,93.68,60a1.45,1.45,0,0,0-.22-.09l-.33-.11-.29-.08-.34-.07-.36-.06-.18,0h0l-.56,0h0l-.6,0h0c-.25,0-.49,0-.73,0h-.19l-.5.06-.16,0a4.29,4.29,0,0,0-.54.11h0a4,4,0,0,0-3.14,3.55h0c0,.16-.06.33-.08.5h0c0,.05,0,.11,0,.16s0,.3,0,.45,0,.16,0,.24c0,.24,0,.48,0,.73h0c0,.21,0,.43,0,.63s0,.27,0,.4,0,.15,0,.22,0,.33.06.5c0,0,0,0,0,.07a5.67,5.67,0,0,0,.12.62h0a6,6,0,0,0,.2.64h0A3.88,3.88,0,0,0,86.71,70h0a4.33,4.33,0,0,0,.52.42h0l.25.14.15.09.32.15.22.09.34.1.28.08.35.08.36.06.17,0h0l.55,0h.6l.73,0,.19,0a4,4,0,0,0,.5-.06l.17,0a4.71,4.71,0,0,0,.54-.12h0a4.08,4.08,0,0,0,3.14-3.56h0c0-.17.06-.34.08-.5h0s0-.1,0-.16,0-.3,0-.45,0-.16,0-.24c0-.24,0-.48,0-.73h0c0-.22,0-.43,0-.64l0-.39c0-.08,0-.15,0-.22l-.06-.5" transform="translate(-9 -7)"/><path class="d" d="M96.17,76.75a.17.17,0,0,1,0-.07c0-.22-.07-.42-.12-.62h0a6,6,0,0,0-.19-.64h0a3.88,3.88,0,0,0-.93-1.49h0a3.57,3.57,0,0,0-.51-.42h0l-.24-.14L94,73.27l-.33-.15L93.46,73l-.33-.1-.29-.08-.34-.08-.36-.06-.18,0h0l-.56,0h-.6l-.73,0-.19,0a4,4,0,0,0-.5.06l-.16,0a4.28,4.28,0,0,0-.54.12h0a4.06,4.06,0,0,0-3.14,3.56h0c0,.17-.06.34-.08.5h0s0,.1,0,.16,0,.3,0,.45,0,.16,0,.24c0,.24,0,.48,0,.73h0c0,.22,0,.43,0,.64s0,.26,0,.39,0,.15,0,.22,0,.34.06.5,0,0,0,.08a6.18,6.18,0,0,0,.12.62h0a5.8,5.8,0,0,0,.2.63h0a3.92,3.92,0,0,0,.93,1.5h0a4.33,4.33,0,0,0,.52.42h0c.08.06.17.1.25.15l.15.08a3.13,3.13,0,0,0,.32.15l.22.09.34.11.28.08.35.07.36.06.17,0h0l.55.05h0l.6,0h0c.26,0,.5,0,.73,0h.19l.5-.06.17,0,.54-.11h0a4.07,4.07,0,0,0,3.14-3.55h0c0-.16.06-.33.08-.5h0s0-.11,0-.16,0-.3,0-.45,0-.16,0-.24c0-.24,0-.48,0-.73h0c0-.21,0-.43,0-.63l0-.4c0-.07,0-.15,0-.22l-.06-.5" transform="translate(-9 -7)"/><path class="d" d="M96.17,89.88a.22.22,0,0,1,0-.08c0-.21-.07-.42-.12-.62h0a5.79,5.79,0,0,0-.19-.63h0a3.92,3.92,0,0,0-.93-1.5h0a3.57,3.57,0,0,0-.51-.42h0a1.94,1.94,0,0,0-.24-.15L94,86.4c-.11-.06-.22-.1-.33-.15a1.45,1.45,0,0,0-.22-.09l-.33-.11L92.84,86l-.34-.07-.36-.06-.18,0h0l-.56,0h0l-.6,0h0c-.25,0-.49,0-.73,0h-.19l-.5.06-.16,0-.54.11h0a4,4,0,0,0-3.14,3.55h0c0,.16-.06.33-.08.5h0s0,.11,0,.16,0,.3,0,.45,0,.16,0,.24c0,.24,0,.48,0,.73h0c0,.21,0,.43,0,.63s0,.27,0,.4,0,.15,0,.22,0,.33.06.5c0,0,0,0,0,.07a5.67,5.67,0,0,0,.12.62h0a6,6,0,0,0,.2.64h0a3.88,3.88,0,0,0,.93,1.49h0a4.33,4.33,0,0,0,.52.42h0l.25.14.15.09.32.15.22.09.34.1.28.08.35.08.36.06.17,0h0l.55,0h.6l.73,0,.19,0a4,4,0,0,0,.5-.06l.17,0a4.71,4.71,0,0,0,.54-.12h0a4.08,4.08,0,0,0,3.14-3.56h0c0-.17.06-.34.08-.5h0s0-.1,0-.16,0-.3,0-.45,0-.16,0-.24c0-.24,0-.48,0-.73h0c0-.22,0-.43,0-.64l0-.39c0-.08,0-.15,0-.22l-.06-.5" transform="translate(-9 -7)"/><path class="d" d="M108.89,76.75s0,0,0-.07a5.67,5.67,0,0,0-.12-.62h0a6,6,0,0,0-.2-.64h0a3.88,3.88,0,0,0-.93-1.49h0a4.33,4.33,0,0,0-.52-.42h0l-.25-.14-.15-.09-.32-.15-.22-.09-.34-.1-.28-.08-.35-.08-.36-.06-.17,0h0l-.55,0h-.6l-.73,0-.19,0a4,4,0,0,0-.5.06l-.17,0a4.71,4.71,0,0,0-.54.12h0a4.08,4.08,0,0,0-3.14,3.56h0c0,.17-.06.34-.08.5h0s0,.1,0,.16,0,.3,0,.45,0,.16,0,.24c0,.24,0,.48,0,.73h0c0,.22,0,.43,0,.64l0,.39c0,.08,0,.15,0,.22l.06.5a.22.22,0,0,1,0,.08c0,.21.07.42.12.62h0a5.79,5.79,0,0,0,.19.63h0a3.92,3.92,0,0,0,.93,1.5h0a3.57,3.57,0,0,0,.51.42h0a1.94,1.94,0,0,0,.24.15l.15.08c.11.06.22.1.33.15a1.45,1.45,0,0,0,.22.09l.33.11.29.08.34.07.36.06.18,0h0l.56.05h0l.6,0h0c.25,0,.49,0,.73,0h.19l.5-.06.16,0,.54-.11h0a4,4,0,0,0,3.14-3.55h0a4,4,0,0,0,.08-.5h0s0-.11,0-.16,0-.3,0-.45,0-.16,0-.24c0-.24,0-.48,0-.73h0c0-.21,0-.43,0-.63s0-.27,0-.4,0-.15,0-.22,0-.33-.06-.5" transform="translate(-9 -7)"/><path class="d" d="M108.89,89.88s0,0,0-.08a6.18,6.18,0,0,0-.12-.62h0a5.8,5.8,0,0,0-.2-.63h0a3.92,3.92,0,0,0-.93-1.5h0a4.33,4.33,0,0,0-.52-.42h0c-.08-.06-.17-.1-.25-.15l-.15-.08a3.13,3.13,0,0,0-.32-.15l-.22-.09-.34-.11-.28-.08-.35-.07-.36-.06-.17,0h0l-.55,0h0l-.6,0h0c-.26,0-.5,0-.73,0h-.19l-.5.06-.17,0-.54.11h0a4.07,4.07,0,0,0-3.14,3.55h0c0,.16-.06.33-.08.5h0s0,.11,0,.16,0,.3,0,.45,0,.16,0,.24c0,.24,0,.48,0,.73h0c0,.21,0,.43,0,.63l0,.4c0,.07,0,.15,0,.22l.06.5a.17.17,0,0,1,0,.07c0,.22.07.42.12.62h0a6,6,0,0,0,.19.64h0a3.88,3.88,0,0,0,.93,1.49h0a3.57,3.57,0,0,0,.51.42h0l.24.14.15.09.33.15.22.09.33.1.29.08.34.08.36.06.18,0h0l.56,0h.6l.73,0,.19,0a4,4,0,0,0,.5-.06l.16,0a4.28,4.28,0,0,0,.54-.12h0a4.06,4.06,0,0,0,3.14-3.56h0a4.71,4.71,0,0,0,.08-.5h0s0-.1,0-.16,0-.3,0-.45,0-.16,0-.24c0-.24,0-.48,0-.73h0c0-.22,0-.43,0-.64s0-.26,0-.39,0-.15,0-.22,0-.34-.06-.5" transform="translate(-9 -7)"/><path class="d" d="M121.61,76.75a.17.17,0,0,0,0-.07c0-.22-.07-.42-.11-.62h0a4.34,4.34,0,0,0-.2-.64h0a3.88,3.88,0,0,0-.93-1.49h0a4.22,4.22,0,0,0-.51-.42h0l-.24-.14-.15-.09-.33-.15-.22-.09-.33-.1-.29-.08-.34-.08-.36-.06-.18,0h0l-.56,0h-.6l-.73,0-.19,0a4,4,0,0,0-.5.06l-.16,0a4.28,4.28,0,0,0-.54.12h0A4.06,4.06,0,0,0,111,76.43h0c0,.17,0,.34-.07.5h0s0,.1,0,.16,0,.3,0,.45,0,.16,0,.24c0,.24,0,.48,0,.73h0c0,.22,0,.43,0,.64s0,.26,0,.39,0,.15,0,.22,0,.34.06.5a.22.22,0,0,0,0,.08A6.18,6.18,0,0,0,111,81h0a5.8,5.8,0,0,0,.2.63h0a3.92,3.92,0,0,0,.93,1.5h0a3.67,3.67,0,0,0,.52.42h0a2.07,2.07,0,0,0,.25.15l.15.08a3.13,3.13,0,0,0,.32.15,2,2,0,0,0,.22.09l.34.11.28.08.34.07.37.06.17,0h0l.55.05h0l.6,0h0c.26,0,.5,0,.73,0h.19l.5-.06.16,0,.55-.11h0a4,4,0,0,0,3.13-3.55h0c0-.16.06-.33.08-.5h0s0-.11,0-.16l0-.45a2.12,2.12,0,0,0,0-.24c0-.24,0-.48,0-.73h0c0-.21,0-.43,0-.63l0-.4a1.62,1.62,0,0,1,0-.22c0-.17,0-.33-.07-.5" transform="translate(-9 -7)"/><path class="d" d="M121.61,89.88a.22.22,0,0,0,0-.08c0-.21-.07-.42-.11-.62h0a4.21,4.21,0,0,0-.2-.63h0a3.92,3.92,0,0,0-.93-1.5h0a4.22,4.22,0,0,0-.51-.42h0a1.94,1.94,0,0,0-.24-.15l-.15-.08c-.11-.06-.22-.1-.33-.15a1.45,1.45,0,0,0-.22-.09l-.33-.11-.29-.08L118,85.9l-.36-.06-.18,0h0l-.56,0h0l-.6,0h0c-.25,0-.5,0-.73,0h-.19l-.5.06-.16,0-.54.11h0A4,4,0,0,0,111,89.55h0c0,.16,0,.33-.07.5h0s0,.11,0,.16,0,.3,0,.45,0,.16,0,.24c0,.24,0,.48,0,.73h0c0,.21,0,.43,0,.63s0,.27,0,.4,0,.15,0,.22,0,.33.06.5a.17.17,0,0,0,0,.07,5.67,5.67,0,0,0,.12.62h0a6,6,0,0,0,.2.64h0a3.88,3.88,0,0,0,.93,1.49h0a3.67,3.67,0,0,0,.52.42h0l.25.14.15.09.32.15.22.09.34.1.28.08.34.08.37.06.17,0h0l.55,0h.6l.73,0,.19,0a4,4,0,0,0,.5-.06l.16,0a4.88,4.88,0,0,0,.55-.12h0a4.06,4.06,0,0,0,3.13-3.56h0c0-.17.06-.34.08-.5h0s0-.1,0-.16,0-.3,0-.45a1.94,1.94,0,0,0,0-.24c0-.24,0-.48,0-.73h0c0-.22,0-.43,0-.64l0-.39a1.7,1.7,0,0,1,0-.22c0-.17,0-.34-.07-.5" transform="translate(-9 -7)"/><path class="d" d="M134.34,89.88s0,0,0-.08a6.18,6.18,0,0,0-.12-.62h0a5.8,5.8,0,0,0-.2-.63h0a3.92,3.92,0,0,0-.93-1.5h0a4.33,4.33,0,0,0-.52-.42h0c-.08-.06-.17-.1-.25-.15l-.15-.08a3.13,3.13,0,0,0-.32-.15l-.22-.09-.34-.11L131,86l-.35-.07-.36-.06-.18,0h0l-.55,0h0l-.6,0h0c-.26,0-.5,0-.73,0h-.19l-.5.06-.17,0-.54.11h0a4.07,4.07,0,0,0-3.14,3.55h0c0,.16-.06.33-.08.5h0s0,.11,0,.16,0,.3,0,.45,0,.16,0,.24c0,.24,0,.48,0,.73h0c0,.21,0,.43,0,.63l0,.4c0,.07,0,.15,0,.22l.06.5a.17.17,0,0,1,0,.07c0,.22.07.42.12.62h0a6,6,0,0,0,.19.64h0a3.88,3.88,0,0,0,.93,1.49h0a4.33,4.33,0,0,0,.52.42h0l.24.14.15.09.33.15.22.09.33.1.29.08.34.08.36.06.18,0h0l.55,0H129l.73,0,.18,0a4,4,0,0,0,.51-.06l.16,0a4.28,4.28,0,0,0,.54-.12h0a4.07,4.07,0,0,0,3.14-3.56h0c0-.17.06-.34.08-.5h0a.92.92,0,0,1,0-.16c0-.14,0-.3,0-.45s0-.16,0-.24c0-.24,0-.48,0-.73h0c0-.22,0-.43,0-.64s0-.26,0-.39a1.55,1.55,0,0,0,0-.22l-.06-.5" transform="translate(-9 -7)"/><path class="d" d="M147.06,89.88a.22.22,0,0,0,0-.08c0-.21-.07-.42-.11-.62h0a4.21,4.21,0,0,0-.2-.63h0a4,4,0,0,0-.93-1.5h0a4.22,4.22,0,0,0-.51-.42h0a1.94,1.94,0,0,0-.24-.15l-.15-.08c-.11-.06-.22-.1-.33-.15a1.45,1.45,0,0,0-.22-.09l-.33-.11-.29-.08-.34-.07-.36-.06-.18,0h0l-.55,0h0l-.6,0h0c-.26,0-.5,0-.73,0h-.19l-.5.06-.16,0-.54.11h-.05a4,4,0,0,0-3.13,3.55h0c0,.16,0,.33-.07.5h0a.86.86,0,0,0,0,.16c0,.15,0,.3,0,.45s0,.16,0,.24c0,.24,0,.48,0,.73h0c0,.21,0,.43,0,.63s0,.27,0,.4,0,.15,0,.22a4.26,4.26,0,0,0,.06.5.17.17,0,0,0,0,.07,5.67,5.67,0,0,0,.12.62h0a4.34,4.34,0,0,0,.2.64h0a4,4,0,0,0,.92,1.49h0a3.67,3.67,0,0,0,.52.42h0l.25.14.15.09.32.15.22.09.33.1.29.08.34.08.37.06.17,0h0l.55,0h.6l.73,0,.19,0a4,4,0,0,0,.5-.06l.16,0a4.88,4.88,0,0,0,.55-.12h0A4.06,4.06,0,0,0,147,93.71h0c0-.17.05-.34.08-.5h0a.81.81,0,0,0,0-.16c0-.14,0-.3,0-.45a1.94,1.94,0,0,0,0-.24c0-.24,0-.48,0-.73h0c0-.22,0-.43,0-.64s0-.26,0-.39,0-.15,0-.22a4,4,0,0,0-.06-.5" transform="translate(-9 -7)"/><path class="d" d="M32.54,24.25a.17.17,0,0,0,0-.07c0-.22-.07-.42-.11-.62h0a4.34,4.34,0,0,0-.2-.64h0a3.88,3.88,0,0,0-.93-1.49h0a4.22,4.22,0,0,0-.51-.42h0l-.24-.14-.15-.09-.33-.15-.22-.09-.33-.1-.29-.08-.34-.08-.36-.06-.18,0h0l-.56,0h0l-.6,0h0c-.25,0-.5,0-.73,0l-.19,0a4,4,0,0,0-.5.06l-.16,0a4.28,4.28,0,0,0-.54.12H25a4.06,4.06,0,0,0-3.13,3.56h0c0,.17-.05.34-.07.5h0c0,.05,0,.1,0,.16s0,.3,0,.45,0,.16,0,.24c0,.24,0,.48,0,.73h0c0,.22,0,.43,0,.64s0,.26,0,.39,0,.15,0,.22,0,.34.06.5a.25.25,0,0,0,0,.08,6.18,6.18,0,0,0,.12.62h0a5.35,5.35,0,0,0,.2.64h0a3.92,3.92,0,0,0,.93,1.5h0a3.67,3.67,0,0,0,.52.42h0a2.07,2.07,0,0,0,.25.15l.15.08a3.13,3.13,0,0,0,.32.15l.22.09.34.11.28.08.34.07.37.06.17,0h0l.55.05h0l.6,0h0c.26,0,.5,0,.73,0h.19l.5-.06.16,0,.55-.11h0a4,4,0,0,0,3.13-3.55h0c0-.16.06-.33.08-.5h0c0-.06,0-.11,0-.16l0-.45a2.12,2.12,0,0,0,0-.24c0-.24,0-.48,0-.73h0c0-.22,0-.43,0-.63l0-.4a1.62,1.62,0,0,1,0-.22c0-.17,0-.33-.07-.5" transform="translate(-9 -7)"/><path class="d" d="M32.54,37.38a.19.19,0,0,0,0-.08c0-.21-.07-.42-.11-.62h0a4.21,4.21,0,0,0-.2-.63h0a3.92,3.92,0,0,0-.93-1.5h0a4.22,4.22,0,0,0-.51-.42h0a1.94,1.94,0,0,0-.24-.15l-.15-.08-.33-.15a1.45,1.45,0,0,0-.22-.09l-.33-.11-.29-.08-.34-.07-.36-.06-.18,0h0l-.56,0h0l-.6,0h0c-.25,0-.5,0-.73,0h-.19l-.5.06-.16,0a4.29,4.29,0,0,0-.54.11H25a4,4,0,0,0-3.13,3.55h0c0,.16-.05.33-.07.5h0c0,.05,0,.11,0,.16s0,.3,0,.45,0,.16,0,.24c0,.24,0,.48,0,.73h0c0,.21,0,.43,0,.63s0,.27,0,.4,0,.15,0,.22,0,.33.06.5a.17.17,0,0,0,0,.07,5.67,5.67,0,0,0,.12.62h0a6,6,0,0,0,.2.64h0a3.88,3.88,0,0,0,.93,1.49h0a3.67,3.67,0,0,0,.52.42h0l.25.14.15.09.32.15.22.09.34.1.28.08.34.08.37.06L26,45h0l.55.05h.6l.73,0,.19,0a4,4,0,0,0,.5-.06l.16,0a4.88,4.88,0,0,0,.55-.12h0a4.06,4.06,0,0,0,3.13-3.56h0c0-.17.06-.34.08-.5h0c0-.05,0-.1,0-.16l0-.45a1.94,1.94,0,0,0,0-.24c0-.24,0-.48,0-.73h0c0-.22,0-.43,0-.64l0-.39a1.7,1.7,0,0,1,0-.22c0-.17,0-.34-.07-.5" transform="translate(-9 -7)"/><path class="d" d="M32.54,50.5a.17.17,0,0,0,0-.07c0-.22-.07-.42-.11-.62h0a4.34,4.34,0,0,0-.2-.64h0a3.88,3.88,0,0,0-.93-1.49h0a4.22,4.22,0,0,0-.51-.42h0l-.24-.14L30.39,47l-.33-.15-.22-.09-.33-.1-.29-.08-.34-.08-.36-.06-.18,0h0l-.56,0h-.6l-.73,0-.19,0a4,4,0,0,0-.5.06l-.16,0a4.28,4.28,0,0,0-.54.12H25a4.06,4.06,0,0,0-3.13,3.56h0c0,.17-.05.34-.07.5h0s0,.1,0,.16,0,.3,0,.45,0,.16,0,.24c0,.24,0,.48,0,.73h0c0,.22,0,.43,0,.64s0,.26,0,.39,0,.15,0,.22,0,.34.06.5a.25.25,0,0,0,0,.08,6.18,6.18,0,0,0,.12.62h0a5.8,5.8,0,0,0,.2.63h0a3.92,3.92,0,0,0,.93,1.5h0a3.67,3.67,0,0,0,.52.42h0a2.07,2.07,0,0,0,.25.15l.15.08a3.13,3.13,0,0,0,.32.15l.22.09.34.11.28.08.34.07.37.06.17,0h0l.55,0h0l.6,0h0c.26,0,.5,0,.73,0h.19l.5-.06.16,0,.55-.11h0a4,4,0,0,0,3.13-3.55h0c0-.16.06-.33.08-.5h0c0-.06,0-.11,0-.16l0-.45a2.12,2.12,0,0,0,0-.24c0-.24,0-.48,0-.73h0c0-.21,0-.43,0-.63l0-.4a1.62,1.62,0,0,1,0-.22c0-.17,0-.33-.07-.5" transform="translate(-9 -7)"/><path class="d" d="M32.54,63.63a.22.22,0,0,0,0-.08c0-.21-.07-.42-.11-.62h0a4.21,4.21,0,0,0-.2-.63h0a3.92,3.92,0,0,0-.93-1.5h0a4.22,4.22,0,0,0-.51-.42h0a1.94,1.94,0,0,0-.24-.15l-.15-.08L30.06,60a1.45,1.45,0,0,0-.22-.09l-.33-.11-.29-.08-.34-.07-.36-.06-.18,0h0l-.56,0h0l-.6,0h0c-.25,0-.5,0-.73,0h-.19l-.5.06-.16,0a4.29,4.29,0,0,0-.54.11H25a4,4,0,0,0-3.13,3.55h0c0,.16-.05.33-.07.5h0c0,.05,0,.11,0,.16s0,.3,0,.45,0,.16,0,.24c0,.24,0,.48,0,.73h0c0,.21,0,.43,0,.63s0,.27,0,.4,0,.15,0,.22,0,.33.06.5a.17.17,0,0,0,0,.07,5.67,5.67,0,0,0,.12.62h0a6,6,0,0,0,.2.64h0A3.88,3.88,0,0,0,23.09,70h0a3.67,3.67,0,0,0,.52.42h0l.25.14.15.09.32.15.22.09.34.1.28.08.34.08.37.06.17,0h0l.55,0h.6l.73,0,.19,0a4,4,0,0,0,.5-.06l.16,0a4.88,4.88,0,0,0,.55-.12h0a4.06,4.06,0,0,0,3.13-3.56h0c0-.17.06-.34.08-.5h0s0-.1,0-.16,0-.3,0-.45a1.94,1.94,0,0,0,0-.24c0-.24,0-.48,0-.73h0c0-.22,0-.43,0-.64l0-.39a1.7,1.7,0,0,1,0-.22c0-.17,0-.34-.07-.5" transform="translate(-9 -7)"/><path class="d" d="M32.54,76.75a.17.17,0,0,0,0-.07c0-.22-.07-.42-.11-.62h0a4.34,4.34,0,0,0-.2-.64h0a3.88,3.88,0,0,0-.93-1.49h0a4.22,4.22,0,0,0-.51-.42h0l-.24-.14-.15-.09-.33-.15L29.84,73l-.33-.1-.29-.08-.34-.08-.36-.06-.18,0h0l-.56,0h-.6l-.73,0-.19,0a4,4,0,0,0-.5.06l-.16,0a4.28,4.28,0,0,0-.54.12H25a4.06,4.06,0,0,0-3.13,3.56h0c0,.17-.05.34-.07.5h0s0,.1,0,.16,0,.3,0,.45,0,.16,0,.24c0,.24,0,.48,0,.73h0c0,.22,0,.43,0,.64s0,.26,0,.39,0,.15,0,.22,0,.34.06.5a.22.22,0,0,0,0,.08A6.18,6.18,0,0,0,22,81h0a5.8,5.8,0,0,0,.2.63h0a3.92,3.92,0,0,0,.93,1.5h0a3.67,3.67,0,0,0,.52.42h0a2.07,2.07,0,0,0,.25.15l.15.08a3.13,3.13,0,0,0,.32.15,2,2,0,0,0,.22.09l.34.11.28.08.34.07.37.06.17,0h0l.55.05h0l.6,0h0c.26,0,.5,0,.73,0h.19l.5-.06.16,0,.55-.11h0a4,4,0,0,0,3.13-3.55h0c0-.16.06-.33.08-.5h0s0-.11,0-.16l0-.45a2.12,2.12,0,0,0,0-.24c0-.24,0-.48,0-.73h0c0-.21,0-.43,0-.63l0-.4a1.62,1.62,0,0,1,0-.22c0-.17,0-.33-.07-.5" transform="translate(-9 -7)"/><path class="d" d="M32.54,89.88a.22.22,0,0,0,0-.08c0-.21-.07-.42-.11-.62h0a4.21,4.21,0,0,0-.2-.63h0a3.92,3.92,0,0,0-.93-1.5h0a4.22,4.22,0,0,0-.51-.42h0a1.94,1.94,0,0,0-.24-.15l-.15-.08c-.11-.06-.22-.1-.33-.15a1.45,1.45,0,0,0-.22-.09l-.33-.11L29.22,86l-.34-.07-.36-.06-.18,0h0l-.56,0h0l-.6,0h0c-.25,0-.5,0-.73,0h-.19l-.5.06-.16,0-.54.11H25a4,4,0,0,0-3.13,3.55h0c0,.16-.05.33-.07.5h0s0,.11,0,.16,0,.3,0,.45,0,.16,0,.24c0,.24,0,.48,0,.73h0c0,.21,0,.43,0,.63s0,.27,0,.4,0,.15,0,.22,0,.33.06.5a.17.17,0,0,0,0,.07,5.67,5.67,0,0,0,.12.62h0a6,6,0,0,0,.2.64h0a3.88,3.88,0,0,0,.93,1.49h0a3.67,3.67,0,0,0,.52.42h0l.25.14.15.09.32.15.22.09.34.1.28.08.34.08.37.06.17,0h0l.55,0h.6l.73,0,.19,0a4,4,0,0,0,.5-.06l.16,0a4.88,4.88,0,0,0,.55-.12h0a4.06,4.06,0,0,0,3.13-3.56h0c0-.17.06-.34.08-.5h0s0-.1,0-.16,0-.3,0-.45a1.94,1.94,0,0,0,0-.24c0-.24,0-.48,0-.73h0c0-.22,0-.43,0-.64l0-.39a1.7,1.7,0,0,1,0-.22c0-.17,0-.34-.07-.5" transform="translate(-9 -7)"/><path class="d" d="M19.82,24.25s0-.05,0-.07a5.67,5.67,0,0,0-.12-.62h0a6,6,0,0,0-.2-.64h0a3.88,3.88,0,0,0-.93-1.49h0a4.33,4.33,0,0,0-.52-.42h0l-.25-.14-.15-.09-.32-.15-.22-.09-.34-.1-.28-.08-.35-.08-.36-.06-.18,0h0l-.55,0h0l-.6,0h0c-.26,0-.5,0-.73,0l-.19,0a4,4,0,0,0-.5.06l-.17,0a4.28,4.28,0,0,0-.54.12h0a4.08,4.08,0,0,0-3.14,3.56h0c0,.17-.06.34-.08.5h0c0,.05,0,.1,0,.16s0,.3,0,.45,0,.16,0,.24c0,.24,0,.48,0,.73H9c0,.22,0,.43,0,.64L9,27c0,.08,0,.15,0,.22l.06.5a.19.19,0,0,1,0,.08c0,.21.07.42.12.62h0a5.36,5.36,0,0,0,.19.64h0a3.92,3.92,0,0,0,.93,1.5h0a4.33,4.33,0,0,0,.52.42h0a1.94,1.94,0,0,0,.24.15l.15.08a3.31,3.31,0,0,0,.33.15l.22.09.33.11.29.08.34.07.36.06.18,0h0l.55.05h0l.59,0h0c.25,0,.49,0,.73,0h.18l.51-.06.16,0,.54-.11h0a4.06,4.06,0,0,0,3.14-3.55h0c0-.16.06-.33.08-.5h0a.81.81,0,0,1,0-.16c0-.15,0-.3,0-.45s0-.16,0-.24c0-.24,0-.48,0-.73h0c0-.22,0-.43,0-.63s0-.27,0-.4a1.62,1.62,0,0,0,0-.22l-.06-.5" transform="translate(-9 -7)"/><path class="d" d="M19.82,37.38s0-.06,0-.08a6.18,6.18,0,0,0-.12-.62h0a5.8,5.8,0,0,0-.2-.63h0a3.92,3.92,0,0,0-.93-1.5h0a4.33,4.33,0,0,0-.52-.42h0c-.08-.06-.17-.1-.25-.15l-.15-.08a1.87,1.87,0,0,0-.32-.15l-.22-.09-.34-.11-.28-.08-.35-.07-.36-.06-.18,0h0l-.55,0h0l-.6,0h0c-.26,0-.5,0-.73,0h-.19l-.5.06-.17,0a4.29,4.29,0,0,0-.54.11h0a4.07,4.07,0,0,0-3.14,3.55h0c0,.16-.06.33-.08.5h0c0,.05,0,.11,0,.16s0,.3,0,.45,0,.16,0,.24c0,.24,0,.48,0,.73H9c0,.21,0,.43,0,.63l0,.4c0,.07,0,.15,0,.22l.06.5a.17.17,0,0,1,0,.07c0,.22.07.42.12.62h0a6,6,0,0,0,.19.64h0a3.88,3.88,0,0,0,.93,1.49h0a4.33,4.33,0,0,0,.52.42h0l.24.14.15.09.33.15.22.09.33.1.29.08.34.08.36.06.18,0h0l.55.05h.61l.73,0,.18,0a4,4,0,0,0,.51-.06l.16,0a4.28,4.28,0,0,0,.54-.12h0a4.07,4.07,0,0,0,3.14-3.56h0c0-.17.06-.34.08-.5h0a.92.92,0,0,1,0-.16c0-.14,0-.3,0-.45s0-.16,0-.24c0-.24,0-.48,0-.73h0c0-.22,0-.43,0-.64s0-.26,0-.39a1.55,1.55,0,0,0,0-.22l-.06-.5" transform="translate(-9 -7)"/><path class="d" d="M19.82,50.5s0,0,0-.07a5.67,5.67,0,0,0-.12-.62h0a6,6,0,0,0-.2-.64h0a3.88,3.88,0,0,0-.93-1.49h0a4.33,4.33,0,0,0-.52-.42h0l-.25-.14L17.66,47l-.32-.15-.22-.09-.34-.1-.28-.08-.35-.08-.36-.06-.18,0h0l-.55,0h-.6l-.73,0-.19,0a4,4,0,0,0-.5.06l-.17,0a4.28,4.28,0,0,0-.54.12h0a4.08,4.08,0,0,0-3.14,3.56h0c0,.17-.06.34-.08.5h0s0,.1,0,.16,0,.3,0,.45,0,.16,0,.24c0,.24,0,.48,0,.73H9c0,.22,0,.43,0,.64l0,.39c0,.08,0,.15,0,.22l.06.5a.19.19,0,0,1,0,.08c0,.21.07.42.12.62h0a5.79,5.79,0,0,0,.19.63h0a3.92,3.92,0,0,0,.93,1.5h0a4.33,4.33,0,0,0,.52.42h0a1.94,1.94,0,0,0,.24.15l.15.08a3.31,3.31,0,0,0,.33.15l.22.09.33.11.29.08.34.07.36.06.18,0h0l.55,0h0l.59,0h0c.25,0,.49,0,.73,0h.18l.51-.06.16,0,.54-.11h0a4.06,4.06,0,0,0,3.14-3.55h0c0-.16.06-.33.08-.5h0a.81.81,0,0,1,0-.16c0-.15,0-.3,0-.45s0-.16,0-.24c0-.24,0-.48,0-.73h0c0-.21,0-.43,0-.63s0-.27,0-.4a1.62,1.62,0,0,0,0-.22l-.06-.5" transform="translate(-9 -7)"/><path class="d" d="M19.82,63.63s0-.05,0-.08a6.18,6.18,0,0,0-.12-.62h0a5.8,5.8,0,0,0-.2-.63h0a3.92,3.92,0,0,0-.93-1.5h0a4.33,4.33,0,0,0-.52-.42h0c-.08-.06-.17-.1-.25-.15l-.15-.08a3.13,3.13,0,0,0-.32-.15l-.22-.09-.34-.11-.28-.08-.35-.07-.36-.06-.18,0h0l-.55,0h0l-.6,0h0c-.26,0-.5,0-.73,0h-.19l-.5.06-.17,0a4.29,4.29,0,0,0-.54.11h0A4.07,4.07,0,0,0,9.16,63.3h0c0,.16-.06.33-.08.5h0c0,.05,0,.11,0,.16s0,.3,0,.45,0,.16,0,.24c0,.24,0,.48,0,.73H9c0,.21,0,.43,0,.63l0,.4c0,.07,0,.15,0,.22l.06.5a.17.17,0,0,1,0,.07c0,.22.07.42.12.62h0a6,6,0,0,0,.19.64h0A3.88,3.88,0,0,0,10.36,70h0a4.33,4.33,0,0,0,.52.42h0l.24.14.15.09.33.15.22.09.33.1.29.08.34.08.36.06.18,0h0l.55,0h.61l.73,0,.18,0a4,4,0,0,0,.51-.06l.16,0a4.28,4.28,0,0,0,.54-.12h0a4.07,4.07,0,0,0,3.14-3.56h0c0-.17.06-.34.08-.5h0a.92.92,0,0,1,0-.16c0-.14,0-.3,0-.45s0-.16,0-.24c0-.24,0-.48,0-.73h0c0-.22,0-.43,0-.64s0-.26,0-.39a1.55,1.55,0,0,0,0-.22l-.06-.5" transform="translate(-9 -7)"/><path class="d" d="M19.82,76.75s0,0,0-.07a5.67,5.67,0,0,0-.12-.62h0a6,6,0,0,0-.2-.64h0a3.88,3.88,0,0,0-.93-1.49h0a4.33,4.33,0,0,0-.52-.42h0l-.25-.14-.15-.09-.32-.15L17.12,73l-.34-.1-.28-.08-.35-.08-.36-.06-.18,0h0l-.55,0h-.6l-.73,0-.19,0a4,4,0,0,0-.5.06l-.17,0a4.28,4.28,0,0,0-.54.12h0a4.08,4.08,0,0,0-3.14,3.56h0c0,.17-.06.34-.08.5h0s0,.1,0,.16,0,.3,0,.45,0,.16,0,.24c0,.24,0,.48,0,.73H9c0,.22,0,.43,0,.64l0,.39c0,.08,0,.15,0,.22l.06.5a.22.22,0,0,1,0,.08c0,.21.07.42.12.62h0a5.79,5.79,0,0,0,.19.63h0a3.92,3.92,0,0,0,.93,1.5h0a4.33,4.33,0,0,0,.52.42h0a1.94,1.94,0,0,0,.24.15l.15.08a3.31,3.31,0,0,0,.33.15,1.45,1.45,0,0,0,.22.09l.33.11.29.08.34.07.36.06.18,0h0l.55.05h0l.59,0h0c.25,0,.49,0,.73,0h.18l.51-.06.16,0,.54-.11h0a4.06,4.06,0,0,0,3.14-3.55h0c0-.16.06-.33.08-.5h0a.86.86,0,0,1,0-.16c0-.15,0-.3,0-.45s0-.16,0-.24c0-.24,0-.48,0-.73h0c0-.21,0-.43,0-.63s0-.27,0-.4a1.62,1.62,0,0,0,0-.22l-.06-.5" transform="translate(-9 -7)"/><path class="d" d="M19.82,89.88s0,0,0-.08a6.18,6.18,0,0,0-.12-.62h0a5.8,5.8,0,0,0-.2-.63h0a3.92,3.92,0,0,0-.93-1.5h0a4.33,4.33,0,0,0-.52-.42h0c-.08-.06-.17-.1-.25-.15l-.15-.08a3.13,3.13,0,0,0-.32-.15l-.22-.09-.34-.11L16.5,86l-.35-.07-.36-.06-.18,0h0l-.55,0h0l-.6,0h0c-.26,0-.5,0-.73,0h-.19l-.5.06-.17,0-.54.11h0a4.07,4.07,0,0,0-3.14,3.55h0c0,.16-.06.33-.08.5h0s0,.11,0,.16,0,.3,0,.45,0,.16,0,.24c0,.24,0,.48,0,.73H9c0,.21,0,.43,0,.63l0,.4c0,.07,0,.15,0,.22l.06.5a.17.17,0,0,1,0,.07c0,.22.07.42.12.62h0a6,6,0,0,0,.19.64h0a3.88,3.88,0,0,0,.93,1.49h0a4.33,4.33,0,0,0,.52.42h0l.24.14.15.09.33.15.22.09.33.1.29.08.34.08.36.06.18,0h0l.55,0h.61l.73,0,.18,0a4,4,0,0,0,.51-.06l.16,0a4.28,4.28,0,0,0,.54-.12h0a4.07,4.07,0,0,0,3.14-3.56h0c0-.17.06-.34.08-.5h0a.92.92,0,0,1,0-.16c0-.14,0-.3,0-.45s0-.16,0-.24c0-.24,0-.48,0-.73h0c0-.22,0-.43,0-.64s0-.26,0-.39a1.55,1.55,0,0,0,0-.22l-.06-.5" transform="translate(-9 -7)"/><path class="d" d="M58,145.89a.19.19,0,0,1,0,.08,6.18,6.18,0,0,1-.12.62h0a4.21,4.21,0,0,1-.2.63h0a4.11,4.11,0,0,1-.92,1.5h0a3.67,3.67,0,0,1-.52.42h0a2.07,2.07,0,0,1-.25.15l-.15.08a1.87,1.87,0,0,1-.32.15l-.22.09-.33.11-.29.08-.34.07-.37.06-.17,0h0l-.55.05h0l-.6,0h0c-.26,0-.5,0-.73,0h-.19l-.5-.06-.16,0-.55-.11h0a4,4,0,0,1-3.13-3.55h0c0-.16-.05-.33-.08-.5h0a.86.86,0,0,1,0-.16c0-.15,0-.3,0-.45s0-.16,0-.24c0-.24,0-.48,0-.73h0c0-.21,0-.43,0-.63s0-.27,0-.4,0-.15,0-.22a4.26,4.26,0,0,1,.06-.5.25.25,0,0,1,0-.08c0-.21.07-.41.11-.61h0a4,4,0,0,1,.2-.64h0a4.27,4.27,0,0,1,.93-1.5h0a4.22,4.22,0,0,1,.51-.42h0l.24-.14.15-.09.33-.15.22-.09.33-.11.29-.07.34-.08.36-.06.18,0h0l.55,0h.6l.73,0,.19,0a4,4,0,0,1,.5.06l.16,0a4.28,4.28,0,0,1,.54.12h.05a4.06,4.06,0,0,1,3.13,3.55h0c0,.17.05.33.07.5h0a.92.92,0,0,1,0,.16c0,.15,0,.31,0,.46s0,.16,0,.24c0,.23,0,.48,0,.73h0c0,.22,0,.43,0,.64s0,.26,0,.39,0,.15,0,.22a4,4,0,0,1-.06.5" transform="translate(-9 -7)"/><path class="d" d="M83.44,132.77a.17.17,0,0,1,0,.07,6.18,6.18,0,0,1-.12.62h0c-.06.22-.12.43-.2.64h0a3.88,3.88,0,0,1-.93,1.49h0a3.67,3.67,0,0,1-.52.42h0l-.25.14-.15.09-.32.15-.22.09-.34.1-.28.08-.34.08-.37.05-.17,0h0l-.55.05h0a5.82,5.82,0,0,1-.6,0h0l-.73,0-.19,0a4,4,0,0,1-.5-.06l-.16,0c-.19,0-.37-.07-.55-.12h0a4,4,0,0,1-3.13-3.55h0c0-.17-.05-.34-.08-.5h0a.86.86,0,0,1,0-.16c0-.14,0-.3,0-.45a1.94,1.94,0,0,1,0-.24c0-.24,0-.48,0-.73h0c0-.22,0-.43,0-.64l0-.39a1.7,1.7,0,0,0,0-.22c0-.17,0-.34.07-.5a.22.22,0,0,1,0-.08c0-.21.07-.42.11-.62h0a4.21,4.21,0,0,1,.2-.63h0a3.92,3.92,0,0,1,.93-1.5h0a3.45,3.45,0,0,1,.51-.42h0a1.94,1.94,0,0,1,.24-.15l.15-.08.33-.16.22-.08.33-.11.29-.08.34-.07.36-.06.18,0h0l.56,0h0l.6,0h0c.26,0,.5,0,.73,0H79l.5.06.16,0,.54.11h.05a4,4,0,0,1,3.13,3.55h0c0,.16,0,.33.07.5h0s0,.11,0,.16,0,.3,0,.45,0,.16,0,.24c0,.24,0,.48,0,.73h0c0,.21,0,.43,0,.63s0,.27,0,.4,0,.15,0,.22a4.26,4.26,0,0,1-.06.5" transform="translate(-9 -7)"/><path class="d" d="M108.89,119.64s0,0,0,.08a6.18,6.18,0,0,1-.12.62h0a5.8,5.8,0,0,1-.2.63h0a4,4,0,0,1-.93,1.5h0a4.33,4.33,0,0,1-.52.42h0c-.08.06-.17.1-.25.15l-.15.08a3.13,3.13,0,0,1-.32.15l-.22.09-.34.11-.28.08-.35.07-.36.06-.17,0h0l-.55,0h0l-.6,0h0c-.26,0-.5,0-.73,0h-.19l-.5-.06-.17,0-.54-.11h0A4.07,4.07,0,0,1,98.23,120h0c0-.16-.06-.33-.08-.5h0s0-.11,0-.16,0-.3,0-.45,0-.16,0-.24c0-.24,0-.48,0-.73h0c0-.21,0-.43,0-.63l0-.4c0-.07,0-.15,0-.22l.06-.5a.19.19,0,0,0,0-.08c0-.21.07-.41.12-.61h0a5.36,5.36,0,0,1,.19-.64h0a4,4,0,0,1,.93-1.5h0a3.57,3.57,0,0,1,.51-.42h0l.24-.14.15-.09.33-.15.22-.09.33-.11.29-.07.34-.08.36-.06.18,0h0l.56,0h.6l.73,0,.19,0a4,4,0,0,1,.5.06l.16,0a4.28,4.28,0,0,1,.54.12h0a4.06,4.06,0,0,1,3.14,3.55h0a4.33,4.33,0,0,1,.08.5h0c0,.06,0,.11,0,.16s0,.31,0,.46,0,.16,0,.24c0,.23,0,.48,0,.73h0c0,.22,0,.43,0,.64s0,.26,0,.39,0,.15,0,.22,0,.34-.06.5" transform="translate(-9 -7)"/><path class="d" d="M134.34,106.51s0,0,0,.08a6.18,6.18,0,0,1-.12.62h0a5.8,5.8,0,0,1-.2.63h0a3.92,3.92,0,0,1-.93,1.5h0a4.33,4.33,0,0,1-.52.42h0c-.08.06-.17.1-.25.15l-.15.08a3.13,3.13,0,0,1-.32.15l-.22.09-.34.11-.28.08-.35.07-.36.06-.18,0h0l-.55.05h0l-.6,0h0c-.26,0-.5,0-.73,0h-.19l-.5-.06-.17,0a4.29,4.29,0,0,1-.54-.11h0a4.07,4.07,0,0,1-3.14-3.55h0c0-.16-.06-.33-.08-.5h0s0-.11,0-.16,0-.3,0-.45,0-.16,0-.24c0-.24,0-.48,0-.73h0c0-.21,0-.43,0-.63l0-.4c0-.07,0-.15,0-.22l.06-.5a.17.17,0,0,0,0-.07c0-.22.07-.42.12-.62h0a6,6,0,0,1,.19-.64h0a3.88,3.88,0,0,1,.93-1.49h0a4.33,4.33,0,0,1,.52-.42h0l.24-.14.15-.09.33-.15.22-.09.33-.1.29-.08.34-.08.36-.06.18,0h0l.55,0H129l.73,0,.18,0a4,4,0,0,1,.51.06l.16,0a4.28,4.28,0,0,1,.54.12h0a4.07,4.07,0,0,1,3.14,3.56h0c0,.17.06.34.08.5h0a.92.92,0,0,0,0,.16c0,.14,0,.3,0,.45s0,.16,0,.24c0,.24,0,.48,0,.73h0c0,.22,0,.43,0,.64s0,.26,0,.39a1.55,1.55,0,0,1,0,.22l-.06.5" transform="translate(-9 -7)"/><path class="d" d="M45.27,145.89a.25.25,0,0,0,0,.08,6.18,6.18,0,0,1-.12.62h0c-.06.22-.13.43-.2.63h0a4,4,0,0,1-.93,1.5h0a4.33,4.33,0,0,1-.52.42h0c-.08.06-.17.1-.25.15l-.15.08a1.66,1.66,0,0,1-.33.15l-.21.09-.34.11-.28.08-.35.07-.36.06-.18,0h0l-.55.05h0l-.6,0h0q-.37,0-.72,0H39l-.51-.06-.16,0-.54-.11h0a4.07,4.07,0,0,1-3.14-3.55h0c0-.16-.06-.33-.08-.5h0c0-.05,0-.11,0-.16s0-.3,0-.45,0-.16,0-.24c0-.24,0-.48,0-.73h0c0-.21,0-.43,0-.63l0-.4c0-.07,0-.15,0-.22l.06-.5a.19.19,0,0,0,0-.08,6,6,0,0,1,.12-.61h0a5.36,5.36,0,0,1,.19-.64h0a4,4,0,0,1,.93-1.5h0a4.33,4.33,0,0,1,.52-.42h0l.25-.14.15-.09.33-.15.21-.09.34-.11.29-.07.34-.08.36-.06.18,0h0l.55,0h.61l.73,0,.18,0a4,4,0,0,1,.51.06l.16,0a4.28,4.28,0,0,1,.54.12h0a4.08,4.08,0,0,1,3.14,3.55h0c0,.17.06.33.08.5h0a.81.81,0,0,0,0,.16c0,.15,0,.31,0,.46s0,.16,0,.24c0,.23,0,.48,0,.73h0c0,.22,0,.43,0,.64l0,.39a1.55,1.55,0,0,1,0,.22l-.06.5" transform="translate(-9 -7)"/><path class="d" d="M45.27,132.77a.17.17,0,0,0,0,.07,6.18,6.18,0,0,1-.12.62h0c-.06.22-.13.43-.2.64h0a3.88,3.88,0,0,1-.93,1.49h0a4.33,4.33,0,0,1-.52.42h0l-.25.14-.15.09-.33.15-.21.09-.34.1-.28.08-.35.08-.36.05-.18,0h0l-.55.05h0a5.91,5.91,0,0,1-.6,0h0l-.72,0-.19,0a4.18,4.18,0,0,1-.51-.06l-.16,0c-.19,0-.37-.07-.54-.12h0a4.06,4.06,0,0,1-3.14-3.55h0c0-.17-.06-.34-.08-.5h0c0-.05,0-.11,0-.16s0-.3,0-.45,0-.16,0-.24c0-.24,0-.48,0-.73h0c0-.22,0-.43,0-.64s0-.26,0-.39,0-.15,0-.22l.06-.5a.22.22,0,0,0,0-.08,6.18,6.18,0,0,1,.12-.62h0a5.79,5.79,0,0,1,.19-.63h0a3.92,3.92,0,0,1,.93-1.5h0a3.54,3.54,0,0,1,.52-.42h0c.08-.06.17-.1.25-.15l.15-.08c.1-.06.21-.1.33-.16l.21-.08.34-.11.29-.08.34-.07.36-.06.18,0h0l.55,0h0l.59,0h0c.25,0,.49,0,.73,0h.18l.51.06.16,0,.54.11h0a4.06,4.06,0,0,1,3.14,3.55h0c0,.16.06.33.08.5h0a.86.86,0,0,0,0,.16c0,.15,0,.3,0,.45s0,.16,0,.24c0,.24,0,.48,0,.73h0c0,.21,0,.43,0,.63l0,.4a1.62,1.62,0,0,1,0,.22l-.06.5" transform="translate(-9 -7)"/><path class="d" d="M45.27,119.64a.22.22,0,0,0,0,.08,6.18,6.18,0,0,1-.12.62h0c-.06.22-.13.43-.2.63h0a4,4,0,0,1-.93,1.5h0a4.33,4.33,0,0,1-.52.42h0c-.08.06-.17.1-.25.15l-.15.08a2.52,2.52,0,0,1-.33.15l-.21.09-.34.11-.28.08-.35.07-.36.06-.18,0h0l-.55,0h0l-.6,0h0q-.37,0-.72,0H39l-.51-.06-.16,0-.54-.11h0A4.07,4.07,0,0,1,34.61,120h0c0-.16-.06-.33-.08-.5h0s0-.11,0-.16,0-.3,0-.45,0-.16,0-.24c0-.24,0-.48,0-.73h0c0-.21,0-.43,0-.63l0-.4c0-.07,0-.15,0-.22l.06-.5a.19.19,0,0,0,0-.08,6,6,0,0,1,.12-.61h0a5.36,5.36,0,0,1,.19-.64h0a4,4,0,0,1,.93-1.5h0a4.33,4.33,0,0,1,.52-.42h0l.25-.14.15-.09.33-.15.21-.09.34-.11.29-.07.34-.08.36-.06.18,0h0l.55,0h.61l.73,0,.18,0a4,4,0,0,1,.51.06l.16,0a4.28,4.28,0,0,1,.54.12h0a4.08,4.08,0,0,1,3.14,3.55h0c0,.17.06.33.08.5h0a.81.81,0,0,0,0,.16c0,.15,0,.31,0,.46s0,.16,0,.24c0,.23,0,.48,0,.73h0c0,.22,0,.43,0,.64l0,.39a1.55,1.55,0,0,1,0,.22l-.06.5" transform="translate(-9 -7)"/><path class="d" d="M45.27,106.51a.22.22,0,0,0,0,.08,6.18,6.18,0,0,1-.12.62h0c-.06.22-.13.43-.2.63h0a3.92,3.92,0,0,1-.93,1.5h0a4.33,4.33,0,0,1-.52.42h0c-.08.06-.17.1-.25.15l-.15.08a2.52,2.52,0,0,1-.33.15,1.89,1.89,0,0,1-.21.09l-.34.11-.28.08-.35.07-.36.06-.18,0h0l-.55.05h0l-.6,0h0q-.37,0-.72,0H39l-.51-.06-.16,0a4.29,4.29,0,0,1-.54-.11h0a4.07,4.07,0,0,1-3.14-3.55h0c0-.16-.06-.33-.08-.5h0s0-.11,0-.16,0-.3,0-.45,0-.16,0-.24c0-.24,0-.48,0-.73h0c0-.21,0-.43,0-.63l0-.4c0-.07,0-.15,0-.22l.06-.5a.17.17,0,0,0,0-.07,5.67,5.67,0,0,1,.12-.62h0a6,6,0,0,1,.19-.64h0a3.88,3.88,0,0,1,.93-1.49h0a4.33,4.33,0,0,1,.52-.42h0l.25-.14.15-.09.33-.15.21-.09.34-.1.29-.08.34-.08.36-.06.18,0h0l.55,0h.61l.73,0,.18,0a4,4,0,0,1,.51.06l.16,0a4.28,4.28,0,0,1,.54.12h0a4.08,4.08,0,0,1,3.14,3.56h0c0,.17.06.34.08.5h0a.92.92,0,0,0,0,.16c0,.14,0,.3,0,.45s0,.16,0,.24c0,.24,0,.48,0,.73h0c0,.22,0,.43,0,.64l0,.39a1.55,1.55,0,0,1,0,.22l-.06.5" transform="translate(-9 -7)"/><path class="d" d="M58,132.77a.17.17,0,0,1,0,.07,6.18,6.18,0,0,1-.12.62h0a4.75,4.75,0,0,1-.2.64h0a4,4,0,0,1-.92,1.49h0a3.67,3.67,0,0,1-.52.42h0l-.25.14-.15.09-.32.15-.22.09-.33.1-.29.08-.34.08-.37.05-.17,0h0l-.55.05h0a5.82,5.82,0,0,1-.6,0h0l-.73,0-.19,0a4,4,0,0,1-.5-.06l-.16,0c-.19,0-.37-.07-.55-.12h0a4,4,0,0,1-3.13-3.55h0c0-.17-.05-.34-.08-.5h0a.86.86,0,0,1,0-.16c0-.14,0-.3,0-.45s0-.16,0-.24c0-.24,0-.48,0-.73h0c0-.22,0-.43,0-.64s0-.26,0-.39,0-.15,0-.22a4,4,0,0,1,.06-.5.22.22,0,0,1,0-.08c0-.21.07-.42.11-.62h0a4.21,4.21,0,0,1,.2-.63h0a4.18,4.18,0,0,1,.93-1.5h0a3.45,3.45,0,0,1,.51-.42h0a1.94,1.94,0,0,1,.24-.15l.15-.08.33-.16.22-.08.33-.11.29-.08.34-.07.36-.06.18,0h0l.55,0h0l.6,0h0c.26,0,.5,0,.73,0h.19l.5.06.16,0,.54.11h.05a4,4,0,0,1,3.13,3.55h0c0,.16.05.33.07.5h0a.86.86,0,0,1,0,.16c0,.15,0,.3,0,.45s0,.16,0,.24c0,.24,0,.48,0,.73h0c0,.21,0,.43,0,.63s0,.27,0,.4,0,.15,0,.22a4.26,4.26,0,0,1-.06.5" transform="translate(-9 -7)"/><path class="d" d="M58,119.64a.22.22,0,0,1,0,.08,6.18,6.18,0,0,1-.12.62h0a4.21,4.21,0,0,1-.2.63h0a4.11,4.11,0,0,1-.92,1.5h0a3.67,3.67,0,0,1-.52.42h0A2.07,2.07,0,0,1,56,123l-.15.08a3.13,3.13,0,0,1-.32.15l-.22.09-.33.11-.29.08-.34.07-.37.06-.17,0h0l-.55,0h0l-.6,0h0c-.26,0-.5,0-.73,0h-.19l-.5-.06-.16,0-.55-.11h0A4,4,0,0,1,47.34,120h0c0-.16-.05-.33-.08-.5h0a.86.86,0,0,1,0-.16c0-.15,0-.3,0-.45s0-.16,0-.24c0-.24,0-.48,0-.73h0c0-.21,0-.43,0-.63s0-.27,0-.4,0-.15,0-.22a4.26,4.26,0,0,1,.06-.5.25.25,0,0,1,0-.08c0-.21.07-.41.11-.61h0a4,4,0,0,1,.2-.64h0a4.27,4.27,0,0,1,.93-1.5h0a4.22,4.22,0,0,1,.51-.42h0l.24-.14.15-.09.33-.15.22-.09.33-.11.29-.07.34-.08.36-.06.18,0h0l.55,0h.6l.73,0,.19,0a4,4,0,0,1,.5.06l.16,0a4.28,4.28,0,0,1,.54.12h.05a4.06,4.06,0,0,1,3.13,3.55h0c0,.17.05.33.07.5h0a.92.92,0,0,1,0,.16c0,.15,0,.31,0,.46s0,.16,0,.24c0,.23,0,.48,0,.73h0c0,.22,0,.43,0,.64s0,.26,0,.39,0,.15,0,.22a4,4,0,0,1-.06.5" transform="translate(-9 -7)"/><path class="d" d="M58,106.51a.22.22,0,0,1,0,.08,6.18,6.18,0,0,1-.12.62h0a4.21,4.21,0,0,1-.2.63h0a4,4,0,0,1-.92,1.5h0a3.67,3.67,0,0,1-.52.42h0a2.07,2.07,0,0,1-.25.15l-.15.08a3.13,3.13,0,0,1-.32.15,1.45,1.45,0,0,1-.22.09l-.33.11-.29.08-.34.07-.37.06-.17,0h0l-.55.05h0l-.6,0h0c-.26,0-.5,0-.73,0h-.19l-.5-.06-.16,0a4.86,4.86,0,0,1-.55-.11h0a4,4,0,0,1-3.13-3.55h0c0-.16-.05-.33-.08-.5h0a.86.86,0,0,1,0-.16c0-.15,0-.3,0-.45s0-.16,0-.24c0-.24,0-.48,0-.73h0c0-.21,0-.43,0-.63s0-.27,0-.4,0-.15,0-.22a4.26,4.26,0,0,1,.06-.5.17.17,0,0,1,0-.07c0-.22.07-.42.11-.62h0a4.34,4.34,0,0,1,.2-.64h0a4.14,4.14,0,0,1,.93-1.49h0a4.22,4.22,0,0,1,.51-.42h0l.24-.14.15-.09.33-.15.22-.09.33-.1.29-.08L51,99l.36-.06.18,0h0l.55,0h.6l.73,0,.19,0a4,4,0,0,1,.5.06l.16,0a4.28,4.28,0,0,1,.54.12h.05a4.06,4.06,0,0,1,3.13,3.56h0c0,.17.05.34.07.5h0a.81.81,0,0,1,0,.16c0,.14,0,.3,0,.45s0,.16,0,.24c0,.24,0,.48,0,.73h0c0,.22,0,.43,0,.64s0,.26,0,.39,0,.15,0,.22a4,4,0,0,1-.06.5" transform="translate(-9 -7)"/><path class="d" d="M70.72,132.77a.17.17,0,0,0,0,.07,6.18,6.18,0,0,1-.12.62h0c0,.22-.12.43-.19.64h0a3.88,3.88,0,0,1-.93,1.49h0A4.33,4.33,0,0,1,69,136h0l-.25.14-.15.09-.33.15-.21.09-.34.1-.29.08-.34.08-.36.05-.18,0h0l-.55.05h0a5.72,5.72,0,0,1-.59,0h0l-.73,0-.18,0a4,4,0,0,1-.51-.06l-.16,0c-.19,0-.37-.07-.54-.12h0a4.06,4.06,0,0,1-3.14-3.55h0c0-.17-.06-.34-.08-.5h0c0-.05,0-.11,0-.16s0-.3,0-.45,0-.16,0-.24c0-.24,0-.48,0-.73h0c0-.22,0-.43,0-.64l0-.39a1.55,1.55,0,0,1,0-.22l.06-.5a.22.22,0,0,0,0-.08,6.18,6.18,0,0,1,.12-.62h0c.06-.22.13-.43.2-.63h0a3.92,3.92,0,0,1,.93-1.5h0a3.54,3.54,0,0,1,.52-.42h0c.08-.06.17-.1.25-.15l.15-.08c.1-.06.21-.1.33-.16l.21-.08.34-.11.29-.08.34-.07.36-.06.18,0h0l.55,0h0l.6,0h0q.38,0,.72,0h.19l.51.06.16,0,.54.11h0a4.06,4.06,0,0,1,3.14,3.55h0c0,.16.06.33.08.5h0s0,.11,0,.16,0,.3,0,.45,0,.16,0,.24c0,.24,0,.48,0,.73h0c0,.21,0,.43,0,.63l0,.4c0,.07,0,.15,0,.22l-.06.5" transform="translate(-9 -7)"/><path class="d" d="M70.72,119.64a.22.22,0,0,0,0,.08,6.18,6.18,0,0,1-.12.62h0a5.79,5.79,0,0,1-.19.63h0a4,4,0,0,1-.93,1.5h0a4.33,4.33,0,0,1-.52.42h0c-.08.06-.17.1-.25.15l-.15.08a2.52,2.52,0,0,1-.33.15l-.21.09-.34.11-.29.08-.34.07-.36.06-.18,0h0l-.55,0h0l-.59,0h0c-.25,0-.49,0-.73,0h-.18l-.51-.06-.16,0-.54-.11h0A4.07,4.07,0,0,1,60.06,120h0c0-.16-.06-.33-.08-.5h0s0-.11,0-.16,0-.3,0-.45,0-.16,0-.24c0-.24,0-.48,0-.73h0c0-.21,0-.43,0-.63l0-.4a1.62,1.62,0,0,1,0-.22l.06-.5a.19.19,0,0,0,0-.08,6,6,0,0,1,.12-.61h0c.06-.23.13-.44.2-.64h0a4,4,0,0,1,.93-1.5h0a4.33,4.33,0,0,1,.52-.42h0l.25-.14.15-.09.33-.15.21-.09.34-.11.29-.07.34-.08.36-.06.18,0h0l.55,0h.61l.72,0,.19,0a4.18,4.18,0,0,1,.51.06l.16,0a4.28,4.28,0,0,1,.54.12h0a4.08,4.08,0,0,1,3.14,3.55h0c0,.17.06.33.08.5h0c0,.06,0,.11,0,.16s0,.31,0,.46,0,.16,0,.24c0,.23,0,.48,0,.73h0c0,.22,0,.43,0,.64l0,.39c0,.08,0,.15,0,.22l-.06.5" transform="translate(-9 -7)"/><path class="d" d="M70.72,106.51a.22.22,0,0,0,0,.08,6.18,6.18,0,0,1-.12.62h0a5.79,5.79,0,0,1-.19.63h0a3.92,3.92,0,0,1-.93,1.5h0a4.33,4.33,0,0,1-.52.42h0c-.08.06-.17.1-.25.15l-.15.08a2.52,2.52,0,0,1-.33.15,1.89,1.89,0,0,1-.21.09l-.34.11-.29.08-.34.07-.36.06-.18,0h0l-.55.05h0l-.59,0h0c-.25,0-.49,0-.73,0h-.18l-.51-.06-.16,0a4.29,4.29,0,0,1-.54-.11h0a4.07,4.07,0,0,1-3.14-3.55h0c0-.16-.06-.33-.08-.5h0s0-.11,0-.16,0-.3,0-.45,0-.16,0-.24c0-.24,0-.48,0-.73h0c0-.21,0-.43,0-.63l0-.4a1.62,1.62,0,0,1,0-.22L60,103a.17.17,0,0,0,0-.07,5.67,5.67,0,0,1,.12-.62h0c.06-.22.13-.44.2-.64h0a3.88,3.88,0,0,1,.93-1.49h0a4.33,4.33,0,0,1,.52-.42h0l.25-.14.15-.09.33-.15.21-.09.34-.1.29-.08.34-.08L64,99l.18,0h0l.55,0h.61l.72,0,.19,0a4.18,4.18,0,0,1,.51.06L67,99a4.28,4.28,0,0,1,.54.12h0a4.08,4.08,0,0,1,3.14,3.56h0c0,.17.06.34.08.5h0s0,.1,0,.16,0,.3,0,.45,0,.16,0,.24c0,.24,0,.48,0,.73h0c0,.22,0,.43,0,.64l0,.39c0,.08,0,.15,0,.22l-.06.5" transform="translate(-9 -7)"/><path class="d" d="M83.44,119.64a.22.22,0,0,1,0,.08,6.18,6.18,0,0,1-.12.62h0a5.8,5.8,0,0,1-.2.63h0a4,4,0,0,1-.93,1.5h0a3.67,3.67,0,0,1-.52.42h0a2.07,2.07,0,0,1-.25.15l-.15.08a3.13,3.13,0,0,1-.32.15l-.22.09-.34.11-.28.08-.34.07-.37.06-.17,0h0l-.55,0h0l-.6,0h0c-.26,0-.5,0-.73,0h-.19l-.5-.06-.16,0-.55-.11h0A4,4,0,0,1,72.79,120h0c0-.16-.05-.33-.08-.5h0a.86.86,0,0,1,0-.16c0-.15,0-.3,0-.45a2.12,2.12,0,0,1,0-.24c0-.24,0-.48,0-.73h0c0-.21,0-.43,0-.63l0-.4a1.62,1.62,0,0,0,0-.22c0-.17,0-.33.07-.5a.25.25,0,0,1,0-.08c0-.21.07-.41.11-.61h0a4,4,0,0,1,.2-.64h0a4,4,0,0,1,.93-1.5h0a4.22,4.22,0,0,1,.51-.42h0l.24-.14.15-.09.33-.15.22-.09.33-.11.29-.07.34-.08.36-.06.18,0h0l.56,0h.6l.73,0,.19,0a4,4,0,0,1,.5.06l.16,0a4.28,4.28,0,0,1,.54.12h.05a4.06,4.06,0,0,1,3.13,3.55h0c0,.17,0,.33.07.5h0c0,.06,0,.11,0,.16s0,.31,0,.46,0,.16,0,.24c0,.23,0,.48,0,.73h0c0,.22,0,.43,0,.64s0,.26,0,.39,0,.15,0,.22a4,4,0,0,1-.06.5" transform="translate(-9 -7)"/><path class="d" d="M83.44,106.51a.22.22,0,0,1,0,.08,6.18,6.18,0,0,1-.12.62h0a5.8,5.8,0,0,1-.2.63h0a3.92,3.92,0,0,1-.93,1.5h0a3.67,3.67,0,0,1-.52.42h0a2.07,2.07,0,0,1-.25.15l-.15.08a3.13,3.13,0,0,1-.32.15,2,2,0,0,1-.22.09l-.34.11-.28.08-.34.07-.37.06-.17,0h0l-.55.05h0l-.6,0h0c-.26,0-.5,0-.73,0h-.19l-.5-.06-.16,0a4.86,4.86,0,0,1-.55-.11h0a4,4,0,0,1-3.13-3.55h0c0-.16-.05-.33-.08-.5h0a.86.86,0,0,1,0-.16c0-.15,0-.3,0-.45a2.12,2.12,0,0,1,0-.24c0-.24,0-.48,0-.73h0c0-.21,0-.43,0-.63l0-.4a1.62,1.62,0,0,0,0-.22c0-.17,0-.33.07-.5a.17.17,0,0,1,0-.07c0-.22.07-.42.11-.62h0a4.34,4.34,0,0,1,.2-.64h0a3.88,3.88,0,0,1,.93-1.49h0a4.22,4.22,0,0,1,.51-.42h0l.24-.14.15-.09.33-.15.22-.09.33-.1.29-.08L76.4,99l.36-.06.18,0h0l.56,0h.6l.73,0,.19,0a4,4,0,0,1,.5.06l.16,0a4.28,4.28,0,0,1,.54.12h.05a4.06,4.06,0,0,1,3.13,3.56h0c0,.17,0,.34.07.5h0s0,.1,0,.16,0,.3,0,.45,0,.16,0,.24c0,.24,0,.48,0,.73h0c0,.22,0,.43,0,.64s0,.26,0,.39,0,.15,0,.22a4,4,0,0,1-.06.5" transform="translate(-9 -7)"/><path class="d" d="M96.17,119.64a.22.22,0,0,0,0,.08c0,.21-.07.42-.12.62h0a5.79,5.79,0,0,1-.19.63h0a4,4,0,0,1-.93,1.5h0a3.57,3.57,0,0,1-.51.42h0a1.94,1.94,0,0,1-.24.15l-.15.08c-.11.06-.22.1-.33.15l-.22.09-.33.11-.29.08-.34.07-.36.06-.18,0h0l-.56,0h0l-.6,0h0c-.25,0-.49,0-.73,0h-.19l-.5-.06-.16,0-.54-.11h0A4,4,0,0,1,85.51,120h0c0-.16-.06-.33-.08-.5h0s0-.11,0-.16,0-.3,0-.45,0-.16,0-.24c0-.24,0-.48,0-.73h0c0-.21,0-.43,0-.63s0-.27,0-.4,0-.15,0-.22,0-.33.06-.5c0,0,0,0,0-.08a6,6,0,0,1,.12-.61h0a5.35,5.35,0,0,1,.2-.64h0a4,4,0,0,1,.93-1.5h0a4.33,4.33,0,0,1,.52-.42h0l.25-.14.15-.09.32-.15.22-.09.34-.11.28-.07.35-.08.36-.06.17,0h0l.55,0h.6l.73,0,.19,0a4,4,0,0,1,.5.06l.17,0a4.71,4.71,0,0,1,.54.12h0a4.08,4.08,0,0,1,3.14,3.55h0c0,.17.06.33.08.5h0c0,.06,0,.11,0,.16s0,.31,0,.46,0,.16,0,.24c0,.23,0,.48,0,.73h0c0,.22,0,.43,0,.64l0,.39c0,.08,0,.15,0,.22l-.06.5" transform="translate(-9 -7)"/><path class="d" d="M96.17,106.51a.22.22,0,0,0,0,.08c0,.21-.07.42-.12.62h0a5.79,5.79,0,0,1-.19.63h0a3.92,3.92,0,0,1-.93,1.5h0a3.57,3.57,0,0,1-.51.42h0a1.94,1.94,0,0,1-.24.15L94,110c-.11.06-.22.1-.33.15a1.45,1.45,0,0,1-.22.09l-.33.11-.29.08-.34.07-.36.06-.18,0h0l-.56.05h0l-.6,0h0c-.25,0-.49,0-.73,0h-.19l-.5-.06-.16,0a4.29,4.29,0,0,1-.54-.11h0a4,4,0,0,1-3.14-3.55h0c0-.16-.06-.33-.08-.5h0s0-.11,0-.16,0-.3,0-.45,0-.16,0-.24c0-.24,0-.48,0-.73h0c0-.21,0-.43,0-.63s0-.27,0-.4,0-.15,0-.22,0-.33.06-.5c0,0,0,0,0-.07a5.67,5.67,0,0,1,.12-.62h0a6,6,0,0,1,.2-.64h0a3.88,3.88,0,0,1,.93-1.49h0a4.33,4.33,0,0,1,.52-.42h0l.25-.14.15-.09.32-.15.22-.09.34-.1.28-.08.35-.08.36-.06.17,0h0l.55,0h.6l.73,0,.19,0a4,4,0,0,1,.5.06l.17,0a4.71,4.71,0,0,1,.54.12h0a4.08,4.08,0,0,1,3.14,3.56h0c0,.17.06.34.08.5h0s0,.1,0,.16,0,.3,0,.45,0,.16,0,.24c0,.24,0,.48,0,.73h0c0,.22,0,.43,0,.64l0,.39c0,.08,0,.15,0,.22l-.06.5" transform="translate(-9 -7)"/><path class="d" d="M108.89,106.51s0,0,0,.08a6.18,6.18,0,0,1-.12.62h0a5.8,5.8,0,0,1-.2.63h0a3.92,3.92,0,0,1-.93,1.5h0a4.33,4.33,0,0,1-.52.42h0c-.08.06-.17.1-.25.15l-.15.08a3.13,3.13,0,0,1-.32.15l-.22.09-.34.11-.28.08-.35.07-.36.06-.17,0h0l-.55.05h0l-.6,0h0c-.26,0-.5,0-.73,0h-.19l-.5-.06-.17,0a4.69,4.69,0,0,1-.54-.11h0a4.07,4.07,0,0,1-3.14-3.55h0c0-.16-.06-.33-.08-.5h0s0-.11,0-.16,0-.3,0-.45,0-.16,0-.24c0-.24,0-.48,0-.73h0c0-.21,0-.43,0-.63l0-.4c0-.07,0-.15,0-.22l.06-.5a.17.17,0,0,0,0-.07c0-.22.07-.42.12-.62h0a6,6,0,0,1,.19-.64h0a3.88,3.88,0,0,1,.93-1.49h0a3.57,3.57,0,0,1,.51-.42h0l.24-.14.15-.09.33-.15.22-.09.33-.1.29-.08.34-.08.36-.06.18,0h0l.56,0h.6l.73,0,.19,0a4,4,0,0,1,.5.06l.16,0a4.28,4.28,0,0,1,.54.12h0a4.06,4.06,0,0,1,3.14,3.56h0a4.71,4.71,0,0,1,.08.5h0s0,.1,0,.16,0,.3,0,.45,0,.16,0,.24c0,.24,0,.48,0,.73h0c0,.22,0,.43,0,.64s0,.26,0,.39,0,.15,0,.22,0,.34-.06.5" transform="translate(-9 -7)"/><path class="d" d="M121.61,106.51a.22.22,0,0,1,0,.08c0,.21-.07.42-.11.62h0a4.21,4.21,0,0,1-.2.63h0a3.92,3.92,0,0,1-.93,1.5h0a4.22,4.22,0,0,1-.51.42h0a1.94,1.94,0,0,1-.24.15l-.15.08c-.11.06-.22.1-.33.15a1.45,1.45,0,0,1-.22.09l-.33.11-.29.08-.34.07-.36.06-.18,0h0l-.56.05h0l-.6,0h0c-.25,0-.5,0-.73,0h-.19l-.5-.06-.16,0a4.29,4.29,0,0,1-.54-.11h0a4,4,0,0,1-3.13-3.55h0c0-.16,0-.33-.07-.5h0s0-.11,0-.16,0-.3,0-.45,0-.16,0-.24c0-.24,0-.48,0-.73h0c0-.21,0-.43,0-.63s0-.27,0-.4,0-.15,0-.22,0-.33.06-.5a.17.17,0,0,1,0-.07,5.67,5.67,0,0,1,.12-.62h0a6,6,0,0,1,.2-.64h0a3.88,3.88,0,0,1,.93-1.49h0a3.67,3.67,0,0,1,.52-.42h0l.25-.14.15-.09.32-.15.22-.09.34-.1.28-.08.34-.08.37-.06.17,0h0l.55,0h.6l.73,0,.19,0a4,4,0,0,1,.5.06l.16,0a4.88,4.88,0,0,1,.55.12h0a4.06,4.06,0,0,1,3.13,3.56h0c0,.17.06.34.08.5h0s0,.1,0,.16,0,.3,0,.45a1.94,1.94,0,0,1,0,.24c0,.24,0,.48,0,.73h0c0,.22,0,.43,0,.64l0,.39a1.7,1.7,0,0,0,0,.22c0,.17,0,.34-.07.5" transform="translate(-9 -7)"/><path class="d" d="M32.54,159a.17.17,0,0,1,0,.07c0,.21-.07.42-.11.62h0a4.75,4.75,0,0,1-.2.64h0a3.88,3.88,0,0,1-.93,1.49h0a4.22,4.22,0,0,1-.51.42h0l-.24.14-.15.09-.33.15-.22.09-.33.1-.29.08-.34.08-.36.05-.18,0h0l-.56.05h0a5.82,5.82,0,0,1-.6,0h0l-.73,0-.19,0a4,4,0,0,1-.5-.06l-.16,0c-.19,0-.37-.07-.54-.12H25a4,4,0,0,1-3.13-3.55h0c0-.17-.05-.34-.07-.5h0c0-.05,0-.11,0-.16s0-.3,0-.45,0-.16,0-.24c0-.24,0-.48,0-.73h0c0-.22,0-.43,0-.64s0-.26,0-.39,0-.15,0-.22,0-.34.06-.5a.22.22,0,0,1,0-.08,6.18,6.18,0,0,1,.12-.62h0a5.35,5.35,0,0,1,.2-.64h0a3.92,3.92,0,0,1,.93-1.5h0a3.08,3.08,0,0,1,.52-.42h0a2.07,2.07,0,0,1,.25-.15s.09-.06.15-.08l.32-.16.22-.08.34-.11.28-.08.34-.07.37-.06.17,0h0l.55,0h0l.6,0h0c.26,0,.5,0,.73,0h.19l.5.06.16,0,.55.11h0a4,4,0,0,1,3.13,3.55h0c0,.16.06.33.08.5h0s0,.11,0,.16l0,.45a1.94,1.94,0,0,1,0,.24c0,.24,0,.48,0,.73h0c0,.21,0,.43,0,.63l0,.4a1.62,1.62,0,0,0,0,.22c0,.17,0,.33-.07.5" transform="translate(-9 -7)"/><path class="d" d="M32.54,145.89a.19.19,0,0,1,0,.08c0,.21-.07.42-.11.62h0a4.21,4.21,0,0,1-.2.63h0a4,4,0,0,1-.93,1.5h0a4.22,4.22,0,0,1-.51.42h0a1.94,1.94,0,0,1-.24.15l-.15.08-.33.15-.22.09-.33.11-.29.08-.34.07-.36.06-.18,0h0l-.56.05h0l-.6,0h0c-.25,0-.5,0-.73,0h-.19l-.5-.06-.16,0-.54-.11H25a4,4,0,0,1-3.13-3.55h0c0-.16-.05-.33-.07-.5h0c0-.05,0-.11,0-.16s0-.3,0-.45,0-.16,0-.24c0-.24,0-.48,0-.73h0c0-.21,0-.43,0-.63s0-.27,0-.4,0-.15,0-.22,0-.33.06-.5a.25.25,0,0,1,0-.08,6,6,0,0,1,.12-.61h0a5.35,5.35,0,0,1,.2-.64h0a4,4,0,0,1,.93-1.5h0a3.67,3.67,0,0,1,.52-.42h0l.25-.14.15-.09.32-.15.22-.09.34-.11.28-.07.34-.08.37-.06.17,0h0l.55,0h.6l.73,0,.19,0a4,4,0,0,1,.5.06l.16,0a4.88,4.88,0,0,1,.55.12h0a4.06,4.06,0,0,1,3.13,3.55h0c0,.17.06.33.08.5h0c0,.06,0,.11,0,.16l0,.46a1.94,1.94,0,0,1,0,.24c0,.23,0,.48,0,.73h0c0,.22,0,.43,0,.64l0,.39a1.7,1.7,0,0,0,0,.22c0,.17,0,.34-.07.5" transform="translate(-9 -7)"/><path class="d" d="M32.54,132.77a.17.17,0,0,1,0,.07c0,.21-.07.42-.11.62h0a4.75,4.75,0,0,1-.2.64h0a3.88,3.88,0,0,1-.93,1.49h0a4.22,4.22,0,0,1-.51.42h0l-.24.14-.15.09-.33.15-.22.09-.33.1-.29.08-.34.08-.36.05-.18,0h0l-.56.05h0a5.82,5.82,0,0,1-.6,0h0l-.73,0-.19,0a4,4,0,0,1-.5-.06l-.16,0c-.19,0-.37-.07-.54-.12H25a4,4,0,0,1-3.13-3.55h0c0-.17-.05-.34-.07-.5h0c0-.05,0-.11,0-.16s0-.3,0-.45,0-.16,0-.24c0-.24,0-.48,0-.73h0c0-.22,0-.43,0-.64s0-.26,0-.39,0-.15,0-.22,0-.34.06-.5a.22.22,0,0,1,0-.08,6.18,6.18,0,0,1,.12-.62h0a5.8,5.8,0,0,1,.2-.63h0a3.92,3.92,0,0,1,.93-1.5h0a3.08,3.08,0,0,1,.52-.42h0a2.07,2.07,0,0,1,.25-.15s.09-.06.15-.08.21-.1.32-.16l.22-.08.34-.11.28-.08.34-.07.37-.06.17,0h0l.55,0h0l.6,0h0c.26,0,.5,0,.73,0h.19l.5.06.16,0,.55.11h0a4,4,0,0,1,3.13,3.55h0c0,.16.06.33.08.5h0s0,.11,0,.16l0,.45a1.94,1.94,0,0,1,0,.24c0,.24,0,.48,0,.73h0c0,.21,0,.43,0,.63l0,.4a1.62,1.62,0,0,0,0,.22c0,.17,0,.33-.07.5" transform="translate(-9 -7)"/><path class="d" d="M32.54,119.64a.22.22,0,0,1,0,.08c0,.21-.07.42-.11.62h0a4.21,4.21,0,0,1-.2.63h0a4,4,0,0,1-.93,1.5h0a4.22,4.22,0,0,1-.51.42h0a1.94,1.94,0,0,1-.24.15l-.15.08c-.11.06-.22.1-.33.15l-.22.09-.33.11-.29.08-.34.07-.36.06-.18,0h0l-.56,0h0l-.6,0h0c-.25,0-.5,0-.73,0h-.19l-.5-.06-.16,0-.54-.11H25A4,4,0,0,1,21.89,120h0c0-.16-.05-.33-.07-.5h0s0-.11,0-.16,0-.3,0-.45,0-.16,0-.24c0-.24,0-.48,0-.73h0c0-.21,0-.43,0-.63s0-.27,0-.4,0-.15,0-.22,0-.33.06-.5a.25.25,0,0,1,0-.08,6,6,0,0,1,.12-.61h0a5.35,5.35,0,0,1,.2-.64h0a4,4,0,0,1,.93-1.5h0a3.67,3.67,0,0,1,.52-.42h0l.25-.14.15-.09.32-.15.22-.09.34-.11.28-.07.34-.08.37-.06.17,0h0l.55,0h.6l.73,0,.19,0a4,4,0,0,1,.5.06l.16,0a4.88,4.88,0,0,1,.55.12h0a4.06,4.06,0,0,1,3.13,3.55h0c0,.17.06.33.08.5h0c0,.06,0,.11,0,.16l0,.46a1.94,1.94,0,0,1,0,.24c0,.23,0,.48,0,.73h0c0,.22,0,.43,0,.64l0,.39a1.7,1.7,0,0,0,0,.22c0,.17,0,.34-.07.5" transform="translate(-9 -7)"/><path class="d" d="M32.54,106.51a.22.22,0,0,1,0,.08c0,.21-.07.42-.11.62h0a4.21,4.21,0,0,1-.2.63h0a3.92,3.92,0,0,1-.93,1.5h0a4.22,4.22,0,0,1-.51.42h0a1.94,1.94,0,0,1-.24.15l-.15.08c-.11.06-.22.1-.33.15a1.45,1.45,0,0,1-.22.09l-.33.11-.29.08-.34.07-.36.06-.18,0h0l-.56.05h0l-.6,0h0c-.25,0-.5,0-.73,0h-.19l-.5-.06-.16,0a4.29,4.29,0,0,1-.54-.11H25a4,4,0,0,1-3.13-3.55h0c0-.16-.05-.33-.07-.5h0s0-.11,0-.16,0-.3,0-.45,0-.16,0-.24c0-.24,0-.48,0-.73h0c0-.21,0-.43,0-.63s0-.27,0-.4,0-.15,0-.22,0-.33.06-.5a.17.17,0,0,1,0-.07,5.67,5.67,0,0,1,.12-.62h0a6,6,0,0,1,.2-.64h0a3.88,3.88,0,0,1,.93-1.49h0a3.67,3.67,0,0,1,.52-.42h0l.25-.14.15-.09.32-.15.22-.09.34-.1.28-.08L25.5,99l.37-.06.17,0h0l.55,0h.6l.73,0,.19,0a4,4,0,0,1,.5.06l.16,0a4.88,4.88,0,0,1,.55.12h0a4.06,4.06,0,0,1,3.13,3.56h0c0,.17.06.34.08.5h0s0,.1,0,.16,0,.3,0,.45a1.94,1.94,0,0,1,0,.24c0,.24,0,.48,0,.73h0c0,.22,0,.43,0,.64l0,.39a1.7,1.7,0,0,0,0,.22c0,.17,0,.34-.07.5" transform="translate(-9 -7)"/><path class="d" d="M19.82,159s0,0,0,.07a6.18,6.18,0,0,1-.12.62h0c-.06.22-.12.43-.2.64h0a3.88,3.88,0,0,1-.93,1.49h0a4.33,4.33,0,0,1-.52.42h0l-.25.14-.15.09-.32.15-.22.09-.34.1-.28.08-.35.08-.36.05-.18,0h0l-.55.05h0a5.91,5.91,0,0,1-.6,0h0l-.73,0-.19,0a4,4,0,0,1-.5-.06l-.17,0c-.19,0-.37-.07-.54-.12h0a4.06,4.06,0,0,1-3.14-3.55h0c0-.17-.06-.34-.08-.5h0c0-.05,0-.11,0-.16s0-.3,0-.45,0-.16,0-.24c0-.24,0-.48,0-.73H9c0-.22,0-.43,0-.64s0-.26,0-.39,0-.15,0-.22l.06-.5a.22.22,0,0,0,0-.08c0-.21.07-.42.12-.62h0a5.36,5.36,0,0,1,.19-.64h0a3.92,3.92,0,0,1,.93-1.5h0a3.54,3.54,0,0,1,.52-.42h0a1.94,1.94,0,0,1,.24-.15l.15-.08c.1-.06.22-.1.33-.16l.22-.08.33-.11.29-.08.34-.07.36-.06.18,0h0l.55,0h0l.59,0h0c.25,0,.49,0,.73,0h.18l.51.06.16,0,.54.11h0a4,4,0,0,1,3.14,3.55h0c0,.16.06.33.08.5h0a.86.86,0,0,0,0,.16c0,.15,0,.3,0,.45s0,.16,0,.24c0,.24,0,.48,0,.73h0c0,.21,0,.43,0,.63s0,.27,0,.4a1.62,1.62,0,0,1,0,.22l-.06.5" transform="translate(-9 -7)"/><path class="d" d="M19.82,145.89s0,.06,0,.08a6.18,6.18,0,0,1-.12.62h0a5.8,5.8,0,0,1-.2.63h0a4,4,0,0,1-.93,1.5h0a4.33,4.33,0,0,1-.52.42h0c-.08.06-.17.1-.25.15l-.15.08a1.87,1.87,0,0,1-.32.15l-.22.09-.34.11-.28.08-.35.07-.36.06-.18,0h0l-.55.05h0l-.6,0h0c-.26,0-.5,0-.73,0h-.19l-.5-.06-.17,0-.54-.11h0a4.07,4.07,0,0,1-3.14-3.55h0c0-.16-.06-.33-.08-.5h0c0-.05,0-.11,0-.16s0-.3,0-.45,0-.16,0-.24c0-.24,0-.48,0-.73H9c0-.21,0-.43,0-.63l0-.4c0-.07,0-.15,0-.22l.06-.5a.19.19,0,0,0,0-.08c0-.21.07-.41.12-.61h0a5.36,5.36,0,0,1,.19-.64h0a4,4,0,0,1,.93-1.5h0a4.33,4.33,0,0,1,.52-.42h0l.24-.14.15-.09.33-.15.22-.09.33-.11.29-.07.34-.08.36-.06.18,0h0l.55,0h.61l.73,0,.18,0a4,4,0,0,1,.51.06l.16,0a4.28,4.28,0,0,1,.54.12h0a4.07,4.07,0,0,1,3.14,3.55h0c0,.17.06.33.08.5h0a.81.81,0,0,0,0,.16c0,.15,0,.31,0,.46s0,.16,0,.24c0,.23,0,.48,0,.73h0c0,.22,0,.43,0,.64s0,.26,0,.39a1.55,1.55,0,0,1,0,.22l-.06.5" transform="translate(-9 -7)"/><path class="d" d="M19.82,132.77s0,0,0,.07a6.18,6.18,0,0,1-.12.62h0c-.06.22-.12.43-.2.64h0a3.88,3.88,0,0,1-.93,1.49h0a4.33,4.33,0,0,1-.52.42h0l-.25.14-.15.09-.32.15-.22.09-.34.1-.28.08-.35.08-.36.05-.18,0h0l-.55.05h0a5.91,5.91,0,0,1-.6,0h0l-.73,0-.19,0a4,4,0,0,1-.5-.06l-.17,0c-.19,0-.37-.07-.54-.12h0a4.06,4.06,0,0,1-3.14-3.55h0c0-.17-.06-.34-.08-.5h0c0-.05,0-.11,0-.16s0-.3,0-.45,0-.16,0-.24c0-.24,0-.48,0-.73H9c0-.22,0-.43,0-.64s0-.26,0-.39,0-.15,0-.22l.06-.5a.22.22,0,0,0,0-.08c0-.21.07-.42.12-.62h0a5.79,5.79,0,0,1,.19-.63h0a3.92,3.92,0,0,1,.93-1.5h0a3.54,3.54,0,0,1,.52-.42h0a1.94,1.94,0,0,1,.24-.15l.15-.08c.1-.06.22-.1.33-.16l.22-.08.33-.11.29-.08.34-.07.36-.06.18,0h0l.55,0h0l.59,0h0c.25,0,.49,0,.73,0h.18l.51.06.16,0,.54.11h0a4,4,0,0,1,3.14,3.55h0c0,.16.06.33.08.5h0a.86.86,0,0,0,0,.16c0,.15,0,.3,0,.45s0,.16,0,.24c0,.24,0,.48,0,.73h0c0,.21,0,.43,0,.63s0,.27,0,.4a1.62,1.62,0,0,1,0,.22l-.06.5" transform="translate(-9 -7)"/><path class="d" d="M19.82,119.64s0,0,0,.08a6.18,6.18,0,0,1-.12.62h0a5.8,5.8,0,0,1-.2.63h0a4,4,0,0,1-.93,1.5h0a4.33,4.33,0,0,1-.52.42h0c-.08.06-.17.1-.25.15l-.15.08a3.13,3.13,0,0,1-.32.15l-.22.09-.34.11-.28.08-.35.07-.36.06-.18,0h0l-.55,0h0l-.6,0h0c-.26,0-.5,0-.73,0h-.19l-.5-.06-.17,0-.54-.11h0A4.07,4.07,0,0,1,9.16,120h0c0-.16-.06-.33-.08-.5h0s0-.11,0-.16,0-.3,0-.45,0-.16,0-.24c0-.24,0-.48,0-.73H9c0-.21,0-.43,0-.63l0-.4c0-.07,0-.15,0-.22l.06-.5a.19.19,0,0,0,0-.08c0-.21.07-.41.12-.61h0a5.36,5.36,0,0,1,.19-.64h0a4,4,0,0,1,.93-1.5h0a4.33,4.33,0,0,1,.52-.42h0l.24-.14.15-.09.33-.15.22-.09.33-.11.29-.07.34-.08.36-.06.18,0h0l.55,0h.61l.73,0,.18,0a4,4,0,0,1,.51.06l.16,0a4.28,4.28,0,0,1,.54.12h0a4.07,4.07,0,0,1,3.14,3.55h0c0,.17.06.33.08.5h0a.81.81,0,0,0,0,.16c0,.15,0,.31,0,.46s0,.16,0,.24c0,.23,0,.48,0,.73h0c0,.22,0,.43,0,.64s0,.26,0,.39a1.55,1.55,0,0,1,0,.22l-.06.5" transform="translate(-9 -7)"/><path class="d" d="M19.82,106.51s0,0,0,.08a6.18,6.18,0,0,1-.12.62h0a5.8,5.8,0,0,1-.2.63h0a3.92,3.92,0,0,1-.93,1.5h0a4.33,4.33,0,0,1-.52.42h0c-.08.06-.17.1-.25.15l-.15.08a3.13,3.13,0,0,1-.32.15l-.22.09-.34.11-.28.08-.35.07-.36.06-.18,0h0l-.55.05h0l-.6,0h0c-.26,0-.5,0-.73,0h-.19l-.5-.06-.17,0a4.29,4.29,0,0,1-.54-.11h0a4.07,4.07,0,0,1-3.14-3.55h0c0-.16-.06-.33-.08-.5h0s0-.11,0-.16,0-.3,0-.45,0-.16,0-.24c0-.24,0-.48,0-.73H9c0-.21,0-.43,0-.63l0-.4c0-.07,0-.15,0-.22l.06-.5a.17.17,0,0,0,0-.07c0-.22.07-.42.12-.62h0a6,6,0,0,1,.19-.64h0a3.88,3.88,0,0,1,.93-1.49h0a4.33,4.33,0,0,1,.52-.42h0l.24-.14.15-.09.33-.15.22-.09.33-.1.29-.08.34-.08.36-.06.18,0h0l.55,0h.61l.73,0,.18,0a4,4,0,0,1,.51.06l.16,0a4.28,4.28,0,0,1,.54.12h0a4.07,4.07,0,0,1,3.14,3.56h0c0,.17.06.34.08.5h0a.92.92,0,0,0,0,.16c0,.14,0,.3,0,.45s0,.16,0,.24c0,.24,0,.48,0,.73h0c0,.22,0,.43,0,.64s0,.26,0,.39a1.55,1.55,0,0,1,0,.22l-.06.5" transform="translate(-9 -7)"/><g class="h"><g class="aa"><path class="d" d="M159.79,106.52a.17.17,0,0,0,0,.07,6.18,6.18,0,0,1-.12.62h0c-.05.22-.12.43-.19.64h0a3.88,3.88,0,0,1-.93,1.49h0a4.33,4.33,0,0,1-.52.42h0l-.25.14-.15.09-.33.15-.21.09-.34.1-.29.08-.34.08-.36,0-.18,0h0l-.55.05h0a5.72,5.72,0,0,1-.59,0h0l-.73,0-.18,0a4,4,0,0,1-.51-.06l-.16,0c-.19,0-.37-.07-.54-.12h0a4.06,4.06,0,0,1-3.14-3.55h0c0-.17-.06-.34-.08-.5h0s0-.11,0-.16,0-.3,0-.45,0-.16,0-.24c0-.24,0-.48,0-.73h0c0-.22,0-.43,0-.64l0-.39a1.55,1.55,0,0,1,0-.22l.06-.5a.22.22,0,0,0,0-.08,6.18,6.18,0,0,1,.12-.62h0c.06-.22.13-.43.2-.63h0a3.92,3.92,0,0,1,.93-1.5h0a3.54,3.54,0,0,1,.52-.42h0c.08-.06.17-.1.25-.15l.15-.08c.1-.06.21-.1.33-.16l.21-.08.34-.11.29-.08.34-.07.36-.06.18,0h0l.55,0h0l.6,0h0q.38,0,.72,0h.19l.51.06.16,0a4.29,4.29,0,0,1,.54.11h0a4.06,4.06,0,0,1,3.14,3.55h0c0,.16.06.33.08.5h0s0,.11,0,.16,0,.3,0,.45,0,.16,0,.24c0,.24,0,.48,0,.73h0c0,.21,0,.43,0,.63l0,.4c0,.07,0,.15,0,.22l-.06.5" transform="translate(-9 -7)"/></g></g><g class="b"><g class="ab"><path class="d" d="M19.82,172.17s0,.05,0,.08a6,6,0,0,1-.12.61h0a5.35,5.35,0,0,1-.2.64h0a4,4,0,0,1-.93,1.5h0a4.33,4.33,0,0,1-.52.42h0l-.25.14-.15.09-.32.15-.22.09-.34.11-.28.07-.35.08-.36.06-.18,0h0l-.55,0h0l-.6,0h0c-.26,0-.5,0-.73,0l-.19,0a4,4,0,0,1-.5-.06l-.17,0a4.28,4.28,0,0,1-.54-.12h0a4.08,4.08,0,0,1-3.14-3.55h0c0-.17-.06-.33-.08-.5h0c0-.06,0-.11,0-.16s0-.31,0-.46,0-.16,0-.24,0-.48,0-.73H9c0-.22,0-.43,0-.64l0-.39c0-.08,0-.15,0-.22l.06-.5a.19.19,0,0,0,0-.08c0-.21.07-.42.12-.62h0a5.36,5.36,0,0,1,.19-.64h0a4,4,0,0,1,.93-1.5h0a4.33,4.33,0,0,1,.52-.42h0l.24-.14.15-.09a3.31,3.31,0,0,1,.33-.15l.22-.09.33-.11.29-.08.34-.07.36-.06.18,0h0l.55,0h0l.59,0h0c.25,0,.49,0,.73,0h.18l.51.06.16,0,.54.11h0a4.06,4.06,0,0,1,3.14,3.55h0c0,.16.06.33.08.5h0a.81.81,0,0,0,0,.16c0,.15,0,.3,0,.45s0,.16,0,.24c0,.24,0,.48,0,.73h0c0,.22,0,.43,0,.63s0,.27,0,.4a1.62,1.62,0,0,1,0,.22l-.06.5" transform="translate(-9 -7)"/></g></g><g class="h"><g class="ac"><path class="d" d="M32.54,172.17a.25.25,0,0,1,0,.08c0,.21-.07.41-.11.61h0a4,4,0,0,1-.2.64h0a4,4,0,0,1-.93,1.5h0a4.22,4.22,0,0,1-.51.42h0l-.24.14-.15.09-.33.15-.22.09-.33.11-.29.07-.34.08-.36.06-.18,0h0l-.56,0h0l-.6,0h0c-.25,0-.5,0-.73,0l-.19,0a4,4,0,0,1-.5-.06l-.16,0a4.28,4.28,0,0,1-.54-.12H25a4.06,4.06,0,0,1-3.13-3.55h0c0-.17-.05-.33-.07-.5h0c0-.06,0-.11,0-.16s0-.31,0-.46,0-.16,0-.24,0-.48,0-.73h0c0-.22,0-.43,0-.64s0-.26,0-.39,0-.15,0-.22,0-.34.06-.5a.25.25,0,0,1,0-.08A6.18,6.18,0,0,1,22,168h0a5.35,5.35,0,0,1,.2-.64h0a4,4,0,0,1,.93-1.5h0a3.67,3.67,0,0,1,.52-.42h0a2,2,0,0,1,.25-.14l.15-.09a3.13,3.13,0,0,1,.32-.15l.22-.09.34-.11.28-.08.34-.07.37-.06.17,0h0l.55,0h0l.6,0h0c.26,0,.5,0,.73,0h.19l.5.06.16,0,.55.11h0a4,4,0,0,1,3.13,3.55h0c0,.16.06.33.08.5h0c0,.06,0,.11,0,.16l0,.45a2.12,2.12,0,0,1,0,.24c0,.24,0,.48,0,.73h0c0,.22,0,.43,0,.63l0,.4a1.62,1.62,0,0,0,0,.22c0,.17,0,.33-.07.5" transform="translate(-9 -7)"/></g></g></svg>