<svg xmlns="http://www.w3.org/2000/svg" viewBox="0 0 100.69 64.74"><defs><style>.a{opacity:0.6;}.b{fill:#e97200;}</style></defs><title>post-quote</title><g class="a"><path class="b" d="M18.5,7.06s0-.09,0-.13c-.06-.36-.12-.72-.2-1.06h0a9.23,9.23,0,0,0-.34-1.09h0a6.86,6.86,0,0,0-1.58-2.56s0,0,0,0a5.77,5.77,0,0,0-.89-.73h0c-.13-.09-.28-.17-.42-.25a2,2,0,0,0-.25-.14,5.69,5.69,0,0,0-.56-.26L13.88.69,13.31.51a4.07,4.07,0,0,0-.5-.13L12.23.25l-.62-.1-.3,0v0C11,.08,10.7.05,10.38,0h0q-.49,0-1,0h0C8.91,0,8.5,0,8.1,0l-.32,0-.86.1-.28,0c-.32.06-.63.12-.93.2l-.07,0C2.32,1.3.83,3.49.28,6.5v0c0,.27-.1.56-.13.85h0c0,.09,0,.18,0,.27,0,.25,0,.51-.07.78l0,.4c0,.41,0,.82,0,1.25H0c0,.37,0,.73,0,1.09s0,.45.05.67,0,.25,0,.37c0,.3.07.58.1.86a.68.68,0,0,1,0,.14c.06.36.12.71.2,1.05h0a9.23,9.23,0,0,0,.34,1.09h0A6.76,6.76,0,0,0,2.33,17.9h0a7,7,0,0,0,.89.72h0c.13.09.28.17.42.25l.25.15.56.26.37.15c.19.07.38.12.58.18l.49.14c.19,0,.38.09.58.12l.62.1.3.05v0c.31,0,.62.07,1,.09h0q.5,0,1,0h0c.43,0,.84,0,1.24,0l.32,0c.3,0,.59-.06.87-.1l.27,0a8,8,0,0,0,.93-.2h.07c3.32-.88,4.81-3.07,5.36-6.08h0c.05-.28.1-.57.13-.86v0a2.64,2.64,0,0,0,0-.28c0-.25.06-.51.07-.78l0-.4c0-.41,0-.82,0-1.25h0c0-.37,0-.73,0-1.09s0-.45-.05-.67,0-.25,0-.37c0-.3-.06-.58-.1-.86"/><path class="b" d="M18.5,29.36s0-.09,0-.13c-.06-.36-.12-.71-.2-1.05h0a9.39,9.39,0,0,0-.34-1.1h0a6.9,6.9,0,0,0-1.58-2.57v0a6.36,6.36,0,0,0-.89-.72v0c-.13-.09-.28-.16-.42-.24l-.25-.15-.56-.26L13.88,23l-.57-.19-.5-.13-.58-.13c-.2,0-.41-.07-.62-.09l-.3-.05a0,0,0,0,0,0,0l-.94-.08h0c-.33,0-.67,0-1,0h0c-.43,0-.84,0-1.24.05l-.32,0c-.3,0-.59.05-.86.09l-.28.05c-.32.05-.63.12-.93.19l-.07,0C2.32,23.61.83,25.8.28,28.8c0,0,0,0,0,0,0,.28-.1.56-.13.86v0c0,.09,0,.18,0,.27,0,.26,0,.52-.07.78l0,.41c0,.4,0,.82,0,1.25H0c0,.37,0,.74,0,1.1s0,.44.05.67,0,.25,0,.37c0,.29.07.58.1.86a.59.59,0,0,1,0,.13c.06.36.12.72.2,1h0a9.39,9.39,0,0,0,.34,1.1h0a6.72,6.72,0,0,0,1.59,2.57v0a6.23,6.23,0,0,0,.89.72v0c.13.09.28.16.42.25l.25.14.56.26.37.15.58.19.49.13.58.13.62.1.3,0h0c.31,0,.62.07,1,.08h0c.33,0,.67,0,1,0h0c.43,0,.84,0,1.24,0l.32,0,.87-.1.27,0c.33-.06.64-.13.93-.2l.07,0c3.32-.87,4.81-3.07,5.36-6.07v0c.05-.28.1-.56.13-.85h0a2.45,2.45,0,0,0,0-.27c0-.26.06-.51.07-.78l0-.41c0-.4,0-.82,0-1.24h0c0-.37,0-.73,0-1.09s0-.45-.05-.68,0-.25,0-.37c0-.29-.06-.58-.1-.86"/><path class="b" d="M18.5,51.67s0-.09,0-.13c-.06-.36-.12-.72-.2-1h0a9.39,9.39,0,0,0-.34-1.1h0a6.9,6.9,0,0,0-1.58-2.57v0a5.72,5.72,0,0,0-.89-.72v0c-.13-.09-.28-.16-.42-.24l-.25-.15-.56-.26-.37-.15-.57-.19-.5-.13-.58-.13c-.2,0-.41-.07-.62-.09l-.3-.05h0l-.94-.08h0c-.33,0-.67,0-1,0h0c-.43,0-.84,0-1.24,0l-.32,0-.86.1-.28,0c-.32.05-.63.12-.93.19l-.07,0C2.32,45.91.83,48.11.28,51.11c0,0,0,0,0,0,0,.28-.1.56-.13.85h0c0,.09,0,.18,0,.27,0,.26,0,.51-.07.78l0,.41c0,.4,0,.82,0,1.25H0c0,.37,0,.74,0,1.09s0,.45.05.68,0,.25,0,.37c0,.29.07.58.1.86a.59.59,0,0,1,0,.13c.06.36.12.71.2,1h0A9.39,9.39,0,0,0,.76,60h0a6.72,6.72,0,0,0,1.59,2.57v0a7,7,0,0,0,.89.72,0,0,0,0,0,0,0c.13.09.28.16.42.25l.25.14.56.26.37.15.58.19.49.13.58.13.62.1.3,0h0l1,.08h0c.33,0,.67,0,1,0h0c.43,0,.84,0,1.24,0a3.16,3.16,0,0,0,.32,0q.45,0,.87-.09l.27,0c.33,0,.64-.12.93-.19l.07,0c3.32-.88,4.81-3.07,5.36-6.07v0c.05-.28.1-.56.13-.85h0a2.45,2.45,0,0,0,0-.27c0-.26.06-.52.07-.78l0-.41c0-.4,0-.82,0-1.24h0c0-.37,0-.74,0-1.1s0-.44-.05-.67,0-.25,0-.37c0-.29-.06-.58-.1-.86"/><path class="b" d="M39.5,7.06s0-.09,0-.13c-.06-.36-.12-.72-.2-1.06h0a9.23,9.23,0,0,0-.34-1.09h0a6.86,6.86,0,0,0-1.58-2.56s0,0,0,0a5.77,5.77,0,0,0-.89-.73h0c-.13-.09-.28-.17-.42-.25a2,2,0,0,0-.25-.14,5.69,5.69,0,0,0-.56-.26L34.88.69C34.69.62,34.5.57,34.3.51a3.92,3.92,0,0,0-.49-.13L33.23.25l-.62-.1-.3,0v0C32,.08,31.7.05,31.37,0h0q-.5,0-1,0h0c-.43,0-.84,0-1.24,0l-.32,0-.86.1-.28,0c-.32.06-.63.12-.93.2l-.07,0c-3.32.87-4.81,3.06-5.36,6.07v0c-.05.27-.1.56-.13.85h0c0,.09,0,.18,0,.27,0,.25-.05.51-.07.78l0,.4c0,.41,0,.82,0,1.25h0c0,.37,0,.73,0,1.09s0,.45.05.67,0,.25,0,.37c0,.3.07.58.1.86a.68.68,0,0,1,0,.14c.06.36.12.71.2,1.05h0a9.23,9.23,0,0,0,.34,1.09h0a6.76,6.76,0,0,0,1.59,2.56h0a7,7,0,0,0,.89.72h0c.13.09.28.17.42.25l.25.15.56.26.37.15c.19.07.38.12.58.18l.49.14c.19,0,.38.09.58.12l.62.1.3.05v0c.31,0,.62.07.95.09h0q.49,0,1,0h0c.43,0,.84,0,1.24,0l.32,0c.3,0,.59-.06.87-.1l.27,0a8.47,8.47,0,0,0,.93-.2h.07c3.32-.88,4.81-3.07,5.36-6.08h0c.05-.28.1-.57.13-.86v0a2.64,2.64,0,0,0,0-.28c0-.25.06-.51.07-.78l0-.4c0-.41,0-.82,0-1.25h0c0-.37,0-.73,0-1.09s0-.45-.05-.67,0-.25,0-.37c0-.3-.06-.58-.1-.86"/><path class="b" d="M39.5,29.36s0-.09,0-.13c-.06-.36-.12-.71-.2-1.05h0a9.39,9.39,0,0,0-.34-1.1h0a6.9,6.9,0,0,0-1.58-2.57v0a6.36,6.36,0,0,0-.89-.72v0c-.13-.09-.28-.16-.42-.24l-.25-.15-.56-.26L34.88,23l-.58-.19-.49-.13-.58-.13c-.2,0-.41-.07-.62-.09l-.3-.05a0,0,0,0,0,0,0l-.95-.08h0c-.33,0-.67,0-1,0h0c-.43,0-.84,0-1.24.05l-.32,0c-.3,0-.59.05-.86.09l-.28.05c-.32.05-.63.12-.93.19l-.07,0c-3.32.88-4.81,3.07-5.36,6.07,0,0,0,0,0,0-.05.28-.1.56-.13.86v0c0,.09,0,.18,0,.27,0,.26-.05.52-.07.78l0,.41c0,.4,0,.82,0,1.25h0c0,.37,0,.74,0,1.1s0,.44.05.67,0,.25,0,.37c0,.29.07.58.1.86a.59.59,0,0,1,0,.13c.06.36.12.72.2,1h0a9.39,9.39,0,0,0,.34,1.1h0a6.72,6.72,0,0,0,1.59,2.57v0a6.23,6.23,0,0,0,.89.72v0c.13.09.28.16.42.25l.25.14.56.26.37.15.58.19.49.13.58.13.62.1.3,0h0c.31,0,.62.07.95.08h0c.33,0,.67,0,1,0h0c.43,0,.84,0,1.24,0l.32,0,.87-.1.27,0L34,42l.07,0c3.32-.87,4.81-3.07,5.36-6.07v0c.05-.28.1-.56.13-.85h0a2.45,2.45,0,0,0,0-.27c0-.26.06-.51.07-.78l0-.41c0-.4,0-.82,0-1.24h0c0-.37,0-.73,0-1.09s0-.45-.05-.68,0-.25,0-.37c0-.29-.06-.58-.1-.86"/></g><g class="a"><path class="b" d="M79.5,7.06s0-.09,0-.13c-.06-.36-.12-.72-.2-1.06h0a9.23,9.23,0,0,0-.34-1.09h0a6.86,6.86,0,0,0-1.58-2.56s0,0,0,0a5.77,5.77,0,0,0-.89-.73h0c-.13-.09-.28-.17-.42-.25a2,2,0,0,0-.25-.14,5.69,5.69,0,0,0-.56-.26L74.88.69C74.69.62,74.5.57,74.3.51a3.92,3.92,0,0,0-.49-.13L73.23.25l-.62-.1-.3,0v0C72,.08,71.7.05,71.37,0h0q-.5,0-1,0h0c-.43,0-.84,0-1.24,0l-.32,0-.86.1-.28,0c-.32.06-.63.12-.93.2l-.07,0c-3.32.87-4.81,3.06-5.36,6.07v0c0,.27-.1.56-.13.85h0c0,.09,0,.18,0,.27,0,.25-.05.51-.07.78l0,.4c0,.41,0,.82,0,1.25h0c0,.37,0,.73,0,1.09s0,.45,0,.67,0,.25,0,.37c0,.3.07.58.1.86a.68.68,0,0,1,0,.14c.06.36.12.71.2,1.05h0a9.23,9.23,0,0,0,.34,1.09h0a6.76,6.76,0,0,0,1.59,2.56h0a7,7,0,0,0,.89.72h0c.13.09.28.17.42.25l.25.15.56.26.37.15c.19.07.38.12.58.18l.49.14c.19,0,.38.09.58.12l.62.1.3.05v0c.31,0,.62.07.95.09h0q.5,0,1,0h0c.43,0,.84,0,1.24,0l.32,0c.3,0,.59-.06.87-.1l.27,0a8.47,8.47,0,0,0,.93-.2h.07c3.32-.88,4.81-3.07,5.36-6.08h0c0-.28.1-.57.13-.86v0a2.64,2.64,0,0,0,0-.28c0-.25.06-.51.07-.78l0-.4c0-.41,0-.82,0-1.25h0c0-.37,0-.73,0-1.09s0-.45,0-.67,0-.25,0-.37c0-.3-.06-.58-.1-.86"/><path class="b" d="M79.5,29.36s0-.09,0-.13c-.06-.36-.12-.71-.2-1.05h0a9.39,9.39,0,0,0-.34-1.1h0a6.9,6.9,0,0,0-1.58-2.57v0a6.36,6.36,0,0,0-.89-.72v0c-.13-.09-.28-.16-.42-.24l-.25-.15-.56-.26L74.88,23l-.58-.19-.49-.13-.58-.13c-.2,0-.41-.07-.62-.09l-.3-.05a0,0,0,0,0,0,0l-.95-.08h0c-.33,0-.67,0-1,0h0c-.43,0-.84,0-1.24.05l-.32,0c-.3,0-.59.05-.86.09l-.28.05c-.32.05-.63.12-.93.19l-.07,0c-3.32.88-4.81,3.07-5.36,6.07,0,0,0,0,0,0,0,.28-.1.56-.13.86v0c0,.09,0,.18,0,.27,0,.26-.05.52-.07.78l0,.41c0,.4,0,.82,0,1.25h0c0,.37,0,.74,0,1.1s0,.44,0,.67,0,.25,0,.37c0,.29.07.58.1.86a.59.59,0,0,1,0,.13c.06.36.12.72.2,1h0a9.39,9.39,0,0,0,.34,1.1h0a6.72,6.72,0,0,0,1.59,2.57v0a6.23,6.23,0,0,0,.89.72v0c.13.09.28.16.42.25l.25.14.56.26.37.15.58.19.49.13.58.13.62.1.3,0h0c.31,0,.62.07.95.08h0c.33,0,.67,0,1,0h0c.43,0,.84,0,1.24,0l.32,0,.87-.1.27,0L74,42l.07,0c3.32-.87,4.81-3.07,5.36-6.07v0c0-.28.1-.56.13-.85h0a2.45,2.45,0,0,0,0-.27c0-.26.06-.51.07-.78l0-.41c0-.4,0-.82,0-1.24h0c0-.37,0-.73,0-1.09s0-.45,0-.68,0-.25,0-.37c0-.29-.06-.58-.1-.86"/><path class="b" d="M79.5,51.67s0-.09,0-.13c-.06-.36-.12-.72-.2-1h0a9.39,9.39,0,0,0-.34-1.1h0a6.9,6.9,0,0,0-1.58-2.57v0a5.72,5.72,0,0,0-.89-.72v0c-.13-.09-.28-.16-.42-.24l-.25-.15-.56-.26-.37-.15-.58-.19L73.81,45l-.58-.13c-.2,0-.41-.07-.62-.09l-.3-.05h0l-.95-.08h0c-.33,0-.67,0-1,0h0c-.43,0-.84,0-1.24,0l-.32,0-.86.1-.28,0c-.32.05-.63.12-.93.19l-.07,0c-3.32.87-4.81,3.07-5.36,6.07,0,0,0,0,0,0,0,.28-.1.56-.13.85h0c0,.09,0,.18,0,.27,0,.26-.05.51-.07.78l0,.41c0,.4,0,.82,0,1.25h0c0,.37,0,.74,0,1.09s0,.45,0,.68,0,.25,0,.37c0,.29.07.58.1.86a.59.59,0,0,1,0,.13c.06.36.12.71.2,1h0a9.39,9.39,0,0,0,.34,1.1h0a6.72,6.72,0,0,0,1.59,2.57v0a7,7,0,0,0,.89.72,0,0,0,0,0,0,0c.13.09.28.16.42.25l.25.14.56.26.37.15.58.19.49.13.58.13.62.1.3,0h0l.95.08h0c.33,0,.67,0,1,0h0c.43,0,.84,0,1.24,0a3.16,3.16,0,0,0,.32,0q.45,0,.87-.09l.27,0c.32,0,.64-.12.93-.19l.07,0c3.32-.88,4.81-3.07,5.36-6.07v0c0-.28.1-.56.13-.85h0a2.45,2.45,0,0,0,0-.27c0-.26.06-.52.07-.78l0-.41c0-.4,0-.82,0-1.24h0c0-.37,0-.74,0-1.1s0-.44,0-.67,0-.25,0-.37c0-.29-.06-.58-.1-.86"/><path class="b" d="M100.5,7.06s0-.09,0-.13c-.06-.36-.12-.72-.2-1.06h0a9.23,9.23,0,0,0-.34-1.09h0a6.76,6.76,0,0,0-1.59-2.56v0a6.29,6.29,0,0,0-.89-.73h0c-.13-.09-.28-.17-.42-.25a2,2,0,0,0-.25-.14,5.69,5.69,0,0,0-.56-.26L95.88.69C95.69.62,95.5.57,95.3.51a3.92,3.92,0,0,0-.49-.13L94.23.25l-.62-.1-.3,0v0C93,.08,92.7.05,92.37,0h0q-.5,0-1,0h0c-.43,0-.84,0-1.24,0l-.32,0-.86.1-.28,0c-.32.06-.63.12-.93.2l-.07,0c-3.32.87-4.81,3.06-5.36,6.07v0c-.05.27-.1.56-.13.85h0a2.45,2.45,0,0,0,0,.27c0,.25,0,.51-.07.78l0,.4c0,.41,0,.82,0,1.25h0c0,.37,0,.73,0,1.09s0,.45,0,.67,0,.25,0,.37c0,.3.07.58.1.86,0,0,0,.09,0,.14.06.36.12.71.2,1.05h0a9.23,9.23,0,0,0,.34,1.09h0a6.76,6.76,0,0,0,1.59,2.56h0a7,7,0,0,0,.89.72h0c.13.09.28.17.42.25l.25.15.56.26.37.15c.19.07.38.12.58.18l.49.14c.19,0,.38.09.58.12l.62.1.3.05v0c.31,0,.62.07.95.09h0q.5,0,1,0h0c.43,0,.84,0,1.24,0l.32,0c.3,0,.59-.06.86-.1l.28,0a9,9,0,0,0,.93-.2h.07c3.32-.88,4.81-3.07,5.36-6.08h0c0-.28.1-.57.13-.86v0a2.64,2.64,0,0,0,0-.28c0-.25,0-.51.07-.78l0-.4c0-.41,0-.82,0-1.25h0c0-.37,0-.73,0-1.09s0-.45,0-.67,0-.25,0-.37c0-.3-.06-.58-.1-.86"/><path class="b" d="M100.5,29.36s0-.09,0-.13c-.06-.36-.12-.71-.2-1.05h0a9.39,9.39,0,0,0-.34-1.1h0a6.8,6.8,0,0,0-1.59-2.57v0a7,7,0,0,0-.89-.72v0c-.13-.09-.28-.16-.42-.24l-.25-.15-.56-.26L95.88,23l-.58-.19-.49-.13-.58-.13c-.2,0-.41-.07-.62-.09l-.3-.05a0,0,0,0,0,0,0l-.95-.08h0c-.33,0-.67,0-1,0h0c-.43,0-.84,0-1.24.05l-.32,0c-.3,0-.59.05-.86.09l-.28.05c-.32.05-.63.12-.93.19l-.07,0c-3.32.88-4.81,3.07-5.36,6.07,0,0,0,0,0,0-.05.28-.1.56-.13.86v0a2.45,2.45,0,0,0,0,.27c0,.26,0,.52-.07.78l0,.41c0,.4,0,.82,0,1.25h0c0,.37,0,.74,0,1.1s0,.44,0,.67,0,.25,0,.37c0,.29.07.58.1.86,0,0,0,.09,0,.13.06.36.12.72.2,1h0a9.39,9.39,0,0,0,.34,1.1h0a6.72,6.72,0,0,0,1.59,2.57v0a6.23,6.23,0,0,0,.89.72v0c.13.09.28.16.42.25s.16.1.25.14l.56.26c.12.05.24.11.37.15l.58.19.49.13.58.13.62.1.3,0h0c.31,0,.62.07.95.08h0c.33,0,.67,0,1,0h0c.43,0,.84,0,1.24,0l.32,0,.86-.1.28,0L95,42l.07,0c3.32-.87,4.81-3.07,5.36-6.07v0c0-.28.1-.56.13-.85h0a2.45,2.45,0,0,0,0-.27c0-.26,0-.51.07-.78l0-.41c0-.4,0-.82,0-1.24h0c0-.37,0-.73,0-1.09s0-.45,0-.68,0-.25,0-.37c0-.29-.06-.58-.1-.86"/></g></svg>
