<svg xmlns="http://www.w3.org/2000/svg" viewBox="0 0 100.69 64.74"><defs><style>.a{opacity:0.6;}.b{fill:#e97200;}</style></defs><title>pre-quote</title><g class="a"><path class="b" d="M82.19,57.68s0,.09,0,.13c.06.36.12.72.2,1.06h0c.1.38.21.74.34,1.09h0a6.76,6.76,0,0,0,1.59,2.56v0a6.29,6.29,0,0,0,.89.73h0a3.5,3.5,0,0,0,.42.24,2.07,2.07,0,0,0,.25.15,5.69,5.69,0,0,0,.56.26l.37.16.58.18.49.13.58.13.62.1.3,0s0,0,0,0c.31,0,.62.06.95.08h0q.5,0,1,0h0c.43,0,.84,0,1.24,0l.32,0,.86-.1.28,0a9,9,0,0,0,.93-.19l.07,0c3.32-.87,4.81-3.06,5.36-6.07,0,0,0,0,0,0,0-.27.1-.56.13-.85h0l0-.27q0-.37.06-.78l0-.4c0-.41,0-.82,0-1.25h0c0-.37,0-.74,0-1.09s0-.45,0-.67,0-.25,0-.38c0-.29-.06-.57-.1-.85,0,0,0-.09,0-.14-.06-.36-.12-.71-.2-1h0a10,10,0,0,0-.34-1.1h0a6.76,6.76,0,0,0-1.59-2.56h0a7,7,0,0,0-.89-.72v0c-.13-.09-.28-.16-.42-.24l-.25-.15-.56-.26-.37-.15-.58-.19L94.82,45c-.19,0-.39-.09-.59-.12l-.62-.1-.3-.05h0l-.95-.08h0c-.33,0-.67,0-1,0h0c-.43,0-.84,0-1.24,0l-.32,0c-.3,0-.59.06-.86.09l-.28,0c-.32.05-.63.12-.93.19l-.07,0c-3.32.88-4.81,3.07-5.36,6.07v0c-.05.28-.1.57-.13.85h0a2.64,2.64,0,0,0,0,.28c0,.25,0,.51-.07.77l0,.41c0,.41,0,.82,0,1.25h0c0,.37,0,.74,0,1.1s0,.45,0,.67,0,.25,0,.37c0,.29.07.58.1.86"/><path class="b" d="M82.19,35.37c0,.05,0,.09,0,.14.06.36.12.71.2,1.05h0c.1.38.21.74.34,1.1h0a6.76,6.76,0,0,0,1.59,2.56h0a7,7,0,0,0,.89.72v0c.13.09.28.16.42.24l.25.15.56.26.37.15.58.19.49.13.58.12.62.1.3,0h0l.95.08h0l1,0h0c.43,0,.84,0,1.24,0l.32,0c.3,0,.59-.06.86-.09l.28-.05L95,42l.07,0c3.32-.88,4.81-3.07,5.36-6.08h0c0-.28.1-.57.13-.86v0l0-.28.06-.77,0-.41c0-.41,0-.82,0-1.25h0c0-.37,0-.74,0-1.1s0-.45,0-.67,0-.25,0-.37c0-.29-.06-.58-.1-.86,0,0,0-.09,0-.13-.06-.37-.12-.72-.2-1.06h0a9.23,9.23,0,0,0-.34-1.09h0a6.76,6.76,0,0,0-1.59-2.56v0a6.29,6.29,0,0,0-.89-.73,0,0,0,0,0,0,0c-.13-.09-.28-.17-.42-.25l-.25-.15-.56-.25L95.88,23l-.58-.18-.48-.14-.59-.12-.62-.1-.3-.05s0,0,0,0c-.31,0-.62-.07-.95-.08h0q-.5,0-1,0h0c-.43,0-.84,0-1.24,0l-.32,0-.86.1-.28,0c-.32.06-.63.12-.93.2l-.07,0c-3.32.87-4.81,3.06-5.36,6.07h0c-.05.28-.1.57-.13.86h0a2.28,2.28,0,0,0,0,.27c0,.25,0,.51-.07.78l0,.4c0,.41,0,.82,0,1.25h0c0,.37,0,.73,0,1.09s0,.45,0,.67,0,.25,0,.38c0,.29.07.57.1.85"/><path class="b" d="M82.19,13.07s0,.09,0,.13c.06.36.12.71.2,1.05h0c.1.38.21.75.34,1.1h0a6.88,6.88,0,0,0,1.59,2.57v0a7,7,0,0,0,.89.72v0c.13.09.28.16.42.24l.25.15.56.26.37.15.58.19.49.13.58.13.62.09.3.05h0l.95.08h0c.33,0,.67,0,1,0h0c.43,0,.84,0,1.24-.05l.32,0c.3,0,.59-.05.86-.09l.28-.05.93-.19.07,0c3.32-.88,4.81-3.07,5.36-6.07,0,0,0,0,0,0,0-.28.1-.56.13-.86v0l0-.27.06-.78,0-.41c0-.4,0-.82,0-1.25h0c0-.37,0-.74,0-1.1s0-.45,0-.67,0-.25,0-.37c0-.29-.06-.58-.1-.86,0,0,0-.09,0-.13-.06-.36-.12-.72-.2-1h0a9.39,9.39,0,0,0-.34-1.1h0a6.76,6.76,0,0,0-1.59-2.56v0a7.06,7.06,0,0,0-.89-.73,0,0,0,0,0,0,0c-.13-.09-.28-.16-.42-.25l-.25-.15L96.25.85,95.88.69,95.3.51,94.82.38,94.23.25l-.62-.1-.3,0v0C93,.09,92.7.05,92.37,0h0q-.5,0-1,0h0c-.43,0-.84,0-1.24.05l-.32,0-.86.1-.28,0-.93.2-.07,0c-3.32.87-4.81,3.07-5.36,6.07h0c-.05.29-.1.57-.13.86h0a2.28,2.28,0,0,0,0,.27c0,.26,0,.51-.07.78l0,.41c0,.4,0,.82,0,1.24h0c0,.37,0,.73,0,1.09s0,.45,0,.68,0,.25,0,.37c0,.29.07.57.1.86"/><path class="b" d="M61.19,57.68a.59.59,0,0,1,0,.13c.06.36.12.72.2,1.06h0c.1.38.21.74.34,1.09h0a6.76,6.76,0,0,0,1.59,2.56v0a6.29,6.29,0,0,0,.89.73h0a3.5,3.5,0,0,0,.42.24l.25.15a5.69,5.69,0,0,0,.56.26l.37.16.58.18.49.13.58.13.62.1.3,0s0,0,0,0c.31,0,.62.06.95.08h0q.5,0,1,0h0c.43,0,.84,0,1.24,0l.32,0,.87-.1.27,0a9,9,0,0,0,.93-.19l.07,0c3.32-.87,4.81-3.06,5.36-6.07,0,0,0,0,0,0,0-.27.1-.56.13-.85h0l0-.27c0-.25.05-.51.06-.78l0-.4c0-.41,0-.82,0-1.25h0c0-.37,0-.74,0-1.09s0-.45,0-.67,0-.25,0-.38c0-.29-.06-.57-.1-.85,0,0,0-.09,0-.14-.06-.36-.12-.71-.2-1h0a10,10,0,0,0-.34-1.1h0a6.86,6.86,0,0,0-1.58-2.56h0a6.36,6.36,0,0,0-.89-.72v0c-.13-.09-.28-.16-.42-.24l-.25-.15-.56-.26-.37-.15-.58-.19L73.82,45c-.19,0-.39-.09-.59-.12l-.62-.1-.3-.05h0l-.95-.08h0c-.33,0-.67,0-1,0h0c-.43,0-.84,0-1.24,0l-.32,0c-.3,0-.59.06-.86.09l-.28,0c-.32.05-.63.12-.93.19l-.07,0c-3.32.88-4.81,3.07-5.36,6.07v0c0,.28-.1.57-.13.85h0c0,.09,0,.19,0,.28,0,.25-.05.51-.07.77l0,.41c0,.41,0,.82,0,1.25h0c0,.37,0,.74,0,1.1s0,.45,0,.67,0,.25,0,.37c0,.29.07.58.1.86"/><path class="b" d="M61.19,35.37a.68.68,0,0,1,0,.14c.06.36.12.71.2,1.05h0c.1.38.21.74.34,1.1h0a6.76,6.76,0,0,0,1.59,2.56h0a7,7,0,0,0,.89.72v0c.13.09.28.16.42.24l.25.15.56.26.37.15.58.19.49.13.58.12.62.1.3,0h0l.95.08h0l1,0h0c.43,0,.84,0,1.24,0l.32,0c.3,0,.59-.06.87-.09l.27-.05L74,42l.07,0c3.32-.88,4.81-3.07,5.36-6.08h0c0-.28.1-.57.13-.86v0l0-.28c0-.25.05-.51.06-.77l0-.41c0-.41,0-.82,0-1.25h0c0-.37,0-.74,0-1.1s0-.45,0-.67,0-.25,0-.37c0-.29-.06-.58-.1-.86,0,0,0-.09,0-.13-.06-.37-.12-.72-.2-1.06h0a9.23,9.23,0,0,0-.34-1.09h0a6.86,6.86,0,0,0-1.58-2.56s0,0,0,0a5.77,5.77,0,0,0-.89-.73,0,0,0,0,0,0,0c-.13-.09-.28-.17-.42-.25l-.25-.15-.56-.25L74.88,23l-.58-.18-.48-.14-.59-.12-.62-.1-.3-.05s0,0,0,0c-.31,0-.62-.07-.95-.08h0q-.5,0-1,0h0c-.43,0-.84,0-1.24,0l-.32,0-.86.1-.28,0c-.32.06-.63.12-.93.2l-.07,0c-3.32.87-4.81,3.06-5.36,6.07h0c0,.28-.1.57-.13.86h0c0,.08,0,.18,0,.27,0,.25-.05.51-.07.78l0,.4c0,.41,0,.82,0,1.25h0c0,.37,0,.73,0,1.09s0,.45,0,.67,0,.25,0,.38c0,.29.07.57.1.85"/></g><g class="a"><path class="b" d="M21.19,57.68a.59.59,0,0,1,0,.13c.06.36.12.72.2,1.06h0c.1.38.21.74.34,1.09h0a6.76,6.76,0,0,0,1.59,2.56v0a6.29,6.29,0,0,0,.89.73h0a3.5,3.5,0,0,0,.42.24l.25.15a5.69,5.69,0,0,0,.56.26l.37.16.58.18.49.13.58.13.62.1.3,0s0,0,0,0c.31,0,.62.06.95.08h0q.49,0,1,0h0c.43,0,.84,0,1.24,0l.32,0,.87-.1.27,0a9,9,0,0,0,.93-.19l.07,0c3.32-.87,4.81-3.06,5.36-6.07,0,0,0,0,0,0,.05-.27.1-.56.13-.85h0l0-.27c0-.25,0-.51.06-.78l0-.4c0-.41,0-.82,0-1.25h0c0-.37,0-.74,0-1.09s0-.45-.05-.67,0-.25,0-.38c0-.29-.06-.57-.1-.85,0,0,0-.09,0-.14-.06-.36-.12-.71-.2-1h0a10,10,0,0,0-.34-1.1h0a6.86,6.86,0,0,0-1.58-2.56h0a6.36,6.36,0,0,0-.89-.72v0c-.13-.09-.28-.16-.42-.24l-.25-.15-.56-.26-.37-.15-.58-.19L33.82,45c-.19,0-.39-.09-.59-.12l-.62-.1-.3-.05h0l-.95-.08h0c-.33,0-.67,0-1,0h0c-.43,0-.84,0-1.24,0l-.32,0c-.3,0-.59.06-.86.09l-.28,0c-.32.05-.63.12-.93.19l-.07,0c-3.32.88-4.81,3.07-5.36,6.07v0c-.05.28-.1.57-.13.85h0c0,.09,0,.19,0,.28,0,.25-.05.51-.07.77l0,.41c0,.41,0,.82,0,1.25h0c0,.37,0,.74,0,1.1s0,.45.05.67,0,.25,0,.37c0,.29.07.58.1.86"/><path class="b" d="M21.19,35.37a.68.68,0,0,1,0,.14c.06.36.12.71.2,1.05h0c.1.38.21.74.34,1.1h0a6.76,6.76,0,0,0,1.59,2.56h0a7,7,0,0,0,.89.72v0c.13.09.28.16.42.24l.25.15.56.26.37.15.58.19.49.13.58.12.62.1.3,0h0l.95.08h0l1,0h0c.43,0,.84,0,1.24,0l.32,0c.3,0,.59-.06.87-.09l.27-.05L34,42l.07,0c3.32-.88,4.81-3.07,5.36-6.08h0c.05-.28.1-.57.13-.86v0l0-.28c0-.25,0-.51.06-.77l0-.41c0-.41,0-.82,0-1.25h0c0-.37,0-.74,0-1.1s0-.45-.05-.67,0-.25,0-.37c0-.29-.06-.58-.1-.86,0,0,0-.09,0-.13-.06-.37-.12-.72-.2-1.06h0a9.23,9.23,0,0,0-.34-1.09h0a6.86,6.86,0,0,0-1.58-2.56s0,0,0,0a5.77,5.77,0,0,0-.89-.73,0,0,0,0,0,0,0c-.13-.09-.28-.17-.42-.25l-.25-.15-.56-.25L34.88,23l-.58-.18-.48-.14-.59-.12-.62-.1-.3-.05s0,0,0,0c-.31,0-.62-.07-.95-.08h0q-.5,0-1,0h0c-.43,0-.84,0-1.24,0l-.32,0-.86.1-.28,0c-.32.06-.63.12-.93.2l-.07,0c-3.32.87-4.81,3.06-5.36,6.07h0c-.05.28-.1.57-.13.86h0c0,.08,0,.18,0,.27,0,.25-.05.51-.07.78l0,.4c0,.41,0,.82,0,1.25h0c0,.37,0,.73,0,1.09s0,.45.05.67,0,.25,0,.38c0,.29.07.57.1.85"/><path class="b" d="M21.19,13.07a.59.59,0,0,1,0,.13c.06.36.12.71.2,1.05h0c.1.38.21.75.34,1.1h0a6.88,6.88,0,0,0,1.59,2.57v0a7,7,0,0,0,.89.72v0c.13.09.28.16.42.24l.25.15.56.26.37.15.58.19.49.13.58.13.62.09.3.05h0l.95.08h0c.33,0,.67,0,1,0h0c.43,0,.84,0,1.24-.05l.32,0q.45,0,.87-.09l.27-.05.93-.19.07,0c3.32-.88,4.81-3.07,5.36-6.07,0,0,0,0,0,0,.05-.28.1-.56.13-.86v0l0-.27c0-.26,0-.52.06-.78l0-.41c0-.4,0-.82,0-1.25h0c0-.37,0-.74,0-1.1s0-.45-.05-.67,0-.25,0-.37c0-.29-.06-.58-.1-.86,0,0,0-.09,0-.13-.06-.36-.12-.72-.2-1h0a9.39,9.39,0,0,0-.34-1.1h0a6.86,6.86,0,0,0-1.58-2.56v0a6.41,6.41,0,0,0-.89-.73,0,0,0,0,0,0,0c-.13-.09-.28-.16-.42-.25l-.25-.15L35.25.85,34.88.69,34.3.51,33.82.38,33.23.25l-.62-.1-.3,0v0C32,.09,31.7.05,31.37,0h0q-.5,0-1,0h0c-.43,0-.84,0-1.24.05l-.32,0-.86.1-.28,0-.93.2-.07,0c-3.32.87-4.81,3.07-5.36,6.07h0c-.05.29-.1.57-.13.86h0c0,.08,0,.18,0,.27,0,.26-.05.51-.07.78l0,.41c0,.4,0,.82,0,1.24h0c0,.37,0,.73,0,1.09s0,.45.05.68,0,.25,0,.37c0,.29.07.57.1.86"/><path class="b" d="M.19,57.68a.59.59,0,0,1,0,.13c.06.36.12.72.2,1.06h0c.1.38.21.74.34,1.09h0a6.76,6.76,0,0,0,1.59,2.56v0a6.29,6.29,0,0,0,.89.73h0a3.5,3.5,0,0,0,.42.24l.25.15a5.69,5.69,0,0,0,.56.26l.37.16.58.18.49.13.58.13.62.1.3,0s0,0,0,0c.31,0,.62.06,1,.08h0q.5,0,1,0h0c.43,0,.84,0,1.24,0l.32,0,.87-.1.27,0a8.49,8.49,0,0,0,.93-.19l.07,0c3.32-.87,4.81-3.06,5.36-6.07,0,0,0,0,0,0,.05-.27.1-.56.13-.85h0l0-.27c0-.25.05-.51.06-.78l0-.4c0-.41,0-.82,0-1.25h0c0-.37,0-.74,0-1.09s0-.45-.05-.67,0-.25,0-.38c0-.29-.06-.57-.1-.85,0,0,0-.09,0-.14-.06-.36-.12-.71-.2-1h0a10,10,0,0,0-.34-1.1h0a6.86,6.86,0,0,0-1.58-2.56h0a6.36,6.36,0,0,0-.89-.72v0c-.13-.09-.28-.16-.42-.24l-.25-.15-.56-.26-.37-.15-.57-.19L12.82,45c-.19,0-.39-.09-.59-.12l-.62-.1-.3-.05h0l-.94-.08h0c-.33,0-.67,0-1,0h0c-.43,0-.84,0-1.24,0l-.32,0c-.3,0-.59.06-.86.09l-.28,0c-.32.05-.63.12-.93.19l-.07,0C2.32,45.92.83,48.11.28,51.11v0c0,.28-.1.57-.13.85h0c0,.09,0,.19,0,.28,0,.25,0,.51-.07.77l0,.41c0,.41,0,.82,0,1.25H0c0,.37,0,.74,0,1.1s0,.45.05.67,0,.25,0,.37c0,.29.07.58.1.86"/><path class="b" d="M.19,35.37a.68.68,0,0,1,0,.14c.06.36.12.71.2,1.05h0c.1.38.21.74.34,1.1h0a6.76,6.76,0,0,0,1.59,2.56h0a7,7,0,0,0,.89.72v0c.13.09.28.16.42.24l.25.15.56.26.37.15.58.19.49.13.58.12.62.1.3,0h0l1,.08h0l1,0h0c.43,0,.84,0,1.24,0l.32,0c.3,0,.59-.06.87-.09l.27-.05L13,42l.07,0c3.32-.88,4.81-3.07,5.36-6.08h0c.05-.28.1-.57.13-.86v0l0-.28c0-.25.05-.51.06-.77l0-.41c0-.41,0-.82,0-1.25h0c0-.37,0-.74,0-1.1s0-.45-.05-.67,0-.25,0-.37c0-.29-.06-.58-.1-.86,0,0,0-.09,0-.13-.06-.37-.12-.72-.2-1.06h0a9.23,9.23,0,0,0-.34-1.09h0a6.86,6.86,0,0,0-1.58-2.56s0,0,0,0a5.77,5.77,0,0,0-.89-.73,0,0,0,0,0,0,0c-.13-.09-.28-.17-.42-.25l-.25-.15-.56-.25L13.88,23l-.57-.18-.49-.14-.59-.12-.62-.1-.3-.05s0,0,0,0c-.31,0-.62-.07-.94-.08h0q-.49,0-1,0h0c-.43,0-.84,0-1.24,0l-.32,0-.86.1-.28,0c-.32.06-.63.12-.93.2l-.07,0C2.32,23.61.83,25.8.28,28.81h0c0,.28-.1.57-.13.86h0c0,.08,0,.18,0,.27,0,.25,0,.51-.07.78l0,.4c0,.41,0,.82,0,1.25H0c0,.37,0,.73,0,1.09s0,.45.05.67,0,.25,0,.38c0,.29.07.57.1.85"/></g></svg>
