<?xml version="1.0" encoding="UTF-8"?>
<svg width="20px" height="20px" viewBox="0 0 20 20" version="1.1" xmlns="http://www.w3.org/2000/svg" xmlns:xlink="http://www.w3.org/1999/xlink">
    <!-- Generator: Sketch 47.1 (45422) - http://www.bohemiancoding.com/sketch -->
    <title>Combined Shape</title>
    <desc>Created with Sketch.</desc>
    <defs></defs>
    <g id="Page-1" stroke="none" stroke-width="1" fill="none" fill-rule="evenodd">
        <path d="M18.6066017,2 L18.6066017,2 L20,2 L20,10 L18,10 L18,3.43502884 L8.41421356,13.0208153 L7,11.6066017 L16.6066017,2 L10,2 L10,0 L20,0 L20,2 L18.6066017,2 Z M0,0 L7,0 L7,2 L0,2 L0,0 Z M0,18 L20,18 L20,20 L0,20 L0,18 Z M-4.4408921e-16,18 L5.35628229e-16,2 L2,2 L2,18 L-4.4408921e-16,18 Z M18,18 L18,13 L20,13 L20,18 L18,18 Z" id="Combined-Shape" fill="#231F20"></path>
    </g>
</svg>