<svg xmlns="http://www.w3.org/2000/svg" viewBox="0 0 18 14.63"><defs><style>.cls-1{fill:#231f20;}</style></defs><title>twitter</title><g id="Layer_2" data-name="Layer 2"><g id="Layer_1-2" data-name="Layer 1"><path class="cls-1" d="M18,1.73a7.47,7.47,0,0,1-2.12.58,3.69,3.69,0,0,0,1.62-2,7.53,7.53,0,0,1-2.34.9A3.69,3.69,0,0,0,8.77,3.69a3.86,3.86,0,0,0,.09.84A10.46,10.46,0,0,1,1.25.67,3.7,3.7,0,0,0,2.4,5.61,3.67,3.67,0,0,1,.72,5.14v.05a3.7,3.7,0,0,0,3,3.62,3.79,3.79,0,0,1-1,.13A3.11,3.11,0,0,1,2,8.87a3.69,3.69,0,0,0,3.45,2.57A7.44,7.44,0,0,1,.88,13,8.49,8.49,0,0,1,0,13a10.41,10.41,0,0,0,5.66,1.66A10.44,10.44,0,0,0,16.17,4.12c0-.16,0-.32,0-.48A7.6,7.6,0,0,0,18,1.73"/></g></g></svg>