<svg xmlns="http://www.w3.org/2000/svg" viewBox="0 0 231.01 235.57"><defs><style>.a{fill:none;}.b{clip-path:url(#a);}.c{clip-path:url(#b);}.d{opacity:0.7;}.e{clip-path:url(#c);}.f{fill:#fff;}.g{opacity:0.9;}.h{clip-path:url(#d);}</style><clipPath id="a" transform="translate(-81.54 -63.42)"><path class="a" d="M81.54 63.46h231v235.57h-231z"/></clipPath><clipPath id="b" transform="translate(-81.54 -63.42)"><path class="a" d="M81.54 63.46h231v235.57h-231z"/></clipPath><clipPath id="c" transform="translate(-81.54 -63.42)"><path class="a" d="M0 95.31h293.37v212.74H0z"/></clipPath><clipPath id="d" transform="translate(-81.54 -63.42)"><path class="a" d="M48.08 0h346v264.8h-346z"/></clipPath></defs><title>zoom</title><g class="b c"><path class="d e f" d="M128.93 144.5c0-.28-.07-.6-.12-.92-.38-2.51-.84-5-1.4-7.36h-.06a66.09 66.09 0 0 0-2.35-7.65h.14a47.83 47.83 0 0 0-11.07-17.84v.11a42.52 42.52 0 0 0-6.17-5c0-.06.05-.06.08-.1-.92-.64-2-1.13-2.94-1.74-.6-.32-1.17-.71-1.78-1-1.23-.63-2.55-1.21-3.89-1.8-.86-.35-1.7-.71-2.6-1.06-1.28-.46-2.62-.89-4-1.28-1.11-.35-2.24-.63-3.42-1s-2.68-.56-4.08-.84-2.84-.5-4.32-.67c-.72-.11-1.36-.29-2.1-.36l.07.11c-2.12-.24-4.29-.46-6.58-.56v-.07c-2.3-.11-4.66-.18-7.13-.18-3 0-5.91.11-8.69.29l-2.23.21c-2.07.18-4.08.39-6 .67l-1.93.32c-2.25.39-4.4.82-6.45 1.35a3.51 3.51 0 0 0-.51.14c-23.13 6.09-33.5 21.38-37.36 42.33l.07.11q-.54 2.92-.92 5.94s0-.07-.05-.1c-.08.63-.1 1.3-.17 1.94-.19 1.78-.34 3.58-.47 5.38-.06 1-.14 1.91-.18 2.87-.14 2.83-.23 5.69-.23 8.67v.06c0 2.59 0 5.14.14 7.61.07 1.59.2 3.15.31 4.71.06.85.1 1.73.17 2.58.19 2 .44 4 .72 6 0 .28.07.6.12.92.39 2.51.84 5 1.4 7.36a.07.07 0 0 1 .07 0 70.27 70.27 0 0 0 2.34 7.65h-.14a47.83 47.83 0 0 0 11.07 17.84v-.11a42.52 42.52 0 0 0 6.17 5 1 1 0 0 1-.07.1c.91.64 1.95 1.13 2.93 1.7.6.35 1.17.71 1.79 1.06 1.22.63 2.55 1.21 3.89 1.77.85.39 1.69.74 2.59 1.11 1.28.45 2.63.88 4 1.27 1.11.32 2.24.63 3.41.92 1.32.32 2.69.6 4.09.88s2.84.5 4.31.68c.72.1 1.37.28 2.11.35l-.07-.11c2.11.24 4.29.46 6.58.56v.07c2.3.11 4.66.18 7.13.18 3 0 5.91-.11 8.68-.28l2.24-.22c2.07-.17 4.08-.39 6-.67l1.93-.32c2.26-.39 4.41-.82 6.46-1.35a3.4 3.4 0 0 0 .5-.14c23.13-6.09 33.5-21.38 37.36-42.33l-.06-.11q.54-2.92.92-5.94l.05.07c.07-.61.1-1.28.16-1.91.2-1.78.35-3.58.47-5.38.06-1 .14-1.91.19-2.86.14-2.84.22-5.74.22-8.71 0-2.58-.05-5.14-.15-7.61-.06-1.59-.19-3.15-.31-4.71-.06-.84-.09-1.73-.17-2.58-.18-2-.44-4-.72-6"/><path class="g h f" d="M229.09 67.49c-.06-.43-.1-.85-.16-1.28-.54-3.46-1.18-6.83-2-10.08h-.09a90.6 90.6 0 0 0-3.29-10.44h.2a64.7 64.7 0 0 0-15.54-24.45l-.06.14a61.12 61.12 0 0 0-8.66-6.9.59.59 0 0 1 .11-.14c-1.28-.85-2.75-1.56-4.12-2.34-.83-.5-1.63-1-2.5-1.41-1.73-.89-3.59-1.7-5.46-2.48-1.2-.49-2.39-1-3.65-1.45-1.78-.63-3.68-1.24-5.59-1.77-1.57-.46-3.15-.89-4.8-1.28-1.85-.46-3.76-.85-5.73-1.21s-4-.67-6.06-.92c-1-.14-1.91-.35-3-.5a.5.5 0 0 0 .1.14c-3-.32-6-.61-9.23-.78V.27c-3.23-.14-6.54-.28-10-.28h-.05c-4.27 0-8.29.17-12.19.43-1.08.06-2.09.17-3.14.28q-4.36.37-8.43 1c-.91.11-1.82.25-2.71.39-3.15.53-6.19 1.17-9.06 1.88a4.89 4.89 0 0 1-.71.14c-32.47 8.39-47 29.3-52.46 58a.5.5 0 0 0 .1.14c-.51 2.69-1 5.42-1.3 8.17a.61.61 0 0 1-.07-.14c-.11.84-.14 1.77-.24 2.65-.27 2.4-.49 4.88-.66 7.39-.09 1.3-.2 2.58-.26 3.9-.19 3.89-.31 7.86-.31 11.92v.07c0 3.54.07 7 .22 10.44.09 2.19.27 4.29.43 6.44.09 1.17.14 2.37.24 3.54.26 2.79.63 5.48 1 8.17.05.43.09.89.16 1.28.53 3.47 1.18 6.83 2 10.08h.09a90.61 90.61 0 0 0 3.3 10.44h-.21a64.87 64.87 0 0 0 15.55 24.46 1 1 0 0 1 .06-.14 60.61 60.61 0 0 0 8.66 6.9.44.44 0 0 1-.11.14c1.27.85 2.75 1.56 4.11 2.34.83.5 1.64 1 2.51 1.41 1.73.89 3.59 1.7 5.46 2.48 1.2.5 2.38 1 3.64 1.45 1.79.63 3.68 1.24 5.6 1.77 1.56.46 3.14.89 4.79 1.28 1.85.46 3.77.85 5.73 1.21s4 .67 6.07 1c1 .11 1.91.32 3 .46a.5.5 0 0 0-.11-.14c3 .33 6 .61 9.24.78v.07c3.23.14 6.54.28 10 .28 4.28 0 8.3-.17 12.2-.43 1.07-.06 2.09-.17 3.13-.28 2.91-.24 5.73-.56 8.43-1 .92-.11 1.82-.25 2.71-.39 3.16-.53 6.2-1.13 9.07-1.88.23 0 .47-.11.7-.14 32.48-8.39 47-29.3 52.47-58a.5.5 0 0 0-.1-.14c.51-2.69.94-5.41 1.3-8.17a.53.53 0 0 1 .07.14c.11-.85.14-1.78.24-2.65.27-2.41.49-4.89.66-7.4.08-1.3.19-2.58.25-3.9.19-3.89.32-7.86.32-11.92 0-3.57-.06-7-.21-10.47-.09-2.19-.27-4.29-.43-6.44-.08-1.17-.14-2.37-.24-3.54-.25-2.79-.62-5.48-1-8.17"/></g></svg>
